<?xml version="1.0" encoding="UTF-8" standalone="no"?>
<svg
   xmlns:dc="http://purl.org/dc/elements/1.1/"
   xmlns:cc="http://creativecommons.org/ns#"
   xmlns:rdf="http://www.w3.org/1999/02/22-rdf-syntax-ns#"
   xmlns:svg="http://www.w3.org/2000/svg"
   xmlns="http://www.w3.org/2000/svg"
   xmlns:sodipodi="http://sodipodi.sourceforge.net/DTD/sodipodi-0.dtd"
   xmlns:inkscape="http://www.inkscape.org/namespaces/inkscape"
   viewBox="0 0 130 99.999998"
   height="100"
   width="130"
   xml:space="preserve"
   version="1.1"
   id="svg2"
   inkscape:version="0.91 r13725"
   sodipodi:docname="howknow.svg"><sodipodi:namedview
     pagecolor="#ffffff"
     bordercolor="#666666"
     borderopacity="1"
     objecttolerance="10"
     gridtolerance="10"
     guidetolerance="10"
     inkscape:pageopacity="0"
     inkscape:pageshadow="2"
     inkscape:window-width="1600"
     inkscape:window-height="836"
     id="namedview48"
     showgrid="false"
     inkscape:zoom="2.9413139"
     inkscape:cx="50.88497"
     inkscape:cy="40.118126"
     inkscape:window-x="0"
     inkscape:window-y="27"
     inkscape:window-maximized="1"
     inkscape:current-layer="svg2" /><metadata
     id="metadata8"><rdf:RDF><cc:Work
         rdf:about=""><dc:format>image/svg+xml</dc:format><dc:type
           rdf:resource="http://purl.org/dc/dcmitype/StillImage" /><dc:title></dc:title></cc:Work></rdf:RDF></metadata><defs
     id="defs6"><clipPath
       id="clipPath16"
       clipPathUnits="userSpaceOnUse"><path
         id="path18"
         d="m 0,841.89 595.28,0 L 595.28,0 0,0 0,841.89 Z"
         inkscape:connector-curvature="0" /></clipPath></defs><g
     transform="matrix(1.6136841,0,0,-1.6136841,0.18798969,101.79033)"
     id="g10"><g
       transform="matrix(0.24842863,0,0,0.24842863,-35.475722,-73.322981)"
       id="g12"><g
         clip-path="url(#clipPath16)"
         id="g14"><g
           transform="translate(241.7803,471.3965)"
           id="g20"><path
             id="path22"
             style="fill:#666364;fill-opacity:1;fill-rule:evenodd;stroke:none"
             d="m 0,0 75.898,8.135 c 3.625,0.461 7.963,-0.762 10.661,-2.23 l 71.92,-39.43 c 4.511,-2.849 4.331,-5.77 2.022,-8.388 L 125.45,-85.272 c -1.216,-1.36 -2.021,-2.158 -4.142,-2.798 l -69.764,-21.535 c -5.589,-1.345 -11.407,0.733 -14.558,2.661 l -65.614,45.861 -1.029,1.662 -0.718,1.654 -0.03,1.791 0.438,1.791 18.293,47.134 C -10.301,-2.388 -6.984,-0.69 0,0"
             inkscape:connector-curvature="0" /></g><g
           transform="translate(214.8271,502.7773)"
           id="g24"><path
             id="path26"
             style="fill:#393536;fill-opacity:1;fill-rule:evenodd;stroke:none"
             d="m 0,0 60.953,32.204 c 2.885,1.638 6.942,1.149 9.696,-0.13 l 73.62,-34.504 c 4.74,-2.698 5.574,-6.754 4.516,-11.02 l -14.831,-69.491 c -0.555,-2.214 -0.972,-3.531 -2.532,-5.004 L 80.13,-136.93 c -4.243,-3.402 -9.826,-2.136 -13.12,-0.359 l -70.483,45.128 -1.417,2.007 -1.166,2.091 -0.625,2.468 -0.237,2.582 -0.512,70.073 C -7.839,-6.142 -5.631,-2.875 0,0"
             inkscape:connector-curvature="0" /></g><g
           transform="translate(214.8271,502.7773)"
           id="g28"><path
             id="path30"
             style="fill:none;stroke:#393536;stroke-width:2.47799993;stroke-linecap:butt;stroke-linejoin:miter;stroke-miterlimit:22.9260006;stroke-dasharray:none;stroke-opacity:1"
             d="m 0,0 60.953,32.204 c 2.885,1.638 6.942,1.15 9.696,-0.13 l 73.62,-34.504 c 4.74,-2.698 5.574,-6.754 4.516,-11.02 l -14.831,-69.491 c -0.555,-2.214 -0.972,-3.531 -2.532,-5.004 L 80.13,-136.93 c -4.243,-3.402 -9.826,-2.136 -13.12,-0.359 l -70.483,45.128 -1.417,2.007 -1.166,2.091 -0.625,2.468 -0.237,2.582 -0.512,70.073 C -7.839,-6.142 -5.631,-2.875 0,0 Z"
             inkscape:connector-curvature="0" /></g><g
           transform="translate(313.9893,458.3623)"
           id="g32"><path
             id="path34"
             style="fill:#393536;fill-opacity:1;fill-rule:evenodd;stroke:none"
             d="m 0,0 39.345,28.98 c 6.884,5.064 11.738,8.603 8.653,-5.662 L 38.561,-20.241 C 36.201,-31.152 35.36,-40.77 26.678,-48.861 l -40.662,-38.216 c -8.63,-8.113 -7.976,-1.604 -6.343,9.431 l 7.215,48.917 C -11.486,-17.694 -10.143,-7.466 0,0"
             inkscape:connector-curvature="0" /></g><g
           transform="translate(313.9893,458.3633)"
           id="g36"><path
             id="path38"
             style="fill:none;stroke:#393536;stroke-width:1.82799995;stroke-linecap:butt;stroke-linejoin:miter;stroke-miterlimit:22.9260006;stroke-dasharray:none;stroke-opacity:1"
             d="m 0,0 39.347,28.979 c 6.882,5.064 11.736,8.603 8.651,-5.662 l -9.437,-43.559 c -2.36,-10.911 -3.201,-20.529 -11.883,-28.62 l -40.662,-38.216 c -8.63,-8.113 -7.976,-1.604 -6.343,9.431 l 7.215,48.918 C -11.486,-17.695 -10.143,-7.467 0,0 Z"
             inkscape:connector-curvature="0" /></g><g
           transform="translate(281.7949,457.5498)"
           id="g40"><path
             id="path42"
             style="fill:#bdbcbc;fill-opacity:1;fill-rule:evenodd;stroke:none"
             d="m 0,0 -56.947,31.037 c -13.538,7.373 -17.428,8.048 -17.335,-6.661 l 0.331,-52.767 c 0.064,-11.25 -3.258,-13.86 8.559,-21.765 l 56.86,-36.404 c 17.227,-11.033 18.919,-1.718 20.342,9.344 l 7.272,49.308 C 21.031,-14.695 15.369,-8.38 0,0"
             inkscape:connector-curvature="0" /></g><g
           transform="translate(281.7949,457.5498)"
           id="g44"><path
             id="path46"
             style="fill:none;stroke:#393536;stroke-width:1.33500004;stroke-linecap:butt;stroke-linejoin:miter;stroke-miterlimit:22.9260006;stroke-dasharray:none;stroke-opacity:1"
             d="m 0,0 -56.947,31.037 c -13.538,7.373 -17.428,8.048 -17.335,-6.661 l 0.331,-52.767 c 0.064,-11.25 -3.258,-13.86 8.559,-21.765 l 56.86,-36.404 c 17.227,-11.033 18.919,-1.718 20.342,9.344 l 7.272,49.308 C 21.031,-14.695 15.369,-8.38 0,0 Z"
             inkscape:connector-curvature="0" /></g><g
           transform="translate(214.8271,502.7773)"
           id="g48"><path
             id="path50"
             style="fill:none;stroke:#393536;stroke-width:2.47799993;stroke-linecap:butt;stroke-linejoin:miter;stroke-miterlimit:22.9260006;stroke-dasharray:none;stroke-opacity:1"
             d="m 0,0 60.953,32.204 c 2.885,1.638 6.942,1.15 9.696,-0.13 l 73.62,-34.504 c 4.74,-2.698 5.574,-6.754 4.516,-11.02 l -14.831,-69.491 c -0.555,-2.214 -0.972,-3.531 -2.532,-5.004 L 80.13,-136.93 c -4.243,-3.402 -9.826,-2.136 -13.12,-0.359 l -70.483,45.128 -1.417,2.007 -1.166,2.091 -0.625,2.468 -0.237,2.582 -0.512,70.073 C -7.839,-6.142 -5.631,-2.875 0,0 Z"
             inkscape:connector-curvature="0" /></g><g
           transform="translate(282.2549,458.2031)"
           id="g52"><path
             id="path54"
             style="fill:#ffffff;fill-opacity:1;fill-rule:evenodd;stroke:none"
             d="m 0,0 -58.018,31.613 c -13.343,7.273 -15.076,9.962 -1.914,16.917 l 46.12,24.355 c 10.056,5.324 11.424,7.46 23.053,0.937 L 65.548,47.432 C 84.076,38.741 79.688,36.347 71.094,29.246 L 29.447,-1.395 C 22.729,-6.069 14.68,-7.919 0,0"
             inkscape:connector-curvature="0" /></g><g
           transform="translate(282.2549,458.2031)"
           id="g56"><path
             id="path58"
             style="fill:none;stroke:#393536;stroke-width:1.33700001;stroke-linecap:butt;stroke-linejoin:miter;stroke-miterlimit:22.9260006;stroke-dasharray:none;stroke-opacity:1"
             d="m 0,0 -58.018,31.613 c -13.343,7.273 -15.076,9.962 -1.914,16.918 l 46.12,24.355 c 10.056,5.323 11.424,7.459 23.053,0.936 L 65.548,47.432 C 84.076,38.741 79.688,36.347 71.094,29.246 L 29.447,-1.395 C 22.729,-6.069 14.68,-7.919 0,0 Z"
             inkscape:connector-curvature="0" /></g><g
           transform="translate(289.6641,312.585)"
           id="g60"><path
             id="path62"
             style="fill:#393536;fill-opacity:1;fill-rule:nonzero;stroke:none"
             d="m 0,0 c -0.453,-0.151 -0.895,-0.23 -1.339,-0.23 -1.258,0 -2.324,0.445 -3.201,1.344 l -10.365,10.631 -2.496,-2.431 0,-8.35 c 0,-0.799 -0.771,-1.194 -2.33,-1.194 -1.346,0 -2.022,0.395 -2.022,1.194 l 0,25.534 c 0,0.949 0.748,1.424 2.244,1.424 1.411,0 2.108,-0.475 2.108,-1.424 l 0,-11.609 12.085,11.667 c 0.977,0.913 2.1,1.366 3.387,1.366 0.439,0 0.907,-0.079 1.408,-0.259 0.626,-0.223 0.952,-0.517 0.952,-0.877 0,-0.158 -0.079,-0.316 -0.246,-0.468 L -11.826,14.63 0.833,1.561 C 0.97,1.417 1.042,1.258 1.042,1.057 1.042,0.582 0.69,0.223 0,0 m 29.216,-0.044 c -1.317,0 -2.87,1.173 -4.647,3.496 l -12.479,16.429 0,-18.385 c 0,-0.511 -0.295,-0.935 -0.877,-1.245 -0.483,-0.266 -0.972,-0.402 -1.483,-0.402 -1.222,0 -1.84,0.547 -1.84,1.647 l 0,25.19 c 0,0.962 0.467,1.445 1.408,1.445 1.281,0 2.569,-0.863 3.878,-2.59 l 13.148,-17.392 0,18.543 c 0,1.065 0.669,1.597 2.015,1.597 1.46,0 2.186,-0.532 2.186,-1.597 l 0,-25.383 c 0,-0.907 -0.431,-1.353 -1.309,-1.353 m 29.836,1.359 c -2.144,-1.157 -4.459,-1.733 -6.919,-1.733 -2.635,0 -4.999,0.611 -7.1,1.827 -2.158,1.259 -3.804,3.014 -4.948,5.287 -1.079,2.187 -1.619,4.495 -1.619,6.941 0,4.388 1.13,7.905 3.381,10.538 2.438,2.841 5.877,4.265 10.293,4.265 2.618,0 4.963,-0.597 7.042,-1.769 2.158,-1.216 3.797,-2.949 4.926,-5.193 1.13,-2.23 1.699,-4.741 1.699,-7.517 0,-2.697 -0.54,-5.136 -1.619,-7.308 C 63.001,4.301 61.296,2.518 59.052,1.315 M 56.98,23.376 c -1.423,0.863 -3.028,1.295 -4.819,1.295 -3.193,0 -5.581,-1.108 -7.164,-3.309 -1.381,-1.921 -2.064,-4.503 -2.064,-7.768 0,-3.014 0.741,-5.445 2.23,-7.28 1.633,-1.992 3.948,-2.984 6.948,-2.984 3.072,0 5.423,1.05 7.035,3.15 1.467,1.877 2.194,4.38 2.194,7.502 0,4.474 -1.461,7.603 -4.36,9.394 m 49.768,3.446 -6.999,-25.801 c -0.251,-0.907 -0.906,-1.352 -1.971,-1.352 -1.129,0 -1.855,0.445 -2.201,1.338 L 89.018,17.492 82.688,0.999 c -0.353,-0.92 -1.136,-1.381 -2.337,-1.381 -1.122,0 -1.806,0.468 -2.058,1.403 l -6.826,25.836 c -0.029,0.116 -0.043,0.209 -0.043,0.289 0,0.748 0.683,1.122 2.043,1.122 1.402,0 2.215,-0.425 2.43,-1.259 l 4.892,-19.385 5.899,15.472 c 0.323,0.87 1.179,1.309 2.567,1.309 1.323,0 2.158,-0.439 2.489,-1.309 l 5.797,-15.321 4.877,19.234 c 0.216,0.834 0.94,1.259 2.193,1.259 0.425,0 0.864,-0.086 1.325,-0.274 0.596,-0.23 0.891,-0.532 0.891,-0.899 0,-0.108 -0.021,-0.195 -0.079,-0.273"
             inkscape:connector-curvature="0" /></g><g
           transform="translate(289.6641,312.585)"
           id="g64"><path
             id="path66"
             style="fill:none;stroke:#393536;stroke-width:0.85299999;stroke-linecap:butt;stroke-linejoin:miter;stroke-miterlimit:22.9260006;stroke-dasharray:none;stroke-opacity:1"
             d="m 0,0 c -0.453,-0.151 -0.895,-0.23 -1.339,-0.23 -1.258,0 -2.324,0.445 -3.201,1.344 l -10.365,10.631 -2.496,-2.431 0,-8.35 c 0,-0.799 -0.771,-1.194 -2.33,-1.194 -1.346,0 -2.022,0.395 -2.022,1.194 l 0,25.534 c 0,0.949 0.748,1.424 2.244,1.424 1.411,0 2.108,-0.475 2.108,-1.424 l 0,-11.609 12.085,11.667 c 0.977,0.913 2.1,1.366 3.387,1.366 0.439,0 0.907,-0.079 1.408,-0.259 0.626,-0.223 0.952,-0.517 0.952,-0.877 0,-0.158 -0.079,-0.316 -0.246,-0.468 L -11.826,14.63 0.833,1.561 C 0.97,1.417 1.042,1.258 1.042,1.057 1.042,0.582 0.69,0.223 0,0 Z m 29.216,-0.044 c -1.317,0 -2.87,1.173 -4.647,3.496 l -12.479,16.429 0,-18.385 c 0,-0.511 -0.295,-0.935 -0.877,-1.245 -0.483,-0.266 -0.972,-0.402 -1.483,-0.402 -1.222,0 -1.84,0.547 -1.84,1.647 l 0,25.19 c 0,0.962 0.467,1.445 1.408,1.445 1.281,0 2.569,-0.863 3.878,-2.59 l 13.148,-17.392 0,18.543 c 0,1.065 0.669,1.597 2.015,1.597 1.46,0 2.186,-0.532 2.186,-1.597 l 0,-25.383 c 0,-0.907 -0.431,-1.353 -1.309,-1.353 z m 29.836,1.359 c -2.144,-1.157 -4.459,-1.733 -6.919,-1.733 -2.635,0 -4.999,0.611 -7.1,1.827 -2.158,1.259 -3.804,3.014 -4.948,5.287 -1.079,2.187 -1.619,4.495 -1.619,6.941 0,4.388 1.13,7.905 3.381,10.538 2.438,2.841 5.877,4.265 10.293,4.265 2.618,0 4.963,-0.597 7.042,-1.769 2.158,-1.216 3.797,-2.949 4.926,-5.193 1.13,-2.23 1.699,-4.741 1.699,-7.517 0,-2.697 -0.54,-5.136 -1.619,-7.308 C 63.001,4.301 61.296,2.518 59.052,1.315 Z M 56.98,23.376 c -1.423,0.863 -3.028,1.295 -4.819,1.295 -3.193,0 -5.581,-1.108 -7.164,-3.309 -1.381,-1.921 -2.064,-4.503 -2.064,-7.768 0,-3.014 0.741,-5.445 2.23,-7.28 1.633,-1.992 3.948,-2.984 6.948,-2.984 3.072,0 5.423,1.05 7.035,3.15 1.467,1.877 2.194,4.38 2.194,7.502 0,4.474 -1.461,7.603 -4.36,9.394 z m 49.768,3.446 -6.999,-25.801 c -0.251,-0.907 -0.906,-1.352 -1.971,-1.352 -1.129,0 -1.855,0.445 -2.201,1.338 L 89.018,17.492 82.688,0.999 c -0.353,-0.92 -1.136,-1.381 -2.337,-1.381 -1.122,0 -1.806,0.468 -2.058,1.403 l -6.826,25.836 c -0.029,0.116 -0.043,0.209 -0.043,0.289 0,0.748 0.683,1.122 2.043,1.122 1.402,0 2.215,-0.425 2.43,-1.259 l 4.892,-19.385 5.899,15.472 c 0.323,0.87 1.179,1.309 2.567,1.309 1.323,0 2.158,-0.439 2.489,-1.309 l 5.797,-15.321 4.877,19.234 c 0.216,0.834 0.94,1.259 2.193,1.259 0.425,0 0.864,-0.086 1.325,-0.274 0.596,-0.23 0.891,-0.532 0.891,-0.899 0,-0.108 -0.021,-0.195 -0.079,-0.273 z"
             inkscape:connector-curvature="0" /></g><g
           transform="translate(166.7222,312.2754)"
           id="g68"><path
             id="path70"
             style="fill:#393536;fill-opacity:1;fill-rule:nonzero;stroke:none"
             d="m 0,0 c -1.337,0 -2.022,0.475 -2.022,1.432 l 0,12.321 -13.441,0 0,-12.321 c 0,-0.994 -0.758,-1.483 -2.275,-1.483 -1.388,0 -2.086,0.489 -2.086,1.489 l 0,25.37 c 0,0.978 0.69,1.467 2.072,1.467 1.526,0 2.289,-0.489 2.289,-1.467 l 0,-9.186 13.441,0 0,9.186 c 0,0.913 0.75,1.366 2.23,1.366 1.425,0 2.131,-0.453 2.131,-1.366 l 0,-25.376 C 2.339,0.475 1.562,0 0,0 m 31.189,1.625 c -2.143,-1.157 -4.452,-1.733 -6.927,-1.733 -2.626,0 -4.985,0.611 -7.094,1.82 -2.157,1.259 -3.803,3.02 -4.947,5.294 -1.079,2.186 -1.618,4.495 -1.618,6.94 0,4.396 1.129,7.906 3.388,10.538 2.43,2.841 5.861,4.266 10.293,4.266 2.616,0 4.955,-0.59 7.034,-1.77 2.159,-1.215 3.797,-2.942 4.935,-5.186 1.128,-2.23 1.69,-4.747 1.69,-7.517 0,-2.704 -0.539,-5.142 -1.618,-7.307 C 35.145,4.61 33.44,2.827 31.189,1.625 m -2.071,22.068 c -1.425,0.856 -3.022,1.287 -4.821,1.287 -3.193,0 -5.581,-1.1 -7.171,-3.308 -1.365,-1.921 -2.049,-4.503 -2.049,-7.761 0,-3.021 0.733,-5.445 2.223,-7.287 1.639,-1.992 3.955,-2.992 6.948,-2.992 3.078,0 5.429,1.057 7.04,3.158 1.462,1.877 2.189,4.38 2.189,7.502 0,4.474 -1.461,7.603 -4.359,9.401 M 78.891,27.132 71.885,1.33 c -0.252,-0.898 -0.906,-1.345 -1.97,-1.345 -1.123,0 -1.856,0.447 -2.201,1.338 L 61.154,17.802 54.825,1.309 c -0.346,-0.92 -1.13,-1.381 -2.339,-1.381 -1.115,0 -1.798,0.468 -2.048,1.402 l -6.834,25.837 c -0.029,0.123 -0.045,0.209 -0.045,0.288 0,0.748 0.684,1.122 2.045,1.122 1.401,0 2.214,-0.417 2.438,-1.259 l 4.882,-19.384 5.899,15.471 c 0.324,0.878 1.18,1.31 2.561,1.31 1.339,0 2.173,-0.432 2.495,-1.31 l 5.791,-15.32 4.883,19.233 c 0.218,0.842 0.95,1.259 2.196,1.259 0.423,0 0.869,-0.086 1.329,-0.273 0.591,-0.223 0.885,-0.533 0.885,-0.9 0,-0.107 -0.021,-0.194 -0.072,-0.272"
             inkscape:connector-curvature="0" /></g><g
           transform="translate(166.7222,312.2754)"
           id="g72"><path
             id="path74"
             style="fill:none;stroke:#393536;stroke-width:0.85299999;stroke-linecap:butt;stroke-linejoin:miter;stroke-miterlimit:22.9260006;stroke-dasharray:none;stroke-opacity:1"
             d="m 0,0 c -1.337,0 -2.022,0.475 -2.022,1.432 l 0,12.321 -13.441,0 0,-12.321 c 0,-0.994 -0.758,-1.483 -2.275,-1.483 -1.388,0 -2.086,0.489 -2.086,1.489 l 0,25.37 c 0,0.978 0.69,1.467 2.072,1.467 1.526,0 2.289,-0.489 2.289,-1.467 l 0,-9.186 13.441,0 0,9.186 c 0,0.913 0.75,1.366 2.23,1.366 1.425,0 2.131,-0.453 2.131,-1.366 l 0,-25.376 C 2.339,0.475 1.562,0 0,0 Z m 31.189,1.625 c -2.143,-1.157 -4.452,-1.733 -6.927,-1.733 -2.626,0 -4.985,0.611 -7.094,1.82 -2.157,1.259 -3.803,3.02 -4.947,5.294 -1.079,2.186 -1.618,4.495 -1.618,6.94 0,4.396 1.129,7.906 3.388,10.538 2.43,2.841 5.861,4.266 10.293,4.266 2.616,0 4.955,-0.59 7.034,-1.77 2.159,-1.215 3.797,-2.942 4.935,-5.186 1.128,-2.23 1.69,-4.747 1.69,-7.517 0,-2.704 -0.539,-5.142 -1.618,-7.307 C 35.145,4.61 33.44,2.827 31.189,1.625 Z m -2.071,22.068 c -1.425,0.856 -3.022,1.287 -4.821,1.287 -3.193,0 -5.581,-1.1 -7.171,-3.308 -1.365,-1.921 -2.049,-4.503 -2.049,-7.761 0,-3.021 0.733,-5.445 2.223,-7.287 1.639,-1.992 3.955,-2.992 6.948,-2.992 3.078,0 5.429,1.057 7.04,3.158 1.462,1.877 2.189,4.38 2.189,7.502 0,4.474 -1.461,7.603 -4.359,9.401 z M 78.891,27.132 71.885,1.33 c -0.252,-0.898 -0.906,-1.345 -1.97,-1.345 -1.123,0 -1.856,0.447 -2.201,1.338 L 61.154,17.802 54.825,1.309 c -0.346,-0.92 -1.13,-1.381 -2.339,-1.381 -1.115,0 -1.798,0.468 -2.048,1.402 l -6.834,25.837 c -0.029,0.123 -0.045,0.209 -0.045,0.288 0,0.748 0.684,1.122 2.045,1.122 1.401,0 2.214,-0.417 2.438,-1.259 l 4.882,-19.384 5.899,15.471 c 0.324,0.878 1.18,1.31 2.561,1.31 1.339,0 2.173,-0.432 2.495,-1.31 l 5.791,-15.32 4.883,19.233 c 0.218,0.842 0.95,1.259 2.196,1.259 0.423,0 0.869,-0.086 1.329,-0.273 0.591,-0.223 0.885,-0.533 0.885,-0.9 0,-0.107 -0.021,-0.194 -0.072,-0.272 z"
             inkscape:connector-curvature="0" /></g><g
           transform="translate(432.1514,321.0791)"
           id="g76"><path
             id="path78"
             style="fill:#393536;fill-opacity:1;fill-rule:nonzero;stroke:none"
             d="m 0,0 c 0,-1.77 -0.479,-3.352 -1.437,-4.747 -0.942,-1.402 -2.323,-2.496 -4.143,-3.28 -1.826,-0.784 -3.984,-1.18 -6.474,-1.18 -2.992,0 -5.459,0.532 -7.393,1.611 -1.381,0.784 -2.511,1.821 -3.366,3.108 -0.864,1.301 -1.295,2.568 -1.295,3.798 0,0.705 0.258,1.309 0.776,1.812 0.511,0.511 1.18,0.777 1.985,0.777 0.648,0 1.195,-0.209 1.641,-0.604 0.438,-0.389 0.819,-0.971 1.15,-1.755 0.381,-0.921 0.791,-1.69 1.238,-2.302 0.453,-0.619 1.092,-1.129 1.9,-1.525 0.818,-0.402 1.897,-0.604 3.223,-0.604 1.818,0 3.293,0.403 4.428,1.208 1.13,0.799 1.699,1.821 1.699,3.05 0,0.957 -0.31,1.734 -0.921,2.33 -0.619,0.59 -1.417,1.043 -2.389,1.353 -0.964,0.324 -2.258,0.669 -3.884,1.036 -2.186,0.475 -4.02,1.043 -5.495,1.697 -1.46,0.648 -2.626,1.539 -3.481,2.676 -0.864,1.129 -1.295,2.532 -1.295,4.2 0,1.59 0.446,3.007 1.352,4.259 0.913,1.244 2.244,2.193 3.971,2.849 1.719,0.669 3.754,1.006 6.1,1.006 1.855,0 3.459,-0.223 4.804,-0.662 1.36,-0.446 2.489,-1.028 3.397,-1.755 0.897,-0.733 1.552,-1.502 1.955,-2.301 0.417,-0.806 0.633,-1.597 0.633,-2.36 0,-0.69 -0.267,-1.33 -0.778,-1.898 -0.517,-0.562 -1.165,-0.835 -1.927,-0.835 -0.712,0 -1.251,0.158 -1.612,0.489 -0.366,0.338 -0.761,0.9 -1.178,1.669 -0.562,1.086 -1.231,1.943 -2.015,2.561 -0.77,0.611 -2.007,0.921 -3.711,0.921 -1.598,0 -2.885,-0.338 -3.855,-1.007 -0.964,-0.656 -1.439,-1.453 -1.439,-2.389 0,-0.575 0.158,-1.079 0.489,-1.496 0.338,-0.424 0.805,-0.791 1.381,-1.093 0.569,-0.309 1.158,-0.554 1.755,-0.72 0.59,-0.172 1.567,-0.423 2.937,-0.748 1.703,-0.388 3.249,-0.812 4.629,-1.265 1.396,-0.461 2.576,-1.029 3.54,-1.698 C -2.134,5.531 -1.372,4.697 -0.832,3.683 -0.278,2.684 0,1.453 0,0"
             inkscape:connector-curvature="0" /></g><g
           transform="translate(460.9971,312.7432)"
           id="g80"><path
             id="path82"
             style="fill:#393536;fill-opacity:1;fill-rule:nonzero;stroke:none"
             d="m 0,0 c -0.446,-0.145 -0.885,-0.224 -1.331,-0.224 -1.259,0 -2.323,0.447 -3.201,1.346 l -10.364,10.631 -2.497,-2.432 0,-8.35 c 0,-0.799 -0.777,-1.195 -2.331,-1.195 -1.344,0 -2.02,0.396 -2.02,1.195 l 0,25.534 c 0,0.95 0.748,1.425 2.244,1.425 1.409,0 2.107,-0.475 2.107,-1.425 l 0,-11.609 12.078,11.66 c 0.985,0.921 2.107,1.374 3.394,1.374 0.439,0 0.906,-0.079 1.41,-0.259 0.625,-0.224 0.949,-0.519 0.949,-0.878 0,-0.158 -0.079,-0.316 -0.244,-0.468 L -11.825,14.637 0.841,1.567 C 0.971,1.424 1.05,1.266 1.05,1.064 1.05,0.59 0.697,0.229 0,0"
             inkscape:connector-curvature="0" /></g><g
           transform="translate(460.9971,312.7432)"
           id="g84"><path
             id="path86"
             style="fill:none;stroke:#393536;stroke-width:0.85299999;stroke-linecap:butt;stroke-linejoin:miter;stroke-miterlimit:22.9260006;stroke-dasharray:none;stroke-opacity:1"
             d="m 0,0 c -0.446,-0.145 -0.885,-0.224 -1.331,-0.224 -1.259,0 -2.323,0.447 -3.201,1.346 l -10.364,10.631 -2.497,-2.432 0,-8.35 c 0,-0.799 -0.777,-1.195 -2.331,-1.195 -1.344,0 -2.02,0.396 -2.02,1.195 l 0,25.534 c 0,0.95 0.748,1.425 2.244,1.425 1.409,0 2.107,-0.475 2.107,-1.425 l 0,-11.609 12.078,11.66 c 0.985,0.921 2.107,1.374 3.394,1.374 0.439,0 0.906,-0.079 1.41,-0.259 0.625,-0.224 0.949,-0.519 0.949,-0.878 0,-0.158 -0.079,-0.316 -0.244,-0.468 L -11.825,14.637 0.841,1.567 C 0.971,1.424 1.05,1.266 1.05,1.064 1.05,0.59 0.697,0.229 0,0 Z"
             inkscape:connector-curvature="0" /></g><g
           transform="translate(259.2021,323.7119)"
           id="g88"><path
             id="path90"
             style="fill:#393536;fill-opacity:1;fill-rule:nonzero;stroke:none"
             d="m 0,0 -7.684,0 c -1.15,0 -2.036,0.266 -2.647,0.806 -0.618,0.532 -0.921,1.237 -0.921,2.1 0,0.856 0.297,1.561 0.894,2.1 0.589,0.555 1.48,0.835 2.674,0.835 l 7.684,0 c 1.185,0 2.078,-0.28 2.675,-0.835 0.59,-0.539 0.891,-1.244 0.891,-2.1 0,-0.863 -0.301,-1.568 -0.891,-2.1 C 2.099,0.266 1.2,0 0,0"
             inkscape:connector-curvature="0" /></g><g
           transform="translate(399.6924,311.3838)"
           id="g92"><path
             id="path94"
             style="fill:#393536;fill-opacity:1;fill-rule:nonzero;stroke:none"
             d="m 0,0 c -1.021,0 -1.893,0.323 -2.618,0.949 -0.735,0.648 -1.094,1.561 -1.094,2.734 0,0.992 0.346,1.848 1.036,2.56 0.704,0.705 1.568,1.065 2.589,1.065 1.017,0 1.878,-0.36 2.59,-1.065 C 3.231,5.531 3.596,4.675 3.596,3.683 3.596,2.531 3.231,1.625 2.503,0.978 1.791,0.33 0.956,0 0,0"
             inkscape:connector-curvature="0" /></g></g></g></g></svg>