<?xml version="1.0" encoding="UTF-8" standalone="no"?>
<svg
   xmlns:dc="http://purl.org/dc/elements/1.1/"
   xmlns:cc="http://creativecommons.org/ns#"
   xmlns:rdf="http://www.w3.org/1999/02/22-rdf-syntax-ns#"
   xmlns:svg="http://www.w3.org/2000/svg"
   xmlns="http://www.w3.org/2000/svg"
   xml:space="preserve"
   enable-background="new 0 0 141.7 56.7"
   viewBox="0 0 141.7 56.7"
   y="0px"
   x="0px"
   id="Layer_1"
   version="1.1"><metadata
     id="metadata19"><rdf:RDF><cc:Work
         rdf:about=""><dc:format>image/svg+xml</dc:format><dc:type
           rdf:resource="http://purl.org/dc/dcmitype/StillImage" /><dc:title></dc:title></cc:Work></rdf:RDF></metadata><defs
     id="defs17" /><g
     id="g3"><rect
       id="rect5"
       height="17.4"
       width="4.2"
       fill="#231F20"
       y="19.6"
       x="49.7" /><polygon
       id="polygon7"
       points="69.9,37.1 59.3,19.6 64.1,19.6 71.5,32.3 78.5,19.6 82.9,19.6 72.8,37.1  "
       fill="#231F20" /><rect
       id="rect9"
       height="17.4"
       width="4.2"
       fill="#231F20"
       y="19.6"
       x="87.7" /><path
       id="path11"
       d="M119.2,20.8c-0.6-0.5-1.5-1.1-3.3-1.1h-13.4c-1.8,0-2.7,0.6-3.3,1.1c-0.6,0.5-1.2,1.4-1.2,3v9.2   c0,1.6,0.6,2.4,1.2,3c0.6,0.6,1.5,1.1,3.3,1.1H116c1.7,0,2.6-0.6,3.3-1.1c0.6-0.6,1.3-1.4,1.3-3v-9.2   C120.5,22.1,119.9,21.3,119.2,20.8z M116.2,32.3c0,0.8-0.8,1.4-1.8,1.4h-10.3c-1,0-1.8-0.6-1.8-1.4v-8.1c0-0.8,0.8-1.4,1.8-1.4   h10.3c1,0,1.8,0.6,1.8,1.4V32.3z"
       fill="#231F20" /><path
       id="path13"
       d="M21.3,19.6v17.4h0h18c1.7,0,2.6-0.6,3.3-1.1c0.6-0.6,1.3-1.4,1.3-3v-9.2c0-1.6-0.6-2.5-1.2-3   c-0.6-0.5-1.5-1.1-3.3-1.1L21.3,19.6L21.3,19.6z M39.5,32.3c0,0.8-0.8,1.4-1.8,1.4H25.5l0-1.4v-8.1l0-1.4h12.1c1,0,1.8,0.6,1.8,1.4   V32.3z"
       fill="#231F20" /></g></svg>