<?xml version="1.0" encoding="UTF-8" standalone="no"?>
<svg
   xmlns:dc="http://purl.org/dc/elements/1.1/"
   xmlns:cc="http://creativecommons.org/ns#"
   xmlns:rdf="http://www.w3.org/1999/02/22-rdf-syntax-ns#"
   xmlns:svg="http://www.w3.org/2000/svg"
   xmlns="http://www.w3.org/2000/svg"
   xmlns:sodipodi="http://sodipodi.sourceforge.net/DTD/sodipodi-0.dtd"
   xmlns:inkscape="http://www.inkscape.org/namespaces/inkscape"
   xml:space="preserve"
   enable-background="new 0 0 141.7 56.7"
   viewBox="0 0 282.00001 112"
   y="0px"
   x="0px"
   id="Layer_1"
   version="1.1"
   inkscape:version="0.91 r13725"
   sodipodi:docname="divio-logo.svg"
   width="282"
   height="112"
   inkscape:export-filename="/home/richard/Projects/pycon.sk/source/static/images/sponsors/divio-logo.png"
   inkscape:export-xdpi="90"
   inkscape:export-ydpi="90"><sodipodi:namedview
     pagecolor="#ffffff"
     bordercolor="#666666"
     borderopacity="1"
     objecttolerance="10"
     gridtolerance="10"
     guidetolerance="10"
     inkscape:pageopacity="0"
     inkscape:pageshadow="2"
     inkscape:window-width="1920"
     inkscape:window-height="1016"
     id="namedview11"
     showgrid="false"
     inkscape:zoom="2.1594919"
     inkscape:cx="23.38513"
     inkscape:cy="28.35"
     inkscape:window-x="0"
     inkscape:window-y="27"
     inkscape:window-maximized="1"
     inkscape:current-layer="Layer_1" /><metadata
     id="metadata19"><rdf:RDF><cc:Work
         rdf:about=""><dc:format>image/svg+xml</dc:format><dc:type
           rdf:resource="http://purl.org/dc/dcmitype/StillImage" /><dc:title></dc:title></cc:Work></rdf:RDF></metadata><defs
     id="defs17" /><g
     id="g3"
     transform="matrix(2.5528996,0,0,2.5528996,-40.128227,-16.374704)"><rect
       id="rect5"
       height="17.4"
       width="4.1999998"
       y="19.6"
       x="49.700001"
       style="fill:#231f20" /><polygon
       id="polygon7"
       points="59.3,19.6 64.1,19.6 71.5,32.3 78.5,19.6 82.9,19.6 72.8,37.1 69.9,37.1 "
       style="fill:#231f20" /><rect
       id="rect9"
       height="17.4"
       width="4.1999998"
       y="19.6"
       x="87.699997"
       style="fill:#231f20" /><path
       id="path11"
       d="m 119.2,20.8 c -0.6,-0.5 -1.5,-1.1 -3.3,-1.1 l -13.4,0 c -1.8,0 -2.7,0.6 -3.3,1.1 -0.6,0.5 -1.2,1.4 -1.2,3 l 0,9.2 c 0,1.6 0.6,2.4 1.2,3 0.6,0.6 1.5,1.1 3.3,1.1 l 13.5,0 c 1.7,0 2.6,-0.6 3.3,-1.1 0.6,-0.6 1.3,-1.4 1.3,-3 l 0,-9.2 c -0.1,-1.7 -0.7,-2.5 -1.4,-3 z m -3,11.5 c 0,0.8 -0.8,1.4 -1.8,1.4 l -10.3,0 c -1,0 -1.8,-0.6 -1.8,-1.4 l 0,-8.1 c 0,-0.8 0.8,-1.4 1.8,-1.4 l 10.3,0 c 1,0 1.8,0.6 1.8,1.4 l 0,8.1 z"
       inkscape:connector-curvature="0"
       style="fill:#231f20" /><path
       id="path13"
       d="m 21.3,19.6 0,17.4 0,0 18,0 c 1.7,0 2.6,-0.6 3.3,-1.1 0.6,-0.6 1.3,-1.4 1.3,-3 l 0,-9.2 c 0,-1.6 -0.6,-2.5 -1.2,-3 -0.6,-0.5 -1.5,-1.1 -3.3,-1.1 l -18.1,0 0,0 z m 18.2,12.7 c 0,0.8 -0.8,1.4 -1.8,1.4 l -12.2,0 0,-1.4 0,-8.1 0,-1.4 12.1,0 c 1,0 1.8,0.6 1.8,1.4 l 0,8.1 z"
       inkscape:connector-curvature="0"
       style="fill:#231f20" /></g></svg>