<?xml version="1.0" encoding="utf-8"?>
<!-- Generator: Adobe Illustrator 16.0.3, SVG Export Plug-In . SVG Version: 6.00 Build 0)  -->
<!DOCTYPE svg PUBLIC "-//W3C//DTD SVG 1.0//EN" "http://www.w3.org/TR/2001/REC-SVG-20010904/DTD/svg10.dtd">
<svg version="1.0" id="Layer_1" xmlns="http://www.w3.org/2000/svg" xmlns:xlink="http://www.w3.org/1999/xlink" x="0px" y="0px"
	 width="3628.35px" height="2040.939px" viewBox="0 0 3628.35 2040.939" enable-background="new 0 0 3628.35 2040.939"
	 xml:space="preserve">
<g>
	<g>
		<path fill="#1C75BC" d="M919.643,1485.173c-19.671-14.111-55.024-21.167-106.052-21.167h-1.283
			c-52.17,0-89.09,9.979-110.756,29.934c-20.242,19.958-30.361,48.396-30.361,85.312c0,39.202,10.69,68.28,32.072,87.236
			c23.376,18.96,59.725,28.438,109.045,28.438h75.69v-59.868h-75.477c-26.657,0-46.611-4.276-59.868-12.829
			c-13.256-8.552-19.885-22.163-19.885-40.838c0-19.243,6.415-33.639,19.244-43.19c12.829-9.548,32.998-14.326,60.509-14.326
			c49.034,0,73.552,6.061,73.552,18.175c0,2.853-1.854,4.777-5.56,5.772c-3.421,0.999-9.124,1.57-17.105,1.711h-96.644v59.868
			h103.059c52.027,0,78.042-21.596,78.042-64.786C947.866,1519.1,938.458,1499.285,919.643,1485.173z"/>
		<path fill="#1C75BC" d="M980.58,1579.465v115.46h61.792v-112.68c0-38.914,23.59-58.372,70.772-58.372h44.046v-59.867h-44.046
			C1024.766,1464.006,980.58,1502.492,980.58,1579.465z"/>
		<rect x="1203.801" y="1493.512" fill="#1C75BC" width="59.868" height="201.413"/>
		<path fill="#1C75BC" d="M1245.281,1401.145c-2.426-0.855-6.131-1.424-11.119-1.711h-0.428c-3.137,0-7.557,0.785-13.256,2.352
			c-6.13,1.57-10.407,5.419-12.829,11.547c-2.566,6.558-3.849,12.828-3.849,18.815c0,5.559,1.069,10.62,3.207,15.181
			c2.994,6.558,7.911,10.978,14.753,13.257c2.565,0.854,6.414,1.426,11.546,1.71h0.427c5.272,0,9.835-0.855,13.684-2.565
			c6.555-2.566,11.188-7.126,13.898-13.685c1.423-3.705,2.208-8.265,2.352-13.684c0-0.428,0-0.782,0-1.069
			c0-7.554-1.57-13.968-4.704-19.243C1255.828,1406.776,1251.268,1403.142,1245.281,1401.145z"/>
		<path fill="#1C75BC" d="M1352.188,1492.442c-21.381,18.248-32.072,47.327-32.072,87.236c0,39.77,10.691,68.708,32.072,86.809
			c22.521,18.96,58.799,28.438,108.832,28.438h21.595v-59.868h-21.382c-27.512,0-47.646-4.63-60.402-13.897
			c-12.759-9.265-19.136-23.162-19.136-41.694c0-18.528,6.308-32.426,18.922-41.693c12.615-9.265,32.747-13.898,60.403-13.898h61.15
			l-0.214,183.881c0,10.975-3.849,19.136-11.546,24.481s-19.243,8.018-34.638,8.018h-113.749v59.868h113.749
			c42.476,0,71.34-7.984,86.595-23.947c15.251-15.966,22.878-38.773,22.878-68.42v-243.748h-124.013
			C1411.058,1464.006,1374.709,1473.487,1352.188,1492.442z"/>
		<path fill="#1C75BC" d="M2137.314,1488.38c-18.104-16.249-47.895-24.374-89.375-24.374h-0.428
			c-41.195,0-70.738,8.055-88.626,24.161c-17.89,16.109-26.833,39.555-26.833,70.345c0,0.144,0,0.357,0,0.641v135.772h59.868
			V1562.36c0-0.284,0-0.498,0-0.642c0-12.258,4.239-21.629,12.722-28.117c8.479-6.484,22.911-9.729,43.297-9.729
			c20.383,0,34.922,3.314,43.618,9.942c8.693,6.629,13.113,16.144,13.257,28.545v132.564h59.868v-135.772
			C2164.539,1528.224,2155.415,1504.63,2137.314,1488.38z"/>
		<path fill="#1C75BC" d="M2450.124,1485.173c-19.671-14.111-55.024-21.167-106.052-21.167h-1.283
			c-52.171,0-89.09,9.979-110.756,29.934c-20.242,19.958-30.361,48.396-30.361,85.312c0,39.202,10.69,68.28,32.072,87.236
			c23.376,18.96,59.724,28.438,109.045,28.438h75.69v-59.868h-75.477c-26.656,0-46.611-4.276-59.868-12.829
			c-13.256-8.552-19.885-22.163-19.885-40.838c0-19.243,6.415-33.639,19.243-43.19c12.829-9.548,32.998-14.326,60.51-14.326
			c49.033,0,73.552,6.061,73.552,18.175c0,2.853-1.854,4.777-5.559,5.772c-3.421,0.999-9.124,1.57-17.105,1.711h-96.644v59.868
			h103.058c52.027,0,78.043-21.596,78.043-64.786C2478.348,1519.1,2468.939,1499.285,2450.124,1485.173z"/>
		<path fill="#1C75BC" d="M2740.271,1568.24c-13.257-12.472-34.211-18.709-62.861-18.709h-84.885
			c-6.985,0-11.974-0.996-14.967-2.993c-2.993-1.995-4.49-5.416-4.49-10.264c0-4.416,1.497-7.59,4.49-9.515
			c2.993-1.924,7.981-2.887,14.967-2.887h146.249v-59.867h-146.249c-28.083,0-48.502,6.308-61.258,18.922
			c-12.759,12.615-19.136,30.542-19.136,53.774c0,24.375,6.661,42.586,19.991,54.63c13.326,12.047,33.462,18.067,60.402,18.067
			h84.885c8.265,0,14.005,1.068,17.212,3.207c3.207,2.138,4.773,5.346,4.703,9.621c-0.073,4.276-1.677,7.484-4.811,9.622
			c-3.137,2.138-8.84,3.207-17.104,3.207h-143.897v59.868h143.897c28.65,0,49.604-6.271,62.861-18.815
			c13.256-12.542,19.885-30.502,19.885-53.882v-0.427C2760.155,1598.568,2753.526,1580.715,2740.271,1568.24z"/>
		<path fill="#1C75BC" d="M2090.982,1008.967c37.307-0.036,67.532-30.225,67.532-67.532c0-37.324-30.226-67.493-67.532-67.512
			c-34.753,0.019-63.221,26.307-66.938,60.1h-0.574v7.413v5.936v1.477h0.516c0.28,2.385,0.686,4.714,1.169,7.026l-87.46,50.875
			l-2.92-55.533c26.951-8.856,46.454-34.165,46.454-64.056c0-37.307-30.225-67.532-67.531-67.532
			c-34.753,0-63.226,26.324-66.957,60.119h-0.556v7.413v5.916v1.478h0.517c2.901,26.232,20.686,47.881,44.813,56.274l4.176,80.286
			l-106.591,61.984V883.223l121.416-128.52c7.323,2.718,15.197,4.364,23.481,4.364c37.287-0.02,67.512-30.208,67.512-67.496
			c0-37.324-30.225-67.532-67.512-67.548c-34.758,0.017-63.226,26.324-66.977,60.136h-0.556v7.413v5.916v1.479h0.517
			c1.145,10.37,4.62,20.003,9.926,28.413l-87.808,92.951V614.059c23.273-10.63,39.484-34.053,39.522-61.321
			c-0.038-37.288-30.225-67.493-67.531-67.493c-34.772,0-63.24,26.324-66.957,60.1h-0.556v7.394v5.935v1.478h0.517
			c2.665,24.053,17.876,44.258,38.986,53.945v206.401l-88.12-93.301c6.469-10.353,10.297-22.554,10.297-35.625
			c0-37.324-30.229-67.532-67.513-67.548c-34.758,0.017-63.226,26.324-66.942,60.136h-0.589v7.413v5.916v1.479h0.589
			c3.717,33.773,32.185,60.081,66.942,60.1c8.352,0,16.341-1.666,23.698-4.456l121.638,128.795v293.345l-114.613-70.25
			l4.605-114.153c28.023-8.226,48.545-33.978,48.545-64.667c0-37.288-30.225-67.493-67.513-67.493
			c-34.777,0-63.245,26.324-66.977,60.081h-0.555v7.413v5.916v1.479h0.536c2.791,25.511,19.706,46.622,42.776,55.514l-3.587,90.066
			l-102.063-62.576c1.274-5.177,2.071-10.539,2.071-16.121c0-37.305-30.225-67.493-67.515-67.529
			c-34.772,0.036-63.243,26.341-66.977,60.136h-0.553v7.394v5.935v1.479h0.553c3.698,33.792,32.204,60.098,66.977,60.098
			c15.991,0,30.633-5.637,42.224-14.956l99.311,60.896l-74.112,35.181c-12.387-14.07-30.447-23.018-50.693-23.018
			c-34.753,0-63.223,26.287-66.938,60.082h-0.591v7.394v5.936v1.478h0.591c3.698,33.812,32.185,60.1,66.938,60.1
			c37.288,0,67.513-30.206,67.513-67.513c0-1.535-0.111-3.031-0.222-4.528l101.474-48.195l138.794,85.095v237.749
			c-71.556,6.939-107.338,45.032-107.338,114.293c0,76.974,0,115.46,0,115.46s43.902,0,131.709,0h0.855
			c88.375-0.284,132.564-38.771,132.564-115.46c0-67.442-33.927-105.337-101.772-113.688v-322.636l130.4-75.868l79.311,42.188v7.301
			v5.916v1.478h0.569c3.679,33.775,32.171,60.119,66.924,60.119c37.307,0,67.531-30.225,67.531-67.513
			c0-37.307-30.225-67.531-67.531-67.531c-19.32,0-36.699,8.227-48.989,21.26l-53.981-28.728l84.114-48.915
			C2059.242,1002.812,2074.366,1008.967,2090.982,1008.967z M2073.387,923.762c4.562-4.528,10.625-7.265,17.596-7.282
			c6.99,0.017,13.034,2.754,17.654,7.321c4.548,4.62,7.285,10.667,7.304,17.635c-0.019,6.952-2.756,13.015-7.323,17.654
			c-4.601,4.55-10.645,7.285-17.635,7.304c-6.971-0.019-13.034-2.754-17.654-7.321c-4.547-4.622-7.284-10.686-7.304-17.637
			C2066.044,934.431,2068.781,928.42,2073.387,923.762z M1916.377,673.898c4.605-4.564,10.631-7.282,17.641-7.302
			c6.946,0.02,12.976,2.737,17.635,7.321c4.547,4.623,7.299,10.647,7.299,17.654c0,6.952-2.752,12.979-7.338,17.637
			c-4.586,4.547-10.649,7.265-17.615,7.302c-6.99-0.037-13.016-2.754-17.64-7.34c-4.548-4.62-7.3-10.647-7.319-17.599
			C1909.059,684.564,1911.777,678.54,1916.377,673.898z M1605.4,709.17c-4.625,4.586-10.649,7.304-17.654,7.34
			c-6.99-0.037-13.015-2.754-17.659-7.34c-4.528-4.62-7.28-10.647-7.299-17.599c0.02-7.007,2.771-13.032,7.299-17.654
			c4.659-4.583,10.668-7.301,17.673-7.321c6.952,0.02,13.015,2.737,17.64,7.321c4.562,4.623,7.299,10.647,7.299,17.654
			C1612.7,698.523,1609.962,704.55,1605.4,709.17z M1426.393,1019.633c-4.567,4.531-10.628,7.285-17.599,7.285
			c-6.988,0-13.032-2.754-17.654-7.302c-4.583-4.622-7.282-10.686-7.302-17.656c0.02-7.005,2.718-13.013,7.321-17.654
			c4.603-4.528,10.647-7.282,17.635-7.282c6.971,0,13.032,2.754,17.656,7.318c4.548,4.605,7.246,10.63,7.299,17.618
			C1433.735,1008.931,1430.998,1014.994,1426.393,1019.633z M1443.178,1212.706c-4.639,4.566-10.684,7.304-17.654,7.321
			c-6.985-0.018-13.013-2.755-17.654-7.321c-4.547-4.603-7.282-10.667-7.301-17.654c0.019-6.968,2.754-13.015,7.321-17.635
			c4.622-4.55,10.649-7.284,17.635-7.304c6.971,0.02,13.034,2.718,17.673,7.32c4.528,4.604,7.285,10.65,7.285,17.638
			C1450.481,1202.021,1447.725,1208.086,1443.178,1212.706z M1586.448,945.336c-4.582-4.62-7.28-10.647-7.299-17.654
			c0.02-6.968,2.718-13.032,7.299-17.618c4.625-4.583,10.668-7.282,17.659-7.337c6.966,0.055,13.029,2.754,17.654,7.337
			c4.548,4.586,7.28,10.65,7.299,17.618c-0.02,6.988-2.751,13.034-7.357,17.654c-4.567,4.586-10.63,7.304-17.616,7.304
			C1597.116,952.64,1591.072,949.922,1586.448,945.336z M1743.438,535.104c4.639-4.567,10.684-7.266,17.654-7.304
			c6.99,0.039,13.034,2.737,17.654,7.304c4.566,4.603,7.284,10.683,7.304,17.654c-0.02,6.952-2.737,13.015-7.304,17.635
			c-3.698,3.643-8.41,6.046-13.734,6.877c-1.183-0.109-2.443-0.314-3.862-0.314c-1.443,0-2.481,0.278-3.476,0.369
			c-5.547-0.758-10.394-3.143-14.236-6.932c-4.547-4.62-7.266-10.683-7.304-17.654
			C1736.172,545.77,1738.891,539.706,1743.438,535.104z M1828.867,1578.823v0.428v0.642c0,36.636-23.52,55.024-70.559,55.164
			c-0.288,0-0.642,0-1.069,0c-46.043,0-69.206-18.528-69.489-55.592c0-0.14,0-0.354,0-0.642c0-36.632,23.52-54.95,70.559-54.95
			C1805.348,1524.018,1828.867,1542.335,1828.867,1578.823z M1913.698,912.115c-6.971-0.017-13.015-2.754-17.654-7.321
			c-4.528-4.603-7.284-10.666-7.304-17.635c0.02-6.988,2.775-13.034,7.357-17.654c4.586-4.547,10.63-7.285,17.62-7.304
			c6.985,0.019,13.015,2.756,17.653,7.321c4.528,4.603,7.285,10.649,7.285,17.637c0,6.969-2.757,13.032-7.323,17.654
			C1926.732,909.361,1920.703,912.099,1913.698,912.115z M2048.67,1099.107c4.601-4.547,10.664-7.284,17.654-7.304
			c6.966,0.02,13.015,2.757,17.635,7.321c4.547,4.604,7.284,10.649,7.304,17.637c-0.02,6.969-2.757,13.032-7.323,17.654
			c-4.601,4.548-10.649,7.285-17.635,7.302c-6.971-0.017-13.034-2.754-17.635-7.338c-4.566-4.586-7.305-10.649-7.323-17.618
			C2041.365,1109.755,2044.104,1103.729,2048.67,1099.107z"/>
	</g>
	<path fill="#5BC1DE" d="M2303.58,847.968c-34.922-49.525-82.356-89.658-137.173-116.168l-6.083-2.94l-0.569-6.691
		c-9.003-101.399-55.274-195.311-130.255-264.469c-75.482-69.603-173.664-107.942-276.451-107.979
		c-209.633,0.056-384.147,157.448-405.907,366.051l-0.739,6.894l-6.379,2.756c-58.14,25.067-108.701,65.22-146.227,116.075
		c-45.422,61.56-69.417,134.619-69.397,211.34c0.017,196.751,160.111,356.843,356.862,356.881c7.618,0,15.66-0.297,25.271-0.943
		c29.284-2.052,58.398-7.838,86.644-17.174v-79.159c-26.783,11.555-55.217,18.781-84.703,21.574
		c-7.782,0.795-17.49,1.738-27.212,1.738c-75.517-0.02-146.56-29.47-200.024-82.896c-53.406-53.426-82.837-124.45-82.874-200.021
		c0.036-60.747,19.04-118.684,54.997-167.435c34.753-47.14,84.389-83.095,139.794-101.269l24.809-8.134l0.666-26.066
		c2.254-87.626,37.987-169.65,100.658-230.952c62.834-61.449,145.823-95.297,233.669-95.297
		c182.445,0,332.537,148.373,334.753,330.741l0.313,25.216l23.572,8.912c53.224,20.15,98.698,55.438,131.53,102.026
		c33.556,47.695,51.302,103.8,51.302,162.257c0,75.571-29.414,146.596-82.82,200.021c-53.518,53.426-124.545,82.876-200.022,82.896
		c-9.003,0-17.321-0.758-27.251-1.738c-29.447-2.793-57.882-10.02-84.684-21.574v79.159c28.265,9.336,57.379,15.122,86.682,17.193
		c9.593,0.627,17.635,0.924,25.253,0.924c196.749-0.038,356.81-160.13,356.823-356.881
		C2368.447,978.981,2346.023,908.143,2303.58,847.968z"/>
</g>
<g>
</g>
<g>
</g>
<g>
</g>
<g>
</g>
<g>
</g>
<g>
</g>
</svg>
