<?xml version="1.0" standalone="no"?>
<!DOCTYPE svg PUBLIC "-//W3C//DTD SVG 1.1//EN" "http://www.w3.org/Graphics/SVG/1.1/DTD/svg11.dtd">
<svg width="100%" height="100%" viewBox="0 0 640 190" version="1.1" xmlns="http://www.w3.org/2000/svg" xmlns:xlink="http://www.w3.org/1999/xlink" xml:space="preserve" style="fill-rule:evenodd;clip-rule:evenodd;stroke-linecap:square;stroke-miterlimit:1.41421;">
    <g id="logo_long" transform="matrix(1,0,0,1,0,-567)">
        <g id="quicksand 46pt" transform="matrix(0.762411,4.3835e-19,4.3835e-19,0.760622,11.1748,55.0415)">
            <g transform="matrix(1.00771,5.74736e-19,5.74736e-19,1.00537,-1.68622,-4.51029)">
                <path d="M227.922,787.049L227.922,723.049C227.922,722.409 227.974,721.997 228.422,721.549C228.87,721.101 229.282,721.049 229.922,721.049L249.922,721.049C255.17,721.049 259.568,723.241 263.312,726.985C267.056,730.729 268.922,734.769 268.922,740.049C268.922,745.329 267.056,750.313 263.312,754.057C259.568,757.801 255.17,760.049 249.922,760.049L232.922,760.049L232.922,787.049C232.922,788.05 231.95,789.035 230.422,789.049C228.966,789.062 227.922,788.104 227.922,787.049ZM232.922,755.049L249.922,755.049C253.89,754.985 257.2,753.641 260.048,750.793C262.896,747.945 263.922,744.017 263.922,740.049C263.922,736.081 262.896,733.193 260.048,730.345C257.2,727.497 253.89,726.049 249.922,726.049L232.922,726.049L232.922,755.049Z" style="fill:rgb(62,122,171);fill-rule:nonzero;"/>
            </g>
            <g transform="matrix(1.00309,-4.67528e-19,-4.67528e-19,1.00499,3.41334,-3.6526)">
                <path d="M302.718,786.489L302.718,756.489L279.962,724.497C279.13,723.153 279.29,722.065 280.442,721.233C280.954,720.785 281.546,720.609 282.218,720.705C282.89,720.801 283.386,721.105 283.706,721.617L305.12,751.513L326.23,721.401C326.55,720.889 327.046,720.585 327.718,720.489C328.39,720.393 328.982,720.569 329.494,721.017C330.006,721.337 330.31,721.833 330.406,722.505C330.502,723.177 330.358,723.769 329.974,724.281L307.718,756.489L307.718,786.489C307.718,787.129 307.296,787.449 306.848,787.897C306.4,788.345 305.858,788.489 305.218,788.489C304.578,788.489 304.032,788.345 303.584,787.897C303.136,787.449 302.718,787.129 302.718,786.489Z" style="fill:rgb(62,122,171);fill-rule:nonzero;"/>
            </g>
            <g transform="matrix(1,-1.31517e-18,-1.31517e-18,1.00537,10.3364,-3.94874)">
                <path d="M349.712,778.633C342.896,772.009 339.658,763.929 339.658,754.489C339.658,745.049 342.896,737.065 349.712,730.441C356.528,723.817 364.994,720.553 374.658,720.489C382.722,720.489 389.346,722.881 395.746,727.809C396.258,728.257 396.562,728.817 396.658,729.489C396.754,730.161 396.578,730.721 396.13,731.169C395.746,731.745 395.218,732.065 394.546,732.129C393.874,732.193 393.314,732.033 392.866,731.649C387.298,727.297 381.634,725.489 374.658,725.489C366.274,725.489 358.912,727.993 353.024,733.753C347.136,739.513 344.658,746.361 344.658,754.489C344.658,762.617 347.136,769.625 353.024,775.321C358.912,781.017 366.818,783.865 374.658,783.865C382.498,783.865 387.602,781.537 392.722,777.185C393.298,776.801 393.922,776.657 394.594,776.753C395.266,776.849 395.762,777.185 396.082,777.761C396.53,778.209 396.722,778.785 396.658,779.489C396.594,780.193 396.306,780.737 395.794,781.121C389.458,785.985 382.786,788.489 374.658,788.489C364.994,788.489 356.528,785.257 349.712,778.633Z" style="fill:rgb(62,122,171);fill-rule:nonzero;"/>
            </g>
            <g transform="matrix(1.00461,3.92972e-19,3.92972e-19,1.00301,6.18713,-2.16812)">
                <path d="M414.017,754.476C414.081,745.004 416.736,736.969 423.008,730.345C429.28,723.721 436.912,720.409 445.904,720.409C454.896,720.409 462.496,723.721 468.704,730.345C474.912,736.969 477.928,745.017 477.992,754.489C477.928,763.961 474.912,772.009 468.704,778.633C462.496,785.257 454.896,788.569 445.904,788.569C436.912,788.569 429.28,785.257 423.008,778.633C416.736,772.009 414.081,763.948 414.017,754.476ZM426.32,733.657C420.912,739.289 418.992,746.252 418.992,754.476C418.992,762.7 420.912,769.625 426.32,775.321C431.728,781.017 438.208,783.865 445.76,783.865C453.312,783.865 459.776,781.001 465.152,775.273C470.528,769.545 472.928,762.617 472.992,754.489C472.928,746.233 470.544,739.289 465.2,733.657C459.856,728.025 453.392,725.209 445.808,725.209C438.224,725.209 431.728,728.025 426.32,733.657Z" style="fill:rgb(62,122,171);fill-rule:nonzero;"/>
            </g>
            <g transform="matrix(0.996834,-2.00825e-18,-2.00825e-18,1.00503,4.39529,-3.68376)">
                <path d="M543.296,787.321L502.994,731.489L502.994,786.489C502.994,787.129 502.574,787.369 502.126,787.817C501.678,788.265 501.134,788.489 500.494,788.489C499.854,788.489 499.31,788.265 498.862,787.817C498.414,787.369 497.994,787.129 497.994,786.489L497.994,723.489C497.987,722.407 498.226,721.625 498.93,721.113C499.634,720.601 500.322,720.393 500.994,720.489C501.666,720.585 502.162,720.889 502.482,721.401L542.994,778.489L542.994,722.489C542.994,721.849 543.414,721.609 543.862,721.161C544.31,720.713 544.854,720.489 545.494,720.489C546.134,720.489 546.694,720.713 547.174,721.161C547.654,721.609 547.994,721.849 547.994,722.489L547.994,786.489C547.994,787.129 547.664,787.449 547.184,787.897C546.704,788.345 546.198,788.489 545.494,788.489C544.79,788.489 544.128,788.281 543.68,787.705L543.296,787.321Z" style="fill:rgb(62,122,171);fill-rule:nonzero;"/>
            </g>
            <g transform="matrix(1,-1.31517e-18,-1.31517e-18,1.00537,-5.31177,-3.94874)">
                <path d="M595.994,787.489C594.433,785.775 595.906,784.577 596.994,783.489L627.488,756.121C631.328,752.601 632.994,748.193 632.994,743.489C632.994,738.785 631.502,734.073 628.302,730.521C625.102,726.969 620.794,725.489 615.994,725.489C611.194,725.489 606.938,726.665 603.61,729.609L600.346,732.585C599.834,733.033 599.258,733.257 598.618,733.257C597.978,733.257 597.45,733.001 597.034,732.489C596.618,731.977 596.41,731.401 596.41,730.761C596.41,730.121 596.666,729.609 597.178,729.225L600.442,726.153C604.73,722.377 609.914,720.489 615.994,720.489C622.074,720.489 627.726,722.889 631.95,727.689C635.79,731.785 637.994,737.409 637.994,743.489C637.994,749.569 635.456,755.161 630.656,759.577L603.994,783.489L635.994,783.489C636.981,783.516 637.985,784.494 637.994,785.989C638.003,787.51 636.993,788.461 635.994,788.489L597.994,788.489C597.226,788.489 596.391,787.925 595.994,787.489Z" style="fill:rgb(255,228,103);fill-rule:nonzero;"/>
            </g>
            <g transform="matrix(0.997932,-1.53237e-18,-1.53237e-18,1.00419,-4.72493,-3.09755)">
                <path d="M676.794,788.569C670.202,788.569 664.912,785.273 660.464,778.681C656.016,772.089 653.792,764.185 653.792,754.969C653.792,745.753 655.706,737.033 659.994,730.569C664.666,723.849 670.266,720.489 676.794,720.489C683.322,720.489 688.922,723.849 693.594,730.569C697.946,737.289 699.794,745.529 699.794,754.489C699.794,763.449 698.176,771.737 693.824,778.393C689.216,785.177 683.386,788.569 676.794,788.569ZM695.294,754.489C695.294,746.361 693.546,739.113 689.802,733.545C686.058,727.977 681.786,724.489 676.794,724.489C671.802,724.489 667.386,727.961 663.738,733.497C660.09,739.033 658.496,746.777 658.496,754.969C658.496,763.161 660.384,770.105 664.16,775.801C667.808,781.177 671.93,783.489 676.794,783.489C681.658,783.489 686.112,781.177 689.888,775.801C693.728,770.041 695.294,762.617 695.294,754.489Z" style="fill:rgb(255,228,103);fill-rule:nonzero;"/>
            </g>
            <g transform="matrix(1.01503,2.36584e-18,2.36584e-18,1.00537,-20.8014,-3.94781)">
                <path d="M731.151,786.489L731.151,727.489L721.647,733.057C721.263,733.313 720.791,733.489 720.151,733.489C719.511,733.489 718.927,733.057 718.479,732.289C717.711,730.881 717.999,729.825 719.343,729.121L732.303,721.249C732.815,720.929 733.447,720.482 734.151,720.489C735.549,720.502 736.155,721.917 736.151,723.489L736.151,786.489C736.151,787.501 735.165,788.491 733.651,788.489C732.153,788.486 731.188,787.511 731.151,786.489Z" style="fill:rgb(255,228,103);fill-rule:nonzero;"/>
            </g>
            <g transform="matrix(0.998223,-1.70688e-18,-1.70688e-18,1.00519,-10.9158,-3.80887)">
                <path d="M754.426,762.489C754.554,752.057 756.32,743.417 760.544,736.057C765.856,726.713 774.058,720.873 784.426,720.489C785.066,720.425 785.61,720.617 786.058,721.065C786.506,721.513 786.894,722.057 786.926,722.697C786.958,723.337 786.602,724.509 786.154,724.989C785.706,725.469 785.066,725.425 784.426,725.489C776.042,725.809 769.248,730.553 764.576,738.361C762.464,742.009 760.864,746.489 759.776,751.801C764.192,746.745 769.994,744.489 776.426,744.489C782.858,744.489 787.856,746.393 792.176,750.745C796.496,755.097 798.426,760.377 798.426,766.489C798.426,772.601 796.496,777.769 792.176,782.089C787.856,786.409 782.538,788.489 776.426,788.489C770.314,788.489 765.216,786.489 760.928,782.329C756.64,778.169 754.618,773.441 754.426,767.489C754.386,766.251 754.426,764.473 754.426,762.489ZM758.912,766.393L758.912,766.777C758.912,767.097 758.944,767.465 759.008,767.881C759.072,768.297 759.072,768.569 759.008,768.697C759.584,772.985 761.52,776.585 764.816,779.497C768.112,782.409 771.786,783.989 776.426,783.989C781.066,783.989 785.408,782.153 788.864,778.729C792.32,775.305 793.926,771.289 793.926,766.489C793.926,761.689 792.32,757.481 788.864,754.057C785.408,750.633 781.264,748.921 776.432,748.921C771.6,748.921 767.472,750.633 764.048,754.057C760.624,757.481 758.912,761.593 758.912,766.393Z" style="fill:rgb(255,228,103);fill-rule:nonzero;"/>
            </g>
        </g>
        <g id="Quicksand 46pt" transform="matrix(0.762411,0,0,0.762411,16.8669,194.55)">
            <g transform="matrix(1.07806,7.94194e-18,7.94194e-18,1.04563,-12.3912,-31.0095)">
                <path d="M215.029,684.139C212.821,682.79 211.395,681.793 210.751,681.149C210.107,680.505 209.862,679.969 210.015,679.539C210.168,679.11 210.429,678.834 210.797,678.711C211.165,678.589 211.564,678.727 211.993,679.125C212.422,679.524 213.388,680.275 214.891,681.379C216.394,682.483 219.062,683.817 222.895,685.381C226.728,686.945 230.516,687.727 234.257,687.727C240.452,687.727 245.68,686.194 249.943,683.127C254.206,680.061 256.337,676.289 256.337,671.811C256.337,668.315 255.325,665.678 253.301,663.899C252.197,662.918 251.154,662.105 250.173,661.461C249.192,660.817 247.75,660.189 245.849,659.575C243.641,658.839 240.866,658.073 237.523,657.275C234.18,656.478 231.896,655.911 230.669,655.573C229.442,655.236 227.817,654.73 225.793,654.055C223.769,653.381 222.22,652.675 221.147,651.939C220.074,651.203 218.924,650.283 217.697,649.179C215.489,647.094 214.385,644.012 214.385,639.933C214.385,635.855 216.332,632.313 220.227,629.307C224.122,626.302 228.829,624.799 234.349,624.799C240.421,624.799 245.849,626.455 250.633,629.767C252.35,630.933 253.454,631.883 253.945,632.619C254.436,633.171 254.405,633.723 253.853,634.275C253.178,634.705 252.626,634.674 252.197,634.183C247.536,629.522 241.586,627.191 234.349,627.191C229.504,627.191 225.364,628.449 221.929,630.963C218.494,633.478 216.777,636.514 216.777,640.071C216.777,643.445 218.065,646.327 220.641,648.719C222.542,650.437 225.854,651.909 230.577,653.135C231.926,653.503 233.874,653.979 236.419,654.561C238.964,655.144 240.866,655.604 242.123,655.941C243.38,656.279 245.036,656.785 247.091,657.459C249.146,658.134 250.725,658.855 251.829,659.621C252.933,660.388 254.068,661.354 255.233,662.519C257.502,664.605 258.637,667.702 258.637,671.811C258.637,676.902 256.291,681.211 251.599,684.737C246.907,688.264 241.234,690.027 234.579,690.027C227.924,690.027 221.408,688.065 215.029,684.139Z" style="fill:rgb(62,122,171);fill-opacity:3;fill-rule:nonzero;"/>
            </g>
            <g transform="matrix(1.30435,7.5039e-17,7.5039e-17,0.997978,-86.0655,3.64569)">
                <path d="M302.429,626.174C302.429,625.376 302.429,625.167 303.196,625.167C303.962,625.167 303.962,625.376 303.962,626.174L303.962,688.561C303.962,689.359 303.962,689.567 303.196,689.567C302.429,689.567 302.429,689.359 302.429,688.561L302.429,626.174Z" style="fill:rgb(62,122,171);fill-opacity:3;fill-rule:nonzero;"/>
            </g>
            <g transform="matrix(1.01615,6.58765e-18,6.58765e-18,0.989249,-1.51661,9.6647)">
                <path d="M371.429,644.487C377.317,644.487 382.346,646.695 386.517,651.111C390.688,655.527 392.773,660.833 392.773,667.027C392.773,673.222 390.688,678.527 386.517,682.943C382.346,687.359 377.317,689.567 371.429,689.567C365.541,689.567 360.527,687.359 356.387,682.943C352.247,678.527 350.177,673.222 350.177,667.027C350.177,660.833 352.247,655.527 356.387,651.111C360.527,646.695 365.541,644.487 371.429,644.487ZM371.429,687.267C376.642,687.267 381.12,685.289 384.861,681.333C388.602,677.377 390.473,672.609 390.473,667.027C390.473,661.446 388.602,656.677 384.861,652.721C381.12,648.765 376.642,646.787 371.429,646.787C366.216,646.787 361.754,648.765 358.043,652.721C354.332,656.677 352.477,661.446 352.477,667.027C352.477,672.609 354.332,677.377 358.043,681.333C361.754,685.289 366.216,687.267 371.429,687.267Z" style="fill:rgb(62,122,171);fill-opacity:3;fill-rule:nonzero;"/>
            </g>
            <g transform="matrix(0.992118,-2.90364e-19,-2.90364e-19,0.993303,10.4228,6.86898)">
                <path d="M453.125,689.567L452.757,689.567C452.389,689.445 452.113,689.199 451.929,688.831L433.989,646.235C433.805,645.867 433.851,645.515 434.127,645.177C434.403,644.84 434.756,644.687 435.185,644.717C435.614,644.748 435.921,644.978 436.105,645.407L453.033,685.427L469.961,645.407C470.084,644.917 470.36,644.671 470.789,644.671C471.218,644.671 471.586,644.84 471.893,645.177C472.2,645.515 472.261,645.867 472.077,646.235L454.137,688.739C454.137,688.923 454.014,689.107 453.769,689.291C453.524,689.475 453.309,689.567 453.125,689.567Z" style="fill:rgb(62,122,171);fill-opacity:3;fill-rule:nonzero;"/>
            </g>
            <g transform="matrix(1.01167,3.29286e-18,3.29286e-18,0.998225,3.85891,3.47494)">
                <path d="M554.188,645.489C554.188,644.692 554.41,644.487 555.177,644.487C555.943,644.487 556.165,644.692 556.165,645.489L556.165,688.566C556.165,689.363 555.943,689.567 555.177,689.567C554.41,689.567 554.188,689.363 554.188,688.566L554.188,677.045C552.409,680.787 549.495,683.894 546.091,686.163C542.687,688.433 538.961,689.567 534.913,689.567C529.025,689.567 524.011,687.359 519.871,682.943C515.731,678.527 513.661,673.222 513.661,667.027C513.661,660.833 515.731,655.527 519.871,651.111C524.011,646.695 529.025,644.487 534.913,644.487C538.961,644.487 542.687,645.622 546.091,647.891C549.495,650.161 552.409,653.268 554.188,657.01L554.188,645.489ZM534.913,687.267C540.126,687.267 544.588,685.289 548.299,681.333C552.01,677.377 553.865,672.609 553.865,667.027C553.865,661.446 552.01,656.693 548.299,652.767C544.588,648.842 540.126,646.879 534.913,646.879C529.7,646.879 525.238,648.842 521.527,652.767C517.816,656.693 515.961,661.446 515.961,667.027C515.961,672.609 517.816,677.377 521.527,681.333C525.238,685.289 529.7,687.267 534.913,687.267Z" style="fill:rgb(62,122,171);fill-opacity:3;fill-rule:nonzero;"/>
            </g>
            <g transform="matrix(1.13861,3.44446e-17,3.44446e-17,0.997975,-76.5945,3.64738)">
                <path d="M603.085,688.371L603.085,626.363C603.085,625.566 603.484,625.167 604.281,625.167C604.588,625.167 604.848,625.29 605.063,625.535C605.278,625.781 605.095,625.867 605.095,626.174L605.095,673.971L635.009,644.487C635.5,643.997 636.036,644.012 636.619,644.533C637.202,645.055 637.217,645.591 636.665,646.143L617.989,664.819L636.665,687.543C636.972,687.911 637.018,688.341 636.803,688.831C636.588,689.322 636.266,689.567 635.837,689.567C635.408,689.567 635.101,689.414 634.917,689.107L616.241,666.567L606.095,676.989C605.973,677.112 605.157,677.996 605.095,677.996L605.095,688.561C605.095,688.868 604.939,689.58 604.095,689.567C603.298,689.555 603.085,689.169 603.085,688.371Z" style="fill:rgb(62,122,171);fill-opacity:3;fill-rule:nonzero;"/>
            </g>
            <g transform="matrix(1.14047,3.40528e-17,3.40528e-17,1.00144,-90.6704,1.26013)">
                <path d="M682.297,688.371L682.297,645.959C682.297,645.223 682.297,644.855 683.064,644.855C683.83,644.855 683.83,645.113 683.83,645.849L683.83,688.574C683.83,688.881 683.37,689.567 683.064,689.567C682.266,689.567 682.297,689.169 682.297,688.371ZM682.297,635.803L682.297,633.135C682.297,632.337 682.68,631.939 683.447,631.939C684.214,631.939 684.022,632.403 684.022,633.2L684.022,635.868C684.022,636.175 683.754,636.907 683.447,636.907C682.65,636.907 682.297,636.539 682.297,635.803Z" style="fill:rgb(62,122,171);fill-opacity:3;fill-rule:nonzero;"/>
            </g>
            <g transform="matrix(1.01834,7.12636e-18,7.12636e-18,0.989249,211.602,9.6647)">
                <path d="M554.188,645.489C554.188,644.692 554.41,644.487 555.177,644.487C555.943,644.487 556.165,644.886 556.165,645.683L556.165,688.566C556.165,689.363 555.943,689.567 555.177,689.567C554.41,689.567 554.188,689.363 554.188,688.566L554.188,677.045C552.409,680.787 549.495,683.894 546.091,686.163C542.687,688.433 538.961,689.567 534.913,689.567C529.025,689.567 524.011,687.359 519.871,682.943C515.731,678.527 513.661,673.222 513.661,667.027C513.661,660.833 515.731,655.527 519.871,651.111C524.011,646.695 529.025,644.487 534.913,644.487C538.961,644.487 542.687,645.622 546.091,647.891C549.495,650.161 552.409,653.268 554.188,657.01L554.188,645.489ZM534.913,687.267C540.126,687.267 544.588,685.289 548.299,681.333C552.01,677.377 553.865,672.609 553.865,667.027C553.865,661.446 552.01,656.693 548.299,652.767C544.588,648.842 540.126,646.879 534.913,646.879C529.7,646.879 525.238,648.842 521.527,652.767C517.816,656.693 515.961,661.446 515.961,667.027C515.961,672.609 517.816,677.377 521.527,681.333C525.238,685.289 529.7,687.267 534.913,687.267Z" style="fill:rgb(62,122,171);fill-opacity:3;fill-rule:nonzero;"/>
            </g>
        </g>
        <g id="logo" transform="matrix(0.499925,0,0,0.499925,6.99245,559.515)">
            <g>
                <g id="Layer4" transform="matrix(1.11765,0,0,1.11765,-164.236,-24.236)">
                    <g transform="matrix(0.551641,-1.73999e-16,-1.73999e-16,1.26205,138.37,-51.7211)">
                        <path d="M307.5,156C417.607,156 507,183.842 507,203.5C507,221.971 417.607,251 307.5,251C197.393,251 108,221.585 108,203.5C108,186.34 197.393,156 307.5,156Z" style="fill:none;stroke-width:3.67px;stroke:rgb(62,122,171);"/>
                    </g>
                    <g transform="matrix(0.532844,-0.142775,0.326642,1.21904,77.6789,0.933358)">
                        <path d="M307.5,156C417.607,156 507,183.842 507,203.5C507,221.971 417.607,251 307.5,251C197.393,251 108,221.585 108,203.5C108,186.34 197.393,156 307.5,156Z" style="fill:none;stroke-width:3.67px;stroke:rgb(62,122,171);"/>
                    </g>
                    <g transform="matrix(0.477735,-0.27582,0.631023,1.09296,32.6833,67.5018)">
                        <path d="M307.5,156C417.607,156 507,183.842 507,203.5C507,221.971 417.607,251 307.5,251C197.393,251 108,221.585 108,203.5C108,186.34 197.393,156 307.5,156Z" style="fill:none;stroke-width:3.67px;stroke:rgb(62,122,171);"/>
                    </g>
                    <g transform="matrix(0.390069,-0.390069,0.892401,0.892401,6.45014,143.448)">
                        <path d="M307.5,156C417.607,156 507,183.842 507,203.5C507,221.971 417.607,251 307.5,251C197.393,251 108,221.585 108,203.5C108,186.34 197.393,156 307.5,156Z" style="fill:none;stroke-width:3.67px;stroke:rgb(62,122,171);"/>
                    </g>
                    <g transform="matrix(0.27582,-0.477735,1.09296,0.631023,0.76706,223.596)">
                        <path d="M307.5,156C417.607,156 507,183.842 507,203.5C507,221.971 417.607,251 307.5,251C197.393,251 108,221.585 108,203.5C108,186.34 197.393,156 307.5,156Z" style="fill:none;stroke-width:3.67px;stroke:rgb(62,122,171);"/>
                    </g>
                    <g transform="matrix(0.142775,-0.532844,1.21904,0.326642,16.0214,302.483)">
                        <path d="M307.5,156C417.607,156 507,183.842 507,203.5C507,221.971 417.607,251 307.5,251C197.393,251 108,221.585 108,203.5C108,186.34 197.393,156 307.5,156Z" style="fill:none;stroke-width:3.67px;stroke:rgb(62,122,171);"/>
                    </g>
                    <g transform="matrix(-8.31889e-16,-0.551641,1.26205,-1.66623e-15,51.1736,374.735)">
                        <path d="M307.5,156C417.607,156 507,183.842 507,203.5C507,221.971 417.607,251 307.5,251C197.393,251 108,221.585 108,203.5C108,186.34 197.393,156 307.5,156Z" style="fill:none;stroke-width:3.67px;stroke:rgb(62,122,171);"/>
                    </g>
                    <g transform="matrix(-0.142775,-0.532844,1.21904,-0.326642,103.828,435.426)">
                        <path d="M307.5,156C417.607,156 507,183.842 507,203.5C507,221.971 417.607,251 307.5,251C197.393,251 108,221.585 108,203.5C108,186.34 197.393,156 307.5,156Z" style="fill:none;stroke-width:3.67px;stroke:rgb(62,122,171);"/>
                    </g>
                    <g transform="matrix(-0.27582,-0.477735,1.09296,-0.631023,170.397,480.422)">
                        <path d="M307.5,156C417.607,156 507,183.842 507,203.5C507,221.971 417.607,251 307.5,251C197.393,251 108,221.585 108,203.5C108,186.34 197.393,156 307.5,156Z" style="fill:none;stroke-width:3.67px;stroke:rgb(62,122,171);"/>
                    </g>
                    <g transform="matrix(-0.390069,-0.390069,0.892401,-0.892401,246.342,506.655)">
                        <path d="M307.5,156C417.607,156 507,183.842 507,203.5C507,221.971 417.607,251 307.5,251C197.393,251 108,221.585 108,203.5C108,186.34 197.393,156 307.5,156Z" style="fill:none;stroke-width:3.67px;stroke:rgb(62,122,171);"/>
                    </g>
                    <g transform="matrix(-0.477735,-0.27582,0.631023,-1.09296,326.49,512.338)">
                        <path d="M307.5,156C417.607,156 507,183.842 507,203.5C507,221.971 417.607,251 307.5,251C197.393,251 108,221.585 108,203.5C108,186.34 197.393,156 307.5,156Z" style="fill:none;stroke-width:3.67px;stroke:rgb(62,122,171);"/>
                    </g>
                    <g transform="matrix(-0.532844,-0.142775,0.326642,-1.21904,405.378,497.084)">
                        <path d="M307.5,156C417.607,156 507,183.842 507,203.5C507,221.971 417.607,251 307.5,251C197.393,251 108,221.585 108,203.5C108,186.34 197.393,156 307.5,156Z" style="fill:none;stroke-width:3.67px;stroke:rgb(62,122,171);"/>
                    </g>
                    <g transform="matrix(-0.551641,1.58058e-15,-3.16585e-15,-1.26205,477.63,461.932)">
                        <path d="M307.5,156C417.607,156 507,183.842 507,203.5C507,221.971 417.607,251 307.5,251C197.393,251 108,221.585 108,203.5C108,186.34 197.393,156 307.5,156Z" style="fill:none;stroke-width:3.67px;stroke:rgb(62,122,171);"/>
                    </g>
                </g>
                <g transform="matrix(1.00861,0,0,1.00861,-1.54971,-315.443)">
                    <path d="M195.759,633.352C190.194,636.984 184.813,638.942 180,638.942C175.467,638.942 170.282,637.013 164.849,633.432C158.534,635.5 152.829,635.998 148.18,634.752C143.802,633.579 139.293,630.374 134.971,625.509C128.337,625.872 122.697,624.877 118.529,622.47C114.603,620.204 111.078,615.941 108.163,610.123C101.66,608.757 96.471,606.336 93.067,602.933C89.862,599.727 87.56,594.697 86.249,588.323C80.322,585.321 75.936,581.639 73.53,577.471C71.263,573.545 70.341,568.09 70.725,561.595C65.777,557.16 62.493,552.469 61.248,547.82C60.109,543.57 60.566,538.258 62.47,532.304C58.952,526.688 57.058,521.146 57.058,516C57.058,511.329 58.826,506.18 62.118,500.874C60.293,494.715 59.948,489.031 61.248,484.18C62.457,479.669 65.496,475.152 70.05,470.879C69.881,464.457 71.018,458.878 73.53,454.529C75.865,450.484 79.97,446.909 85.474,443.959C86.973,437.713 89.516,432.618 93.067,429.067C96.37,425.764 101.261,423.373 107.341,421.949C110.405,416.303 114.18,412.041 118.529,409.53C122.574,407.194 127.917,406.15 134.159,406.348C138.58,401.688 143.329,398.547 148.18,397.248C152.692,396.039 158.123,396.413 164.101,398.22C169.578,394.862 174.978,393.058 180,393.058C184.671,393.058 189.82,394.826 195.126,398.118C201.285,396.293 206.969,395.948 211.82,397.248C216.331,398.457 220.848,401.496 225.121,406.05C231.543,405.881 237.122,407.018 241.471,409.53C245.516,411.865 249.091,415.97 252.041,421.474C258.287,422.973 263.382,425.516 266.933,429.067C270.236,432.37 272.627,437.261 274.051,443.341C279.697,446.405 283.959,450.18 286.47,454.529C288.806,458.574 289.85,463.917 289.652,470.159C294.312,474.58 297.453,479.329 298.752,484.18C299.961,488.692 299.587,494.123 297.78,500.101C301.138,505.578 302.942,510.978 302.942,516C302.942,520.812 301.066,526.132 297.579,531.608C299.523,537.741 299.968,543.283 298.752,547.82C297.579,552.198 294.374,556.707 289.509,561.029C289.872,567.663 288.877,573.303 286.47,577.471C284.204,581.397 279.941,584.922 274.123,587.837C272.757,594.34 270.336,599.529 266.933,602.933C263.727,606.138 258.697,608.44 252.323,609.751C249.321,615.678 245.639,620.064 241.471,622.47C237.545,624.737 232.09,625.659 225.595,625.275C221.16,630.223 216.469,633.507 211.82,634.752C207.441,635.926 201.934,635.404 195.759,633.352Z" style="fill:none;stroke-width:3.97px;stroke:rgb(255,228,103);"/>
                </g>
                <g transform="matrix(1.04115,0,0,1.04115,-7.40615,-332.231)">
                    <path d="M195.759,633.352C190.194,636.984 184.813,638.942 180,638.942C175.467,638.942 170.282,637.013 164.849,633.432C158.534,635.5 152.829,635.998 148.18,634.752C143.802,633.579 139.293,630.374 134.971,625.509C128.337,625.872 122.697,624.877 118.529,622.47C114.603,620.204 111.078,615.941 108.163,610.123C101.66,608.757 96.471,606.336 93.067,602.933C89.862,599.727 87.56,594.697 86.249,588.323C80.322,585.321 75.936,581.639 73.53,577.471C71.263,573.545 70.341,568.09 70.725,561.595C65.777,557.16 62.493,552.469 61.248,547.82C60.109,543.57 60.566,538.258 62.47,532.304C58.952,526.688 57.058,521.146 57.058,516C57.058,511.329 58.826,506.18 62.118,500.874C60.293,494.715 59.948,489.031 61.248,484.18C62.457,479.669 65.496,475.152 70.05,470.879C69.881,464.457 71.018,458.878 73.53,454.529C75.865,450.484 79.97,446.909 85.474,443.959C86.973,437.713 89.516,432.618 93.067,429.067C96.37,425.764 101.261,423.373 107.341,421.949C110.405,416.303 114.18,412.041 118.529,409.53C122.574,407.194 127.917,406.15 134.159,406.348C138.58,401.688 143.329,398.547 148.18,397.248C152.692,396.039 158.123,396.413 164.101,398.22C169.578,394.862 174.978,393.058 180,393.058C184.671,393.058 189.82,394.826 195.126,398.118C201.285,396.293 206.969,395.948 211.82,397.248C216.331,398.457 220.848,401.496 225.121,406.05C231.543,405.881 237.122,407.018 241.471,409.53C245.516,411.865 249.091,415.97 252.041,421.474C258.287,422.973 263.382,425.516 266.933,429.067C270.236,432.37 272.627,437.261 274.051,443.341C279.697,446.405 283.959,450.18 286.47,454.529C288.806,458.574 289.85,463.917 289.652,470.159C294.312,474.58 297.453,479.329 298.752,484.18C299.961,488.692 299.587,494.123 297.78,500.101C301.138,505.578 302.942,510.978 302.942,516C302.942,520.812 301.066,526.132 297.579,531.608C299.523,537.741 299.968,543.283 298.752,547.82C297.579,552.198 294.374,556.707 289.509,561.029C289.872,567.663 288.877,573.303 286.47,577.471C284.204,581.397 279.941,584.922 274.123,587.837C272.757,594.34 270.336,599.529 266.933,602.933C263.727,606.138 258.697,608.44 252.323,609.751C249.321,615.678 245.639,620.064 241.471,622.47C237.545,624.737 232.09,625.659 225.595,625.275C221.16,630.223 216.469,633.507 211.82,634.752C207.441,635.926 201.934,635.404 195.759,633.352Z" style="fill:none;stroke-width:3.84px;stroke:rgb(62,122,171);"/>
                </g>
                <g transform="matrix(1.07368,-1.04771e-31,-1.04578e-31,1.07368,-13.2626,-349.019)">
                    <path d="M195.759,633.352C190.194,636.984 184.813,638.942 180,638.942C175.467,638.942 170.282,637.013 164.849,633.432C158.534,635.5 152.829,635.998 148.18,634.752C143.802,633.579 139.293,630.374 134.971,625.509C128.337,625.872 122.697,624.877 118.529,622.47C114.603,620.204 111.078,615.941 108.163,610.123C101.66,608.757 96.471,606.336 93.067,602.933C89.862,599.727 87.56,594.697 86.249,588.323C80.322,585.321 75.936,581.639 73.53,577.471C71.263,573.545 70.341,568.09 70.725,561.595C65.777,557.16 62.493,552.469 61.248,547.82C60.109,543.57 60.566,538.258 62.47,532.304C58.952,526.688 57.058,521.146 57.058,516C57.058,511.329 58.826,506.18 62.118,500.874C60.293,494.715 59.948,489.031 61.248,484.18C62.457,479.669 65.496,475.152 70.05,470.879C69.881,464.457 71.018,458.878 73.53,454.529C75.865,450.484 79.97,446.909 85.474,443.959C86.973,437.713 89.516,432.618 93.067,429.067C96.37,425.764 101.261,423.373 107.341,421.949C110.405,416.303 114.18,412.041 118.529,409.53C122.574,407.194 127.917,406.15 134.159,406.348C138.58,401.688 143.329,398.547 148.18,397.248C152.692,396.039 158.123,396.413 164.101,398.22C169.578,394.862 174.978,393.058 180,393.058C184.671,393.058 189.82,394.826 195.126,398.118C201.285,396.293 206.969,395.948 211.82,397.248C216.331,398.457 220.848,401.496 225.121,406.05C231.543,405.881 237.122,407.018 241.471,409.53C245.516,411.865 249.091,415.97 252.041,421.474C258.287,422.973 263.382,425.516 266.933,429.067C270.236,432.37 272.627,437.261 274.051,443.341C279.697,446.405 283.959,450.18 286.47,454.529C288.806,458.574 289.85,463.917 289.652,470.159C294.312,474.58 297.453,479.329 298.752,484.18C299.961,488.692 299.587,494.123 297.78,500.101C301.138,505.578 302.942,510.978 302.942,516C302.942,520.812 301.066,526.132 297.579,531.608C299.523,537.741 299.968,543.283 298.752,547.82C297.579,552.198 294.374,556.707 289.509,561.029C289.872,567.663 288.877,573.303 286.47,577.471C284.204,581.397 279.941,584.922 274.123,587.837C272.757,594.34 270.336,599.529 266.933,602.933C263.727,606.138 258.697,608.44 252.323,609.751C249.321,615.678 245.639,620.064 241.471,622.47C237.545,624.737 232.09,625.659 225.595,625.275C221.16,630.223 216.469,633.507 211.82,634.752C207.441,635.926 201.934,635.404 195.759,633.352Z" style="fill:none;stroke-width:3.73px;stroke:white;"/>
                </g>
                <g transform="matrix(1.8,-2.19402e-30,-2.127e-30,1.8,-190.8,-142.4)">
                    <circle cx="206" cy="193" r="50" style="fill:white;"/>
                </g>
                <g transform="matrix(1.74,-2.11978e-30,-2.05275e-30,1.74,-178.44,-130.82)">
                    <path d="M206,243L205.677,242.999L205.354,242.996L205.032,242.991L204.71,242.984L204.389,242.974L204.068,242.963L203.748,242.95L203.429,242.935L203.11,242.918L202.791,242.898L202.473,242.877L202.155,242.854L201.838,242.829L201.522,242.802L201.206,242.773L200.891,242.742L200.576,242.709L200.262,242.674L199.948,242.637L199.636,242.598L199.323,242.557L199.011,242.515L198.7,242.47L198.39,242.423L198.08,242.375L197.771,242.325L197.462,242.273L197.154,242.218L196.847,242.163L196.54,242.105L196.234,242.045L195.929,241.983L195.624,241.92L195.32,241.855L195.017,241.788L194.714,241.719L194.412,241.648L194.111,241.575L193.81,241.501L193.51,241.425L193.211,241.347L192.913,241.267L192.615,241.185L192.318,241.102L192.022,241.017L191.727,240.93L191.432,240.841L191.138,240.751L190.845,240.658L190.553,240.564L190.261,240.469L189.971,240.371L189.681,240.272L189.392,240.171L189.103,240.068L188.816,239.964L188.529,239.858L188.243,239.75L187.958,239.641L187.674,239.53L187.391,239.417L187.108,239.302L186.826,239.186L186.546,239.068L186.266,238.949L185.987,238.828L185.708,238.705L185.431,238.58L185.155,238.454L184.879,238.327L184.605,238.197L184.331,238.066L184.058,237.934L183.786,237.8L183.516,237.664L183.246,237.527L182.977,237.388L182.708,237.247L182.441,237.105L182.175,236.962L181.91,236.816L181.646,236.67L181.383,236.521L181.12,236.372L180.859,236.22L180.599,236.067L180.34,235.913L180.081,235.757L179.824,235.6L179.568,235.441L179.313,235.28L179.059,235.118L178.806,234.955L178.554,234.79L178.303,234.624L178.053,234.456L177.804,234.287L177.556,234.116L177.309,233.944L177.064,233.77L176.819,233.595L176.576,233.419L176.333,233.241L176.092,233.061L175.852,232.881L175.613,232.698L175.375,232.515L175.138,232.33L174.903,232.144L174.668,231.956L174.435,231.767L174.203,231.576L173.972,231.385L173.742,231.192L173.514,230.997L173.286,230.801L173.06,230.604L172.835,230.405L172.611,230.206L172.388,230.004L172.167,229.802L171.947,229.598L171.728,229.393L171.51,229.187L171.294,228.979L171.078,228.77L170.864,228.56L170.652,228.348L170.44,228.136L170.23,227.922L170.021,227.706L169.813,227.49L169.607,227.272L169.402,227.053L169.198,226.833L168.996,226.612L168.794,226.389L168.595,226.165L168.396,225.94L168.199,225.714L168.003,225.486L167.808,225.258L167.615,225.028L167.424,224.797L167.233,224.565L167.044,224.332L166.856,224.097L166.67,223.862L166.485,223.625L166.302,223.387L166.119,223.148L165.939,222.908L165.759,222.667L165.581,222.424L165.405,222.181L165.23,221.936L165.056,221.691L164.884,221.444L164.713,221.196L164.544,220.947L164.376,220.697L164.21,220.446L164.045,220.194L163.882,219.941L163.72,219.687L163.559,219.432L163.4,219.176L163.243,218.919L163.087,218.66L162.933,218.401L162.78,218.141L162.628,217.88L162.479,217.617L162.33,217.354L162.184,217.09L162.038,216.825L161.895,216.559L161.753,216.292L161.612,216.023L161.473,215.754L161.336,215.484L161.2,215.214L161.066,214.942L160.934,214.669L160.803,214.395L160.673,214.121L160.546,213.845L160.42,213.569L160.295,213.292L160.172,213.013L160.051,212.734L159.932,212.454L159.814,212.174L159.698,211.892L159.583,211.609L159.47,211.326L159.359,211.042L159.25,210.757L159.142,210.471L159.036,210.184L158.932,209.897L158.829,209.608L158.728,209.319L158.629,209.029L158.531,208.739L158.436,208.447L158.342,208.155L158.249,207.862L158.159,207.568L158.07,207.273L157.983,206.978L157.898,206.682L157.815,206.385L157.733,206.087L157.653,205.789L157.575,205.49L157.499,205.19L157.425,204.889L157.352,204.588L157.281,204.286L157.212,203.983L157.145,203.68L157.08,203.376L157.017,203.071L156.955,202.766L156.895,202.46L156.837,202.153L156.782,201.846L156.727,201.538L156.675,201.229L156.625,200.92L156.577,200.61L156.53,200.3L156.485,199.989L156.443,199.677L156.402,199.364L156.363,199.052L156.326,198.738L156.291,198.424L156.258,198.109L156.227,197.794L156.198,197.478L156.171,197.162L156.146,196.845L156.123,196.527L156.102,196.209L156.082,195.89L156.065,195.571L156.05,195.252L156.037,194.932L156.026,194.611L156.016,194.29L156.009,193.968L156.004,193.646L156.001,193.323L156,193L156.001,192.677L156.004,192.354L156.009,192.032L156.016,191.71L156.026,191.389L156.037,191.068L156.05,190.748L156.065,190.429L156.082,190.11L156.102,189.791L156.123,189.473L156.146,189.155L156.171,188.838L156.198,188.522L156.227,188.206L156.258,187.891L156.291,187.576L156.326,187.262L156.363,186.948L156.402,186.636L156.443,186.323L156.485,186.011L156.53,185.7L156.577,185.39L156.625,185.08L156.675,184.771L156.727,184.462L156.782,184.154L156.837,183.847L156.895,183.54L156.955,183.234L157.017,182.929L157.08,182.624L157.145,182.32L157.212,182.017L157.281,181.714L157.352,181.412L157.425,181.111L157.499,180.81L157.575,180.51L157.653,180.211L157.733,179.913L157.815,179.615L157.898,179.318L157.983,179.022L158.07,178.727L158.159,178.432L158.249,178.138L158.342,177.845L158.436,177.553L158.531,177.261L158.629,176.971L158.728,176.681L158.829,176.392L158.932,176.103L159.036,175.816L159.142,175.529L159.25,175.243L159.359,174.958L159.47,174.674L159.583,174.391L159.698,174.108L159.814,173.826L159.932,173.546L160.051,173.266L160.172,172.987L160.295,172.708L160.42,172.431L160.546,172.155L160.673,171.879L160.803,171.605L160.934,171.331L161.066,171.058L161.2,170.786L161.336,170.516L161.473,170.246L161.612,169.977L161.753,169.708L161.895,169.441L162.038,169.175L162.184,168.91L162.33,168.646L162.479,168.383L162.628,168.12L162.78,167.859L162.933,167.599L163.087,167.34L163.243,167.081L163.4,166.824L163.559,166.568L163.72,166.313L163.882,166.059L164.045,165.806L164.21,165.554L164.376,165.303L164.544,165.053L164.713,164.804L164.884,164.556L165.056,164.309L165.23,164.064L165.405,163.819L165.581,163.576L165.759,163.333L165.939,163.092L166.119,162.852L166.302,162.613L166.485,162.375L166.67,162.138L166.856,161.903L167.044,161.668L167.233,161.435L167.424,161.203L167.615,160.972L167.808,160.742L168.003,160.514L168.199,160.286L168.396,160.06L168.595,159.835L168.794,159.611L168.996,159.388L169.198,159.167L169.402,158.947L169.607,158.728L169.813,158.51L170.021,158.294L170.23,158.078L170.44,157.864L170.652,157.652L170.864,157.44L171.078,157.23L171.294,157.021L171.51,156.813L171.728,156.607L171.947,156.402L172.167,156.198L172.388,155.996L172.611,155.794L172.835,155.595L173.06,155.396L173.286,155.199L173.514,155.003L173.742,154.808L173.972,154.615L174.203,154.424L174.435,154.233L174.668,154.044L174.903,153.856L175.138,153.67L175.375,153.485L175.613,153.302L175.852,153.119L176.092,152.939L176.333,152.759L176.576,152.581L176.819,152.405L177.064,152.23L177.309,152.056L177.556,151.884L177.804,151.713L178.053,151.544L178.303,151.376L178.554,151.21L178.806,151.045L179.059,150.882L179.313,150.72L179.568,150.559L179.824,150.4L180.081,150.243L180.34,150.087L180.599,149.933L180.859,149.78L181.12,149.628L181.383,149.479L181.646,149.33L181.91,149.184L182.175,149.038L182.441,148.895L182.708,148.753L182.977,148.612L183.246,148.473L183.516,148.336L183.786,148.2L184.058,148.066L184.331,147.934L184.605,147.803L184.879,147.673L185.155,147.546L185.431,147.42L185.708,147.295L185.987,147.172L186.266,147.051L186.546,146.932L186.826,146.814L187.108,146.698L187.391,146.583L187.674,146.47L187.958,146.359L188.243,146.25L188.529,146.142L188.816,146.036L189.103,145.932L189.392,145.829L189.681,145.728L189.971,145.629L190.261,145.531L190.553,145.436L190.845,145.342L191.138,145.249L191.432,145.159L191.727,145.07L192.022,144.983L192.318,144.898L192.615,144.815L192.913,144.733L193.211,144.653L193.51,144.575L193.81,144.499L194.111,144.425L194.412,144.352L194.714,144.281L195.017,144.212L195.32,144.145L195.624,144.08L195.929,144.017L196.234,143.955L196.54,143.895L196.847,143.837L197.154,143.782L197.462,143.727L197.771,143.675L198.08,143.625L198.39,143.577L198.7,143.53L199.011,143.485L199.323,143.443L199.636,143.402L199.948,143.363L200.262,143.326L200.576,143.291L200.891,143.258L201.206,143.227L201.522,143.198L201.838,143.171L202.155,143.146L202.473,143.123L202.791,143.102L203.11,143.082L203.429,143.065L203.748,143.05L204.068,143.037L204.389,143.026L204.71,143.016L205.032,143.009L205.354,143.004L205.677,143.001L206,143L206.323,143.001L206.646,143.004L206.968,143.009L207.29,143.016L207.611,143.026L207.932,143.037L208.252,143.05L208.571,143.065L208.89,143.082L209.209,143.102L209.527,143.123L209.845,143.146L210.162,143.171L210.478,143.198L210.794,143.227L211.109,143.258L211.424,143.291L211.738,143.326L212.052,143.363L212.364,143.402L212.677,143.443L212.989,143.485L213.3,143.53L213.61,143.577L213.92,143.625L214.229,143.675L214.538,143.727L214.846,143.782L215.153,143.837L215.46,143.895L215.766,143.955L216.071,144.017L216.376,144.08L216.68,144.145L216.983,144.212L217.286,144.281L217.588,144.352L217.889,144.425L218.19,144.499L218.49,144.575L218.789,144.653L219.087,144.733L219.385,144.815L219.682,144.898L219.978,144.983L220.273,145.07L220.568,145.159L220.862,145.249L221.155,145.342L221.447,145.436L221.739,145.531L222.029,145.629L222.319,145.728L222.608,145.829L222.897,145.932L223.184,146.036L223.471,146.142L223.757,146.25L224.042,146.359L224.326,146.47L224.609,146.583L224.892,146.698L225.174,146.814L225.454,146.932L225.734,147.051L226.013,147.172L226.292,147.295L226.569,147.42L226.845,147.546L227.121,147.673L227.395,147.803L227.669,147.934L227.942,148.066L228.214,148.2L228.484,148.336L228.754,148.473L229.023,148.612L229.292,148.753L229.559,148.895L229.825,149.038L230.09,149.184L230.354,149.33L230.617,149.479L230.88,149.628L231.141,149.78L231.401,149.933L231.66,150.087L231.919,150.243L232.176,150.4L232.432,150.559L232.687,150.72L232.941,150.882L233.194,151.045L233.446,151.21L233.697,151.376L233.947,151.544L234.196,151.713L234.444,151.884L234.691,152.056L234.936,152.23L235.181,152.405L235.424,152.581L235.667,152.759L235.908,152.939L236.148,153.119L236.387,153.302L236.625,153.485L236.862,153.67L237.097,153.856L237.332,154.044L237.565,154.233L237.797,154.424L238.028,154.615L238.258,154.808L238.486,155.003L238.714,155.199L238.94,155.396L239.165,155.595L239.389,155.794L239.612,155.996L239.833,156.198L240.053,156.402L240.272,156.607L240.49,156.813L240.706,157.021L240.922,157.23L241.136,157.44L241.348,157.652L241.56,157.864L241.77,158.078L241.979,158.294L242.187,158.51L242.393,158.728L242.598,158.947L242.802,159.167L243.004,159.388L243.206,159.611L243.405,159.835L243.604,160.06L243.801,160.286L243.997,160.514L244.192,160.742L244.385,160.972L244.576,161.203L244.767,161.435L244.956,161.668L245.144,161.903L245.33,162.138L245.515,162.375L245.698,162.613L245.881,162.852L246.061,163.092L246.241,163.333L246.419,163.576L246.595,163.819L246.77,164.064L246.944,164.309L247.116,164.556L247.287,164.804L247.456,165.053L247.624,165.303L247.79,165.554L247.955,165.806L248.118,166.059L248.28,166.313L248.441,166.568L248.6,166.824L248.757,167.081L248.913,167.34L249.067,167.599L249.22,167.859L249.372,168.12L249.521,168.383L249.67,168.646L249.816,168.91L249.962,169.175L250.105,169.441L250.247,169.708L250.388,169.977L250.527,170.246L250.664,170.516L250.8,170.786L250.934,171.058L251.066,171.331L251.197,171.605L251.327,171.879L251.454,172.155L251.58,172.431L251.705,172.708L251.828,172.987L251.949,173.266L252.068,173.546L252.186,173.826L252.302,174.108L252.417,174.391L252.53,174.674L252.641,174.958L252.75,175.243L252.858,175.529L252.964,175.816L253.068,176.103L253.171,176.392L253.272,176.681L253.371,176.971L253.469,177.261L253.564,177.553L253.658,177.845L253.751,178.138L253.841,178.432L253.93,178.727L254.017,179.022L254.102,179.318L254.185,179.615L254.267,179.913L254.347,180.211L254.425,180.51L254.501,180.81L254.575,181.111L254.648,181.412L254.719,181.714L254.788,182.017L254.855,182.32L254.92,182.624L254.983,182.929L255.045,183.234L255.105,183.54L255.163,183.847L255.218,184.154L255.273,184.462L255.325,184.771L255.375,185.08L255.423,185.39L255.47,185.7L255.515,186.011L255.557,186.323L255.598,186.636L255.637,186.948L255.674,187.262L255.709,187.576L255.742,187.891L255.773,188.206L255.802,188.522L255.829,188.838L255.854,189.155L255.877,189.473L255.898,189.791L255.918,190.11L255.935,190.429L255.95,190.748L255.963,191.068L255.974,191.389L255.984,191.71L255.991,192.032L255.996,192.354L255.999,192.677L256,193L255.999,193.323L255.996,193.646L255.991,193.968L255.984,194.29L255.974,194.611L255.963,194.932L255.95,195.252L255.935,195.571L255.918,195.89L255.898,196.209L255.877,196.527L255.854,196.845L255.829,197.162L255.802,197.478L255.773,197.794L255.742,198.109L255.709,198.424L255.674,198.738L255.637,199.052L255.598,199.364L255.557,199.677L255.515,199.989L255.47,200.3L255.423,200.61L255.375,200.92L255.325,201.229L255.273,201.538L255.218,201.846L255.163,202.153L255.105,202.46L255.045,202.766L254.983,203.071L254.92,203.376L254.855,203.68L254.788,203.983L254.719,204.286L254.648,204.588L254.575,204.889L254.501,205.19L254.425,205.49L254.347,205.789L254.267,206.087L254.185,206.385L254.102,206.682L254.017,206.978L253.93,207.273L253.841,207.568L253.751,207.862L253.658,208.155L253.564,208.447L253.469,208.739L253.371,209.029L253.272,209.319L253.171,209.608L253.068,209.897L252.964,210.184L252.858,210.471L252.75,210.757L252.641,211.042L252.53,211.326L252.417,211.609L252.302,211.892L252.186,212.174L252.068,212.454L251.949,212.734L251.828,213.013L251.705,213.292L251.58,213.569L251.454,213.845L251.327,214.121L251.197,214.395L251.066,214.669L250.934,214.942L250.8,215.214L250.664,215.484L250.527,215.754L250.388,216.023L250.247,216.292L250.105,216.559L249.962,216.825L249.816,217.09L249.67,217.354L249.521,217.617L249.372,217.88L249.22,218.141L249.067,218.401L248.913,218.66L248.757,218.919L248.6,219.176L248.441,219.432L248.28,219.687L248.118,219.941L247.955,220.194L247.79,220.446L247.624,220.697L247.456,220.947L247.287,221.196L247.116,221.444L246.944,221.691L246.77,221.936L246.595,222.181L246.419,222.424L246.241,222.667L246.061,222.908L245.881,223.148L245.698,223.387L245.515,223.625L245.33,223.862L245.144,224.097L244.956,224.332L244.767,224.565L244.576,224.797L244.385,225.028L244.192,225.258L243.997,225.486L243.801,225.714L243.604,225.94L243.405,226.165L243.206,226.389L243.004,226.612L242.802,226.833L242.598,227.053L242.393,227.272L242.187,227.49L241.979,227.706L241.77,227.922L241.56,228.136L241.348,228.348L241.136,228.56L240.922,228.77L240.706,228.979L240.49,229.187L240.272,229.393L240.053,229.598L239.833,229.802L239.612,230.004L239.389,230.206L239.165,230.405L238.94,230.604L238.714,230.801L238.486,230.997L238.258,231.192L238.028,231.385L237.797,231.576L237.565,231.767L237.332,231.956L237.097,232.144L236.862,232.33L236.625,232.515L236.387,232.698L236.148,232.881L235.908,233.061L235.667,233.241L235.424,233.419L235.181,233.595L234.936,233.77L234.691,233.944L234.444,234.116L234.196,234.287L233.947,234.456L233.697,234.624L233.446,234.79L233.194,234.955L232.941,235.118L232.687,235.28L232.432,235.441L232.176,235.6L231.919,235.757L231.66,235.913L231.401,236.067L231.141,236.22L230.88,236.372L230.617,236.521L230.354,236.67L230.09,236.816L229.825,236.962L229.559,237.105L229.292,237.247L229.023,237.388L228.754,237.527L228.484,237.664L228.214,237.8L227.942,237.934L227.669,238.066L227.395,238.197L227.121,238.327L226.845,238.454L226.569,238.58L226.292,238.705L226.013,238.828L225.734,238.949L225.454,239.068L225.174,239.186L224.892,239.302L224.609,239.417L224.326,239.53L224.042,239.641L223.757,239.75L223.471,239.858L223.184,239.964L222.897,240.068L222.608,240.171L222.319,240.272L222.029,240.371L221.739,240.469L221.447,240.564L221.155,240.658L220.862,240.751L220.568,240.841L220.273,240.93L219.978,241.017L219.682,241.102L219.385,241.185L219.087,241.267L218.789,241.347L218.49,241.425L218.19,241.501L217.889,241.575L217.588,241.648L217.286,241.719L216.983,241.788L216.68,241.855L216.376,241.92L216.071,241.983L215.766,242.045L215.46,242.105L215.153,242.163L214.846,242.218L214.538,242.273L214.229,242.325L213.92,242.375L213.61,242.423L213.3,242.47L212.989,242.515L212.677,242.557L212.364,242.598L212.052,242.637L211.738,242.674L211.424,242.709L211.109,242.742L210.794,242.773L210.478,242.802L210.162,242.829L209.845,242.854L209.527,242.877L209.209,242.898L208.89,242.918L208.571,242.935L208.252,242.95L207.932,242.963L207.611,242.974L207.29,242.984L206.968,242.991L206.646,242.996L206.323,242.999L206,243ZM206,240.931L206.31,240.93L206.62,240.927L206.929,240.922L207.237,240.915L207.545,240.907L207.853,240.896L208.16,240.883L208.466,240.869L208.773,240.852L209.078,240.834L209.383,240.813L209.687,240.791L209.991,240.767L210.295,240.741L210.598,240.713L210.9,240.683L211.202,240.652L211.503,240.618L211.803,240.583L212.103,240.546L212.403,240.506L212.701,240.466L213,240.423L213.297,240.378L213.594,240.332L213.891,240.284L214.187,240.234L214.482,240.182L214.776,240.128L215.07,240.073L215.364,240.016L215.656,239.957L215.948,239.896L216.24,239.833L216.53,239.769L216.82,239.703L217.11,239.635L217.398,239.565L217.686,239.494L217.974,239.421L218.26,239.346L218.546,239.27L218.831,239.192L219.116,239.112L219.4,239.03L219.683,238.947L219.965,238.862L220.247,238.775L220.527,238.687L220.808,238.597L221.087,238.505L221.366,238.411L221.643,238.316L221.921,238.22L222.197,238.121L222.472,238.021L222.747,237.92L223.021,237.816L223.294,237.711L223.567,237.605L223.838,237.497L224.109,237.387L224.379,237.276L224.648,237.163L224.916,237.048L225.184,236.932L225.45,236.815L225.716,236.695L225.981,236.574L226.245,236.452L226.508,236.328L226.77,236.203L227.032,236.076L227.292,235.947L227.552,235.817L227.811,235.685L228.069,235.552L228.326,235.418L228.582,235.281L228.837,235.144L229.091,235.005L229.344,234.864L229.597,234.722L229.848,234.578L230.098,234.433L230.348,234.287L230.596,234.139L230.844,233.989L231.09,233.838L231.336,233.686L231.581,233.532L231.824,233.377L232.067,233.22L232.309,233.062L232.549,232.903L232.789,232.742L233.027,232.579L233.265,232.416L233.502,232.251L233.737,232.084L233.972,231.916L234.205,231.747L234.437,231.577L234.669,231.405L234.899,231.231L235.128,231.057L235.356,230.881L235.583,230.703L235.809,230.525L236.034,230.345L236.257,230.163L236.48,229.981L236.701,229.797L236.922,229.612L237.141,229.425L237.359,229.237L237.576,229.048L237.792,228.858L238.006,228.666L238.22,228.473L238.432,228.279L238.643,228.084L238.853,227.887L239.062,227.689L239.27,227.49L239.476,227.29L239.681,227.088L239.885,226.885L240.088,226.681L240.29,226.476L240.49,226.27L240.689,226.062L240.887,225.853L241.084,225.643L241.279,225.432L241.473,225.22L241.666,225.006L241.858,224.792L242.048,224.576L242.237,224.359L242.425,224.141L242.612,223.922L242.797,223.701L242.981,223.48L243.163,223.257L243.345,223.034L243.525,222.809L243.703,222.583L243.881,222.356L244.057,222.128L244.231,221.899L244.405,221.669L244.577,221.437L244.747,221.205L244.916,220.971L245.084,220.737L245.251,220.502L245.416,220.265L245.579,220.027L245.742,219.789L245.903,219.549L246.062,219.309L246.22,219.067L246.377,218.824L246.532,218.581L246.686,218.336L246.838,218.09L246.989,217.844L247.139,217.596L247.287,217.348L247.433,217.098L247.578,216.848L247.722,216.597L247.864,216.344L248.005,216.091L248.144,215.837L248.281,215.582L248.418,215.326L248.552,215.069L248.685,214.811L248.817,214.552L248.947,214.292L249.076,214.032L249.203,213.77L249.328,213.508L249.452,213.245L249.574,212.981L249.695,212.716L249.815,212.45L249.932,212.184L250.048,211.916L250.163,211.648L250.276,211.379L250.387,211.109L250.497,210.838L250.605,210.567L250.711,210.294L250.816,210.021L250.92,209.747L251.021,209.472L251.121,209.197L251.22,208.921L251.316,208.643L251.411,208.366L251.505,208.087L251.597,207.808L251.687,207.527L251.775,207.247L251.862,206.965L251.947,206.683L252.03,206.4L252.112,206.116L252.192,205.831L252.27,205.546L252.346,205.26L252.421,204.974L252.494,204.686L252.565,204.398L252.635,204.11L252.703,203.82L252.769,203.53L252.833,203.24L252.896,202.948L252.957,202.656L253.016,202.364L253.073,202.07L253.128,201.776L253.182,201.482L253.234,201.187L253.284,200.891L253.332,200.594L253.378,200.297L253.423,200L253.466,199.701L253.506,199.403L253.546,199.103L253.583,198.803L253.618,198.503L253.652,198.202L253.683,197.9L253.713,197.598L253.741,197.295L253.767,196.991L253.791,196.687L253.813,196.383L253.834,196.078L253.852,195.773L253.869,195.466L253.883,195.16L253.896,194.853L253.907,194.545L253.915,194.237L253.922,193.929L253.927,193.62L253.93,193.31L253.931,193L253.93,192.69L253.927,192.38L253.922,192.071L253.915,191.763L253.907,191.455L253.896,191.147L253.883,190.84L253.869,190.534L253.852,190.227L253.834,189.922L253.813,189.617L253.791,189.313L253.767,189.009L253.741,188.705L253.713,188.402L253.683,188.1L253.652,187.798L253.618,187.497L253.583,187.197L253.546,186.897L253.506,186.597L253.466,186.299L253.423,186L253.378,185.703L253.332,185.406L253.284,185.109L253.234,184.813L253.182,184.518L253.128,184.224L253.073,183.93L253.016,183.636L252.957,183.344L252.896,183.052L252.833,182.76L252.769,182.47L252.703,182.18L252.635,181.89L252.565,181.602L252.494,181.314L252.421,181.026L252.346,180.74L252.27,180.454L252.192,180.169L252.112,179.884L252.03,179.6L251.947,179.317L251.862,179.035L251.775,178.753L251.687,178.473L251.597,178.192L251.505,177.913L251.411,177.634L251.316,177.357L251.22,177.079L251.121,176.803L251.021,176.528L250.92,176.253L250.816,175.979L250.711,175.706L250.605,175.433L250.497,175.162L250.387,174.891L250.276,174.621L250.163,174.352L250.048,174.084L249.932,173.816L249.815,173.55L249.695,173.284L249.574,173.019L249.452,172.755L249.328,172.492L249.203,172.23L249.076,171.968L248.947,171.708L248.817,171.448L248.685,171.189L248.552,170.931L248.418,170.674L248.281,170.418L248.144,170.163L248.005,169.909L247.864,169.656L247.722,169.403L247.578,169.152L247.433,168.902L247.287,168.652L247.139,168.404L246.989,168.156L246.838,167.91L246.686,167.664L246.532,167.419L246.377,167.176L246.22,166.933L246.062,166.691L245.903,166.451L245.742,166.211L245.579,165.973L245.416,165.735L245.251,165.498L245.084,165.263L244.916,165.029L244.747,164.795L244.577,164.563L244.405,164.331L244.231,164.101L244.057,163.872L243.881,163.644L243.703,163.417L243.525,163.191L243.345,162.966L243.163,162.743L242.981,162.52L242.797,162.299L242.612,162.078L242.425,161.859L242.237,161.641L242.048,161.424L241.858,161.208L241.666,160.994L241.473,160.78L241.279,160.568L241.084,160.357L240.887,160.147L240.689,159.938L240.49,159.73L240.29,159.524L240.088,159.319L239.885,159.115L239.681,158.912L239.476,158.71L239.27,158.51L239.062,158.311L238.853,158.113L238.643,157.916L238.432,157.721L238.22,157.527L238.006,157.334L237.792,157.142L237.576,156.952L237.359,156.763L237.141,156.575L236.922,156.388L236.701,156.203L236.48,156.019L236.257,155.837L236.034,155.655L235.809,155.475L235.583,155.297L235.356,155.119L235.128,154.943L234.899,154.769L234.669,154.595L234.437,154.423L234.205,154.253L233.971,154.084L233.737,153.916L233.502,153.749L233.265,153.584L233.027,153.421L232.789,153.258L232.549,153.097L232.309,152.938L232.067,152.78L231.824,152.623L231.581,152.468L231.336,152.314L231.09,152.162L230.844,152.011L230.596,151.861L230.348,151.713L230.098,151.567L229.848,151.422L229.597,151.278L229.344,151.136L229.091,150.995L228.837,150.856L228.582,150.719L228.326,150.582L228.069,150.448L227.811,150.315L227.552,150.183L227.292,150.053L227.032,149.924L226.77,149.797L226.508,149.672L226.245,149.548L225.981,149.426L225.716,149.305L225.45,149.185L225.184,149.068L224.916,148.952L224.648,148.837L224.379,148.724L224.109,148.613L223.838,148.503L223.567,148.395L223.294,148.289L223.021,148.184L222.747,148.08L222.472,147.979L222.197,147.879L221.921,147.78L221.643,147.684L221.366,147.589L221.087,147.495L220.808,147.403L220.527,147.313L220.247,147.225L219.965,147.138L219.683,147.053L219.4,146.97L219.116,146.888L218.831,146.808L218.546,146.73L218.26,146.654L217.974,146.579L217.686,146.506L217.398,146.435L217.11,146.365L216.82,146.297L216.53,146.231L216.24,146.167L215.948,146.104L215.656,146.043L215.364,145.984L215.07,145.927L214.776,145.872L214.482,145.818L214.187,145.766L213.891,145.716L213.594,145.668L213.297,145.622L213,145.577L212.702,145.534L212.403,145.494L212.103,145.454L211.803,145.417L211.503,145.382L211.202,145.348L210.9,145.317L210.598,145.287L210.295,145.259L209.991,145.233L209.687,145.209L209.383,145.187L209.078,145.166L208.773,145.148L208.466,145.131L208.16,145.117L207.853,145.104L207.545,145.093L207.237,145.085L206.929,145.078L206.62,145.073L206.31,145.07L206,145.069L205.69,145.07L205.38,145.073L205.071,145.078L204.763,145.085L204.455,145.093L204.147,145.104L203.84,145.117L203.534,145.131L203.227,145.148L202.922,145.166L202.617,145.187L202.313,145.209L202.009,145.233L201.705,145.259L201.402,145.287L201.1,145.317L200.798,145.348L200.497,145.382L200.197,145.417L199.897,145.454L199.597,145.494L199.298,145.534L199,145.577L198.703,145.622L198.406,145.668L198.109,145.716L197.813,145.766L197.518,145.818L197.224,145.872L196.93,145.927L196.636,145.984L196.344,146.043L196.052,146.104L195.76,146.167L195.47,146.231L195.18,146.297L194.89,146.365L194.602,146.435L194.314,146.506L194.026,146.579L193.74,146.654L193.454,146.73L193.169,146.808L192.884,146.888L192.6,146.97L192.317,147.053L192.035,147.138L191.753,147.225L191.473,147.313L191.192,147.403L190.913,147.495L190.634,147.589L190.357,147.684L190.079,147.78L189.803,147.879L189.528,147.979L189.253,148.08L188.979,148.184L188.706,148.289L188.433,148.395L188.162,148.503L187.891,148.613L187.621,148.724L187.352,148.837L187.084,148.952L186.816,149.068L186.55,149.185L186.284,149.305L186.019,149.426L185.755,149.548L185.492,149.672L185.23,149.797L184.968,149.924L184.708,150.053L184.448,150.183L184.189,150.315L183.931,150.448L183.674,150.582L183.418,150.719L183.163,150.856L182.909,150.995L182.656,151.136L182.403,151.278L182.152,151.422L181.902,151.567L181.652,151.713L181.404,151.861L181.156,152.011L180.91,152.162L180.664,152.314L180.419,152.468L180.176,152.623L179.933,152.78L179.691,152.938L179.451,153.097L179.211,153.258L178.973,153.421L178.735,153.584L178.498,153.749L178.263,153.916L178.029,154.084L177.795,154.253L177.563,154.423L177.331,154.595L177.101,154.769L176.872,154.943L176.644,155.119L176.417,155.297L176.191,155.475L175.966,155.655L175.743,155.837L175.52,156.019L175.299,156.203L175.078,156.388L174.859,156.575L174.641,156.763L174.424,156.952L174.208,157.142L173.994,157.334L173.78,157.527L173.568,157.721L173.357,157.916L173.147,158.113L172.938,158.311L172.73,158.51L172.524,158.71L172.319,158.912L172.115,159.115L171.912,159.319L171.71,159.524L171.51,159.73L171.311,159.938L171.113,160.147L170.916,160.357L170.721,160.568L170.527,160.78L170.334,160.994L170.142,161.208L169.952,161.424L169.763,161.641L169.575,161.859L169.388,162.078L169.203,162.299L169.019,162.52L168.837,162.743L168.655,162.966L168.475,163.191L168.297,163.417L168.119,163.644L167.943,163.872L167.769,164.101L167.595,164.331L167.423,164.563L167.253,164.795L167.084,165.029L166.916,165.263L166.749,165.498L166.584,165.735L166.421,165.973L166.258,166.211L166.097,166.451L165.938,166.691L165.78,166.933L165.623,167.176L165.468,167.419L165.314,167.664L165.162,167.91L165.011,168.156L164.861,168.404L164.713,168.652L164.567,168.902L164.422,169.152L164.278,169.403L164.136,169.656L163.995,169.909L163.856,170.163L163.719,170.418L163.582,170.674L163.448,170.931L163.315,171.189L163.183,171.448L163.053,171.708L162.924,171.968L162.797,172.23L162.672,172.492L162.548,172.755L162.426,173.019L162.305,173.284L162.185,173.55L162.068,173.816L161.952,174.084L161.837,174.352L161.724,174.621L161.613,174.891L161.503,175.162L161.395,175.433L161.289,175.706L161.184,175.979L161.08,176.253L160.979,176.528L160.879,176.803L160.78,177.079L160.684,177.357L160.589,177.634L160.495,177.913L160.403,178.192L160.313,178.473L160.225,178.753L160.138,179.035L160.053,179.317L159.97,179.6L159.888,179.884L159.808,180.169L159.73,180.454L159.654,180.74L159.579,181.026L159.506,181.314L159.435,181.602L159.365,181.89L159.297,182.18L159.231,182.47L159.167,182.76L159.104,183.052L159.043,183.344L158.984,183.636L158.927,183.93L158.872,184.224L158.818,184.518L158.766,184.813L158.716,185.109L158.668,185.406L158.622,185.703L158.577,186L158.534,186.298L158.494,186.597L158.454,186.897L158.417,187.197L158.382,187.497L158.348,187.798L158.317,188.1L158.287,188.402L158.259,188.705L158.233,189.009L158.209,189.313L158.187,189.617L158.166,189.922L158.148,190.227L158.131,190.534L158.117,190.84L158.104,191.147L158.093,191.455L158.085,191.763L158.078,192.071L158.073,192.38L158.07,192.69L158.069,193L158.07,193.31L158.073,193.62L158.078,193.929L158.085,194.237L158.093,194.545L158.104,194.853L158.117,195.16L158.131,195.466L158.148,195.773L158.166,196.078L158.187,196.383L158.209,196.687L158.233,196.991L158.259,197.295L158.287,197.598L158.317,197.9L158.348,198.202L158.382,198.503L158.417,198.803L158.454,199.103L158.494,199.403L158.534,199.702L158.577,200L158.622,200.297L158.668,200.594L158.716,200.891L158.766,201.187L158.818,201.482L158.872,201.776L158.927,202.07L158.984,202.364L159.043,202.656L159.104,202.948L159.167,203.24L159.231,203.53L159.297,203.82L159.365,204.11L159.435,204.398L159.506,204.686L159.579,204.974L159.654,205.26L159.73,205.546L159.808,205.831L159.888,206.116L159.97,206.4L160.053,206.683L160.138,206.965L160.225,207.247L160.313,207.527L160.403,207.808L160.495,208.087L160.589,208.366L160.684,208.643L160.78,208.921L160.879,209.197L160.979,209.472L161.08,209.747L161.184,210.021L161.289,210.294L161.395,210.567L161.503,210.838L161.613,211.109L161.724,211.379L161.837,211.648L161.952,211.916L162.068,212.184L162.185,212.45L162.305,212.716L162.426,212.981L162.548,213.245L162.672,213.508L162.797,213.77L162.924,214.032L163.053,214.292L163.183,214.552L163.315,214.811L163.448,215.069L163.582,215.326L163.719,215.582L163.856,215.837L163.995,216.091L164.136,216.344L164.278,216.597L164.422,216.848L164.567,217.098L164.713,217.348L164.861,217.596L165.011,217.844L165.162,218.09L165.314,218.336L165.468,218.581L165.623,218.824L165.78,219.067L165.938,219.309L166.097,219.549L166.258,219.789L166.421,220.027L166.584,220.265L166.749,220.502L166.916,220.737L167.084,220.971L167.253,221.205L167.423,221.437L167.595,221.669L167.769,221.899L167.943,222.128L168.119,222.356L168.297,222.583L168.475,222.809L168.655,223.034L168.837,223.257L169.019,223.48L169.203,223.701L169.388,223.922L169.575,224.141L169.763,224.359L169.952,224.576L170.142,224.792L170.334,225.006L170.527,225.22L170.721,225.432L170.916,225.643L171.113,225.853L171.311,226.062L171.51,226.27L171.71,226.476L171.912,226.681L172.115,226.885L172.319,227.088L172.524,227.29L172.73,227.49L172.938,227.689L173.147,227.887L173.357,228.084L173.568,228.279L173.78,228.473L173.994,228.666L174.208,228.858L174.424,229.048L174.641,229.237L174.859,229.425L175.078,229.612L175.299,229.797L175.52,229.981L175.743,230.163L175.966,230.345L176.191,230.525L176.417,230.703L176.644,230.881L176.872,231.057L177.101,231.231L177.331,231.405L177.563,231.577L177.795,231.747L178.028,231.916L178.263,232.084L178.498,232.251L178.735,232.416L178.973,232.579L179.211,232.742L179.451,232.903L179.691,233.062L179.933,233.22L180.176,233.377L180.419,233.532L180.664,233.686L180.91,233.838L181.156,233.989L181.404,234.139L181.652,234.287L181.902,234.433L182.152,234.578L182.403,234.722L182.656,234.864L182.909,235.005L183.163,235.144L183.418,235.281L183.674,235.418L183.931,235.552L184.189,235.685L184.448,235.817L184.708,235.947L184.968,236.076L185.23,236.203L185.492,236.328L185.755,236.452L186.019,236.574L186.284,236.695L186.55,236.815L186.816,236.932L187.084,237.048L187.352,237.163L187.621,237.276L187.891,237.387L188.162,237.497L188.433,237.605L188.706,237.711L188.979,237.816L189.253,237.92L189.528,238.021L189.803,238.121L190.079,238.22L190.357,238.316L190.634,238.411L190.913,238.505L191.192,238.597L191.473,238.687L191.753,238.775L192.035,238.862L192.317,238.947L192.6,239.03L192.884,239.112L193.169,239.192L193.454,239.27L193.74,239.346L194.026,239.421L194.314,239.494L194.602,239.565L194.89,239.635L195.18,239.703L195.47,239.769L195.76,239.833L196.052,239.896L196.344,239.957L196.636,240.016L196.93,240.073L197.224,240.128L197.518,240.182L197.813,240.234L198.109,240.284L198.406,240.332L198.703,240.378L199,240.423L199.299,240.466L199.597,240.506L199.897,240.546L200.197,240.583L200.497,240.618L200.798,240.652L201.1,240.683L201.402,240.713L201.705,240.741L202.009,240.767L202.313,240.791L202.617,240.813L202.922,240.834L203.227,240.852L203.534,240.869L203.84,240.883L204.147,240.896L204.455,240.907L204.763,240.915L205.071,240.922L205.38,240.927L205.69,240.93L206,240.931Z" style="fill:rgb(62,122,171);"/>
                </g>
                <g transform="matrix(1.6,-1.02922e-30,-1.03191e-30,1.6,-149.6,-103.8)">
                    <path d="M206,243L205.677,242.999L205.354,242.996L205.032,242.991L204.71,242.984L204.389,242.974L204.068,242.963L203.748,242.95L203.429,242.935L203.11,242.918L202.791,242.898L202.473,242.877L202.155,242.854L201.838,242.829L201.522,242.802L201.206,242.773L200.891,242.742L200.576,242.709L200.262,242.674L199.948,242.637L199.636,242.598L199.323,242.557L199.011,242.515L198.7,242.47L198.39,242.423L198.08,242.375L197.771,242.325L197.462,242.273L197.154,242.218L196.847,242.163L196.54,242.105L196.234,242.045L195.929,241.983L195.624,241.92L195.32,241.855L195.017,241.788L194.714,241.719L194.412,241.648L194.111,241.575L193.81,241.501L193.51,241.425L193.211,241.347L192.913,241.267L192.615,241.185L192.318,241.102L192.022,241.017L191.727,240.93L191.432,240.841L191.138,240.751L190.845,240.658L190.553,240.564L190.261,240.469L189.971,240.371L189.681,240.272L189.392,240.171L189.103,240.068L188.816,239.964L188.529,239.858L188.243,239.75L187.958,239.641L187.674,239.53L187.391,239.417L187.108,239.302L186.826,239.186L186.546,239.068L186.266,238.949L185.987,238.828L185.708,238.705L185.431,238.58L185.155,238.454L184.879,238.327L184.605,238.197L184.331,238.066L184.058,237.934L183.786,237.8L183.516,237.664L183.246,237.527L182.977,237.388L182.708,237.247L182.441,237.105L182.175,236.962L181.91,236.816L181.646,236.67L181.383,236.521L181.12,236.372L180.859,236.22L180.599,236.067L180.34,235.913L180.081,235.757L179.824,235.6L179.568,235.441L179.313,235.28L179.059,235.118L178.806,234.955L178.554,234.79L178.303,234.624L178.053,234.456L177.804,234.287L177.556,234.116L177.309,233.944L177.064,233.77L176.819,233.595L176.576,233.419L176.333,233.241L176.092,233.061L175.852,232.881L175.613,232.698L175.375,232.515L175.138,232.33L174.903,232.144L174.668,231.956L174.435,231.767L174.203,231.576L173.972,231.385L173.742,231.192L173.514,230.997L173.286,230.801L173.06,230.604L172.835,230.405L172.611,230.206L172.388,230.004L172.167,229.802L171.947,229.598L171.728,229.393L171.51,229.187L171.294,228.979L171.078,228.77L170.864,228.56L170.652,228.348L170.44,228.136L170.23,227.922L170.021,227.706L169.813,227.49L169.607,227.272L169.402,227.053L169.198,226.833L168.996,226.612L168.794,226.389L168.595,226.165L168.396,225.94L168.199,225.714L168.003,225.486L167.808,225.258L167.615,225.028L167.424,224.797L167.233,224.565L167.044,224.332L166.856,224.097L166.67,223.862L166.485,223.625L166.302,223.387L166.119,223.148L165.939,222.908L165.759,222.667L165.581,222.424L165.405,222.181L165.23,221.936L165.056,221.691L164.884,221.444L164.713,221.196L164.544,220.947L164.376,220.697L164.21,220.446L164.045,220.194L163.882,219.941L163.72,219.687L163.559,219.432L163.4,219.176L163.243,218.919L163.087,218.66L162.933,218.401L162.78,218.141L162.628,217.88L162.479,217.617L162.33,217.354L162.184,217.09L162.038,216.825L161.895,216.559L161.753,216.292L161.612,216.023L161.473,215.754L161.336,215.484L161.2,215.214L161.066,214.942L160.934,214.669L160.803,214.395L160.673,214.121L160.546,213.845L160.42,213.569L160.295,213.292L160.172,213.013L160.051,212.734L159.932,212.454L159.814,212.174L159.698,211.892L159.583,211.609L159.47,211.326L159.359,211.042L159.25,210.757L159.142,210.471L159.036,210.184L158.932,209.897L158.829,209.608L158.728,209.319L158.629,209.029L158.531,208.739L158.436,208.447L158.342,208.155L158.249,207.862L158.159,207.568L158.07,207.273L157.983,206.978L157.898,206.682L157.815,206.385L157.733,206.087L157.653,205.789L157.575,205.49L157.499,205.19L157.425,204.889L157.352,204.588L157.281,204.286L157.212,203.983L157.145,203.68L157.08,203.376L157.017,203.071L156.955,202.766L156.895,202.46L156.837,202.153L156.782,201.846L156.727,201.538L156.675,201.229L156.625,200.92L156.577,200.61L156.53,200.3L156.485,199.989L156.443,199.677L156.402,199.364L156.363,199.052L156.326,198.738L156.291,198.424L156.258,198.109L156.227,197.794L156.198,197.478L156.171,197.162L156.146,196.845L156.123,196.527L156.102,196.209L156.082,195.89L156.065,195.571L156.05,195.252L156.037,194.932L156.026,194.611L156.016,194.29L156.009,193.968L156.004,193.646L156.001,193.323L156,193L156.001,192.677L156.004,192.354L156.009,192.032L156.016,191.71L156.026,191.389L156.037,191.068L156.05,190.748L156.065,190.429L156.082,190.11L156.102,189.791L156.123,189.473L156.146,189.155L156.171,188.838L156.198,188.522L156.227,188.206L156.258,187.891L156.291,187.576L156.326,187.262L156.363,186.948L156.402,186.636L156.443,186.323L156.485,186.011L156.53,185.7L156.577,185.39L156.625,185.08L156.675,184.771L156.727,184.462L156.782,184.154L156.837,183.847L156.895,183.54L156.955,183.234L157.017,182.929L157.08,182.624L157.145,182.32L157.212,182.017L157.281,181.714L157.352,181.412L157.425,181.111L157.499,180.81L157.575,180.51L157.653,180.211L157.733,179.913L157.815,179.615L157.898,179.318L157.983,179.022L158.07,178.727L158.159,178.432L158.249,178.138L158.342,177.845L158.436,177.553L158.531,177.261L158.629,176.971L158.728,176.681L158.829,176.392L158.932,176.103L159.036,175.816L159.142,175.529L159.25,175.243L159.359,174.958L159.47,174.674L159.583,174.391L159.698,174.108L159.814,173.826L159.932,173.546L160.051,173.266L160.172,172.987L160.295,172.708L160.42,172.431L160.546,172.155L160.673,171.879L160.803,171.605L160.934,171.331L161.066,171.058L161.2,170.786L161.336,170.516L161.473,170.246L161.612,169.977L161.753,169.708L161.895,169.441L162.038,169.175L162.184,168.91L162.33,168.646L162.479,168.383L162.628,168.12L162.78,167.859L162.933,167.599L163.087,167.34L163.243,167.081L163.4,166.824L163.559,166.568L163.72,166.313L163.882,166.059L164.045,165.806L164.21,165.554L164.376,165.303L164.544,165.053L164.713,164.804L164.884,164.556L165.056,164.309L165.23,164.064L165.405,163.819L165.581,163.576L165.759,163.333L165.939,163.092L166.119,162.852L166.302,162.613L166.485,162.375L166.67,162.138L166.856,161.903L167.044,161.668L167.233,161.435L167.424,161.203L167.615,160.972L167.808,160.742L168.003,160.514L168.199,160.286L168.396,160.06L168.595,159.835L168.794,159.611L168.996,159.388L169.198,159.167L169.402,158.947L169.607,158.728L169.813,158.51L170.021,158.294L170.23,158.078L170.44,157.864L170.652,157.652L170.864,157.44L171.078,157.23L171.294,157.021L171.51,156.813L171.728,156.607L171.947,156.402L172.167,156.198L172.388,155.996L172.611,155.794L172.835,155.595L173.06,155.396L173.286,155.199L173.514,155.003L173.742,154.808L173.972,154.615L174.203,154.424L174.435,154.233L174.668,154.044L174.903,153.856L175.138,153.67L175.375,153.485L175.613,153.302L175.852,153.119L176.092,152.939L176.333,152.759L176.576,152.581L176.819,152.405L177.064,152.23L177.309,152.056L177.556,151.884L177.804,151.713L178.053,151.544L178.303,151.376L178.554,151.21L178.806,151.045L179.059,150.882L179.313,150.72L179.568,150.559L179.824,150.4L180.081,150.243L180.34,150.087L180.599,149.933L180.859,149.78L181.12,149.628L181.383,149.479L181.646,149.33L181.91,149.184L182.175,149.038L182.441,148.895L182.708,148.753L182.977,148.612L183.246,148.473L183.516,148.336L183.786,148.2L184.058,148.066L184.331,147.934L184.605,147.803L184.879,147.673L185.155,147.546L185.431,147.42L185.708,147.295L185.987,147.172L186.266,147.051L186.546,146.932L186.826,146.814L187.108,146.698L187.391,146.583L187.674,146.47L187.958,146.359L188.243,146.25L188.529,146.142L188.816,146.036L189.103,145.932L189.392,145.829L189.681,145.728L189.971,145.629L190.261,145.531L190.553,145.436L190.845,145.342L191.138,145.249L191.432,145.159L191.727,145.07L192.022,144.983L192.318,144.898L192.615,144.815L192.913,144.733L193.211,144.653L193.51,144.575L193.81,144.499L194.111,144.425L194.412,144.352L194.714,144.281L195.017,144.212L195.32,144.145L195.624,144.08L195.929,144.017L196.234,143.955L196.54,143.895L196.847,143.837L197.154,143.782L197.462,143.727L197.771,143.675L198.08,143.625L198.39,143.577L198.7,143.53L199.011,143.485L199.323,143.443L199.636,143.402L199.948,143.363L200.262,143.326L200.576,143.291L200.891,143.258L201.206,143.227L201.522,143.198L201.838,143.171L202.155,143.146L202.473,143.123L202.791,143.102L203.11,143.082L203.429,143.065L203.748,143.05L204.068,143.037L204.389,143.026L204.71,143.016L205.032,143.009L205.354,143.004L205.677,143.001L206,143L206.323,143.001L206.646,143.004L206.968,143.009L207.29,143.016L207.611,143.026L207.932,143.037L208.252,143.05L208.571,143.065L208.89,143.082L209.209,143.102L209.527,143.123L209.845,143.146L210.162,143.171L210.478,143.198L210.794,143.227L211.109,143.258L211.424,143.291L211.738,143.326L212.052,143.363L212.364,143.402L212.677,143.443L212.989,143.485L213.3,143.53L213.61,143.577L213.92,143.625L214.229,143.675L214.538,143.727L214.846,143.782L215.153,143.837L215.46,143.895L215.766,143.955L216.071,144.017L216.376,144.08L216.68,144.145L216.983,144.212L217.286,144.281L217.588,144.352L217.889,144.425L218.19,144.499L218.49,144.575L218.789,144.653L219.087,144.733L219.385,144.815L219.682,144.898L219.978,144.983L220.273,145.07L220.568,145.159L220.862,145.249L221.155,145.342L221.447,145.436L221.739,145.531L222.029,145.629L222.319,145.728L222.608,145.829L222.897,145.932L223.184,146.036L223.471,146.142L223.757,146.25L224.042,146.359L224.326,146.47L224.609,146.583L224.892,146.698L225.174,146.814L225.454,146.932L225.734,147.051L226.013,147.172L226.292,147.295L226.569,147.42L226.845,147.546L227.121,147.673L227.395,147.803L227.669,147.934L227.942,148.066L228.214,148.2L228.484,148.336L228.754,148.473L229.023,148.612L229.292,148.753L229.559,148.895L229.825,149.038L230.09,149.184L230.354,149.33L230.617,149.479L230.88,149.628L231.141,149.78L231.401,149.933L231.66,150.087L231.919,150.243L232.176,150.4L232.432,150.559L232.687,150.72L232.941,150.882L233.194,151.045L233.446,151.21L233.697,151.376L233.947,151.544L234.196,151.713L234.444,151.884L234.691,152.056L234.936,152.23L235.181,152.405L235.424,152.581L235.667,152.759L235.908,152.939L236.148,153.119L236.387,153.302L236.625,153.485L236.862,153.67L237.097,153.856L237.332,154.044L237.565,154.233L237.797,154.424L238.028,154.615L238.258,154.808L238.486,155.003L238.714,155.199L238.94,155.396L239.165,155.595L239.389,155.794L239.612,155.996L239.833,156.198L240.053,156.402L240.272,156.607L240.49,156.813L240.706,157.021L240.922,157.23L241.136,157.44L241.348,157.652L241.56,157.864L241.77,158.078L241.979,158.294L242.187,158.51L242.393,158.728L242.598,158.947L242.802,159.167L243.004,159.388L243.206,159.611L243.405,159.835L243.604,160.06L243.801,160.286L243.997,160.514L244.192,160.742L244.385,160.972L244.576,161.203L244.767,161.435L244.956,161.668L245.144,161.903L245.33,162.138L245.515,162.375L245.698,162.613L245.881,162.852L246.061,163.092L246.241,163.333L246.419,163.576L246.595,163.819L246.77,164.064L246.944,164.309L247.116,164.556L247.287,164.804L247.456,165.053L247.624,165.303L247.79,165.554L247.955,165.806L248.118,166.059L248.28,166.313L248.441,166.568L248.6,166.824L248.757,167.081L248.913,167.34L249.067,167.599L249.22,167.859L249.372,168.12L249.521,168.383L249.67,168.646L249.816,168.91L249.962,169.175L250.105,169.441L250.247,169.708L250.388,169.977L250.527,170.246L250.664,170.516L250.8,170.786L250.934,171.058L251.066,171.331L251.197,171.605L251.327,171.879L251.454,172.155L251.58,172.431L251.705,172.708L251.828,172.987L251.949,173.266L252.068,173.546L252.186,173.826L252.302,174.108L252.417,174.391L252.53,174.674L252.641,174.958L252.75,175.243L252.858,175.529L252.964,175.816L253.068,176.103L253.171,176.392L253.272,176.681L253.371,176.971L253.469,177.261L253.564,177.553L253.658,177.845L253.751,178.138L253.841,178.432L253.93,178.727L254.017,179.022L254.102,179.318L254.185,179.615L254.267,179.913L254.347,180.211L254.425,180.51L254.501,180.81L254.575,181.111L254.648,181.412L254.719,181.714L254.788,182.017L254.855,182.32L254.92,182.624L254.983,182.929L255.045,183.234L255.105,183.54L255.163,183.847L255.218,184.154L255.273,184.462L255.325,184.771L255.375,185.08L255.423,185.39L255.47,185.7L255.515,186.011L255.557,186.323L255.598,186.636L255.637,186.948L255.674,187.262L255.709,187.576L255.742,187.891L255.773,188.206L255.802,188.522L255.829,188.838L255.854,189.155L255.877,189.473L255.898,189.791L255.918,190.11L255.935,190.429L255.95,190.748L255.963,191.068L255.974,191.389L255.984,191.71L255.991,192.032L255.996,192.354L255.999,192.677L256,193L255.999,193.323L255.996,193.646L255.991,193.968L255.984,194.29L255.974,194.611L255.963,194.932L255.95,195.252L255.935,195.571L255.918,195.89L255.898,196.209L255.877,196.527L255.854,196.845L255.829,197.162L255.802,197.478L255.773,197.794L255.742,198.109L255.709,198.424L255.674,198.738L255.637,199.052L255.598,199.364L255.557,199.677L255.515,199.989L255.47,200.3L255.423,200.61L255.375,200.92L255.325,201.229L255.273,201.538L255.218,201.846L255.163,202.153L255.105,202.46L255.045,202.766L254.983,203.071L254.92,203.376L254.855,203.68L254.788,203.983L254.719,204.286L254.648,204.588L254.575,204.889L254.501,205.19L254.425,205.49L254.347,205.789L254.267,206.087L254.185,206.385L254.102,206.682L254.017,206.978L253.93,207.273L253.841,207.568L253.751,207.862L253.658,208.155L253.564,208.447L253.469,208.739L253.371,209.029L253.272,209.319L253.171,209.608L253.068,209.897L252.964,210.184L252.858,210.471L252.75,210.757L252.641,211.042L252.53,211.326L252.417,211.609L252.302,211.892L252.186,212.174L252.068,212.454L251.949,212.734L251.828,213.013L251.705,213.292L251.58,213.569L251.454,213.845L251.327,214.121L251.197,214.395L251.066,214.669L250.934,214.942L250.8,215.214L250.664,215.484L250.527,215.754L250.388,216.023L250.247,216.292L250.105,216.559L249.962,216.825L249.816,217.09L249.67,217.354L249.521,217.617L249.372,217.88L249.22,218.141L249.067,218.401L248.913,218.66L248.757,218.919L248.6,219.176L248.441,219.432L248.28,219.687L248.118,219.941L247.955,220.194L247.79,220.446L247.624,220.697L247.456,220.947L247.287,221.196L247.116,221.444L246.944,221.691L246.77,221.936L246.595,222.181L246.419,222.424L246.241,222.667L246.061,222.908L245.881,223.148L245.698,223.387L245.515,223.625L245.33,223.862L245.144,224.097L244.956,224.332L244.767,224.565L244.576,224.797L244.385,225.028L244.192,225.258L243.997,225.486L243.801,225.714L243.604,225.94L243.405,226.165L243.206,226.389L243.004,226.612L242.802,226.833L242.598,227.053L242.393,227.272L242.187,227.49L241.979,227.706L241.77,227.922L241.56,228.136L241.348,228.348L241.136,228.56L240.922,228.77L240.706,228.979L240.49,229.187L240.272,229.393L240.053,229.598L239.833,229.802L239.612,230.004L239.389,230.206L239.165,230.405L238.94,230.604L238.714,230.801L238.486,230.997L238.258,231.192L238.028,231.385L237.797,231.576L237.565,231.767L237.332,231.956L237.097,232.144L236.862,232.33L236.625,232.515L236.387,232.698L236.148,232.881L235.908,233.061L235.667,233.241L235.424,233.419L235.181,233.595L234.936,233.77L234.691,233.944L234.444,234.116L234.196,234.287L233.947,234.456L233.697,234.624L233.446,234.79L233.194,234.955L232.941,235.118L232.687,235.28L232.432,235.441L232.176,235.6L231.919,235.757L231.66,235.913L231.401,236.067L231.141,236.22L230.88,236.372L230.617,236.521L230.354,236.67L230.09,236.816L229.825,236.962L229.559,237.105L229.292,237.247L229.023,237.388L228.754,237.527L228.484,237.664L228.214,237.8L227.942,237.934L227.669,238.066L227.395,238.197L227.121,238.327L226.845,238.454L226.569,238.58L226.292,238.705L226.013,238.828L225.734,238.949L225.454,239.068L225.174,239.186L224.892,239.302L224.609,239.417L224.326,239.53L224.042,239.641L223.757,239.75L223.471,239.858L223.184,239.964L222.897,240.068L222.608,240.171L222.319,240.272L222.029,240.371L221.739,240.469L221.447,240.564L221.155,240.658L220.862,240.751L220.568,240.841L220.273,240.93L219.978,241.017L219.682,241.102L219.385,241.185L219.087,241.267L218.789,241.347L218.49,241.425L218.19,241.501L217.889,241.575L217.588,241.648L217.286,241.719L216.983,241.788L216.68,241.855L216.376,241.92L216.071,241.983L215.766,242.045L215.46,242.105L215.153,242.163L214.846,242.218L214.538,242.273L214.229,242.325L213.92,242.375L213.61,242.423L213.3,242.47L212.989,242.515L212.677,242.557L212.364,242.598L212.052,242.637L211.738,242.674L211.424,242.709L211.109,242.742L210.794,242.773L210.478,242.802L210.162,242.829L209.845,242.854L209.527,242.877L209.209,242.898L208.89,242.918L208.571,242.935L208.252,242.95L207.932,242.963L207.611,242.974L207.29,242.984L206.968,242.991L206.646,242.996L206.323,242.999L206,243ZM206,240.692L206.309,240.691L206.617,240.688L206.924,240.684L207.231,240.677L207.538,240.668L207.844,240.657L208.149,240.645L208.454,240.63L208.759,240.614L209.063,240.595L209.366,240.575L209.669,240.553L209.972,240.529L210.274,240.503L210.575,240.475L210.876,240.446L211.176,240.414L211.476,240.381L211.775,240.346L212.073,240.309L212.371,240.27L212.668,240.229L212.965,240.187L213.261,240.142L213.557,240.096L213.852,240.048L214.146,239.998L214.44,239.947L214.733,239.893L215.025,239.838L215.317,239.781L215.608,239.723L215.899,239.662L216.189,239.6L216.478,239.536L216.767,239.47L217.054,239.403L217.342,239.334L217.628,239.263L217.914,239.19L218.199,239.116L218.484,239.039L218.767,238.962L219.051,238.882L219.333,238.801L219.615,238.718L219.896,238.633L220.176,238.547L220.455,238.459L220.734,238.37L221.012,238.278L221.289,238.185L221.565,238.091L221.841,237.995L222.116,237.897L222.39,237.797L222.664,237.696L222.936,237.593L223.208,237.489L223.479,237.383L223.749,237.275L224.019,237.166L224.287,237.055L224.555,236.943L224.822,236.829L225.088,236.714L225.353,236.596L225.618,236.478L225.881,236.358L226.144,236.236L226.406,236.112L226.667,235.988L226.927,235.861L227.186,235.733L227.444,235.604L227.702,235.473L227.958,235.34L228.214,235.206L228.469,235.071L228.723,234.934L228.976,234.795L229.228,234.656L229.479,234.514L229.729,234.371L229.978,234.227L230.226,234.081L230.474,233.934L230.72,233.785L230.965,233.635L231.21,233.483L231.453,233.33L231.695,233.176L231.937,233.02L232.177,232.863L232.417,232.704L232.655,232.544L232.893,232.382L233.129,232.22L233.364,232.055L233.599,231.89L233.832,231.723L234.064,231.554L234.295,231.385L234.526,231.213L234.755,231.041L234.983,230.867L235.21,230.692L235.435,230.516L235.66,230.338L235.884,230.159L236.106,229.978L236.328,229.797L236.548,229.614L236.768,229.429L236.986,229.244L237.203,229.057L237.419,228.869L237.633,228.679L237.847,228.489L238.059,228.297L238.271,228.104L238.481,227.909L238.69,227.713L238.897,227.517L239.104,227.318L239.309,227.119L239.514,226.918L239.717,226.717L239.918,226.514L240.119,226.309L240.318,226.104L240.516,225.897L240.713,225.69L240.909,225.481L241.104,225.271L241.297,225.059L241.489,224.847L241.679,224.633L241.869,224.419L242.057,224.203L242.244,223.986L242.429,223.768L242.614,223.548L242.797,223.328L242.978,223.106L243.159,222.884L243.338,222.66L243.516,222.435L243.692,222.21L243.867,221.983L244.041,221.755L244.213,221.526L244.385,221.295L244.554,221.064L244.723,220.832L244.89,220.599L245.055,220.364L245.22,220.129L245.382,219.893L245.544,219.655L245.704,219.417L245.863,219.177L246.02,218.937L246.176,218.695L246.33,218.453L246.483,218.21L246.635,217.965L246.785,217.72L246.934,217.474L247.081,217.226L247.227,216.978L247.371,216.729L247.514,216.479L247.656,216.228L247.796,215.976L247.934,215.723L248.071,215.469L248.206,215.214L248.34,214.959L248.473,214.702L248.604,214.444L248.733,214.186L248.861,213.927L248.988,213.667L249.112,213.406L249.236,213.144L249.358,212.881L249.478,212.618L249.596,212.353L249.714,212.088L249.829,211.822L249.943,211.555L250.055,211.287L250.166,211.019L250.275,210.749L250.383,210.479L250.489,210.208L250.593,209.936L250.696,209.664L250.797,209.39L250.897,209.116L250.995,208.841L251.091,208.565L251.185,208.289L251.278,208.012L251.37,207.734L251.459,207.455L251.547,207.176L251.633,206.896L251.718,206.615L251.801,206.333L251.882,206.051L251.962,205.767L252.039,205.484L252.116,205.199L252.19,204.914L252.263,204.628L252.334,204.342L252.403,204.054L252.47,203.767L252.536,203.478L252.6,203.189L252.662,202.899L252.723,202.608L252.781,202.317L252.838,202.025L252.893,201.733L252.947,201.44L252.998,201.146L253.048,200.852L253.096,200.557L253.142,200.261L253.187,199.965L253.229,199.668L253.27,199.371L253.309,199.073L253.346,198.775L253.381,198.476L253.414,198.176L253.446,197.876L253.475,197.575L253.503,197.274L253.529,196.972L253.553,196.669L253.575,196.366L253.595,196.063L253.614,195.759L253.63,195.454L253.645,195.149L253.657,194.844L253.668,194.538L253.677,194.231L253.684,193.924L253.688,193.617L253.691,193.308L253.692,193L253.691,192.692L253.688,192.383L253.684,192.076L253.677,191.769L253.668,191.462L253.657,191.156L253.645,190.851L253.63,190.546L253.614,190.241L253.595,189.937L253.575,189.634L253.553,189.331L253.529,189.028L253.503,188.726L253.475,188.425L253.446,188.124L253.414,187.824L253.381,187.524L253.346,187.225L253.309,186.927L253.27,186.629L253.229,186.332L253.187,186.035L253.142,185.739L253.096,185.443L253.048,185.148L252.998,184.854L252.947,184.56L252.893,184.267L252.838,183.975L252.781,183.683L252.723,183.392L252.662,183.101L252.6,182.811L252.536,182.522L252.47,182.233L252.403,181.946L252.334,181.658L252.263,181.372L252.19,181.086L252.116,180.801L252.039,180.516L251.962,180.233L251.882,179.949L251.801,179.667L251.718,179.385L251.633,179.104L251.547,178.824L251.459,178.545L251.37,178.266L251.278,177.988L251.185,177.711L251.091,177.435L250.995,177.159L250.897,176.884L250.797,176.61L250.696,176.336L250.593,176.064L250.489,175.792L250.383,175.521L250.275,175.251L250.166,174.981L250.055,174.713L249.943,174.445L249.829,174.178L249.714,173.912L249.596,173.647L249.478,173.382L249.358,173.119L249.236,172.856L249.112,172.594L248.988,172.333L248.861,172.073L248.733,171.814L248.604,171.556L248.473,171.298L248.34,171.041L248.206,170.786L248.071,170.531L247.934,170.277L247.796,170.024L247.656,169.772L247.514,169.521L247.371,169.271L247.227,169.022L247.081,168.774L246.934,168.526L246.785,168.28L246.635,168.035L246.483,167.79L246.33,167.547L246.176,167.305L246.02,167.063L245.863,166.823L245.704,166.583L245.544,166.345L245.382,166.107L245.22,165.871L245.055,165.636L244.89,165.401L244.723,165.168L244.554,164.936L244.385,164.705L244.213,164.474L244.041,164.245L243.867,164.017L243.692,163.79L243.516,163.565L243.338,163.34L243.159,163.116L242.978,162.894L242.797,162.672L242.614,162.452L242.429,162.232L242.244,162.014L242.057,161.797L241.869,161.581L241.679,161.367L241.489,161.153L241.297,160.941L241.104,160.729L240.909,160.519L240.713,160.31L240.517,160.103L240.318,159.896L240.119,159.691L239.918,159.486L239.717,159.283L239.514,159.082L239.309,158.881L239.104,158.682L238.897,158.483L238.69,158.287L238.481,158.091L238.271,157.896L238.059,157.703L237.847,157.511L237.633,157.321L237.419,157.131L237.203,156.943L236.986,156.756L236.768,156.571L236.548,156.386L236.328,156.203L236.106,156.022L235.884,155.841L235.66,155.662L235.435,155.484L235.21,155.308L234.983,155.133L234.755,154.959L234.526,154.787L234.295,154.615L234.064,154.446L233.832,154.277L233.599,154.11L233.364,153.945L233.129,153.78L232.893,153.618L232.655,153.456L232.417,153.296L232.177,153.137L231.937,152.98L231.695,152.824L231.453,152.67L231.21,152.517L230.965,152.365L230.72,152.215L230.474,152.066L230.226,151.919L229.978,151.773L229.729,151.629L229.479,151.486L229.228,151.344L228.976,151.204L228.723,151.066L228.469,150.929L228.214,150.794L227.958,150.66L227.702,150.527L227.444,150.396L227.186,150.267L226.927,150.139L226.667,150.012L226.406,149.888L226.144,149.764L225.881,149.642L225.618,149.522L225.353,149.404L225.088,149.286L224.822,149.171L224.555,149.057L224.287,148.945L224.019,148.834L223.749,148.725L223.479,148.617L223.208,148.511L222.936,148.407L222.664,148.304L222.39,148.203L222.116,148.103L221.841,148.005L221.565,147.909L221.289,147.815L221.012,147.722L220.734,147.63L220.455,147.541L220.176,147.453L219.895,147.367L219.615,147.282L219.333,147.199L219.051,147.118L218.767,147.038L218.484,146.961L218.199,146.884L217.914,146.81L217.628,146.737L217.342,146.666L217.054,146.597L216.767,146.53L216.478,146.464L216.189,146.4L215.899,146.338L215.608,146.277L215.317,146.219L215.025,146.162L214.733,146.107L214.44,146.053L214.146,146.002L213.852,145.952L213.557,145.904L213.261,145.858L212.965,145.813L212.668,145.771L212.371,145.73L212.073,145.691L211.775,145.654L211.476,145.619L211.176,145.586L210.876,145.554L210.575,145.525L210.274,145.497L209.972,145.471L209.669,145.447L209.366,145.425L209.063,145.405L208.759,145.386L208.454,145.37L208.149,145.355L207.844,145.343L207.538,145.332L207.231,145.323L206.924,145.316L206.617,145.312L206.309,145.309L206,145.308L205.691,145.309L205.383,145.312L205.076,145.316L204.769,145.323L204.462,145.332L204.156,145.343L203.851,145.355L203.546,145.37L203.241,145.386L202.937,145.405L202.634,145.425L202.331,145.447L202.028,145.471L201.726,145.497L201.425,145.525L201.124,145.554L200.824,145.586L200.524,145.619L200.225,145.654L199.927,145.691L199.629,145.73L199.332,145.771L199.035,145.813L198.739,145.858L198.443,145.904L198.148,145.952L197.854,146.002L197.56,146.053L197.267,146.107L196.975,146.162L196.683,146.219L196.392,146.277L196.101,146.338L195.811,146.4L195.522,146.464L195.233,146.53L194.946,146.597L194.658,146.666L194.372,146.737L194.086,146.81L193.801,146.884L193.516,146.961L193.233,147.038L192.949,147.118L192.667,147.199L192.385,147.282L192.105,147.367L191.824,147.453L191.545,147.541L191.266,147.63L190.988,147.722L190.711,147.815L190.435,147.909L190.159,148.005L189.884,148.103L189.61,148.203L189.336,148.304L189.064,148.407L188.792,148.511L188.521,148.617L188.251,148.725L187.981,148.834L187.713,148.945L187.445,149.057L187.178,149.171L186.912,149.286L186.647,149.404L186.382,149.522L186.119,149.642L185.856,149.764L185.594,149.888L185.333,150.012L185.073,150.139L184.814,150.267L184.556,150.396L184.298,150.527L184.042,150.66L183.786,150.794L183.531,150.929L183.277,151.066L183.024,151.204L182.772,151.344L182.521,151.486L182.271,151.629L182.022,151.773L181.774,151.919L181.526,152.066L181.28,152.215L181.035,152.365L180.79,152.517L180.547,152.67L180.305,152.824L180.063,152.98L179.823,153.137L179.583,153.296L179.345,153.456L179.107,153.618L178.871,153.78L178.636,153.945L178.401,154.11L178.168,154.277L177.936,154.446L177.705,154.615L177.474,154.787L177.245,154.959L177.017,155.133L176.79,155.308L176.565,155.484L176.34,155.662L176.116,155.841L175.894,156.022L175.672,156.203L175.452,156.386L175.232,156.571L175.014,156.756L174.797,156.943L174.581,157.131L174.367,157.321L174.153,157.511L173.941,157.703L173.729,157.896L173.519,158.091L173.31,158.287L173.103,158.483L172.896,158.682L172.691,158.881L172.486,159.082L172.283,159.283L172.082,159.486L171.881,159.691L171.682,159.896L171.483,160.103L171.287,160.31L171.091,160.519L170.896,160.729L170.703,160.941L170.511,161.153L170.321,161.367L170.131,161.581L169.943,161.797L169.756,162.014L169.571,162.232L169.386,162.452L169.203,162.672L169.022,162.894L168.841,163.116L168.662,163.34L168.484,163.565L168.308,163.79L168.133,164.017L167.959,164.245L167.787,164.474L167.615,164.705L167.446,164.936L167.277,165.168L167.11,165.401L166.945,165.636L166.78,165.871L166.618,166.107L166.456,166.345L166.296,166.583L166.137,166.823L165.98,167.063L165.824,167.305L165.67,167.547L165.517,167.79L165.365,168.035L165.215,168.28L165.066,168.526L164.919,168.774L164.773,169.022L164.629,169.271L164.486,169.521L164.344,169.772L164.204,170.024L164.066,170.277L163.929,170.531L163.794,170.786L163.66,171.042L163.527,171.298L163.396,171.556L163.267,171.814L163.139,172.073L163.012,172.333L162.888,172.594L162.764,172.856L162.642,173.119L162.522,173.382L162.404,173.647L162.286,173.912L162.171,174.178L162.057,174.445L161.945,174.713L161.834,174.981L161.725,175.251L161.617,175.521L161.511,175.792L161.407,176.064L161.304,176.336L161.203,176.61L161.103,176.884L161.005,177.159L160.909,177.435L160.815,177.711L160.722,177.988L160.63,178.266L160.541,178.545L160.453,178.824L160.367,179.105L160.282,179.385L160.199,179.667L160.118,179.949L160.038,180.233L159.961,180.516L159.884,180.801L159.81,181.086L159.737,181.372L159.666,181.658L159.597,181.946L159.53,182.233L159.464,182.522L159.4,182.811L159.338,183.101L159.277,183.392L159.219,183.683L159.162,183.975L159.107,184.267L159.053,184.56L159.002,184.854L158.952,185.148L158.904,185.443L158.858,185.739L158.813,186.035L158.771,186.332L158.73,186.629L158.691,186.927L158.654,187.225L158.619,187.524L158.586,187.824L158.554,188.124L158.525,188.425L158.497,188.726L158.471,189.028L158.447,189.331L158.425,189.634L158.405,189.937L158.386,190.241L158.37,190.546L158.355,190.851L158.343,191.156L158.332,191.462L158.323,191.769L158.316,192.076L158.312,192.383L158.309,192.691L158.308,193L158.309,193.309L158.312,193.617L158.316,193.924L158.323,194.231L158.332,194.538L158.343,194.844L158.355,195.149L158.37,195.454L158.386,195.759L158.405,196.063L158.425,196.366L158.447,196.669L158.471,196.972L158.497,197.274L158.525,197.575L158.554,197.876L158.586,198.176L158.619,198.476L158.654,198.775L158.691,199.073L158.73,199.371L158.771,199.668L158.813,199.965L158.858,200.261L158.904,200.557L158.952,200.852L159.002,201.146L159.053,201.44L159.107,201.733L159.162,202.025L159.219,202.317L159.277,202.608L159.338,202.899L159.4,203.189L159.464,203.478L159.53,203.767L159.597,204.054L159.666,204.342L159.737,204.628L159.81,204.914L159.884,205.199L159.961,205.484L160.038,205.767L160.118,206.051L160.199,206.333L160.282,206.615L160.367,206.895L160.453,207.176L160.541,207.455L160.63,207.734L160.722,208.012L160.815,208.289L160.909,208.565L161.005,208.841L161.103,209.116L161.203,209.39L161.304,209.664L161.407,209.936L161.511,210.208L161.617,210.479L161.725,210.749L161.834,211.019L161.945,211.287L162.057,211.555L162.171,211.822L162.286,212.088L162.404,212.353L162.522,212.618L162.642,212.881L162.764,213.144L162.888,213.406L163.012,213.667L163.139,213.927L163.267,214.186L163.396,214.444L163.527,214.702L163.66,214.958L163.794,215.214L163.929,215.469L164.066,215.723L164.204,215.976L164.344,216.228L164.486,216.479L164.629,216.729L164.773,216.978L164.919,217.226L165.066,217.474L165.215,217.72L165.365,217.965L165.517,218.21L165.67,218.453L165.824,218.695L165.98,218.937L166.137,219.177L166.296,219.417L166.456,219.655L166.618,219.893L166.78,220.129L166.945,220.364L167.11,220.599L167.277,220.832L167.446,221.064L167.615,221.295L167.787,221.526L167.959,221.755L168.133,221.983L168.308,222.21L168.484,222.435L168.662,222.66L168.841,222.884L169.022,223.106L169.203,223.328L169.386,223.548L169.571,223.768L169.756,223.986L169.943,224.203L170.131,224.419L170.321,224.633L170.511,224.847L170.703,225.059L170.896,225.271L171.091,225.481L171.287,225.69L171.484,225.897L171.682,226.104L171.881,226.309L172.082,226.514L172.283,226.717L172.486,226.918L172.691,227.119L172.896,227.318L173.103,227.517L173.31,227.713L173.519,227.909L173.729,228.104L173.941,228.297L174.153,228.489L174.367,228.679L174.581,228.869L174.797,229.057L175.014,229.244L175.232,229.429L175.452,229.614L175.672,229.797L175.894,229.978L176.116,230.159L176.34,230.338L176.565,230.516L176.79,230.692L177.017,230.867L177.245,231.041L177.474,231.213L177.705,231.385L177.936,231.554L178.168,231.723L178.401,231.89L178.636,232.055L178.871,232.22L179.107,232.382L179.345,232.544L179.583,232.704L179.823,232.863L180.063,233.02L180.305,233.176L180.547,233.33L180.79,233.483L181.035,233.635L181.28,233.785L181.526,233.934L181.774,234.081L182.022,234.227L182.271,234.371L182.521,234.514L182.772,234.656L183.024,234.796L183.277,234.934L183.531,235.071L183.786,235.206L184.042,235.34L184.298,235.473L184.556,235.604L184.814,235.733L185.073,235.861L185.333,235.988L185.594,236.112L185.856,236.236L186.119,236.358L186.382,236.478L186.647,236.596L186.912,236.714L187.178,236.829L187.445,236.943L187.713,237.055L187.981,237.166L188.251,237.275L188.521,237.383L188.792,237.489L189.064,237.593L189.336,237.696L189.61,237.797L189.884,237.897L190.159,237.995L190.435,238.091L190.711,238.185L190.988,238.278L191.266,238.37L191.545,238.459L191.824,238.547L192.104,238.633L192.385,238.718L192.667,238.801L192.949,238.882L193.233,238.962L193.516,239.039L193.801,239.116L194.086,239.19L194.372,239.263L194.658,239.334L194.946,239.403L195.233,239.47L195.522,239.536L195.811,239.6L196.101,239.662L196.392,239.723L196.683,239.781L196.975,239.838L197.267,239.893L197.56,239.947L197.854,239.998L198.148,240.048L198.443,240.096L198.739,240.142L199.035,240.187L199.332,240.229L199.629,240.27L199.927,240.309L200.225,240.346L200.524,240.381L200.824,240.414L201.124,240.446L201.425,240.475L201.726,240.503L202.028,240.529L202.331,240.553L202.634,240.575L202.937,240.595L203.241,240.614L203.546,240.63L203.851,240.645L204.156,240.657L204.462,240.668L204.769,240.677L205.076,240.684L205.383,240.688L205.691,240.691L206,240.692Z" style="fill:rgb(62,122,171);"/>
                </g>
            </g>
            <g id="Layer2" transform="matrix(0.869565,-4.31408e-32,-4.31408e-32,0.869565,-297.391,-218.609)">
                <g transform="matrix(0.7,0,-2.15704e-32,0.7,164.7,146.95)">
                    <g transform="matrix(1,0,0,1,229,239)">
                        <path d="M275.706,289.721C275.706,289.721 274.327,247.306 320,247C364.842,246.7 362.79,201 362.79,201L362.79,164.845C362.79,140.009 344.836,131.983 320,131.983C295.164,131.983 274.062,140.009 274.062,164.845L274.062,201L264.204,201L241.2,201C216.364,201 205.052,218.878 205.052,243.714C205.052,268.55 216.364,289.721 241.2,289.721L275.706,289.721Z" style="fill:rgb(62,122,171);stroke-width:6.57px;stroke:white;"/>
                    </g>
                    <g transform="matrix(-0.876323,-9.81762e-30,-9.81454e-30,-0.876323,738.355,654.264)">
                        <circle cx="242.25" cy="270.75" r="11.25" style="fill:white;"/>
                    </g>
                    <g transform="matrix(0.758356,-3.7188e-17,-6.71231e-17,1.64286,299.823,109.786)">
                        <rect x="268" y="199" width="52" height="4" style="fill:white;"/>
                    </g>
                </g>
                <g transform="matrix(0.7,1.09476e-47,-2.15704e-32,0.7,164.7,145.8)">
                    <g transform="matrix(-1,0,-6.56859e-47,-1,869,733)">
                        <path d="M275,291.357C275,291.357 274.327,248.948 320,248.643C364.842,248.343 365.938,202.643 365.938,202.643L365.938,166.5C365.938,141.664 344.767,130.339 319.931,130.339C295.094,130.339 277.21,141.664 277.21,166.5L277.21,202.643L264.459,202.643L241.062,202.636C216.225,202.636 205,222.164 205,247C205,271.836 216.225,291.364 241.062,291.364L275,291.357Z" style="fill:rgb(255,228,103);stroke-width:6.57px;stroke:white;"/>
                    </g>
                    <g transform="matrix(-0.876323,-1.25999e-32,-1.32603e-32,-0.876323,781.076,790.622)">
                        <circle cx="242.25" cy="270.75" r="11.25" style="fill:white;"/>
                    </g>
                    <g transform="matrix(0.758356,-1.47841e-17,-2.96661e-17,1.64286,349.043,200.143)">
                        <rect x="268" y="199" width="52" height="4" style="fill:white;"/>
                    </g>
                </g>
            </g>
        </g>
    </g>
</svg>
