<?xml version="1.0" encoding="UTF-8" standalone="no"?>
<!-- Created with Inkscape (http://www.inkscape.org/) -->

<svg
   xmlns:dc="http://purl.org/dc/elements/1.1/"
   xmlns:cc="http://creativecommons.org/ns#"
   xmlns:rdf="http://www.w3.org/1999/02/22-rdf-syntax-ns#"
   xmlns:svg="http://www.w3.org/2000/svg"
   xmlns="http://www.w3.org/2000/svg"
   xmlns:sodipodi="http://sodipodi.sourceforge.net/DTD/sodipodi-0.dtd"
   xmlns:inkscape="http://www.inkscape.org/namespaces/inkscape"
   width="240"
   height="70"
   viewBox="0 0 240 70"
   id="svg4316"
   version="1.1"
   inkscape:version="0.91 r13725"
   sodipodi:docname="websupport-logo.svg"
   inkscape:export-filename="/home/richard/Projects/pycon.sk/source/static/images/plagat/websupport-logo.png"
   inkscape:export-xdpi="90"
   inkscape:export-ydpi="90">
  <defs
     id="defs4318" />
  <sodipodi:namedview
     id="base"
     pagecolor="#ffffff"
     bordercolor="#666666"
     borderopacity="1.0"
     inkscape:pageopacity="0.0"
     inkscape:pageshadow="2"
     inkscape:zoom="5.2347826"
     inkscape:cx="113.93517"
     inkscape:cy="37.702566"
     inkscape:document-units="px"
     inkscape:current-layer="layer1"
     showgrid="false"
     units="px"
     inkscape:window-width="1920"
     inkscape:window-height="1016"
     inkscape:window-x="0"
     inkscape:window-y="27"
     inkscape:window-maximized="1" />
  <metadata
     id="metadata4321">
    <rdf:RDF>
      <cc:Work
         rdf:about="">
        <dc:format>image/svg+xml</dc:format>
        <dc:type
           rdf:resource="http://purl.org/dc/dcmitype/StillImage" />
        <dc:title></dc:title>
      </cc:Work>
    </rdf:RDF>
  </metadata>
  <g
     inkscape:label="Layer 1"
     inkscape:groupmode="layer"
     id="layer1"
     transform="translate(0,-982.36213)">
    <g
       id="g4932"
       transform="translate(-1.0423366,44.347524)">
      <g
         transform="matrix(0.41144228,0,0,-0.41144228,47.923709,973.80963)"
         id="g86">
        <path
           inkscape:connector-curvature="0"
           id="path88"
           style="fill:#110f0d;fill-opacity:1;fill-rule:nonzero;stroke:none"
           d="M 0,0 13.586,-17.968 25.567,-17.96 11.979,0.004" />
      </g>
      <g
         transform="matrix(0.41144228,0,0,-0.41144228,28.208843,973.81364)"
         id="g90">
        <path
           inkscape:connector-curvature="0"
           id="path92"
           style="fill:#110f0d;fill-opacity:1;fill-rule:nonzero;stroke:none"
           d="m 0,0 13.589,-17.965 11.976,0 -13.586,17.967" />
      </g>
      <g
         transform="matrix(0.41144228,0,0,-0.41144228,8.4953595,973.81762)"
         id="g94">
        <path
           inkscape:connector-curvature="0"
           id="path96"
           style="fill:#110f0d;fill-opacity:1;fill-rule:nonzero;stroke:none"
           d="m 0,0 13.588,-17.966 11.977,0.003 -13.59,17.965" />
      </g>
      <g
         transform="matrix(0.41144228,0,0,-0.41144228,54.985145,970.11106)"
         id="g98">
        <path
           inkscape:connector-curvature="0"
           id="path100"
           style="fill:#110f0d;fill-opacity:1;fill-rule:nonzero;stroke:none"
           d="M 0,0 -11.979,-0.005 3.578,26.952 15.554,26.957 0,0 Z" />
      </g>
      <g
         transform="matrix(0.41144228,0,0,-0.41144228,41.67028,959.02501)"
         id="g102">
        <path
           inkscape:connector-curvature="0"
           id="path104"
           style="fill:#110f0d;fill-opacity:1;fill-rule:nonzero;stroke:none"
           d="M 0,0 -11.977,-0.004 -27.53,-26.96 -15.554,-26.957 -1.963,-44.922 13.59,-17.967 0,0 Z" />
      </g>
      <g
         transform="matrix(0.41144228,0,0,-0.41144228,21.956237,959.02984)"
         id="g106">
        <path
           inkscape:connector-curvature="0"
           id="path108"
           style="fill:#110f0d;fill-opacity:1;fill-rule:nonzero;stroke:none"
           d="m 0,0 -11.979,-0.002 -15.554,-26.953 11.98,0 L -1.965,-44.92 13.59,-17.964 0,0 Z" />
      </g>
      <g
         transform="matrix(0.41144228,0,0,-0.41144228,71.669251,981.267)"
         id="g110">
        <path
           inkscape:connector-curvature="0"
           id="path112"
           style="fill:#110f0d;fill-opacity:1;fill-rule:nonzero;stroke:none"
           d="m 0,0 -0.817,54.493 10.784,0 -0.163,-32.271 17.484,32.271 6.862,0 3.759,-32.271 13.726,32.271 11.356,0 L 38.808,0 31.863,0 27.206,36.602 7.026,0 0,0 Z" />
      </g>
      <g
         transform="matrix(0.41144228,0,0,-0.41144228,104.24207,971.21642)"
         id="g114">
        <path
           inkscape:connector-curvature="0"
           id="path116"
           style="fill:#110f0d;fill-opacity:1;fill-rule:nonzero;stroke:none"
           d="m 0,0 c 0.054,0.272 0.082,0.531 0.082,0.776 l 0,0.695 c 0,2.125 -0.695,3.717 -2.084,4.779 -1.389,1.062 -2.929,1.594 -4.616,1.594 -1.907,0 -3.746,-0.642 -5.514,-1.92 C -13.904,4.643 -15.17,2.668 -15.932,0 L 0,0 Z m -17.565,-7.271 c -0.056,-0.328 -0.097,-0.641 -0.123,-0.94 -0.029,-0.3 -0.041,-0.612 -0.041,-0.939 0,-2.506 0.735,-4.371 2.206,-5.596 1.47,-1.226 3.131,-1.839 4.983,-1.839 1.524,0 3.255,0.313 5.188,0.939 1.934,0.626 3.852,2.002 5.76,4.126 l 7.435,-5.31 c -2.451,-2.778 -5.257,-4.902 -8.415,-6.372 -3.159,-1.471 -6.455,-2.206 -9.886,-2.206 -2.234,0 -4.412,0.326 -6.536,0.98 -2.124,0.654 -4.031,1.675 -5.719,3.064 -1.689,1.388 -3.037,3.158 -4.044,5.31 -1.009,2.151 -1.512,4.724 -1.512,7.721 0,3.975 0.64,7.476 1.921,10.498 1.279,3.023 2.968,5.556 5.065,7.598 2.096,2.043 4.493,3.581 7.19,4.617 2.695,1.033 5.486,1.552 8.374,1.552 2.069,0 4.056,-0.273 5.964,-0.818 1.905,-0.545 3.594,-1.457 5.066,-2.736 1.47,-1.28 2.641,-2.941 3.512,-4.984 0.871,-2.042 1.307,-4.535 1.307,-7.476 0,-1.09 -0.068,-2.233 -0.204,-3.431 C 9.79,-4.711 9.585,-5.964 9.313,-7.271 l -26.878,0 z" />
      </g>
      <g
         transform="matrix(0.41144228,0,0,-0.41144228,112.91413,977.80473)"
         id="g118">
        <path
           inkscape:connector-curvature="0"
           id="path120"
           style="fill:#110f0d;fill-opacity:1;fill-rule:nonzero;stroke:none"
           d="m 0,0 c 0.599,-0.219 1.198,-0.396 1.798,-0.531 0.598,-0.137 1.225,-0.204 1.879,-0.204 2.451,0 4.616,0.408 6.495,1.225 1.879,0.817 3.473,1.92 4.78,3.309 1.306,1.388 2.287,2.995 2.941,4.82 0.653,1.824 0.981,3.744 0.981,5.76 0,1.524 -0.246,2.86 -0.736,4.004 -0.491,1.143 -1.144,2.082 -1.961,2.818 -0.817,0.736 -1.771,1.278 -2.86,1.634 -1.09,0.353 -2.234,0.531 -3.431,0.531 -1.743,0 -3.459,-0.327 -5.147,-0.98 L 0,0 Z m 6.536,31.046 c 2.288,0.599 4.412,0.898 6.373,0.898 2.341,0 4.521,-0.382 6.536,-1.143 2.014,-0.764 3.759,-1.893 5.229,-3.391 1.47,-1.499 2.626,-3.349 3.472,-5.556 0.844,-2.206 1.267,-4.726 1.267,-7.557 0,-3.486 -0.641,-6.672 -1.921,-9.559 -1.28,-2.887 -3.077,-5.379 -5.391,-7.475 -2.317,-2.097 -5.122,-3.717 -8.416,-4.861 -3.296,-1.144 -6.932,-1.716 -10.907,-1.716 -2.778,0 -5.365,0.3 -7.761,0.899 -2.398,0.599 -4.739,1.416 -7.027,2.45 l 11.03,52.043 10.784,0 -3.268,-15.032 z" />
      </g>
      <g
         transform="matrix(0.41144228,0,0,-0.41144228,127.60368,975.18256)"
         id="g122">
        <path
           inkscape:connector-curvature="0"
           id="path124"
           style="fill:#110f0d;fill-opacity:1;fill-rule:nonzero;stroke:none"
           d="m 0,0 c 1.742,-2.071 3.648,-3.718 5.72,-4.943 2.068,-1.226 4.547,-1.839 7.433,-1.839 1.308,0 2.534,0.163 3.677,0.491 1.145,0.326 2.138,0.829 2.982,1.511 0.844,0.68 1.525,1.524 2.042,2.532 0.517,1.008 0.777,2.192 0.777,3.555 0,1.089 -0.314,2.043 -0.94,2.859 -0.627,0.816 -1.47,1.579 -2.532,2.287 -1.062,0.708 -2.262,1.375 -3.595,2.002 -1.335,0.626 -2.683,1.293 -4.044,2.002 -1.416,0.707 -2.819,1.482 -4.208,2.328 -1.388,0.845 -2.628,1.811 -3.717,2.901 -1.09,1.088 -1.975,2.341 -2.656,3.757 -0.681,1.416 -1.021,3.051 -1.021,4.903 0,2.777 0.572,5.201 1.716,7.271 1.144,2.07 2.655,3.784 4.534,5.147 1.88,1.361 4.017,2.369 6.414,3.023 2.397,0.654 4.82,0.981 7.272,0.981 3.757,0 7.406,-0.79 10.948,-2.37 3.539,-1.581 6.535,-4.167 8.986,-7.761 l -8.252,-5.883 c -1.797,2.559 -3.758,4.357 -5.882,5.392 -2.125,1.035 -4.303,1.553 -6.536,1.553 -2.288,0 -4.236,-0.49 -5.842,-1.47 -1.607,-0.982 -2.41,-2.452 -2.41,-4.413 0,-1.198 0.476,-2.3 1.43,-3.308 0.952,-1.009 2.083,-1.921 3.391,-2.737 1.307,-0.817 2.667,-1.553 4.084,-2.206 1.416,-0.654 2.587,-1.225 3.514,-1.716 1.415,-0.764 2.749,-1.593 4.002,-2.492 1.253,-0.898 2.342,-1.892 3.269,-2.982 0.925,-1.09 1.661,-2.315 2.206,-3.676 0.544,-1.362 0.817,-2.887 0.817,-4.575 0,-3.215 -0.586,-5.965 -1.758,-8.252 -1.171,-2.288 -2.736,-4.154 -4.697,-5.597 -1.961,-1.443 -4.235,-2.505 -6.821,-3.186 -2.588,-0.68 -5.27,-1.021 -8.047,-1.021 -4.249,0 -8.199,0.845 -11.847,2.533 -3.65,1.687 -6.618,4.275 -8.905,7.76 L 0,0 Z" />
      </g>
      <g
         transform="matrix(0.41144228,0,0,-0.41144228,152.44532,981.267)"
         id="g126">
        <path
           inkscape:connector-curvature="0"
           id="path128"
           style="fill:#110f0d;fill-opacity:1;fill-rule:nonzero;stroke:none"
           d="M 0,0 0.244,3.104 C -1.989,1.579 -4.1,0.543 -6.088,0 c -1.988,-0.544 -4.016,-0.817 -6.087,-0.817 -1.633,0 -3.173,0.245 -4.615,0.735 -1.444,0.49 -2.724,1.226 -3.84,2.206 -1.117,0.98 -2.002,2.206 -2.655,3.676 -0.653,1.471 -0.981,3.186 -0.981,5.147 0,0.818 0.028,1.676 0.081,2.574 0.054,0.899 0.191,1.838 0.41,2.819 l 4.901,23.039 10.785,0 -4.738,-21.978 c -0.111,-0.599 -0.234,-1.253 -0.368,-1.961 -0.137,-0.708 -0.204,-1.606 -0.204,-2.695 0,-1.254 0.394,-2.384 1.184,-3.391 0.789,-1.007 2.219,-1.511 4.289,-1.511 2.07,0 3.894,0.394 5.474,1.184 1.579,0.789 2.913,1.566 4.004,2.328 l 6.045,28.024 10.621,0 L 9.804,0 0,0 Z" />
      </g>
      <g
         transform="matrix(0.41144228,0,0,-0.41144228,163.30235,977.53588)"
         id="g130">
        <path
           inkscape:connector-curvature="0"
           id="path132"
           style="fill:#110f0d;fill-opacity:1;fill-rule:nonzero;stroke:none"
           d="m 0,0 c 1.471,-0.763 3.24,-1.144 5.311,-1.144 2.014,0 3.853,0.422 5.514,1.266 1.661,0.845 3.077,1.961 4.249,3.35 1.17,1.389 2.07,3.009 2.697,4.861 0.625,1.852 0.939,3.785 0.939,5.801 0,2.341 -0.545,4.371 -1.635,6.087 -1.09,1.716 -2.969,2.573 -5.637,2.573 -1.688,0 -3.132,-0.382 -4.33,-1.144 C 5.909,20.887 4.902,20.043 4.085,19.118 L 0,0 Z m -15.931,-24.51 11.765,54.821 9.723,0 -0.164,-2.86 c 1.742,1.525 3.43,2.546 5.065,3.064 1.634,0.517 3.35,0.776 5.147,0.776 1.906,0 3.689,-0.341 5.352,-1.021 1.66,-0.682 3.116,-1.715 4.37,-3.105 1.252,-1.389 2.247,-3.104 2.982,-5.146 0.736,-2.043 1.103,-4.426 1.103,-7.15 0,-3.051 -0.49,-6.046 -1.471,-8.986 C 26.961,2.941 25.463,0.286 23.448,-2.084 21.433,-4.453 18.927,-6.36 15.932,-7.803 12.936,-9.245 9.396,-9.968 5.311,-9.968 c -3.105,0 -5.474,0.382 -7.108,1.145 l -3.432,-15.687 -10.702,0 z" />
      </g>
      <g
         transform="matrix(0.41144228,0,0,-0.41144228,179.90787,977.53588)"
         id="g134">
        <path
           inkscape:connector-curvature="0"
           id="path136"
           style="fill:#110f0d;fill-opacity:1;fill-rule:nonzero;stroke:none"
           d="m 0,0 c 1.471,-0.763 3.239,-1.144 5.311,-1.144 2.013,0 3.852,0.422 5.514,1.266 1.66,0.845 3.076,1.961 4.248,3.35 1.171,1.389 2.07,3.009 2.697,4.861 0.625,1.852 0.939,3.785 0.939,5.801 0,2.341 -0.545,4.371 -1.634,6.087 -1.091,1.716 -2.97,2.573 -5.637,2.573 -1.689,0 -3.133,-0.382 -4.331,-1.144 C 5.909,20.887 4.902,20.043 4.085,19.118 L 0,0 Z m -15.932,-24.51 11.765,54.821 9.723,0 -0.164,-2.86 c 1.742,1.525 3.431,2.546 5.065,3.064 1.634,0.517 3.35,0.776 5.147,0.776 1.907,0 3.69,-0.341 5.352,-1.021 1.661,-0.682 3.117,-1.715 4.371,-3.105 1.252,-1.389 2.247,-3.104 2.982,-5.146 0.735,-2.043 1.102,-4.426 1.102,-7.15 0,-3.051 -0.489,-6.046 -1.47,-8.986 C 26.961,2.941 25.462,0.286 23.447,-2.084 21.433,-4.453 18.926,-6.36 15.932,-7.803 12.936,-9.245 9.396,-9.968 5.311,-9.968 c -3.106,0 -5.475,0.382 -7.109,1.145 l -3.431,-15.687 -10.703,0 z" />
      </g>
      <g
         transform="matrix(0.41144228,0,0,-0.41144228,197.55491,976.99788)"
         id="g138">
        <path
           inkscape:connector-curvature="0"
           id="path140"
           style="fill:#110f0d;fill-opacity:1;fill-rule:nonzero;stroke:none"
           d="m 0,0 c 1.253,-1.689 3.187,-2.533 5.802,-2.533 1.905,0 3.635,0.476 5.186,1.43 1.553,0.952 2.861,2.165 3.922,3.635 1.063,1.471 1.88,3.105 2.451,4.902 0.573,1.797 0.859,3.567 0.859,5.31 0,1.198 -0.151,2.316 -0.449,3.351 -0.3,1.033 -0.75,1.947 -1.349,2.737 -0.6,0.788 -1.361,1.415 -2.287,1.879 -0.928,0.462 -2.016,0.694 -3.269,0.694 -1.907,0 -3.636,-0.477 -5.188,-1.429 C 4.126,19.021 2.791,17.811 1.676,16.339 0.558,14.869 -0.3,13.221 -0.898,11.396 -1.498,9.571 -1.797,7.788 -1.797,6.045 -1.797,3.702 -1.198,1.687 0,0 m -2.695,-9.887 c -2.124,0.927 -3.895,2.178 -5.311,3.759 -1.417,1.579 -2.466,3.403 -3.145,5.474 -0.683,2.069 -1.022,4.249 -1.022,6.536 0,2.831 0.531,5.679 1.594,8.538 1.061,2.859 2.6,5.445 4.615,7.762 2.015,2.313 4.507,4.192 7.476,5.636 2.968,1.443 6.358,2.165 10.172,2.165 2.885,0 5.405,-0.463 7.557,-1.388 2.151,-0.927 3.921,-2.18 5.311,-3.759 1.388,-1.58 2.423,-3.391 3.104,-5.433 0.68,-2.043 1.022,-4.208 1.022,-6.495 0,-2.833 -0.519,-5.691 -1.553,-8.579 -1.035,-2.887 -2.561,-5.487 -4.575,-7.802 -2.016,-2.315 -4.493,-4.195 -7.435,-5.637 -2.941,-1.443 -6.319,-2.165 -10.131,-2.165 -2.941,0 -5.502,0.463 -7.679,1.388" />
      </g>
      <g
         transform="matrix(0.41144228,0,0,-0.41144228,208.68151,981.267)"
         id="g142">
        <path
           inkscape:connector-curvature="0"
           id="path144"
           style="fill:#110f0d;fill-opacity:1;fill-rule:nonzero;stroke:none"
           d="m 0,0 8.334,39.379 9.804,0 -0.164,-3.513 c 1.742,1.579 3.431,2.696 5.065,3.35 1.634,0.653 3.269,0.98 4.901,0.98 0.981,0 1.949,-0.109 2.902,-0.327 0.952,-0.218 1.946,-0.518 2.982,-0.898 l -3.841,-9.315 c -0.98,0.436 -1.919,0.79 -2.818,1.063 -0.898,0.272 -1.811,0.409 -2.737,0.409 -1.526,0 -2.982,-0.368 -4.371,-1.104 -1.389,-0.735 -2.547,-1.566 -3.472,-2.492 L 10.703,0 0,0 Z" />
      </g>
      <g
         transform="matrix(0.41144228,0,0,-0.41144228,227.30371,976.09024)"
         id="g146">
        <path
           inkscape:connector-curvature="0"
           id="path148"
           style="fill:#110f0d;fill-opacity:1;fill-rule:nonzero;stroke:none"
           d="m 0,0 c -0.11,-0.491 -0.192,-0.927 -0.246,-1.308 -0.055,-0.381 -0.081,-0.709 -0.081,-0.98 0,-1.58 0.926,-2.369 2.777,-2.369 0.871,0 1.783,0.204 2.737,0.612 0.953,0.408 1.757,0.83 2.411,1.267 l 3.268,-6.945 c -1.525,-0.98 -3.338,-1.852 -5.433,-2.614 -2.098,-0.763 -4.426,-1.144 -6.986,-1.144 -1.198,0 -2.384,0.177 -3.553,0.532 -1.172,0.354 -2.235,0.884 -3.187,1.593 -0.953,0.707 -1.716,1.619 -2.288,2.737 -0.572,1.115 -0.857,2.409 -0.857,3.88 0,0.38 0.027,0.83 0.082,1.347 0.052,0.518 0.19,1.322 0.408,2.412 l 4.166,19.607 -5.719,0 1.717,8.17 5.8,0 2.124,10.212 10.785,0 -2.206,-10.212 9.558,0 -1.715,-8.17 -9.559,0 L 0,0 Z" />
      </g>
    </g>
  </g>
</svg>
