<?xml version="1.0" encoding="UTF-8" standalone="no"?>
<svg
   xmlns:dc="http://purl.org/dc/elements/1.1/"
   xmlns:cc="http://creativecommons.org/ns#"
   xmlns:rdf="http://www.w3.org/1999/02/22-rdf-syntax-ns#"
   xmlns:svg="http://www.w3.org/2000/svg"
   xmlns="http://www.w3.org/2000/svg"
   xmlns:sodipodi="http://sodipodi.sourceforge.net/DTD/sodipodi-0.dtd"
   xmlns:inkscape="http://www.inkscape.org/namespaces/inkscape"
   id="svg2"
   version="1.1"
   xml:space="preserve"
   width="250"
   height="110"
   viewBox="0 0 250 110"
   inkscape:version="0.91 r13725"
   sodipodi:docname="ajtyvit.svg"
   inkscape:export-filename="/home/ricco/Projects/SPy/pycon.sk/source/static/images/partners/ajtyvit.png"
   inkscape:export-xdpi="90"
   inkscape:export-ydpi="90"><sodipodi:namedview
     pagecolor="#ffffff"
     bordercolor="#666666"
     borderopacity="1"
     objecttolerance="10"
     gridtolerance="10"
     guidetolerance="10"
     inkscape:pageopacity="0"
     inkscape:pageshadow="2"
     inkscape:window-width="1920"
     inkscape:window-height="1016"
     id="namedview22"
     showgrid="false"
     inkscape:zoom="1.7222222"
     inkscape:cx="91.16129"
     inkscape:cy="42.5"
     inkscape:window-x="0"
     inkscape:window-y="27"
     inkscape:window-maximized="1"
     inkscape:current-layer="svg2" /><metadata
     id="metadata8"><rdf:RDF><cc:Work
         rdf:about=""><dc:format>image/svg+xml</dc:format><dc:type
           rdf:resource="http://purl.org/dc/dcmitype/StillImage" /><dc:title></dc:title></cc:Work></rdf:RDF></metadata><defs
     id="defs6" /><g
     id="g10"
     transform="matrix(1.1550947,0,0,-1.2844849,32.592424,103.81043)"><g
       id="g12"
       transform="matrix(0.05854417,0,0,0.05854417,-89.068538,-92.500422)"><path
         d="m 3109.59,2216.41 c 0,0 -0.5,-3.66 -1.5,-11 -0.66,-6.33 -0.66,-11.33 0,-15 -3.66,-4.33 -8.5,-6.33 -14.5,-6 -4.66,0.33 -14.16,20.5 -28.5,60.5 -14.66,41.33 -22.16,62.17 -22.5,62.5 -1.66,1 -26.08,-6.33 -73.25,-22 -47.16,-15.67 -71.41,-24.83 -72.75,-27.5 -2.33,-6 -4,-14.5 -5,-25.5 -1,-11 -2.33,-18.17 -4,-21.5 -2.66,-6 -8,-9 -16,-9 -11,0 -16.5,6.33 -16.5,19 0,3 0.34,6.84 1,11.5 0.67,4.67 1,7.17 1,7.5 -3.33,4.67 -7.83,9.5 -13.5,14.5 -2.66,2 -4,5.67 -4,11 0,6 4.5,11.34 13.5,16 10.67,5.33 17.34,10.84 20,16.5 10,30.67 25.34,77.33 46,140 6.34,18.33 15.84,48 28.5,89 0.67,3.34 0.84,8.5 0.5,15.5 -1,10 -1.5,15.67 -1.5,17 0,4.67 0.67,8.67 2,12 3,8.33 14,12 33,11 3.34,-7.33 7.17,-18.17 11.5,-32.5 3,-9.66 5.84,-19.17 8.5,-28.5 10,-29.66 32.34,-91.66 67,-186 27.34,-75 41,-114.67 41,-119 z m -77,118.5 c -29.66,86 -48.66,137 -57,153 -42,-107.67 -63,-166.5 -63,-176.5 l 0,-6 c 9,0 18.17,2 27.5,6 9.34,4 16,6 20,6 4,0 15.67,2.67 35,8 21,5.67 33.5,8.83 37.5,9.5"
         style="fill:#393536;fill-opacity:1;fill-rule:nonzero;stroke:none"
         id="path14"
         inkscape:connector-curvature="0" /><path
         d="m 3348.59,2572.41 c -3,-27.33 -4.66,-43.33 -5,-48 -1.33,-15 -2.16,-35.5 -2.5,-61.5 0,-22.66 0,-53.5 0,-92.5 -0.33,-43 -9.16,-83 -26.41,-120 -21.25,-45.33 -49.25,-68 -84.09,-68 -29.91,0 -58.75,15.84 -86.66,47.5 -26.25,29.67 -39.34,57.5 -39.34,83.5 0,17.34 3.67,35.5 11,54.5 9.34,23.67 22.5,41 39.5,52 4.67,-3 7,-7.83 7,-14.5 0,-3.66 -0.66,-8.83 -2,-15.5 -3.33,-7.66 -6.66,-15.33 -10,-23 -6.33,-18.33 -9.5,-36.16 -9.5,-53.5 0,-20.33 10.25,-40.83 30.84,-61.5 20.5,-20.67 40.25,-31 59.16,-31 20.17,0 38.42,16.34 54.67,49 14.92,31 22.17,62.5 21.83,94.5 l 0,61 c 0,12 -1.16,32 -3.5,60 -2.33,28 -3.5,45.84 -3.5,53.5 0,30 8,45 24,45 8.67,0 16.84,-3.83 24.5,-11.5"
         style="fill:#393536;fill-opacity:1;fill-rule:nonzero;stroke:none"
         id="path16"
         inkscape:connector-curvature="0" /><path
         d="m 3769.51,2541.91 c -9.33,-3.33 -18.5,-5 -27.5,-5 -1.67,0 -8.67,-0.16 -21,-0.5 -12.33,-0.33 -19.17,-0.5 -20.5,-0.5 -7.67,0 -15.92,-0.33 -24.75,-1 -8.83,-0.66 -16.75,-1 -23.75,-1 -2.67,0 -10.67,-1.67 -24,-5 -0.67,-14.67 -1.33,-29.33 -2,-44 -1.67,-36.67 -2.5,-71.33 -2.5,-104 0,-44 1.5,-81.5 4.5,-112.5 2.67,-2.33 6.17,-6.83 10.5,-13.5 3,-8.33 4.5,-17.33 4.5,-27 0,0.34 -1.67,-3.5 -5,-11.5 -3.33,-8 -5,-15.16 -5,-21.5 -0.33,0 -1.58,-0.33 -3.75,-1 -2.17,-0.66 -4.08,-1 -5.75,-1 -12,0 -21.17,19.34 -27.5,58 -4.67,28 -7,54.17 -7,78.5 0.67,77 -0.17,140.67 -2.5,191 -2.67,2.33 -8.67,3.5 -18,3.5 -1.67,0 -10.67,-1.33 -27,-4 -16.33,-2.66 -25.33,-4 -27,-4 -8,0 -16,1 -24,3 -12.33,3.34 -18.5,8.34 -18.5,15 0,8.33 0.83,13.84 2.5,16.5 0.33,0 9.08,1.67 26.25,5 17.17,3.33 26.58,5 28.25,5 15,1.67 23.5,2.5 25.5,2.5 1.67,0 7.92,0.25 18.75,0.75 10.83,0.5 17.08,0.75 18.75,0.75 2,0 13.67,0.67 35,2 21.33,1.33 35.17,2 41.5,2 15,0 32.67,-1.5 53,-4.5 27.67,-4 43.67,-9.16 48,-15.5 l 0,-6.5"
         style="fill:#393536;fill-opacity:1;fill-rule:nonzero;stroke:none"
         id="path18"
         inkscape:connector-curvature="0" /><path
         d="m 4041.51,2554.91 c 0,0.67 -20.67,-32.66 -62,-100 -42,-69.33 -65.5,-113.5 -70.5,-132.5 -3.67,-3.67 -8.67,-10.66 -15,-21 -7.33,-12 -11,-20.33 -11,-25 0,-1.33 1.25,-3.75 3.75,-7.25 2.5,-3.5 3.75,-5.75 3.75,-6.75 0,-5.67 -5.17,-18.67 -15.5,-39 -11.67,-22.33 -21.5,-33.5 -29.5,-33.5 -4.33,0 -8.75,2.34 -13.25,7 -4.5,4.67 -6.75,8.33 -6.75,11 0,12.34 6.83,36.84 20.5,73.5 13.67,36.67 20.5,54 20.5,52 0,1.67 -2.5,6.17 -7.5,13.5 -5.67,9 -10,17.17 -13,24.5 -2,5.34 -8.5,16 -19.5,32 -16.33,24 -25,36.84 -26,38.5 -11.67,17 -23.5,34 -35.5,51 -16.33,24.67 -25.33,42.5 -27,53.5 5,4.67 13.5,7 25.5,7 4.67,0 25.92,-28.92 63.75,-86.75 37.83,-57.83 60.58,-86.75 68.25,-86.75 1.67,0 14.25,19.92 37.75,59.75 23.5,39.83 37.42,64.42 41.75,73.75 4.67,16 10.33,34.5 17,55.5 3.67,10.67 11.17,16 22.5,16 7.67,0 14.08,-2.75 19.25,-8.25 5.17,-5.5 7.75,-12.75 7.75,-21.75"
         style="fill:#393536;fill-opacity:1;fill-rule:nonzero;stroke:none"
         id="path20"
         inkscape:connector-curvature="0" /><path
         d="m 3538.07,2132.09 c 0,-1.67 -3.67,-11 -11,-28 -9,-20.67 -14.34,-33.17 -16,-37.5 -9.34,-25 -39.67,-123 -91,-294 -2.01,-1.67 -4.67,-2.67 -8,-3 -2.67,-0.34 -5.67,-0.34 -9,0 -4.34,0.66 -6.67,1 -7.01,1 -3.33,0 -8.49,7.5 -15.5,22.5 -4.66,10.33 -9.33,20.83 -14,31.5 -24.66,54.33 -48.99,133.66 -73,238 -9.66,41 -14.49,64.16 -14.49,69.5 0,6.66 3.5,12 10.49,16 5.34,3 10.84,4.33 16.5,4 l 8,0 c 5.34,-9.67 8.17,-14.84 8.51,-15.5 3.33,-7 5,-13.17 5,-18.5 0.33,-33.67 2.99,-62 7.99,-85 6.01,-24.67 12,-49.34 18.01,-74 10,-43.67 25.66,-82.67 47,-117 5,0 9.99,9.33 14.99,28 50,185.66 85,278.5 105.01,278.5 5.33,0 9.58,-1.75 12.75,-5.25 3.16,-3.5 4.75,-7.25 4.75,-11.25"
         style="fill:#4f4c4c;fill-opacity:1;fill-rule:nonzero;stroke:none"
         id="path22"
         inkscape:connector-curvature="0" /><path
         d="m 3716.57,2109.59 0,-23.5 c 0,3 1.83,-38.34 5.5,-124 3.66,-85.67 5.5,-136.5 5.5,-152.5 0,-7 -1.84,-16.34 -5.5,-28 -4.67,-14 -9.67,-21 -15,-21 -3.34,0 -7.25,2.58 -11.75,7.75 -4.5,5.16 -6.75,9.08 -6.75,11.75 1.66,21.33 2.5,53.83 2.5,97.5 0,83.33 -3,147.16 -9,191.5 -4.67,32 -7,56.83 -7,74.5 2.33,2.33 6.08,5.08 11.25,8.25 5.16,3.16 8.91,4.75 11.25,4.75 5,0 9.66,-2.5 14,-7.5 4.33,-5 6,-18.17 5,-39.5"
         style="fill:#4f4c4c;fill-opacity:1;fill-rule:nonzero;stroke:none"
         id="path24"
         inkscape:connector-curvature="0" /><path
         d="m 4039.57,2121.59 c -9.34,-3.34 -18.5,-5 -27.5,-5 -1.67,0 -8.67,-0.17 -21,-0.5 -12.34,-0.34 -19.17,-0.5 -20.5,-0.5 -7.67,0 -15.92,-0.34 -24.75,-1 -8.84,-0.67 -16.75,-1 -23.75,-1 -2.67,0 -10.67,-1.67 -24,-5 -0.67,-14.67 -1.34,-29.34 -2,-44 -1.67,-36.67 -2.5,-71.34 -2.5,-104 0,-44 1.5,-81.5 4.5,-112.5 2.66,-2.34 6.16,-6.84 10.5,-13.5 3,-8.34 4.5,-17.34 4.5,-27 0,0.33 -1.67,-3.5 -5,-11.5 -3.34,-8 -5,-15.17 -5,-21.5 -0.34,0 -1.59,-0.34 -3.75,-1 -2.17,-0.67 -4.09,-1 -5.75,-1 -12,0 -21.17,19.33 -27.5,58 -4.67,28 -7,54.16 -7,78.5 0.66,77 -0.17,140.66 -2.5,191 -2.67,2.33 -8.67,3.5 -18,3.5 -1.67,0 -10.67,-1.34 -27,-4 -16.34,-2.67 -25.34,-4 -27,-4 -8,0 -16,1 -24,3 -12.34,3.33 -18.5,8.33 -18.5,15 0,8.33 0.83,13.83 2.5,16.5 0.33,0 9.08,1.66 26.25,5 17.16,3.33 26.58,5 28.25,5 15,1.66 23.5,2.5 25.5,2.5 1.66,0 7.91,0.25 18.75,0.75 10.83,0.5 17.08,0.75 18.75,0.75 2,0 13.66,0.66 35,2 21.33,1.33 35.16,2 41.5,2 15,0 32.66,-1.5 53,-4.5 27.66,-4 43.66,-9.17 48,-15.5 l 0,-6.5"
         style="fill:#4f4c4c;fill-opacity:1;fill-rule:nonzero;stroke:none"
         id="path26"
         inkscape:connector-curvature="0" /><path
         d="m 2359.46,2208.87 0,-284.06 c 0,-166.15 -135.94,-302.09 -302.08,-302.09 l -21.04,0 c -166.15,0 -302.09,135.94 -302.09,302.09 l 0,284.06 252.22,0 0,-22.48 c 0,-32.1 26.26,-58.35 58.35,-58.35 l 4.07,0 c 32.1,0 58.36,26.25 58.36,58.35 l 0,22.48 252.21,0"
         style="fill:#ce127b;fill-opacity:1;fill-rule:evenodd;stroke:none"
         id="path28"
         inkscape:connector-curvature="0" /><path
         d="m 2046.81,2128.04 0,-505.32 -10.47,0 c -166.15,0 -302.09,135.94 -302.09,302.09 l 0,284.06 252.22,0 0,-22.48 c 0,-32.1 26.26,-58.35 58.35,-58.35 l 1.99,0"
         style="fill:#eb2ca0;fill-opacity:1;fill-rule:evenodd;stroke:none"
         id="path30"
         inkscape:connector-curvature="0" /><path
         d="m 2341.77,2208.87 c -41.89,-116.67 -153.82,-200.71 -284.45,-200.71 l -21.03,0 c -130.63,0 -242.55,84.04 -284.45,200.71 l 234.63,0 0,-22.48 c 0,-32.1 26.26,-58.35 58.35,-58.35 l 4.07,0 c 32.1,0 58.36,26.25 58.36,58.35 l 0,22.48 234.52,0"
         style="fill:#bc0467;fill-opacity:1;fill-rule:evenodd;stroke:none"
         id="path32"
         inkscape:connector-curvature="0" /><path
         d="m 2045.66,2334.04 2.4,0 c 18.94,0 34.44,-15.5 34.44,-34.44 l 0,-89.17 c 0,-18.95 -15.5,-34.44 -34.44,-34.44 l -2.4,0 c -18.94,0 -34.44,15.49 -34.44,34.44 l 0,89.17 c 0,18.94 15.5,34.44 34.44,34.44"
         style="fill:#bc0467;fill-opacity:1;fill-rule:evenodd;stroke:none"
         id="path34"
         inkscape:connector-curvature="0" /><path
         d="m 2519.31,1918.71 0,0 c 22.63,28.34 64.33,33 92.66,10.38 l 44.19,-35.29 -15.07,-18.87 53.59,-42.61 -51.4,-64.65 -53.73,42.72 -15.68,-19.63 -44.19,35.28 c -28.34,22.64 -33,64.34 -10.37,92.67 z m 124.07,-79.9 8.16,10.45 c 1.36,1.75 3.9,2.06 5.65,0.69 l 8.18,-6.38 c 1.74,-1.36 2.06,-3.91 0.69,-5.65 l -8.16,-10.45 c -1.36,-1.75 -3.9,-2.06 -5.65,-0.7 l -8.18,6.38 c -1.74,1.37 -2.06,3.91 -0.69,5.66 z m -26.33,-33.54 8.16,10.46 c 1.36,1.74 3.9,2.06 5.65,0.7 l 8.18,-6.39 c 1.74,-1.36 2.05,-3.91 0.69,-5.65 l -8.16,-10.45 c -1.36,-1.75 -3.91,-2.06 -5.65,-0.7 l -8.18,6.38 c -1.74,1.37 -2.06,3.91 -0.69,5.65"
         style="fill:#bc0467;fill-opacity:1;fill-rule:evenodd;stroke:none"
         id="path36"
         inkscape:connector-curvature="0" /><path
         d="m 2075.28,2522.7 c 142.98,-8.47 260.04,-117.55 280.88,-257 l -248.91,0 0,57.94 c 0,22.61 -13.04,42.32 -31.97,52 l 0,147.06"
         style="fill:#bc0467;fill-opacity:1;fill-rule:evenodd;stroke:none"
         id="path38"
         inkscape:connector-curvature="0" /><path
         d="m 2018.99,2522.7 c -142.98,-8.47 -260.04,-117.55 -280.88,-257 l 248.91,0 0,57.94 c 0,22.61 13.04,42.32 31.97,52 l 0,147.06"
         style="fill:#bc0467;fill-opacity:1;fill-rule:evenodd;stroke:none"
         id="path40"
         inkscape:connector-curvature="0" /><path
         d="m 2024.31,2537.04 c -0.95,9.67 -2.45,18.49 -5.92,24.3 -2.1,3.52 -5.32,6.64 -9.36,9.43 -4.85,3.34 -10.84,6.18 -17.57,8.61 -7.19,2.6 -15.05,4.67 -23.46,6.21 -8.74,1.61 -18.13,2.65 -28.02,3.13 -5.12,0.25 -9.39,0.35 -13.69,0.45 l -0.01,-0.08 c -0.62,0.02 -1.22,0.06 -1.82,0.12 -18.46,0.44 -37.5,1.1 -56.39,7.97 -13.46,4.9 -26.11,12.78 -36.67,23.01 -10.09,9.77 -18.35,21.83 -23.67,35.67 -5.52,14.36 -7.76,30.37 -6.43,45.71 1.32,15.22 6.1,30.15 14.59,42.71 8.51,12.61 20.39,22.29 34.35,30.2 12.79,7.25 26.96,12.87 41.69,17.92 13.48,4.64 28.54,9.12 45.14,13.64 16.2,4.43 32.76,8.59 50.39,12.9 18.31,4.47 37.94,9.17 56.87,12.36 19.99,3.38 39.69,5.17 57.42,3.58 19.5,-1.74 36.3,-7.52 50.55,-18.01 l 0.02,0.02 0.05,-0.04 0.03,0.03 c 0.44,-0.33 0.87,-0.67 1.28,-1.02 13.53,-10.39 24.21,-24.79 32.15,-43.78 7.28,-17.41 12.07,-38.46 16.97,-60.02 4.51,-19.86 9.14,-40.21 15.74,-56.65 6.04,-15.07 13.94,-27.27 23.76,-36.82 9.7,-9.43 21.59,-16.54 35.71,-21.53 15.08,-5.32 32.85,-8.33 52.81,-9.87 21.33,-1.65 44.47,-1.68 69.19,-1.07 4.83,0.12 10.56,0.29 16.29,0.46 49.33,1.47 102.23,3.04 141.04,-14.47 21.19,-9.57 37.4,-24.42 49.4,-41.56 13.93,-19.91 22,-42.86 25.48,-63.95 3.2,-19.37 2.6,-37.34 -1.03,-55.34 -3.54,-17.47 -9.81,-34.44 -18.15,-52.51 -8.02,-17.38 -18.06,-36.01 -29.25,-55.28 -11.4,-19.6 -23.47,-39.1 -35.71,-58.39 -5.1,-8.04 -13.88,-21.7 -22.41,-34.97 -17.51,-27.23 -34.39,-53.49 -46.82,-74.72 -8.92,-15.22 -16.04,-28.56 -21.26,-40.94 -4.89,-11.61 -8.14,-22.51 -9.69,-33.64 -1.57,-11.22 -1.4,-22.72 1.27,-34.11 2.38,-10.21 6.75,-20.4 13.63,-30.26 7.9,-11.31 19.3,-22.71 32.45,-34.12 13.67,-11.87 29.56,-23.97 45.45,-36.07 l -25.61,-33.55 c -16.24,12.37 -32.49,24.75 -47.43,37.72 -15.47,13.42 -29.19,27.26 -39.39,41.89 -10.25,14.69 -16.73,29.75 -20.25,44.8 -3.9,16.71 -4.18,33.37 -1.93,49.48 2.07,14.81 6.31,29.13 12.67,44.22 6.03,14.31 13.94,29.19 23.73,45.9 13.78,23.53 30.41,49.39 47.64,76.2 6.28,9.77 12.56,19.52 22.26,34.81 12.5,19.71 24.5,39.05 34.88,56.9 10.55,18.17 19.98,35.65 27.44,51.81 7.15,15.49 12.42,29.54 15.16,43.09 2.63,13.02 3.05,26.1 0.71,40.3 -2.58,15.58 -8.41,32.36 -18.38,46.61 -7.87,11.24 -18.45,20.96 -32.21,27.17 -30.11,13.59 -77.94,12.17 -122.53,10.84 -5.3,-0.15 -10.51,-0.31 -16.46,-0.46 -26.57,-0.66 -51.21,-0.64 -73.32,1.07 -23.47,1.81 -44.82,5.51 -63.72,12.18 -19.86,7.02 -36.84,17.28 -51.07,31.12 -14.11,13.71 -25.25,30.72 -33.52,51.35 -7.78,19.41 -12.81,41.52 -17.72,63.11 -4.44,19.56 -8.79,38.66 -14.82,53.07 -4.95,11.85 -11.12,20.49 -18.59,26.29 -0.32,0.22 -0.64,0.44 -0.96,0.67 l 12.56,17.02 -12.56,-16.93 c -7.76,5.72 -17.47,8.93 -29.16,9.98 -13.51,1.21 -29.79,-0.38 -46.85,-3.25 -18.12,-3.05 -36.63,-7.49 -53.89,-11.71 -17.95,-4.38 -34.42,-8.51 -49.24,-12.56 -14.42,-3.93 -28.41,-8.13 -42.5,-12.98 -12.85,-4.41 -24.85,-9.11 -34.58,-14.62 -8.56,-4.85 -15.6,-10.41 -20.14,-17.15 -4.29,-6.36 -6.75,-14.32 -7.48,-22.7 -0.81,-9.33 0.45,-18.8 3.62,-27.04 2.98,-7.76 7.79,-14.7 13.75,-20.47 6.25,-6.05 13.71,-10.7 21.64,-13.59 12.69,-4.61 28.03,-5.13 43,-5.49 0.6,0.04 1.21,0.06 1.83,0.04 l -0.5,-21.15 0.5,21.07 c 5.26,-0.12 10.5,-0.25 14.68,-0.45 11.71,-0.57 22.97,-1.83 33.65,-3.79 10.75,-1.97 20.87,-4.64 30.23,-8.03 9.9,-3.58 19.11,-8.02 27.15,-13.57 8.85,-6.1 16.23,-13.5 21.59,-22.49 8.49,-14.21 10.81,-29.92 12.15,-45.85 -3.11,0.1 -6.23,0.17 -9.35,0.17 l -21.04,0 c -4.03,0 -8.03,-0.11 -12.03,-0.26"
         style="fill:#bc0467;fill-opacity:1;fill-rule:nonzero;stroke:none"
         id="path42"
         inkscape:connector-curvature="0" /></g></g></svg>