<?xml version="1.0" encoding="UTF-8" standalone="no"?>
<!-- Generator: Adobe Illustrator 16.0.3, SVG Export Plug-In . SVG Version: 6.00 Build 0)  -->

<svg
   xmlns:dc="http://purl.org/dc/elements/1.1/"
   xmlns:cc="http://creativecommons.org/ns#"
   xmlns:rdf="http://www.w3.org/1999/02/22-rdf-syntax-ns#"
   xmlns:svg="http://www.w3.org/2000/svg"
   xmlns="http://www.w3.org/2000/svg"
   xmlns:sodipodi="http://sodipodi.sourceforge.net/DTD/sodipodi-0.dtd"
   xmlns:inkscape="http://www.inkscape.org/namespaces/inkscape"
   version="1.0"
   id="Layer_1"
   x="0px"
   y="0px"
   width="230"
   height="130"
   viewBox="0 0 229.99999 130"
   enable-background="new 0 0 3628.35 2040.939"
   xml:space="preserve"
   inkscape:version="0.91 r13725"
   sodipodi:docname="erigones-logo.svg"><metadata
     id="metadata3509"><rdf:RDF><cc:Work
         rdf:about=""><dc:format>image/svg+xml</dc:format><dc:type
           rdf:resource="http://purl.org/dc/dcmitype/StillImage" /><dc:title></dc:title></cc:Work></rdf:RDF></metadata><defs
     id="defs3507" /><sodipodi:namedview
     pagecolor="#ffffff"
     bordercolor="#666666"
     borderopacity="1"
     objecttolerance="10"
     gridtolerance="10"
     guidetolerance="10"
     inkscape:pageopacity="0"
     inkscape:pageshadow="2"
     inkscape:window-width="1920"
     inkscape:window-height="1016"
     id="namedview3505"
     showgrid="false"
     inkscape:zoom="4.2936806"
     inkscape:cx="142.70178"
     inkscape:cy="50.155546"
     inkscape:window-x="0"
     inkscape:window-y="27"
     inkscape:window-maximized="1"
     inkscape:current-layer="Layer_1" /><g
     id="g3493"
     transform="translate(0,-1910.939)" /><g
     id="g3495"
     transform="translate(0,-1910.939)" /><g
     id="g3497"
     transform="translate(0,-1910.939)" /><g
     id="g3499"
     transform="translate(0,-1910.939)" /><g
     id="g3501"
     transform="translate(0,-1910.939)" /><g
     id="g3503"
     transform="translate(0,-1910.939)" /><g
     id="g3469"
     transform="matrix(0.07667335,0,0,0.07667335,-16.546404,-17.417871)"><g
       id="g3471"><path
         d="m 919.643,1485.173 c -19.671,-14.111 -55.024,-21.167 -106.052,-21.167 l -1.283,0 c -52.17,0 -89.09,9.979 -110.756,29.934 -20.242,19.958 -30.361,48.396 -30.361,85.312 0,39.202 10.69,68.28 32.072,87.236 23.376,18.96 59.725,28.438 109.045,28.438 l 75.69,0 0,-59.868 -75.477,0 c -26.657,0 -46.611,-4.276 -59.868,-12.829 -13.256,-8.552 -19.885,-22.163 -19.885,-40.838 0,-19.243 6.415,-33.639 19.244,-43.19 12.829,-9.548 32.998,-14.326 60.509,-14.326 49.034,0 73.552,6.061 73.552,18.175 0,2.853 -1.854,4.777 -5.56,5.772 -3.421,0.999 -9.124,1.57 -17.105,1.711 l -96.644,0 0,59.868 103.059,0 c 52.027,0 78.042,-21.596 78.042,-64.786 10e-4,-25.515 -9.407,-45.33 -28.222,-59.442 z"
         id="path3473"
         inkscape:connector-curvature="0"
         style="fill:#1c75bc" /><path
         d="m 980.58,1579.465 0,115.46 61.792,0 0,-112.68 c 0,-38.914 23.59,-58.372 70.772,-58.372 l 44.046,0 0,-59.867 -44.046,0 c -88.378,0 -132.564,38.486 -132.564,115.459 z"
         id="path3475"
         inkscape:connector-curvature="0"
         style="fill:#1c75bc" /><rect
         x="1203.801"
         y="1493.512"
         width="59.868"
         height="201.41299"
         id="rect3477"
         style="fill:#1c75bc" /><path
         d="m 1245.281,1401.145 c -2.426,-0.855 -6.131,-1.424 -11.119,-1.711 l -0.428,0 c -3.137,0 -7.557,0.785 -13.256,2.352 -6.13,1.57 -10.407,5.419 -12.829,11.547 -2.566,6.558 -3.849,12.828 -3.849,18.815 0,5.559 1.069,10.62 3.207,15.181 2.994,6.558 7.911,10.978 14.753,13.257 2.565,0.854 6.414,1.426 11.546,1.71 l 0.427,0 c 5.272,0 9.835,-0.855 13.684,-2.565 6.555,-2.566 11.188,-7.126 13.898,-13.685 1.423,-3.705 2.208,-8.265 2.352,-13.684 0,-0.428 0,-0.782 0,-1.069 0,-7.554 -1.57,-13.968 -4.704,-19.243 -3.135,-5.274 -7.695,-8.908 -13.682,-10.905 z"
         id="path3479"
         inkscape:connector-curvature="0"
         style="fill:#1c75bc" /><path
         d="m 1352.188,1492.442 c -21.381,18.248 -32.072,47.327 -32.072,87.236 0,39.77 10.691,68.708 32.072,86.809 22.521,18.96 58.799,28.438 108.832,28.438 l 21.595,0 0,-59.868 -21.382,0 c -27.512,0 -47.646,-4.63 -60.402,-13.897 -12.759,-9.265 -19.136,-23.162 -19.136,-41.694 0,-18.528 6.308,-32.426 18.922,-41.693 12.615,-9.265 32.747,-13.898 60.403,-13.898 l 61.15,0 -0.214,183.881 c 0,10.975 -3.849,19.136 -11.546,24.481 -7.697,5.345 -19.243,8.018 -34.638,8.018 l -113.749,0 0,59.868 113.749,0 c 42.476,0 71.34,-7.984 86.595,-23.947 15.251,-15.966 22.878,-38.773 22.878,-68.42 l 0,-243.748 -124.013,0 c -50.174,0 -86.523,9.479 -109.044,28.434 z"
         id="path3481"
         inkscape:connector-curvature="0"
         style="fill:#1c75bc" /><path
         d="m 2137.314,1488.38 c -18.104,-16.249 -47.895,-24.374 -89.375,-24.374 l -0.428,0 c -41.195,0 -70.738,8.055 -88.626,24.161 -17.89,16.109 -26.833,39.555 -26.833,70.345 0,0.144 0,0.357 0,0.641 l 0,135.772 59.868,0 0,-132.565 c 0,-0.284 0,-0.498 0,-0.642 0,-12.258 4.239,-21.629 12.722,-28.117 8.479,-6.484 22.911,-9.729 43.297,-9.729 20.383,0 34.922,3.314 43.618,9.942 8.693,6.629 13.113,16.144 13.257,28.545 l 0,132.564 59.868,0 0,-135.772 c -0.143,-30.927 -9.267,-54.521 -27.368,-70.771 z"
         id="path3483"
         inkscape:connector-curvature="0"
         style="fill:#1c75bc" /><path
         d="m 2450.124,1485.173 c -19.671,-14.111 -55.024,-21.167 -106.052,-21.167 l -1.283,0 c -52.171,0 -89.09,9.979 -110.756,29.934 -20.242,19.958 -30.361,48.396 -30.361,85.312 0,39.202 10.69,68.28 32.072,87.236 23.376,18.96 59.724,28.438 109.045,28.438 l 75.69,0 0,-59.868 -75.477,0 c -26.656,0 -46.611,-4.276 -59.868,-12.829 -13.256,-8.552 -19.885,-22.163 -19.885,-40.838 0,-19.243 6.415,-33.639 19.243,-43.19 12.829,-9.548 32.998,-14.326 60.51,-14.326 49.033,0 73.552,6.061 73.552,18.175 0,2.853 -1.854,4.777 -5.559,5.772 -3.421,0.999 -9.124,1.57 -17.105,1.711 l -96.644,0 0,59.868 103.058,0 c 52.027,0 78.043,-21.596 78.043,-64.786 10e-4,-25.515 -9.408,-45.33 -28.223,-59.442 z"
         id="path3485"
         inkscape:connector-curvature="0"
         style="fill:#1c75bc" /><path
         d="m 2740.271,1568.24 c -13.257,-12.472 -34.211,-18.709 -62.861,-18.709 l -84.885,0 c -6.985,0 -11.974,-0.996 -14.967,-2.993 -2.993,-1.995 -4.49,-5.416 -4.49,-10.264 0,-4.416 1.497,-7.59 4.49,-9.515 2.993,-1.924 7.981,-2.887 14.967,-2.887 l 146.249,0 0,-59.867 -146.249,0 c -28.083,0 -48.502,6.308 -61.258,18.922 -12.759,12.615 -19.136,30.542 -19.136,53.774 0,24.375 6.661,42.586 19.991,54.63 13.326,12.047 33.462,18.067 60.402,18.067 l 84.885,0 c 8.265,0 14.005,1.068 17.212,3.207 3.207,2.138 4.773,5.346 4.703,9.621 -0.073,4.276 -1.677,7.484 -4.811,9.622 -3.137,2.138 -8.84,3.207 -17.104,3.207 l -143.897,0 0,59.868 143.897,0 c 28.65,0 49.604,-6.271 62.861,-18.815 13.256,-12.542 19.885,-30.502 19.885,-53.882 l 0,-0.427 c 0,-23.231 -6.629,-41.084 -19.884,-53.559 z"
         id="path3487"
         inkscape:connector-curvature="0"
         style="fill:#1c75bc" /><path
         d="m 2090.982,1008.967 c 37.307,-0.036 67.532,-30.225 67.532,-67.532 0,-37.324 -30.226,-67.493 -67.532,-67.512 -34.753,0.019 -63.221,26.307 -66.938,60.1 l -0.574,0 0,7.413 0,5.936 0,1.477 0.516,0 c 0.28,2.385 0.686,4.714 1.169,7.026 l -87.46,50.875 -2.92,-55.533 c 26.951,-8.856 46.454,-34.165 46.454,-64.056 0,-37.307 -30.225,-67.532 -67.531,-67.532 -34.753,0 -63.226,26.324 -66.957,60.119 l -0.556,0 0,7.413 0,5.916 0,1.478 0.517,0 c 2.901,26.232 20.686,47.881 44.813,56.274 l 4.176,80.286 -106.591,61.984 0,-209.876 121.416,-128.52 c 7.323,2.718 15.197,4.364 23.481,4.364 37.287,-0.02 67.512,-30.208 67.512,-67.496 0,-37.324 -30.225,-67.532 -67.512,-67.548 -34.758,0.017 -63.226,26.324 -66.977,60.136 l -0.556,0 0,7.413 0,5.916 0,1.479 0.517,0 c 1.145,10.37 4.62,20.003 9.926,28.413 l -87.808,92.951 0,-206.272 c 23.273,-10.63 39.484,-34.053 39.522,-61.321 -0.038,-37.288 -30.225,-67.493 -67.531,-67.493 -34.772,0 -63.24,26.324 -66.957,60.1 l -0.556,0 0,7.394 0,5.935 0,1.478 0.517,0 c 2.665,24.053 17.876,44.258 38.986,53.945 l 0,206.401 -88.12,-93.301 c 6.469,-10.353 10.297,-22.554 10.297,-35.625 0,-37.324 -30.229,-67.532 -67.513,-67.548 -34.758,0.017 -63.226,26.324 -66.942,60.136 l -0.589,0 0,7.413 0,5.916 0,1.479 0.589,0 c 3.717,33.773 32.185,60.081 66.942,60.1 8.352,0 16.341,-1.666 23.698,-4.456 l 121.638,128.795 0,293.345 -114.613,-70.25 4.605,-114.153 c 28.023,-8.226 48.545,-33.978 48.545,-64.667 0,-37.288 -30.225,-67.493 -67.513,-67.493 -34.777,0 -63.245,26.324 -66.977,60.081 l -0.555,0 0,7.413 0,5.916 0,1.479 0.536,0 c 2.791,25.511 19.706,46.622 42.776,55.514 l -3.587,90.066 -102.063,-62.576 c 1.274,-5.177 2.071,-10.539 2.071,-16.121 0,-37.305 -30.225,-67.493 -67.515,-67.529 -34.772,0.036 -63.243,26.341 -66.977,60.136 l -0.553,0 0,7.394 0,5.935 0,1.479 0.553,0 c 3.698,33.792 32.204,60.098 66.977,60.098 15.991,0 30.633,-5.637 42.224,-14.956 l 99.311,60.896 -74.112,35.181 c -12.387,-14.07 -30.447,-23.018 -50.693,-23.018 -34.753,0 -63.223,26.287 -66.938,60.082 l -0.591,0 0,7.394 0,5.936 0,1.478 0.591,0 c 3.698,33.812 32.185,60.1 66.938,60.1 37.288,0 67.513,-30.206 67.513,-67.513 0,-1.535 -0.111,-3.031 -0.222,-4.528 l 101.474,-48.195 138.794,85.095 0,237.749 c -71.556,6.939 -107.338,45.032 -107.338,114.293 0,76.974 0,115.46 0,115.46 0,0 43.902,0 131.709,0 l 0.855,0 c 88.375,-0.284 132.564,-38.771 132.564,-115.46 0,-67.442 -33.927,-105.337 -101.772,-113.688 l 0,-322.636 130.4,-75.868 79.311,42.188 0,7.301 0,5.916 0,1.478 0.569,0 c 3.679,33.775 32.171,60.119 66.924,60.119 37.307,0 67.531,-30.225 67.531,-67.513 0,-37.307 -30.225,-67.531 -67.531,-67.531 -19.32,0 -36.699,8.227 -48.989,21.26 l -53.981,-28.728 84.114,-48.915 c 11.797,9.961 26.921,16.116 43.537,16.116 z m -17.595,-85.205 c 4.562,-4.528 10.625,-7.265 17.596,-7.282 6.99,0.017 13.034,2.754 17.654,7.321 4.548,4.62 7.285,10.667 7.304,17.635 -0.019,6.952 -2.756,13.015 -7.323,17.654 -4.601,4.55 -10.645,7.285 -17.635,7.304 -6.971,-0.019 -13.034,-2.754 -17.654,-7.321 -4.547,-4.622 -7.284,-10.686 -7.304,-17.637 0.019,-7.005 2.756,-13.016 7.362,-17.674 z m -157.01,-249.864 c 4.605,-4.564 10.631,-7.282 17.641,-7.302 6.946,0.02 12.976,2.737 17.635,7.321 4.547,4.623 7.299,10.647 7.299,17.654 0,6.952 -2.752,12.979 -7.338,17.637 -4.586,4.547 -10.649,7.265 -17.615,7.302 -6.99,-0.037 -13.016,-2.754 -17.64,-7.34 -4.548,-4.62 -7.3,-10.647 -7.319,-17.599 0.019,-7.007 2.737,-13.031 7.337,-17.673 z M 1605.4,709.17 c -4.625,4.586 -10.649,7.304 -17.654,7.34 -6.99,-0.037 -13.015,-2.754 -17.659,-7.34 -4.528,-4.62 -7.28,-10.647 -7.299,-17.599 0.02,-7.007 2.771,-13.032 7.299,-17.654 4.659,-4.583 10.668,-7.301 17.673,-7.321 6.952,0.02 13.015,2.737 17.64,7.321 4.562,4.623 7.299,10.647 7.299,17.654 10e-4,6.952 -2.737,12.979 -7.299,17.599 z m -179.007,310.463 c -4.567,4.531 -10.628,7.285 -17.599,7.285 -6.988,0 -13.032,-2.754 -17.654,-7.302 -4.583,-4.622 -7.282,-10.686 -7.302,-17.656 0.02,-7.005 2.718,-13.013 7.321,-17.654 4.603,-4.528 10.647,-7.282 17.635,-7.282 6.971,0 13.032,2.754 17.656,7.318 4.548,4.605 7.246,10.63 7.299,17.618 -0.014,6.971 -2.751,13.034 -7.356,17.673 z m 16.785,193.073 c -4.639,4.566 -10.684,7.304 -17.654,7.321 -6.985,-0.018 -13.013,-2.755 -17.654,-7.321 -4.547,-4.603 -7.282,-10.667 -7.301,-17.654 0.019,-6.968 2.754,-13.015 7.321,-17.635 4.622,-4.55 10.649,-7.284 17.635,-7.304 6.971,0.02 13.034,2.718 17.673,7.32 4.528,4.604 7.285,10.65 7.285,17.638 0,6.95 -2.758,13.015 -7.305,17.635 z m 143.27,-267.37 c -4.582,-4.62 -7.28,-10.647 -7.299,-17.654 0.02,-6.968 2.718,-13.032 7.299,-17.618 4.625,-4.583 10.668,-7.282 17.659,-7.337 6.966,0.055 13.029,2.754 17.654,7.337 4.548,4.586 7.28,10.65 7.299,17.618 -0.02,6.988 -2.751,13.034 -7.357,17.654 -4.567,4.586 -10.63,7.304 -17.616,7.304 -6.971,0 -13.015,-2.718 -17.639,-7.304 z m 156.99,-410.232 c 4.639,-4.567 10.684,-7.266 17.654,-7.304 6.99,0.039 13.034,2.737 17.654,7.304 4.566,4.603 7.284,10.683 7.304,17.654 -0.02,6.952 -2.737,13.015 -7.304,17.635 -3.698,3.643 -8.41,6.046 -13.734,6.877 -1.183,-0.109 -2.443,-0.314 -3.862,-0.314 -1.443,0 -2.481,0.278 -3.476,0.369 -5.547,-0.758 -10.394,-3.143 -14.236,-6.932 -4.547,-4.62 -7.266,-10.683 -7.304,-17.654 0.038,-6.969 2.757,-13.033 7.304,-17.635 z m 85.429,1043.719 0,0.428 0,0.642 c 0,36.636 -23.52,55.024 -70.559,55.164 -0.288,0 -0.642,0 -1.069,0 -46.043,0 -69.206,-18.528 -69.489,-55.592 0,-0.14 0,-0.354 0,-0.642 0,-36.632 23.52,-54.95 70.559,-54.95 47.039,0.145 70.558,18.462 70.558,54.95 z m 84.831,-666.708 c -6.971,-0.017 -13.015,-2.754 -17.654,-7.321 -4.528,-4.603 -7.284,-10.666 -7.304,-17.635 0.02,-6.988 2.775,-13.034 7.357,-17.654 4.586,-4.547 10.63,-7.285 17.62,-7.304 6.985,0.019 13.015,2.756 17.653,7.321 4.528,4.603 7.285,10.649 7.285,17.637 0,6.969 -2.757,13.032 -7.323,17.654 -4.6,4.548 -10.629,7.286 -17.634,7.302 z m 134.972,186.992 c 4.601,-4.547 10.664,-7.284 17.654,-7.304 6.966,0.02 13.015,2.757 17.635,7.321 4.547,4.604 7.284,10.649 7.304,17.637 -0.02,6.969 -2.757,13.032 -7.323,17.654 -4.601,4.548 -10.649,7.285 -17.635,7.302 -6.971,-0.017 -13.034,-2.754 -17.635,-7.338 -4.566,-4.586 -7.305,-10.649 -7.323,-17.618 0.018,-7.006 2.757,-13.032 7.323,-17.654 z"
         id="path3489"
         inkscape:connector-curvature="0"
         style="fill:#1c75bc" /></g><path
       d="M 2303.58,847.968 C 2268.658,798.443 2221.224,758.31 2166.407,731.8 l -6.083,-2.94 -0.569,-6.691 C 2150.752,620.77 2104.481,526.858 2029.5,457.7 1954.018,388.097 1855.836,349.758 1753.049,349.721 c -209.633,0.056 -384.147,157.448 -405.907,366.051 l -0.739,6.894 -6.379,2.756 c -58.14,25.067 -108.701,65.22 -146.227,116.075 -45.422,61.56 -69.417,134.619 -69.397,211.34 0.017,196.751 160.111,356.843 356.862,356.881 7.618,0 15.66,-0.297 25.271,-0.943 29.284,-2.052 58.398,-7.838 86.644,-17.174 l 0,-79.159 c -26.783,11.555 -55.217,18.781 -84.703,21.574 -7.782,0.795 -17.49,1.738 -27.212,1.738 -75.517,-0.02 -146.56,-29.47 -200.024,-82.896 -53.406,-53.426 -82.837,-124.45 -82.874,-200.021 0.036,-60.747 19.04,-118.684 54.997,-167.435 34.753,-47.14 84.389,-83.095 139.794,-101.269 l 24.809,-8.134 0.666,-26.066 c 2.254,-87.626 37.987,-169.65 100.658,-230.952 62.834,-61.449 145.823,-95.297 233.669,-95.297 182.445,0 332.537,148.373 334.753,330.741 l 0.313,25.216 23.572,8.912 c 53.224,20.15 98.698,55.438 131.53,102.026 33.556,47.695 51.302,103.8 51.302,162.257 0,75.571 -29.414,146.596 -82.82,200.021 -53.518,53.426 -124.545,82.876 -200.022,82.896 -9.003,0 -17.321,-0.758 -27.251,-1.738 -29.447,-2.793 -57.882,-10.02 -84.684,-21.574 l 0,79.159 c 28.265,9.336 57.379,15.122 86.682,17.193 9.593,0.627 17.635,0.924 25.253,0.924 196.749,-0.038 356.81,-160.13 356.823,-356.881 0.039,-73.855 -22.385,-144.693 -64.828,-204.868 z"
       id="path3491"
       inkscape:connector-curvature="0"
       style="fill:#5bc1de" /></g></svg>