<?xml version="1.0" encoding="UTF-8" standalone="no"?>
<!-- Created with Inkscape (http://www.inkscape.org/) -->

<svg
   xmlns:dc="http://purl.org/dc/elements/1.1/"
   xmlns:cc="http://creativecommons.org/ns#"
   xmlns:rdf="http://www.w3.org/1999/02/22-rdf-syntax-ns#"
   xmlns:svg="http://www.w3.org/2000/svg"
   xmlns="http://www.w3.org/2000/svg"
   xmlns:sodipodi="http://sodipodi.sourceforge.net/DTD/sodipodi-0.dtd"
   xmlns:inkscape="http://www.inkscape.org/namespaces/inkscape"
   id="svg2"
   version="1.1"
   inkscape:version="0.91 r13725"
   xml:space="preserve"
   width="491"
   height="103.7625"
   viewBox="0 0 491 103.7625"
   sodipodi:docname="Gopas stredisko cmyk.svg"><metadata
     id="metadata8"><rdf:RDF><cc:Work
         rdf:about=""><dc:format>image/svg+xml</dc:format><dc:type
           rdf:resource="http://purl.org/dc/dcmitype/StillImage" /><dc:title></dc:title></cc:Work></rdf:RDF></metadata><defs
     id="defs6" /><sodipodi:namedview
     pagecolor="#ffffff"
     bordercolor="#666666"
     borderopacity="1"
     objecttolerance="10"
     gridtolerance="10"
     guidetolerance="10"
     inkscape:pageopacity="0"
     inkscape:pageshadow="2"
     inkscape:window-width="1600"
     inkscape:window-height="836"
     id="namedview4"
     showgrid="false"
     inkscape:zoom="0.70264766"
     inkscape:cx="248.34638"
     inkscape:cy="51.881248"
     inkscape:window-x="0"
     inkscape:window-y="27"
     inkscape:window-maximized="1"
     inkscape:current-layer="g10" /><g
     id="g10"
     inkscape:groupmode="layer"
     inkscape:label="ink_ext_XXXXXX"
     transform="matrix(1.25,0,0,-1.25,0,103.7625)"><g
       id="g12"
       transform="scale(0.1,0.1)"><path
         d="m 1830.85,499.813 c 0,-127.032 63.53,-227.364 172.12,-227.364 109.55,0 171.24,102.188 171.24,231.977 0,116.914 -58.03,227.371 -171.24,227.371 -112.31,0 -172.12,-104.035 -172.12,-231.984 z m 463.03,8.292 c 0,-208.015 -126.13,-326.789 -296.42,-326.789 -175.85,0 -286.29,134.407 -286.29,315.743 0,191.488 120.57,325.871 295.48,325.871 180.41,0 287.23,-137.168 287.23,-314.825"
         style="fill:#15326a;fill-opacity:1;fill-rule:nonzero;stroke:none"
         id="path14"
         inkscape:connector-curvature="0" /><path
         d="m 2492.53,515.477 c 14.71,-4.59 32.21,-5.536 55.19,-5.536 84.72,0 136.24,42.356 136.24,114.161 0,69.043 -47.84,104.941 -126.11,104.941 -31.28,0 -53.36,-2.785 -65.32,-5.535 l 0,-208.031 z m -112.32,288.125 c 41.39,7.363 97.58,12.89 173.07,12.89 82.84,0 142.66,-17.48 182.25,-50.644 36.83,-30.371 60.75,-79.16 60.75,-137.137 0,-58.914 -18.41,-106.785 -52.46,-139.934 -46.05,-45.105 -115.99,-67.195 -196.1,-67.195 -21.15,0 -39.56,0.926 -55.19,4.598 l 0,-234.727 -112.32,0 0,612.149"
         style="fill:#15326a;fill-opacity:1;fill-rule:nonzero;stroke:none"
         id="path16"
         inkscape:connector-curvature="0" /><path
         d="m 3131.44,452.891 -48.8,152.793 c -11.96,37.742 -22.08,80.078 -31.26,115.988 l -1.85,0 c -9.23,-35.91 -19.35,-79.152 -29.47,-115.988 l -47.85,-152.793 159.23,0 z m -177.65,-85.618 -53.41,-175.82 -116.92,0 198.87,620.442 144.49,0 201.61,-620.442 -122.45,0 -56.13,175.82 -196.06,0"
         style="fill:#15326a;fill-opacity:1;fill-rule:nonzero;stroke:none"
         id="path18"
         inkscape:connector-curvature="0" /><path
         d="m 3390.55,314.797 c 35.89,-21.156 92.03,-39.574 150.04,-39.574 71.8,0 112.32,34.054 112.32,84.679 0,46.953 -31.31,74.571 -109.55,103.114 -103.12,36.797 -168.5,91.125 -168.5,180.41 0,102.179 84.72,178.574 220.03,178.574 67.2,0 115.99,-14.707 148.21,-31.297 l -26.7,-91.113 c -23,11.961 -66.27,29.453 -124.29,29.453 -71.78,0 -102.14,-37.742 -102.14,-74.57 0,-47.871 35.89,-69.953 118.72,-102.176 107.71,-40.5 159.27,-94.817 159.27,-184.113 0,-100.344 -75.5,-186.868 -234.72,-186.868 -66.31,0 -134.41,18.43 -168.5,39.61 l 25.81,93.871"
         style="fill:#15326a;fill-opacity:1;fill-rule:nonzero;stroke:none"
         id="path20"
         inkscape:connector-curvature="0" /><path
         d="m 1529.09,289.023 c -14.71,-6.445 -44.18,-11.953 -85.62,-11.953 -128.87,0 -215.4,83.758 -215.4,224.602 0,144.508 92.97,222.762 225.52,222.762 65.37,0 106.78,-11.055 140.86,-26.692 l 24.85,91.145 c -28.55,13.789 -88.38,29.453 -164.77,29.453 -205.27,0 -344.3,-125.195 -345.21,-322.188 0,-93.918 31.31,-175.8 86.53,-228.312 58.92,-56.141 138.99,-82.852 243.94,-82.852 81.93,0 159.25,20.254 198.83,34.992 l 0,311.77 -109.53,0 0,-242.727"
         style="fill:#15326a;fill-opacity:1;fill-rule:nonzero;stroke:none"
         id="path22"
         inkscape:connector-curvature="0" /><path
         d="m 1136.32,14.3359 15.9883,0 0,87.6289 -15.9883,0 0,-87.6289 z"
         style="fill:#15326a;fill-opacity:1;fill-rule:nonzero;stroke:none"
         id="path24"
         inkscape:connector-curvature="0" /><path
         d="m 1251.76,88.5625 -24.96,0 0,13.4025 66.18,0 0,-13.4025 -25.23,0 0,-74.2266 -15.99,0 0,74.2266"
         style="fill:#15326a;fill-opacity:1;fill-rule:nonzero;stroke:none"
         id="path26"
         inkscape:connector-curvature="0" /><path
         d="m 1478.74,106.766 -13.39,15.468 11.96,0 7.41,-8.574 0.26,0 7.15,8.574 11.83,0 -13.13,-15.468 -12.09,0 z m -20.15,-75.0082 c 5.07,-2.9883 13,-5.5976 21.2,-5.5976 10.13,0 15.85,4.8164 15.85,11.9648 0,6.6328 -4.42,10.5273 -15.47,14.5586 -14.56,5.207 -23.79,12.8711 -23.79,25.4805 0,14.4336 11.96,25.2229 31.07,25.2229 9.49,0 16.38,-2.078 20.93,-4.4222 l -3.77,-12.871 c -3.25,1.6992 -9.36,4.1601 -17.55,4.1601 -10.14,0 -14.43,-5.3242 -14.43,-10.5273 0,-6.7578 5.07,-9.8828 16.77,-14.4336 15.21,-5.7149 22.49,-13.3907 22.49,-25.9961 0,-14.168 -10.66,-26.3867 -33.15,-26.3867 -9.36,0 -18.98,2.5976 -23.79,5.5859 l 3.64,13.2617"
         style="fill:#15326a;fill-opacity:1;fill-rule:nonzero;stroke:none"
         id="path28"
         inkscape:connector-curvature="0" /><path
         d="m 1590.66,101.965 15.86,0 0,-40.3048 0.39,0 c 2.08,3.3789 4.3,6.4921 6.38,9.4921 l 23.01,30.8127 19.63,0 -30.16,-37.3166 32.11,-50.3125 -18.72,0 -24.71,40.1758 -7.93,-9.3672 0,-30.8086 -15.86,0 0,87.6291"
         style="fill:#15326a;fill-opacity:1;fill-rule:nonzero;stroke:none"
         id="path30"
         inkscape:connector-curvature="0" /><path
         d="m 1739.65,57.8906 c 0,-17.9414 8.96,-32.1093 24.31,-32.1093 15.47,0 24.17,14.4218 24.17,32.7539 0,16.5156 -8.18,32.1093 -24.17,32.1093 -15.86,0 -24.31,-14.6875 -24.31,-32.7539 z m 65.39,1.1719 c 0,-29.3867 -17.81,-46.1523 -41.87,-46.1523 -24.82,0 -40.43,18.9726 -40.43,44.5898 0,27.043 17.04,46.016 41.74,46.016 25.48,0 40.56,-19.3676 40.56,-44.4535"
         style="fill:#15326a;fill-opacity:1;fill-rule:nonzero;stroke:none"
         id="path32"
         inkscape:connector-curvature="0" /><path
         d="m 1883.16,101.965 16,0 0,-74.2423 36.01,0 0,-13.3868 -52.01,0 0,87.6291"
         style="fill:#15326a;fill-opacity:1;fill-rule:nonzero;stroke:none"
         id="path34"
         inkscape:connector-curvature="0" /><path
         d="m 2011.6,14.3359 16,0 0,87.6289 -16,0 0,-87.6289 z"
         style="fill:#15326a;fill-opacity:1;fill-rule:nonzero;stroke:none"
         id="path36"
         inkscape:connector-curvature="0" /><path
         d="m 2152.92,51.2578 -6.89,21.582 c -1.69,5.3243 -3.12,11.3086 -4.43,16.379 l -0.25,0 c -1.3,-5.0704 -2.74,-11.1836 -4.16,-16.379 l -6.76,-21.582 22.49,0 z m -25.1,-12.0859 -7.54,-24.836 -16.5,0 28.08,87.6291 20.41,0 28.47,-87.6291 -17.29,0 -7.93,24.836 -27.7,0"
         style="fill:#15326a;fill-opacity:1;fill-rule:nonzero;stroke:none"
         id="path38"
         inkscape:connector-curvature="0" /><path
         d="m 2317.36,16.8047 c -3.77,-1.8164 -12.09,-3.8945 -22.75,-3.8945 -27.81,0 -44.72,17.4101 -44.72,44.1992 0,28.8554 20.15,46.2776 46.94,46.2776 10.52,0 17.94,-2.207 21.19,-3.8948 l -3.38,-12.7461 c -4.16,1.8164 -10.01,3.3828 -17.17,3.3828 -17.8,0 -30.67,-11.1836 -30.67,-32.2383 0,-19.375 11.17,-31.5898 30.54,-31.5898 6.37,0 13.14,1.2969 17.43,3.1133 l 2.59,-12.6094"
         style="fill:#15326a;fill-opacity:1;fill-rule:nonzero;stroke:none"
         id="path40"
         inkscape:connector-curvature="0" /><path
         d="m 2444.38,53.2031 -33.02,0 0,-25.7343 36.91,0 0,-13.1329 -52.91,0 0,87.6291 50.97,0 0,-13.1369 -34.97,0 0,-22.6172 33.02,0 0,-13.0078"
         style="fill:#15326a;fill-opacity:1;fill-rule:nonzero;stroke:none"
         id="path42"
         inkscape:connector-curvature="0" /><path
         d="m 2617.67,31.7578 c 5.06,-2.9883 12.99,-5.5976 21.18,-5.5976 10.14,0 15.87,4.8164 15.87,11.9648 0,6.6328 -4.43,10.5273 -15.48,14.5586 -14.56,5.207 -23.79,12.8711 -23.79,25.4805 0,14.4336 11.96,25.2229 31.07,25.2229 9.5,0 16.38,-2.078 20.93,-4.4222 l -3.77,-12.871 c -3.25,1.6992 -9.35,4.1601 -17.55,4.1601 -10.13,0 -14.43,-5.3242 -14.43,-10.5273 0,-6.7578 5.08,-9.8828 16.78,-14.4336 15.2,-5.7149 22.49,-13.3907 22.49,-25.9961 0,-14.168 -10.67,-26.3867 -33.16,-26.3867 -9.35,0 -18.98,2.5976 -23.79,5.5859 l 3.65,13.2617"
         style="fill:#15326a;fill-opacity:1;fill-rule:nonzero;stroke:none"
         id="path44"
         inkscape:connector-curvature="0" /><path
         d="m 2766.5,88.5625 -24.96,0 0,13.4025 66.18,0 0,-13.4025 -25.22,0 0,-74.2266 -16,0 0,74.2266"
         style="fill:#15326a;fill-opacity:1;fill-rule:nonzero;stroke:none"
         id="path46"
         inkscape:connector-curvature="0" /><path
         d="m 2898.19,62.0508 9.5,0 c 10.79,0 17.42,5.7109 17.42,14.4219 0,9.4921 -6.63,14.0429 -17.03,14.0429 -5.07,0 -8.32,-0.3867 -9.89,-0.7812 l 0,-27.6836 z m -15.86,38.6132 c 6.12,1.16 14.96,1.941 24.18,1.941 12.62,0 21.07,-2.078 27.04,-7.0191 4.82,-4.0234 7.54,-10.1367 7.54,-17.6757 0,-11.3086 -7.66,-18.9844 -15.98,-21.8477 l 0,-0.3867 c 6.36,-2.336 10.13,-8.4492 12.21,-16.8985 2.87,-10.9257 5.21,-21.0625 6.9,-24.4414 l -16.38,0 c -1.31,2.5977 -3.51,9.7461 -5.85,20.6719 -2.61,11.4375 -6.63,15.082 -15.73,15.3438 l -8.07,0 0,-36.0157 -15.86,0 0,86.3281"
         style="fill:#15326a;fill-opacity:1;fill-rule:nonzero;stroke:none"
         id="path48"
         inkscape:connector-curvature="0" /><path
         d="m 3069.67,53.2031 -33.02,0 0,-25.7343 36.91,0 0,-13.1329 -52.91,0 0,87.6291 50.97,0 0,-13.1369 -34.97,0 0,-22.6172 33.02,0 0,-13.0078"
         style="fill:#15326a;fill-opacity:1;fill-rule:nonzero;stroke:none"
         id="path50"
         inkscape:connector-curvature="0" /><path
         d="m 3167.95,26.4258 c 2.21,-0.3906 5.59,-0.3906 8.84,-0.3906 20.8,-0.1289 33.15,11.4453 33.15,33.6718 0.13,19.2383 -11.05,30.4219 -31.07,30.4219 -5.07,0 -8.59,-0.3945 -10.92,-0.9101 l 0,-62.793 z m -16,74.3672 c 7.15,1.031 16,1.812 25.48,1.812 16.39,0 27.57,-3.3784 35.63,-10.1362 8.58,-6.8946 13.78,-17.418 13.78,-32.2461 0,-15.7305 -5.34,-27.293 -13.66,-34.8321 -8.71,-7.9297 -22.61,-11.9648 -39.64,-11.9648 -9.23,0 -16.25,0.5195 -21.59,1.1719 l 0,86.1953"
         style="fill:#15326a;fill-opacity:1;fill-rule:nonzero;stroke:none"
         id="path52"
         inkscape:connector-curvature="0" /><path
         d="m 3305.1,14.3359 15.9883,0 0,87.6289 -15.9883,0 0,-87.6289 z"
         style="fill:#15326a;fill-opacity:1;fill-rule:nonzero;stroke:none"
         id="path54"
         inkscape:connector-curvature="0" /><path
         d="m 3403.51,31.7578 c 5.06,-2.9883 12.99,-5.5976 21.18,-5.5976 10.14,0 15.87,4.8164 15.87,11.9648 0,6.6328 -4.43,10.5273 -15.48,14.5586 -14.56,5.207 -23.79,12.8711 -23.79,25.4805 0,14.4336 11.96,25.2229 31.07,25.2229 9.5,0 16.38,-2.078 20.93,-4.4222 l -3.77,-12.871 c -3.25,1.6992 -9.35,4.1601 -17.55,4.1601 -10.13,0 -14.43,-5.3242 -14.43,-10.5273 0,-6.7578 5.08,-9.8828 16.78,-14.4336 15.2,-5.7149 22.49,-13.3907 22.49,-25.9961 0,-14.168 -10.67,-26.3867 -33.16,-26.3867 -9.35,0 -18.98,2.5976 -23.79,5.5859 l 3.65,13.2617"
         style="fill:#15326a;fill-opacity:1;fill-rule:nonzero;stroke:none"
         id="path56"
         inkscape:connector-curvature="0" /><path
         d="m 3535.59,101.965 15.86,0 0,-40.3048 0.39,0 c 2.08,3.3789 4.29,6.4921 6.37,9.4921 l 23.01,30.8127 19.63,0 -30.16,-37.3166 32.11,-50.3125 -18.72,0 -24.7,40.1758 -7.93,-9.3672 0,-30.8086 -15.86,0 0,87.6291"
         style="fill:#15326a;fill-opacity:1;fill-rule:nonzero;stroke:none"
         id="path58"
         inkscape:connector-curvature="0" /><path
         d="m 3684.57,57.8906 c 0,-17.9414 8.97,-32.1093 24.31,-32.1093 15.48,0 24.18,14.4218 24.18,32.7539 0,16.5156 -8.19,32.1093 -24.18,32.1093 -15.86,0 -24.31,-14.6875 -24.31,-32.7539 z m 65.39,1.1719 c 0,-29.3867 -17.81,-46.1523 -41.86,-46.1523 -24.83,0 -40.43,18.9726 -40.43,44.5898 0,27.043 17.03,46.016 41.73,46.016 25.48,0 40.56,-19.3676 40.56,-44.4535"
         style="fill:#15326a;fill-opacity:1;fill-rule:nonzero;stroke:none"
         id="path60"
         inkscape:connector-curvature="0" /><path
         d="m 3868.67,751.191 11.33,0 c 7.31,0 12.01,1.524 12.01,9.122 0,6.621 -5.94,8.554 -12.01,8.554 l -11.33,0 0,-17.676 z m -9.52,25.137 22.36,0 c 13.39,0 20.02,-5.39 20.02,-16.437 0,-9.383 -5.92,-16.153 -15.05,-16.153 l 16.58,-25.816 -10.08,0 -16.3,25.816 -8.01,0 0,-25.816 -9.52,0 0,58.406 z m 19.19,-71.66 c 22.93,0 40.18,18.496 40.18,42.383 0,23.887 -17.25,42.39 -40.18,42.39 -23.19,0 -40.46,-18.503 -40.46,-42.39 0,-23.887 17.27,-42.383 40.46,-42.383 z m -0.14,92.227 c 27.48,0 49.85,-22.364 49.85,-49.844 0,-27.481 -22.37,-49.844 -49.85,-49.844 -27.48,0 -49.84,22.363 -49.84,49.844 0,27.48 22.36,49.844 49.84,49.844"
         style="fill:#15326a;fill-opacity:1;fill-rule:nonzero;stroke:none"
         id="path62"
         inkscape:connector-curvature="0" /><path
         d="m 352.637,477.645 -0.696,-0.711 c 160.161,159.461 313.204,222.824 368.149,167.683 14.637,-14.707 20.379,-36.347 18.973,-63.199 -0.711,-14.191 14.074,-15.824 15.656,-0.727 5.41,52.231 -6.953,86.114 -46.196,125.52 -162.8,163.504 -426.25,165.125 -588.445,3.625 C -41.4258,547.617 -39.793,284.18 123.699,121.379 163.113,82.1367 196.973,69.7578 249.238,75.2148 c 15.078,1.5625 13.45,16.336 -0.73,15.5938 -26.899,-1.3438 -48.52,4.3672 -63.242,19.0044 -55.121,54.921 8.242,208 167.695,368.136 l -0.715,-0.715"
         style="fill:#15326a;fill-opacity:1;fill-rule:nonzero;stroke:none"
         id="path64"
         inkscape:connector-curvature="0" /><path
         d="m 642.258,352.059 0.703,0.703 C 482.82,193.301 329.758,129.941 274.836,185.078 c -14.641,14.707 -20.363,36.348 -19.008,63.223 0.727,14.168 -14.043,15.808 -15.613,0.73 -5.442,-52.246 6.926,-86.121 46.18,-125.523 162.804,-163.5275 426.234,-165.1408 588.449,-3.637 161.516,162.219 159.896,425.645 -3.645,588.449 -39.39,39.239 -73.269,51.621 -125.508,46.172 -15.086,-1.574 -13.445,-16.328 0.727,-15.597 26.875,1.347 48.516,-4.375 63.199,-19.012 55.156,-54.922 -8.222,-207.988 -167.664,-368.125 l 0.703,0.691"
         style="fill:#15326a;fill-opacity:1;fill-rule:nonzero;stroke:none"
         id="path66"
         inkscape:connector-curvature="0" /></g></g></svg>