<?xml version="1.0" encoding="utf-8"?>
<!-- Generator: Adobe Illustrator 17.0.0, SVG Export Plug-In . SVG Version: 6.00 Build 0)  -->
<!DOCTYPE svg PUBLIC "-//W3C//DTD SVG 1.1//EN" "http://www.w3.org/Graphics/SVG/1.1/DTD/svg11.dtd">
<svg version="1.1" id="Layer_1" xmlns="http://www.w3.org/2000/svg" xmlns:xlink="http://www.w3.org/1999/xlink" x="0px" y="0px"
	 width="1974px" height="506px" viewBox="0 0 1974 506" enable-background="new 0 0 1974 506" xml:space="preserve">
<path fill="#FFFFFF" d="M0,0h1974v506H30.28c14.17-6.69,29.38-12.78,40.28-24.47c5.55-5.79,4.02-14.39,5.84-21.58
	c4.39,2.92,9.73,4.3,13.78,7.67c13.38,16.86,32.81,28.58,53.84,32.95c14.77,3.2,30.11,3.14,44.98,0.64
	c22.03-3.53,43.63-11.93,61-26.15c17.39-14,29.98-34.2,33.64-56.34c40.39,8.97,82.8,5.74,122.48-5.17
	c42.91-11.97,83.42-35.69,111.22-70.95c18.54-4.8,36.91-10.53,54.16-18.94c11.84-5.86,24.16-11.16,34.6-19.41
	c6.39-5.32,12.86-10.93,17.14-18.17c1.92-4.03,4.19-8.53,3.1-13.12c-1.85-3.9-5.82-6.14-9.49-8.05c-8.32-4.14-17.17-7.07-26-9.89
	c-11.33-3.41-22.7-6.76-34.31-9.12c0.3-6.95,0.33-13.91,0.23-20.86c-0.18-1.87,0.59-3.58,1.43-5.19
	c8.55-16.04,11.74-35.17,7.53-52.95c-3.49-15.78-12.9-30.12-25.85-39.76c-18.26-13.84-42.65-18.6-64.98-14.07
	c-2.51,0.34-5.32,1.54-7.66-0.04c-4.52-2.48-9.05-4.94-13.7-7.16c5.29-6.41,11.36-12.15,17.85-17.32
	c8.54-5.64,18.66-8.3,28.63-10.13c11.27-2.26,22.71-3.54,33.99-5.72c2.59-0.09,3.34-2.63,4.07-4.65
	c-3.69-5.25-9.79-7.92-15.29-10.82c-13.13-5.28-27.45-6.18-41.34-7.88c-5.94-1.17-12.01-1.9-18.03-0.86
	c12.97-8.21,26.5-15.79,41.11-20.65c5.66-2.12,11.5-3.74,17.11-6.01c2.52-0.79,2.42-3.97,3.39-6.01c-1.49-1.38-2.76-3.21-4.77-3.83
	c-9.21-2.46-18.75-3.26-28.19-4.32c-24.2-2.34-48.74-4.65-72.93-1.01c-15.33,2.82-30.48,7.13-44.61,13.8
	c-12.15,5.96-23.69,13.17-34.39,21.46c6.62-13.03,15.48-24.68,23.45-36.87c0.01-0.81,0.01-2.41,0.02-3.22
	c-7.16-2.89-15.45-1.41-22.62,0.86c-25.04,8.97-49.28,21.29-69.33,38.97c-12.63,11.81-23.74,25.15-34.13,38.94
	c-14.93,19.66-26.02,41.83-37.39,63.64c-2.26,4.05-3.61,8.68-6.76,12.17c-19.94,20.33-37.03,44.42-45.02,72.04
	c-4.03,14.01-5.7,28.76-4.36,43.29c1.8,20.68,9.35,40.41,19,58.64c-12.72,0.88-25.27,4.28-36.5,10.37
	c-6.38-13.97-7.11-29.71-5.92-44.8c0.73-7.02,2.01-13.97,3.04-20.95c-0.74-1.51-1.48-3.02-2.22-4.53c-1.94,0.31-4.09,0.1-5.78,1.28
	c-4,2.61-7.76,5.56-11.5,8.52c-5.56,4.45-9.54,10.43-13.84,16.02c1.03-7.48,5.16-14.49,4.44-22.16c-3.7-0.18-6.73,2-9.75,3.8
	c-12.89,7.05-21.75,19.85-27.01,33.29c-1.97-4.93-3.57-10-5.64-14.89c-1.3-1.47-3.45-4.2-5.56-2.49c-1.43,0.77-2.77,1.83-3.41,3.38
	c-3.51,7.38-7.27,14.84-8.49,23.02c-1.31,8.52-2.61,17.17-1.98,25.81c0.91,9.58,2.19,19.52,7.2,27.93
	c3.29,5.48,7.07,10.85,12.29,14.66c6.56,4.88,13.96,8.46,21.37,11.85c-0.02,0.55-0.07,1.65-0.09,2.2c-2.14,0.14-4.61,0.14-6.24,1.79
	c-5.78,8.09-12.39,15.58-18.99,23.03c-10.19,10.19-19.81,21.15-31.75,29.38c-4.62,3.35-9.41,6.45-14.07,9.73
	c-1.46,0.88-1.65,2.71-2.33,4.14c1.12,0.91,2.23,1.85,3.33,2.79c14.95-0.98,30.19-2.12,44.27-7.64
	C42.53,478.7,34,489.68,26.21,501.02c0.1,1.13,0.2,2.27,0.29,3.42c1.16,0.52,2.33,1.04,3.49,1.56H0V0z"/>
<path fill="#050505" d="M340.99,2.69c7.17-2.27,15.46-3.75,22.62-0.86c-0.01,0.81-0.01,2.41-0.02,3.22
	c-7.97,12.19-16.83,23.84-23.45,36.87c10.7-8.29,22.24-15.5,34.39-21.46c14.13-6.67,29.28-10.98,44.61-13.8
	c24.19-3.64,48.73-1.33,72.93,1.01c9.44,1.06,18.98,1.86,28.19,4.32c2.01,0.62,3.28,2.45,4.77,3.83c-0.97,2.04-0.87,5.22-3.39,6.01
	c-5.61,2.27-11.45,3.89-17.11,6.01c-14.61,4.86-28.14,12.44-41.11,20.65c6.02-1.04,12.09-0.31,18.03,0.86
	c13.89,1.7,28.21,2.6,41.34,7.88c5.5,2.9,11.6,5.57,15.29,10.82c-0.73,2.02-1.48,4.56-4.07,4.65c-11.28,2.18-22.72,3.46-33.99,5.72
	c-9.97,1.83-20.09,4.49-28.63,10.13c-6.49,5.17-12.56,10.91-17.85,17.32c4.65,2.22,9.18,4.68,13.7,7.16
	c2.34,1.58,5.15,0.38,7.66,0.04c22.33-4.53,46.72,0.23,64.98,14.07c12.95,9.64,22.36,23.98,25.85,39.76
	c4.21,17.78,1.02,36.91-7.53,52.95c-0.84,1.61-1.61,3.32-1.43,5.19c0.1,6.95,0.07,13.91-0.23,20.86
	c11.61,2.36,22.98,5.71,34.31,9.12c8.83,2.82,17.68,5.75,26,9.89c3.67,1.91,7.64,4.15,9.49,8.05c1.09,4.59-1.18,9.09-3.1,13.12
	c-4.28,7.24-10.75,12.85-17.14,18.17c-10.44,8.25-22.76,13.55-34.6,19.41c-17.25,8.41-35.62,14.14-54.16,18.94
	c-27.8,35.26-68.31,58.98-111.22,70.95c-39.68,10.91-82.09,14.14-122.48,5.17c-3.66,22.14-16.25,42.34-33.64,56.34
	c-17.37,14.22-38.97,22.62-61,26.15c-14.87,2.5-30.21,2.56-44.98-0.64c-21.03-4.37-40.46-16.09-53.84-32.95
	c-4.05-3.37-9.39-4.75-13.78-7.67c-1.82,7.19-0.29,15.79-5.84,21.58c-10.9,11.69-26.11,17.78-40.28,24.47h-0.29
	c-1.16-0.52-2.33-1.04-3.49-1.56c-0.09-1.15-0.19-2.29-0.29-3.42c7.79-11.34,16.32-22.32,21.66-35.11
	c-14.08,5.52-29.32,6.66-44.27,7.64c-1.1-0.94-2.21-1.88-3.33-2.79c0.68-1.43,0.87-3.26,2.33-4.14c4.66-3.28,9.45-6.38,14.07-9.73
	c11.94-8.23,21.56-19.19,31.75-29.38c6.6-7.45,13.21-14.94,18.99-23.03c1.63-1.65,4.1-1.65,6.24-1.79c0.02-0.55,0.07-1.65,0.09-2.2
	c-7.41-3.39-14.81-6.97-21.37-11.85c-5.22-3.81-9-9.18-12.29-14.66c-5.01-8.41-6.29-18.35-7.2-27.93
	c-0.63-8.64,0.67-17.29,1.98-25.81c1.22-8.18,4.98-15.64,8.49-23.02c0.64-1.55,1.98-2.61,3.41-3.38c2.11-1.71,4.26,1.02,5.56,2.49
	c2.07,4.89,3.67,9.96,5.64,14.89c5.26-13.44,14.12-26.24,27.01-33.29c3.02-1.8,6.05-3.98,9.75-3.8c0.72,7.67-3.41,14.68-4.44,22.16
	c4.3-5.59,8.28-11.57,13.84-16.02c3.74-2.96,7.5-5.91,11.5-8.52c1.69-1.18,3.84-0.97,5.78-1.28c0.74,1.51,1.48,3.02,2.22,4.53
	c-1.03,6.98-2.31,13.93-3.04,20.95c-1.19,15.09-0.46,30.83,5.92,44.8c11.23-6.09,23.78-9.49,36.5-10.37
	c-9.65-18.23-17.2-37.96-19-58.64c-1.34-14.53,0.33-29.28,4.36-43.29c7.99-27.62,25.08-51.71,45.02-72.04
	c3.15-3.49,4.5-8.12,6.76-12.17c11.37-21.81,22.46-43.98,37.39-63.64c10.39-13.79,21.5-27.13,34.13-38.94
	C291.71,23.98,315.95,11.66,340.99,2.69z"/>
<path fill="#FFFFFF" d="M306.55,29.28c12.92-7.14,26.4-13.37,40.45-17.94c-9.71,14.27-18.78,29.05-25.88,44.81
	c-3.5,9.14-4.26,19-5.42,28.63c1.59-0.38,3.52-0.11,4.74-1.44c3.99-3.95,7.59-8.27,11.5-12.29c3.86-3.91,6.94-8.59,11.31-11.99
	c8.9-6.65,17.4-13.86,26.89-19.69c6.94-4.52,14.5-7.95,22.03-11.34c10.21-4.42,20.7-8.58,31.79-10.14
	c7.6-1.06,15.28-1.58,22.96-1.65c15.05-0.18,30.15,0.1,45.11,1.78c-17.37,6.61-31.49,19.11-46.34,29.91
	c-8.6,6.95-15.64,15.56-22.66,24.05c-1.49,1.73-2.78,3.62-3.91,5.6c12.37-4.2,24.45-9.23,36.85-13.37
	c5.8-1.99,12.01-1.89,17.99-3.01c10.66-2.38,21.6-0.16,32.17,1.67c3.74,1.09,8,1.19,11.22,3.52c-9.75,1.37-19.64,1.99-29.24,4.3
	c-7.06,1.76-13.82,4.58-20.27,7.92c-5.48,2.75-11.31,5.13-15.83,9.4c-4,3.85-8.41,7.32-11.8,11.75c-6.95-2.92-13.98-5.68-21.16-7.99
	c-2.3-1.35-4.83,2.25-2.62,3.83c2.11,1.4,4.72,1.78,7.04,2.76c12.85,4.86,25.15,11.16,36.67,18.63
	c-13.68,5.04-26.39,12.72-36.98,22.75c-13.81-12.73-32.59-19.32-51.23-19.77c-23.52-0.54-46.73,8.44-64.93,23.13
	c-16.58,13.42-28.73,32.81-31.72,54.09c-1.47,8.84-0.79,17.86,0.74,26.63c-6.34-0.3-12.84-1.22-19.09,0.17
	c-2.18,0.34-5.08,2.34-3.83,4.81c1.2,3.14,4.61,0.68,6.89,0.61c7.4-0.1,14.51,2.52,21.86,3.08c13.65,1.27,26.9,5.59,39.02,11.92
	c8.67,4.57,15.22,11.96,22.55,18.26c8.11,7.58,17.58,15.14,20.41,26.41c0.15,2.44,4.65,2.23,4.68-0.11
	c0.29-3.87-1.97-7.41-3.24-10.96c20.39-3.03,39.15-13.34,54.34-27.02c1.95,2.14,4.93,3.42,6.39,5.92
	c-7.05,6.58-13.64,13.67-19.63,21.24c-5.66,7.07-8.52,15.78-12.06,24c-4.03,10.64-8.14,22.77-3.72,33.95
	c1.75,4.95,6.31,8.1,11.12,9.68c-2.15,1.03-4.36,1.96-6.69,2.46c-15.14,3.53-30.52,6.26-46.05,7.15
	c-7.34-0.08-14.64,1.32-21.97,0.61c-7.31-0.68-14.68-0.49-21.95-1.58c-33.95-4.12-67.13-16.98-93.7-38.74
	c-21.79-17.55-38.87-40.82-49.35-66.74c-1.18-2.93-1.54-6.1-1.69-9.22c2.87-25.47,14.6-49.22,30.12-69.34
	c13.6-17.64,30.12-32.87,47.91-46.19c2.76-1.48,0.55-6.15-2.42-4.57c-4.7,3.52-9.5,6.96-13.81,10.97
	c5.68-12.86,12.62-25.18,20.58-36.78c9.24-13.66,18.87-27.15,30.22-39.17C282.59,44.36,294.38,36.32,306.55,29.28z"/>
<path fill="#FFFFFF" d="M436.68,138.57c16.35-12.32,36.71-19.91,57.32-19.2c18.75,0.37,37.54,8.18,50.11,22.26
	c10.15,11.21,15.77,26.35,15.53,41.46c0.15,19.78-8.96,38.87-22.82,52.71c-1.78,1.56-3.32,3.72-5.61,4.47
	c-8.23-1.46-16.46-2.97-24.74-4.13c7.47-7.89,12.41-18.3,13.02-29.21c0.58-10.21-3.21-20.66-10.44-27.93
	c-8.49-8.77-20.98-12.92-33.03-12.49c-11.26,0.47-22.21,4.62-31.28,11.24c-2.51-11.78-7.62-23.18-15.82-32.1
	C430.93,142.73,433.97,140.78,436.68,138.57z"/>
<path fill="#FFFFFF" d="M335.2,135.17c17.2-7.46,36.95-9.79,55.12-4.61c15.51,4.2,29.65,13.94,38.29,27.59
	c8.97,14.03,11.57,31.72,7.79,47.86c-4.03,18.72-15.82,35.18-31.06,46.51c-13.06,9.68-28.5,16.34-44.67,18.36
	c-3.24-4-6.57-7.91-10.14-11.6c-1.35-0.88,0.73-1.65,1.35-1.79c11.81-4,22.55-11.77,29.2-22.42c5.94-9.39,8.58-21.07,6.21-32.01
	c-2.63-13.76-13.51-25.07-26.66-29.42c-25.1-8.36-55.06,5.99-64.92,30.39c-2.75,6.93-3.79,14.53-2.91,21.94
	c-2.8-0.3-5.58-0.67-8.33-1.19c-4.16-15.9-2.08-33.16,5.21-47.84C298.91,157.93,315.92,143.4,335.2,135.17z"/>
<path fill="#050505" d="M747.6,163.81c18.75-2.75,38.46,0.46,55.22,9.38c3.92,2.29,8.42,4.22,10.94,8.21
	c3.52,5.15,3.66,12.4,0.29,17.66c-3.01,5.09-9.15,7.98-14.99,7.38c-4.06-0.14-7.42-2.67-10.87-4.49
	c-10.13-5.61-21.74-9.52-33.45-8.23c-4.05,0.65-8.29,1.75-11.36,4.64c-5.59,4.66-5.49,14.47,0.12,19.06
	c5.07,3.88,11.34,5.62,17.34,7.52c15.88,4.57,32.86,7.81,46.31,18.03c9.12,6.68,14.5,17.78,14.64,29.02
	c0.92,12.66-2.28,26.1-11.11,35.56c-9.24,10.42-23.13,15.29-36.67,16.72c-20.47,1.9-41.53-2.79-59.23-13.26
	c-3.42-2.11-7-4.11-9.88-6.95c-6.08-6.01-5.99-16.99,0.28-22.84c5.41-5.44,14.75-6.01,20.83-1.35c10.16,7.57,22.19,13.2,34.99,13.9
	c7.33,0.43,15.37,0.31,21.64-4.03c5.93-3.83,7.3-12.81,3.23-18.43c-3.64-4.25-9.11-6.16-14.17-8.09
	c-14.04-4.77-28.91-7.13-42.34-13.62c-9.79-4.55-18.59-12.47-21.68-23.1c-3.64-12.45-3.08-26.52,3.02-38.13
	C717.87,174.57,732.58,166.19,747.6,163.81z"/>
<path fill="#050505" d="M857.88,170.91c4.11-6.34,12.82-9.2,19.87-6.44c5.48,1.87,9.75,6.81,10.84,12.49
	c0.85,4.31,0.48,8.72,0.55,13.08c0.04,14.41-0.09,28.83,0.07,43.25c19.62-19.74,39.17-39.55,58.81-59.26
	c3.66-3.59,7.08-7.84,12.12-9.52c6.54-2.61,14.84-0.55,18.9,5.36c2.22,2.91,2.73,6.6,3.17,10.13c-0.56,4.38-2.34,8.63-5.63,11.66
	c-14.68,14.18-29.63,28.1-44.4,42.2c14.31,18,28.4,36.17,42.63,54.23c2.58,3.45,5.56,6.63,7.67,10.4c3.12,5.98,2.56,13.96-1.95,19.1
	c-4.35,5.21-12.03,7.17-18.42,5.13c-5.75-1.76-9.02-7.14-12.46-11.64c-13.78-18.22-27.34-36.61-41.27-54.71
	c-6.22,6.35-13.29,11.96-19.16,18.59c-0.26,10.37,0.08,20.76-0.14,31.13c-0.16,4.45-1.63,8.98-4.84,12.17
	c-4.76,5.16-12.9,6.72-19.24,3.74c-6.27-2.62-10.14-9.31-10.16-15.98c-0.05-41.35,0.01-82.69-0.03-124.04
	C854.84,178.12,855.63,174.13,857.88,170.91z"/>
<path fill="#050505" d="M1442.05,162.93c19.62-2.41,40.35,1.72,56.58,13.31c3.97,2.94,8.23,5.69,11.49,9.45
	c2.73,3.31,0.07,8.71-3.99,9.11c-4.22,0.82-6.55-3.4-9.56-5.45c-16.67-14.63-40.73-20.15-62.07-14.07
	c-15.39,4.19-28.74,14.74-37.02,28.3c-10.46,16.91-13.2,37.99-9.06,57.29c3.86,17.95,14.66,34.63,30.42,44.32
	c16.98,10.73,39,12.15,57.67,5.16c9.7-3.72,18.23-10.01,25.62-17.25c1.26-1.34,3.04-2.23,4.95-1.96c4.05,0.15,6.66,5.68,3.89,8.77
	c-4.08,4.41-8.92,8.09-13.79,11.58c-15.53,11.11-35.32,15.32-54.15,13.26c-18.64-1.86-36.36-11.1-48.57-25.29
	c-25.34-29.07-26.51-75.73-3.48-106.49C1403.02,176.59,1421.82,165.35,1442.05,162.93z"/>
<path fill="#050505" d="M1015.9,163.77c5.37-1.09,11.31,0.34,15.31,4.19c3.19,2.86,5.45,6.55,7.85,10.05
	c8.83,12.96,17.67,25.91,26.49,38.87c2.91,3.84,5.17,8.36,8.4,11.84c11.62-15.9,22.59-32.58,33.98-48.77
	c3.6-4.94,6.52-10.76,11.91-14.04c5.63-3.52,13.27-3.26,18.73,0.47c5.68,4.05,8.01,11.96,5.97,18.54
	c-1.56,5.61-5.67,9.94-8.92,14.61c-14.86,20.53-30.09,40.81-44.74,61.48c-0.28,12.67-0.03,25.37-0.12,38.06
	c-0.07,5.41,0.7,11.32-2.42,16.11c-3.91,6.82-12.88,10.17-20.25,7.34c-6.92-2.17-11.67-9.3-11.43-16.47
	c0.02-13.68-0.02-27.35,0.03-41.02c-0.17-1.42,0.29-3.06-0.59-4.29c-16.49-22.74-32.98-45.49-49.48-68.23
	c-3.4-4.67-5.22-10.76-3.73-16.47C1004.42,169.91,1009.72,165.02,1015.9,163.77z"/>
<path fill="#050505" d="M1324.41,164.51c3.68-1.58,8.23,1.38,7.93,5.47c0.05,48.99,0.01,97.99,0.02,146.99
	c0.38,3.13-2.17,6.3-5.31,6.5c-3.49,0.4-6.58-3.02-6.27-6.44c-0.01-48.68,0.01-97.37-0.01-146.05
	C1320.52,168.33,1321.8,165.46,1324.41,164.51z"/>
<path fill="#050505" d="M1547.85,172.01c-0.07-2.74,0.55-5.96,3.25-7.31c3.73-2.01,8.74,1.06,8.45,5.31
	c0.1,32.72-0.11,65.44,0.1,98.16c32.8-34.02,65.21-68.42,97.9-102.54c4.13-4.5,12.05,1.72,8.92,6.79
	c-2.79,3.75-6.42,6.78-9.55,10.24c-16.86,17.39-34,34.5-50.65,52.09c21.19,25.86,41.92,52.12,62.92,78.15
	c2.75,2.71,2.32,8.06-1.31,9.8c-2.65,1.81-6.12,0.38-7.73-2.1c-20.73-25.85-41.35-51.79-62.11-77.63
	c-12.97,13.08-25.63,26.45-38.51,39.61c0.05,11.79,0.08,23.58-0.01,35.38c-0.05,3.97-5.02,7.07-8.48,4.81
	c-2.49-1.24-3.2-4.16-3.17-6.71C1547.85,268.04,1547.88,220.03,1547.85,172.01z"/>
<path fill="#050505" d="M1172.25,171.92c-0.43-3.34,2.24-6.85,5.74-6.69c12.68-0.09,25.36,0,38.05-0.03
	c10.64,0.07,21.48-0.58,31.89,2.14c9.92,2.31,19.44,7.04,26.51,14.47c14.14,15.14,15.41,39.93,4.74,57.32
	c-10.2,16.12-29.82,23.66-48.22,24.48c-15.71,0.33-31.43,0.05-47.14,0.15c-0.06,17.76,0.01,35.52-0.03,53.28
	c0.11,2.32-0.89,4.82-3.15,5.76c-3.83,2.35-8.98-1.44-8.38-5.75C1172.23,268.68,1172.26,220.3,1172.25,171.92z"/>
<path fill="#050505" d="M1705.79,170.96c-0.09-3.22,2.92-6.01,6.12-5.75c33.37,0,66.74-0.08,100.1,0.05
	c4.21-0.06,6.28,5.45,3.91,8.6c-1.3,1.94-3.8,2.23-5.91,2.29c-30.89,0.01-61.79-0.01-92.68,0.01c0.05,20.46-0.08,40.91,0.06,61.37
	c27.89-0.07,55.77-0.02,83.65-0.03c3.08-0.37,6.07,2.42,5.86,5.54c0.13,3.09-2.79,5.71-5.83,5.32c-27.91,0.01-55.82,0-83.73,0.01
	c0.02,21.04-0.06,42.08,0.03,63.12c30.2-0.06,60.4,0.01,90.6-0.03c2.07,0.03,4.19-0.14,6.28,0.21c3.38,1.05,4.75,5.49,2.81,8.37
	c-1.07,1.73-3.18,2.44-5.1,2.3c-33.34-0.01-66.67,0.02-100.01-0.02c-3.42,0.31-6.47-2.89-6.18-6.27
	C1705.78,267.69,1705.74,219.32,1705.79,170.96z"/>
<path fill="#050505" d="M1853.21,171.91c-0.44-3.38,2.25-6.87,5.79-6.69c19.67-0.06,39.35-0.01,59.03-0.02
	c11.15-0.07,22.48,2.03,32.41,7.24c12.61,6.29,21.93,19.29,22.6,33.52c1.16,10.79-1.35,22.22-8.28,30.76
	c-8.78,11.06-22.81,16.62-36.5,18.4c14.47,19.61,29.39,38.89,43.99,58.4c1.29,2.34,1.33,5.5,0.11,7.89
	c-1.62,1.61-4.05,2.64-6.28,1.8c-2.12-0.93-3.39-2.92-4.72-4.67c-15.21-20.43-30.73-40.64-45.82-61.15
	c-16.94-0.2-33.88-0.15-50.82-0.03c0.04,20.2,0.1,40.4-0.02,60.6c0.09,4.27-5.51,7.19-8.9,4.52c-2.33-1.23-2.71-4.06-2.61-6.41
	C1853.22,268.01,1853.19,219.96,1853.21,171.91z"/>
<path fill="#FFFFFF" d="M1183.8,176.16c15.74-0.01,31.47-0.03,47.2,0.02c11.33,0.27,23.21,3.14,31.99,10.67
	c12.07,10.18,14.56,28.68,8.39,42.73c-5.04,11.34-16.39,18.59-28.14,21.42c-8.23,2.22-16.82,1.85-25.26,1.88
	c-7.32-0.01-14.64-0.02-21.96,0.01c-4.08-0.02-8.15-0.02-12.22-0.03C1183.8,227.3,1183.79,201.73,1183.8,176.16z"/>
<path fill="#FFFFFF" d="M1864.76,176.15c17.76,0,35.52,0,53.28,0c9.29-0.14,18.79,1.44,27.08,5.83
	c7.99,4.16,14.19,11.81,15.97,20.72c1.54,8.58,0.8,17.93-3.89,25.46c-5.61,9.28-15.82,14.81-26.2,16.98
	c-8.53,2.05-17.34,1.43-26.02,1.52c-13.39,0.01-26.78-0.03-40.17,0.02C1864.69,223.17,1864.79,199.66,1864.76,176.15z"/>
<path fill="#FFFFFF" d="M462.12,183.14c4.68-1.63,10.41,0.15,13.15,4.33c2.51,4.06,1.73,9.74-1.57,13.15
	c-3.99,4.63-11.38,6.85-16.83,3.45c-3.29-1.7-5.09-5.47-5.08-9.08C452.22,189.33,456.71,184.56,462.12,183.14z"/>
<path fill="#FFFFFF" d="M336.56,189.85c5.82-1.26,12.73,2.78,13.16,9.01c0.99,9.55-10.85,16.94-19.18,12.68
	c-4.56-1.99-6.97-7.8-5.14-12.44C326.97,194.19,331.62,190.81,336.56,189.85z"/>
<path fill="#FFFFFF" d="M425.19,244.95c1.85-2.59,3.96-4.99,5.79-7.61c2.39,3.58,5.61,6.49,8.77,9.38
	c-1.99,1.27-3.85,2.76-5.87,3.98c-2.1,0.9-3.68-1.38-5.29-2.31C427.47,247.27,425.59,246.56,425.19,244.95z"/>
<path fill="#CECECE" d="M174.19,314.79c-11.16-23.15-17.31-49.37-13.88-75.07c0.15,3.12,0.51,6.29,1.69,9.22
	c10.48,25.92,27.56,49.19,49.35,66.74c26.57,21.76,59.75,34.62,93.7,38.74c7.27,1.09,14.64,0.9,21.95,1.58
	c7.33,0.71,14.63-0.69,21.97-0.61c15.53-0.89,30.91-3.62,46.05-7.15c2.33-0.5,4.54-1.43,6.69-2.46l0.24-0.11
	c12.82,3.08,26.02,3.27,39.09,4.38c16.03,0.84,32.15,0.49,48.05-1.81c-26.17,25.98-60.6,42.46-96.15,51.19
	c-26.32,6.31-53.64,9.03-80.64,6.59c-26.99-2.42-53.65-10.36-76.91-24.4C209.08,365.91,187.49,342.42,174.19,314.79z"/>
<path fill="#BB4140" d="M448.96,250.03c7.4-4.2,15.2-9.23,24.05-8.79c17.85,0.21,35.5,3.33,52.96,6.75
	c22.49,4.68,44.75,10.53,66.46,18.06c-2.99,6.69-8.3,11.91-13.93,16.42c-11.22,9.91-24.8,16.49-38.11,23.08
	c-22.07,10.63-45.86,17.1-69.78,22.04c-9.1,1.91-18.35,3.02-27.61,3.73c-7.67,0.25-15.34,0.1-23.01,0.1
	c-6.46-0.09-13.11,0.24-19.26-2.06c-0.62-7.13,0.37-14.28,2.59-21.07c3.16-9.57,6.64-19.23,12.56-27.48
	C424.43,268.23,435.8,257.65,448.96,250.03z"/>
<path fill="#050505" d="M462.25,248.31c2.46-1.47,6.2-0.69,7.46,2.02c1.54,2.25,0.61,5.32-1.3,7.02c-3.44,1.62-7.22,2.55-10.36,4.78
	c-3.11,2.01-4.43,5.69-7.03,8.19c-1.54,0.65-4.02-0.34-3.62-2.26C449.42,259.69,456.67,254.31,462.25,248.31z"/>
<path fill="#853227" d="M592.43,266.05c7.9,2.94,16.02,5.71,23.11,10.37c0.79,3.77-2.35,6.88-4.54,9.57
	c-10.64,11.08-23.68,19.54-37.08,26.9c-17.11,9.2-35.57,15.65-54.34,20.54c-11.92,3.18-23.98,5.96-36.2,7.7
	c-19,2.28-38.25,1.77-57.28,0.14c-4.5-0.36-8.57-2.49-12.91-3.55c-4.92-1.25-10.77-2.9-12.46-8.36c6.15,2.3,12.8,1.97,19.26,2.06
	c7.67,0,15.34,0.15,23.01-0.1c9.26-0.71,18.51-1.82,27.61-3.73c23.92-4.94,47.71-11.41,69.78-22.04
	c13.31-6.59,26.89-13.17,38.11-23.08C584.13,277.96,589.44,272.74,592.43,266.05z"/>
<path fill="#FFFFFF" d="M60.85,325.19c3.75-15.21,12.58-29.1,24.64-39.07c-3.98,8.79-4.66,18.57-5.29,28.06
	c-0.85,3.3-2.31,6.39-3.19,9.68c-2.68,8.63-2.19,17.93-0.33,26.67c2.79,9.68,8.38,18.37,14.89,25.97
	c5.15,4.42,11.51,7.16,17.35,10.56c0.02-2.17-2.02-3.21-3.39-4.51c-5.25-4.32-10.69-8.74-14.14-14.71
	c-3.56-6.19-6.12-12.95-7.72-19.9c-1.91-13.87,2.75-27.83,10.01-39.51c4.94-7.91,11.27-14.85,18-21.27
	c-2.86,15.09-3.94,31.04,0.65,45.92c2.03,7.91,5.64,15.36,10.57,21.87c5.59,7.38,11.14,14.91,18.2,20.98
	c3.62,3.03,7.16,6.15,10.67,9.3c4.57,4.09,10.87,5.03,16.14,7.87c1.69,0.83,2.51,2.72,4.14,3.62c-3.72-8.23-12.24-12.22-18.08-18.63
	c-8.82-9.2-17.51-18.8-23.55-30.11c11.3-6.08,23.91-9.7,36.75-10.11c9.68,14.64,20.76,28.49,34.16,39.93
	c8.52,7.42,17.73,14.05,27.52,19.72c-9.32,19.45-26.35,34.66-45.77,43.67c-15.92,7.6-33.48,11.58-51.08,12.32
	c-3.13-0.07-6.72,0.62-9.3-1.64c-3.39-4.81-9.23-0.64-13.72-0.41c-8.65-0.1-15.43-6.67-20.96-12.59
	c-4.5-10.95-5.91-23.26-3.63-34.91c7.26,1.64,14.86,2.18,22.04-0.16c0.46-0.14,1.38-0.4,1.84-0.54c-6.11-2.44-12.59-3.98-18.36-7.21
	c-6.72-3.7-13.52-7.57-18.91-13.12c-4.81-4.85-8.03-11.02-10.58-17.3c-0.89-2.02-0.9-4.25-0.76-6.41
	c4.62,9.31,12.97,16.22,22.16,20.76c1.95,1.12,4.26,0.66,6.39,0.61c-9.91-3.23-17.07-11.46-22.46-20.02
	C60.48,349.71,58.25,337.09,60.85,325.19z"/>
<path fill="#CECECE" d="M47.27,312.86c1.62,2.05,2.1,4.67,3.09,7.03c0.98,2.72,2.59,5.2,3.37,8c0.08,4.03-0.59,8.06-0.25,12.1
	c0.34,6.83,3.23,13.17,6.18,19.23c-0.14,2.16-0.13,4.39,0.76,6.41c2.55,6.28,5.77,12.45,10.58,17.3
	c5.39,5.55,12.19,9.42,18.91,13.12c5.77,3.23,12.25,4.77,18.36,7.21c-0.46,0.14-1.38,0.4-1.84,0.54c-6.26,0.27-12.25-1.92-18.3-3.21
	c-13.47-4.12-26.24-11.39-35.71-21.93c-8.43-11.25-10.95-25.83-10.19-39.6C42.59,330.12,44.92,321.43,47.27,312.86z"/>
<path fill="#CECECE" d="M228.85,397.52c11.42,6.6,23.52,12.03,36.08,16.08c1.54,0.5,3.07,1.08,4.53,1.79
	c-1.83,11.09-5.39,21.99-11.48,31.5c-11.84,19.16-31.59,32.46-52.87,39.08c-20.17,6.25-42.18,8.06-62.71,2.46
	c-12.83-3.66-25.17-10.05-34.58-19.62c5.08-0.64,10.87-1.52,14.28-5.76c2.24-3.34,1.24-7.52,0.6-11.18c2.58,2.26,6.17,1.57,9.3,1.64
	c17.6-0.74,35.16-4.72,51.08-12.32C202.5,432.18,219.53,416.97,228.85,397.52z"/>
<path fill="#BB4140" d="M66.37,418.06c0.82-2.56,3.41-3.81,5.16-5.65c-0.02,0.96-0.05,1.92-0.07,2.89c-1.96,1.11-3.97,2.23-5.5,3.92
	c-1.47,7.25-4.7,13.96-6.86,21.01c-1.08-0.78-2.17-1.56-3.25-2.33c-3.31,4.88-5.74,10.26-8.62,15.38c-2.62,4.74-8,6.68-12.85,8.28
	c-5.86,1.82-11.98,3.56-18.18,2.82c10.07-8.69,20.62-16.81,30.5-25.71C53.91,432.44,59.87,424.98,66.37,418.06z"/>
<path fill="#BB4140" d="M60.8,453.92c4.71-9.4,7.46-19.66,12.28-29c1.76,3.68,2.32,7.89,4.69,11.29
	c5.79,8.51,14.2,15.19,23.78,18.93c4.18,1.59,8.72,1.36,13.04,0.6c-4.71,7.15-14.17,6.9-21.75,6.57c-5.46-1.78-10.61-4.7-14.97-8.44
	c-0.95-1.98,0.53-4.3,0.69-6.36c-1.35-0.58-2.72-1.09-4.11-1.54c-0.74,2.49-1.44,4.99-2.03,7.53c-1.47-0.72-2.93-1.44-4.4-2.15
	c-1.57,6.08-1.93,12.37-3.08,18.53c-0.8,4.46-4.44,7.52-7.64,10.38c-4.96,4.1-10.36,7.94-16.57,9.88
	C47.16,477.93,54.78,466.36,60.8,453.92z"/>
<path fill="#853227" d="M47.23,453.28c2.88-5.12,5.31-10.5,8.62-15.38c1.08,0.77,2.17,1.55,3.25,2.33
	c-1.9,5.22-4.27,10.25-6.77,15.2c-1.75,3.66-5.62,5.46-9.21,6.85c-9.57,3.56-19.93,4.63-30.08,4.22c0.95-0.72,1.9-1.44,2.86-2.14
	l0.3,0.02c6.2,0.74,12.32-1,18.18-2.82C39.23,459.96,44.61,458.02,47.23,453.28z"/>
<path fill="#853227" d="M68.02,451.35c1.47,0.71,2.93,1.43,4.4,2.15c-0.28,4.56-1.76,8.94-2.1,13.49c-0.41,3.8-0.51,8.05-3.27,11.02
	c-7.8,8.72-18.66,13.99-29.57,17.71c0.86-1.83,1.77-3.63,2.73-5.4l0.52-0.18c6.21-1.94,11.61-5.78,16.57-9.88
	c3.2-2.86,6.84-5.92,7.64-10.38C66.09,463.72,66.45,457.43,68.02,451.35z"/>
<path fill="#853227" d="M114.59,455.74c0.81-0.8,2.18-0.48,3.21-0.77c0.67,2.24,1.46,5.45-1.38,6.53
	c-7.28,3.45-15.96,2.81-23.58,0.81C100.42,462.64,109.88,462.89,114.59,455.74z"/>
</svg>
