<?xml version="1.0" encoding="UTF-8" standalone="no"?>
<!-- Created with Inkscape (http://www.inkscape.org/) -->

<svg
   xmlns:dc="http://purl.org/dc/elements/1.1/"
   xmlns:cc="http://creativecommons.org/ns#"
   xmlns:rdf="http://www.w3.org/1999/02/22-rdf-syntax-ns#"
   xmlns:svg="http://www.w3.org/2000/svg"
   xmlns="http://www.w3.org/2000/svg"
   xmlns:sodipodi="http://sodipodi.sourceforge.net/DTD/sodipodi-0.dtd"
   xmlns:inkscape="http://www.inkscape.org/namespaces/inkscape"
   width="580"
   height="140"
   viewBox="0 0 580.00001 140"
   id="svg3904"
   version="1.1"
   inkscape:version="0.91 r13725"
   sodipodi:docname="logo_pycon_sk_full.svg">
  <defs
     id="defs3906" />
  <sodipodi:namedview
     id="base"
     pagecolor="#ffffff"
     bordercolor="#666666"
     borderopacity="1.0"
     inkscape:pageopacity="0.0"
     inkscape:pageshadow="2"
     inkscape:zoom="1.4"
     inkscape:cx="115.81236"
     inkscape:cy="237.23145"
     inkscape:document-units="px"
     inkscape:current-layer="layer1"
     showgrid="false"
     units="px"
     inkscape:window-width="1920"
     inkscape:window-height="1016"
     inkscape:window-x="0"
     inkscape:window-y="27"
     inkscape:window-maximized="1" />
  <metadata
     id="metadata3909">
    <rdf:RDF>
      <cc:Work
         rdf:about="">
        <dc:format>image/svg+xml</dc:format>
        <dc:type
           rdf:resource="http://purl.org/dc/dcmitype/StillImage" />
        <dc:title></dc:title>
      </cc:Work>
    </rdf:RDF>
  </metadata>
  <g
     inkscape:label="Layer 1"
     inkscape:groupmode="layer"
     id="layer1"
     transform="translate(0,-912.36218)">
    <g
       transform="translate(-31.491857,140.93363)"
       style="clip-rule:evenodd;fill-rule:evenodd;stroke-linecap:square;stroke-miterlimit:1.41420996"
       id="g3738">
      <g
         id="Layer41">
        <path
           inkscape:connector-curvature="0"
           d="m 100.387,808.47 c 33.926,0 61.47,19.654 61.47,33.53 0,13.038 -27.544,33.53 -61.47,33.53 -33.927,0 -61.471,-20.764 -61.471,-33.53 0,-12.113 27.544,-33.53 61.471,-33.53 z"
           style="fill:none;stroke:#3e7aab;stroke-width:2px"
           id="path3741" />
        <path
           inkscape:connector-curvature="0"
           d="m 91.709,809.613 c 32.77,-8.781 64.462,3.074 68.054,16.477 3.374,12.594 -17.928,39.516 -50.698,48.297 -32.771,8.781 -64.751,-4.146 -68.055,-16.477 -3.135,-11.7 17.928,-39.516 50.699,-48.297 z"
           style="fill:none;stroke:#3e7aab;stroke-width:2px"
           id="path3743" />
        <path
           inkscape:connector-curvature="0"
           d="m 83.622,812.963 c 29.381,-16.964 63.062,-13.716 70,-1.698 6.519,11.291 -7.089,42.809 -36.471,59.772 -29.381,16.964 -63.617,12.754 -70,1.698 -6.056,-10.489 7.09,-42.809 36.471,-59.772 z"
           style="fill:none;stroke:#3e7aab;stroke-width:2px"
           id="path3745" />
        <path
           inkscape:connector-curvature="0"
           d="m 76.678,818.291 c 23.989,-23.99 57.363,-29.569 67.175,-19.757 9.22,9.219 4.232,43.185 -19.757,67.175 -23.99,23.99 -58.149,28.784 -67.176,19.757 -8.565,-8.565 -4.232,-43.185 19.758,-67.175 z"
           style="fill:none;stroke:#3e7aab;stroke-width:2px"
           id="path3747" />
        <path
           inkscape:connector-curvature="0"
           d="m 71.349,825.235 c 16.964,-29.381 47.756,-43.408 59.773,-36.47 11.292,6.519 15.265,40.618 -1.698,70 -16.963,29.381 -48.717,42.853 -59.773,36.47 -10.49,-6.056 -15.265,-40.618 1.698,-70 z"
           style="fill:none;stroke:#3e7aab;stroke-width:2px"
           id="path3749" />
        <path
           inkscape:connector-curvature="0"
           d="m 68,833.322 c 8.78,-32.771 34.893,-54.29 48.296,-50.698 12.595,3.374 25.258,35.283 16.478,68.054 -8.781,32.771 -35.966,54.002 -48.297,50.698 C 72.777,898.241 59.219,866.093 68,833.322 Z"
           style="fill:none;stroke:#3e7aab;stroke-width:2px"
           id="path3751" />
        <path
           inkscape:connector-curvature="0"
           d="m 66.857,842 c 0,-33.927 19.653,-61.471 33.53,-61.471 13.038,0 33.529,27.544 33.529,61.471 0,33.927 -20.763,61.471 -33.529,61.471 -12.113,0 -33.53,-27.544 -33.53,-61.471 z"
           style="fill:none;stroke:#3e7aab;stroke-width:2px"
           id="path3753" />
        <path
           inkscape:connector-curvature="0"
           d="m 68,850.678 c -8.781,-32.771 3.073,-64.463 16.477,-68.054 12.594,-3.375 39.516,17.927 48.297,50.698 8.78,32.771 -4.147,64.75 -16.478,68.054 C 104.597,904.511 76.78,883.449 68,850.678 Z"
           style="fill:none;stroke:#3e7aab;stroke-width:2px"
           id="path3755" />
        <path
           inkscape:connector-curvature="0"
           d="m 71.349,858.765 c -16.963,-29.382 -13.715,-63.062 -1.698,-70 11.292,-6.519 42.81,7.089 59.773,36.47 16.963,29.382 12.754,63.617 1.698,70 -10.49,6.057 -42.809,-7.089 -59.773,-36.47 z"
           style="fill:none;stroke:#3e7aab;stroke-width:2px"
           id="path3757" />
        <path
           inkscape:connector-curvature="0"
           d="m 76.678,865.709 c -23.99,-23.99 -29.57,-57.363 -19.758,-67.175 9.22,-9.22 43.186,-4.233 67.176,19.757 23.989,23.99 28.784,58.148 19.757,67.175 -8.565,8.565 -43.186,4.233 -67.175,-19.757 z"
           style="fill:none;stroke:#3e7aab;stroke-width:2px"
           id="path3759" />
        <path
           inkscape:connector-curvature="0"
           d="M 83.622,871.037 C 54.241,854.074 40.213,823.282 47.151,811.265 c 6.52,-11.292 40.619,-15.266 70,1.698 29.382,16.963 42.854,48.717 36.471,59.772 -6.056,10.49 -40.619,15.266 -70,-1.698 z"
           style="fill:none;stroke:#3e7aab;stroke-width:2px"
           id="path3761" />
        <path
           inkscape:connector-curvature="0"
           d="M 91.709,874.387 C 58.938,865.606 37.419,839.494 41.01,826.09 c 3.375,-12.594 35.284,-25.258 68.055,-16.477 32.77,8.781 54.002,35.966 50.698,48.297 -3.135,11.7 -35.284,25.258 -68.054,16.477 z"
           style="fill:none;stroke:#3e7aab;stroke-width:2px"
           id="path3763" />
        <path
           inkscape:connector-curvature="0"
           d="m 100.387,875.53 c -33.927,0 -61.471,-19.654 -61.471,-33.53 0,-13.038 27.544,-33.53 61.471,-33.53 33.926,0 61.47,20.764 61.47,33.53 0,12.113 -27.544,33.53 -61.47,33.53 z"
           style="fill:none;stroke:#3e7aab;stroke-width:2px"
           id="path3765" />
      </g>
      <path
         inkscape:connector-curvature="0"
         d="m 108.334,901.181 c -2.806,1.832 -5.52,2.819 -7.947,2.819 -2.286,0 -4.901,-0.973 -7.641,-2.778 -3.185,1.042 -6.062,1.294 -8.406,0.665 -2.208,-0.591 -4.482,-2.208 -6.662,-4.661 -3.345,0.183 -6.189,-0.319 -8.291,-1.532 -1.98,-1.143 -3.758,-3.293 -5.228,-6.227 -3.28,-0.689 -5.897,-1.91 -7.613,-3.626 -1.617,-1.617 -2.778,-4.154 -3.438,-7.368 -2.989,-1.514 -5.201,-3.371 -6.415,-5.473 -1.143,-1.98 -1.608,-4.731 -1.414,-8.006 -2.496,-2.237 -4.152,-4.603 -4.78,-6.947 -0.574,-2.143 -0.343,-4.822 0.617,-7.825 -1.774,-2.832 -2.729,-5.627 -2.729,-8.222 0,-2.356 0.891,-4.952 2.551,-7.628 -0.92,-3.106 -1.094,-5.972 -0.439,-8.419 0.61,-2.275 2.143,-4.553 4.439,-6.708 -0.085,-3.238 0.489,-6.052 1.755,-8.245 1.178,-2.04 3.248,-3.843 6.024,-5.33 0.756,-3.151 2.038,-5.72 3.829,-7.511 1.666,-1.665 4.132,-2.871 7.198,-3.589 1.546,-2.848 3.449,-4.997 5.643,-6.264 2.04,-1.177 4.734,-1.704 7.882,-1.604 2.229,-2.35 4.624,-3.934 7.071,-4.589 2.275,-0.61 5.014,-0.421 8.028,0.49 2.762,-1.693 5.486,-2.603 8.019,-2.603 2.355,0 4.952,0.891 7.628,2.551 3.106,-0.92 5.972,-1.094 8.418,-0.438 2.276,0.609 4.553,2.142 6.708,4.438 3.239,-0.085 6.052,0.489 8.246,1.755 2.04,1.178 3.843,3.248 5.33,6.024 3.15,0.756 5.719,2.039 7.51,3.829 1.666,1.666 2.872,4.132 3.59,7.198 2.847,1.546 4.997,3.45 6.263,5.643 1.178,2.04 1.704,4.734 1.605,7.882 2.35,2.23 3.934,4.625 4.589,7.071 0.61,2.276 0.421,5.014 -0.49,8.029 1.693,2.762 2.603,5.485 2.603,8.018 0,2.427 -0.946,5.11 -2.705,7.871 0.981,3.093 1.205,5.888 0.592,8.176 -0.592,2.208 -2.208,4.482 -4.661,6.661 0.183,3.346 -0.319,6.19 -1.533,8.292 -1.143,1.98 -3.293,3.758 -6.226,5.228 -0.69,3.279 -1.91,5.896 -3.627,7.613 -1.616,1.616 -4.153,2.777 -7.367,3.438 -1.515,2.989 -3.371,5.201 -5.473,6.415 -1.98,1.143 -4.731,1.608 -8.007,1.414 -2.236,2.495 -4.602,4.151 -6.947,4.779 -2.208,0.592 -4.985,0.329 -8.099,-0.706 z"
         style="fill:none;stroke:#ffe467;stroke-width:2px"
         id="path3767" />
      <path
         inkscape:connector-curvature="0"
         d="m 108.59,903.09 c -2.896,1.891 -5.698,2.91 -8.203,2.91 -2.36,0 -5.059,-1.004 -7.888,-2.868 -3.287,1.076 -6.257,1.336 -8.677,0.687 -2.279,-0.611 -4.626,-2.279 -6.876,-4.812 -3.454,0.19 -6.39,-0.329 -8.559,-1.581 -2.044,-1.18 -3.879,-3.399 -5.397,-6.428 -3.385,-0.711 -6.087,-1.972 -7.858,-3.743 -1.669,-1.669 -2.867,-4.287 -3.549,-7.605 -3.086,-1.564 -5.369,-3.48 -6.622,-5.65 -1.18,-2.044 -1.66,-4.883 -1.46,-8.265 -2.576,-2.308 -4.285,-4.75 -4.934,-7.171 -0.592,-2.212 -0.354,-4.977 0.637,-8.077 -1.832,-2.923 -2.817,-5.808 -2.817,-8.487 0,-2.432 0.92,-5.112 2.633,-7.874 -0.95,-3.207 -1.129,-6.165 -0.453,-8.69 0.63,-2.349 2.212,-4.7 4.582,-6.925 -0.088,-3.343 0.505,-6.247 1.812,-8.511 1.216,-2.106 3.353,-3.967 6.218,-5.502 0.78,-3.252 2.104,-5.904 3.953,-7.753 1.719,-1.719 4.265,-2.964 7.43,-3.705 1.595,-2.94 3.561,-5.158 5.825,-6.466 2.105,-1.215 4.887,-1.759 8.136,-1.656 2.301,-2.426 4.774,-4.061 7.299,-4.737 2.349,-0.63 5.176,-0.435 8.288,0.506 2.851,-1.748 5.662,-2.687 8.277,-2.687 2.431,0 5.112,0.92 7.874,2.634 3.206,-0.95 6.165,-1.13 8.69,-0.453 2.349,0.629 4.7,2.212 6.924,4.582 3.343,-0.088 6.248,0.504 8.512,1.811 2.105,1.216 3.967,3.353 5.502,6.218 3.252,0.781 5.904,2.105 7.752,3.953 1.72,1.72 2.965,4.266 3.706,7.43 2.939,1.596 5.158,3.561 6.465,5.825 1.216,2.106 1.759,4.887 1.656,8.136 2.427,2.302 4.061,4.774 4.738,7.3 0.629,2.348 0.434,5.176 -0.506,8.287 1.748,2.851 2.687,5.663 2.687,8.277 0,2.505 -0.977,5.274 -2.792,8.125 1.012,3.193 1.244,6.078 0.611,8.439 -0.611,2.28 -2.279,4.627 -4.812,6.877 0.189,3.454 -0.329,6.389 -1.582,8.559 -1.18,2.044 -3.399,3.879 -6.427,5.397 -0.712,3.385 -1.972,6.086 -3.744,7.858 -1.668,1.668 -4.287,2.867 -7.605,3.549 -1.563,3.086 -3.48,5.369 -5.649,6.622 -2.044,1.18 -4.884,1.659 -8.265,1.459 -2.309,2.576 -4.751,4.286 -7.171,4.934 -2.279,0.611 -5.146,0.34 -8.361,-0.729 z"
         style="fill:none;stroke:#3e7aab;stroke-width:2px"
         id="path3769" />
      <path
         inkscape:connector-curvature="0"
         d="m 108.846,904.999 c -2.987,1.95 -5.876,3.001 -8.459,3.001 -2.434,0 -5.217,-1.036 -8.134,-2.958 -3.39,1.11 -6.453,1.378 -8.948,0.709 -2.351,-0.63 -4.772,-2.35 -7.092,-4.962 -3.561,0.195 -6.589,-0.339 -8.826,-1.631 -2.108,-1.217 -4.001,-3.506 -5.566,-6.629 -3.491,-0.733 -6.276,-2.033 -8.103,-3.86 -1.721,-1.721 -2.957,-4.421 -3.661,-7.843 -3.182,-1.612 -5.536,-3.588 -6.828,-5.826 -1.217,-2.108 -1.712,-5.036 -1.506,-8.523 -2.656,-2.381 -4.419,-4.899 -5.087,-7.395 -0.612,-2.281 -0.366,-5.133 0.656,-8.329 -1.889,-3.015 -2.905,-5.991 -2.905,-8.753 0,-2.508 0.948,-5.272 2.716,-8.12 -0.98,-3.307 -1.165,-6.358 -0.467,-8.962 0.648,-2.422 2.28,-4.847 4.725,-7.141 -0.091,-3.447 0.52,-6.442 1.868,-8.777 1.254,-2.172 3.458,-4.091 6.412,-5.674 0.805,-3.354 2.17,-6.089 4.077,-7.995 1.773,-1.773 4.398,-3.057 7.662,-3.821 1.645,-3.031 3.672,-5.32 6.007,-6.668 2.171,-1.253 5.04,-1.814 8.39,-1.708 2.374,-2.502 4.923,-4.187 7.528,-4.885 2.422,-0.649 5.337,-0.448 8.546,0.522 2.94,-1.803 5.84,-2.771 8.536,-2.771 2.507,0 5.271,0.949 8.12,2.716 3.306,-0.98 6.357,-1.165 8.962,-0.467 2.422,0.649 4.846,2.281 7.14,4.725 3.448,-0.091 6.443,0.52 8.778,1.868 2.171,1.254 4.091,3.458 5.674,6.413 3.353,0.804 6.088,2.17 7.995,4.076 1.773,1.773 3.056,4.399 3.821,7.662 3.031,1.646 5.319,3.672 6.667,6.007 1.254,2.172 1.814,5.04 1.708,8.39 2.502,2.374 4.188,4.924 4.886,7.528 0.649,2.422 0.448,5.338 -0.522,8.547 1.802,2.94 2.771,5.839 2.771,8.535 0,2.583 -1.007,5.439 -2.879,8.379 1.043,3.292 1.282,6.268 0.63,8.703 -0.63,2.351 -2.351,4.771 -4.962,7.091 0.195,3.562 -0.34,6.589 -1.632,8.827 -1.216,2.108 -3.505,4 -6.628,5.565 -0.734,3.491 -2.033,6.277 -3.86,8.104 -1.721,1.721 -4.421,2.957 -7.843,3.66 -1.612,3.182 -3.589,5.537 -5.826,6.829 -2.108,1.216 -5.036,1.711 -8.523,1.505 -2.381,2.657 -4.9,4.419 -7.395,5.088 -2.351,0.63 -5.307,0.35 -8.623,-0.752 z"
         style="fill:none;stroke:#ffffff;stroke-width:2px"
         id="path3771" />
      <circle
         cx="99.998001"
         cy="841.87201"
         r="45"
         style="fill:#ffffff"
         id="circle3773" />
      <path
         inkscape:connector-curvature="0"
         d="m 99.998,885.372 -0.281,-10e-4 -0.281,-0.002 -0.28,-0.005 -0.28,-0.006 -0.279,-0.008 -0.279,-0.01 -0.279,-0.011 -0.278,-0.013 -0.278,-0.015 -0.277,-0.017 -0.277,-0.019 -0.276,-0.02 -0.276,-0.022 -0.275,-0.023 -0.275,-0.026 -0.274,-0.027 -0.274,-0.028 -0.273,-0.031 -0.273,-0.032 -0.272,-0.034 -0.272,-0.035 -0.271,-0.037 -0.271,-0.039 -0.27,-0.04 -0.269,-0.043 -0.269,-0.043 -0.269,-0.046 -0.268,-0.047 -0.267,-0.048 -0.267,-0.051 -0.266,-0.052 -0.266,-0.053 -0.265,-0.055 -0.265,-0.057 -0.264,-0.059 -0.263,-0.06 -0.262,-0.061 -0.263,-0.063 -0.261,-0.065 -0.261,-0.066 -0.26,-0.068 -0.26,-0.07 -0.259,-0.071 -0.258,-0.072 -0.258,-0.074 -0.256,-0.076 -0.257,-0.077 -0.255,-0.079 -0.255,-0.08 -0.255,-0.082 -0.253,-0.083 -0.253,-0.085 -0.253,-0.086 -0.251,-0.088 -0.251,-0.089 -0.25,-0.091 -0.25,-0.092 -0.248,-0.094 -0.248,-0.095 -0.248,-0.097 -0.246,-0.098 -0.246,-0.1 -0.245,-0.101 -0.244,-0.103 -0.244,-0.104 -0.243,-0.105 -0.242,-0.107 -0.241,-0.108 -0.24,-0.11 -0.24,-0.111 -0.239,-0.112 -0.238,-0.114 -0.237,-0.115 -0.237,-0.117 -0.235,-0.118 -0.235,-0.12 -0.234,-0.121 -0.234,-0.122 -0.232,-0.123 -0.231,-0.125 -0.231,-0.127 -0.23,-0.127 -0.229,-0.129 -0.228,-0.131 -0.227,-0.131 -0.227,-0.133 -0.225,-0.135 -0.225,-0.135 -0.224,-0.137 -0.223,-0.138 -0.222,-0.14 -0.221,-0.141 -0.22,-0.142 -0.219,-0.143 -0.219,-0.145 -0.217,-0.146 -0.217,-0.147 -0.215,-0.149 -0.215,-0.15 -0.214,-0.151 -0.212,-0.152 -0.212,-0.154 -0.211,-0.154 -0.21,-0.156 -0.209,-0.158 -0.208,-0.158 -0.206,-0.16 -0.206,-0.161 -0.205,-0.162 -0.204,-0.163 -0.203,-0.165 -0.202,-0.165 -0.201,-0.167 -0.2,-0.168 -0.199,-0.169 -0.198,-0.171 -0.197,-0.171 -0.195,-0.173 -0.195,-0.174 -0.194,-0.175 -0.193,-0.176 -0.191,-0.177 -0.191,-0.179 -0.189,-0.179 -0.188,-0.181 -0.188,-0.182 -0.186,-0.183 -0.185,-0.184 -0.184,-0.185 -0.183,-0.186 -0.182,-0.187 -0.18,-0.189 -0.18,-0.189 -0.178,-0.191 -0.178,-0.191 -0.176,-0.193 -0.175,-0.193 -0.174,-0.195 -0.172,-0.196 -0.172,-0.197 -0.17,-0.198 -0.169,-0.199 -0.169,-0.2 -0.166,-0.2 -0.166,-0.202 -0.165,-0.203 -0.163,-0.204 -0.162,-0.205 -0.161,-0.206 -0.16,-0.207 -0.158,-0.208 -0.157,-0.209 -0.156,-0.21 -0.155,-0.211 -0.154,-0.211 -0.152,-0.213 -0.151,-0.214 -0.15,-0.215 -0.148,-0.215 -0.148,-0.217 -0.146,-0.217 -0.144,-0.218 -0.144,-0.22 -0.142,-0.22 -0.141,-0.221 -0.139,-0.222 -0.139,-0.223 -0.137,-0.224 -0.135,-0.224 -0.134,-0.226 -0.133,-0.226 -0.132,-0.228 -0.13,-0.228 -0.129,-0.229 -0.128,-0.23 -0.126,-0.23 -0.125,-0.232 -0.124,-0.232 -0.122,-0.233 -0.121,-0.234 -0.119,-0.235 -0.119,-0.236 -0.116,-0.237 -0.116,-0.237 -0.113,-0.238 -0.113,-0.239 -0.111,-0.239 -0.11,-0.241 -0.108,-0.241 -0.107,-0.242 -0.105,-0.243 -0.104,-0.243 -0.103,-0.245 -0.101,-0.245 -0.099,-0.246 -0.099,-0.246 -0.096,-0.247 -0.095,-0.248 -0.094,-0.249 -0.093,-0.25 -0.09,-0.25 -0.09,-0.251 -0.087,-0.251 -0.087,-0.252 -0.085,-0.253 -0.083,-0.254 -0.082,-0.254 -0.08,-0.255 -0.079,-0.256 -0.077,-0.256 -0.075,-0.257 -0.075,-0.258 -0.072,-0.258 -0.071,-0.259 -0.07,-0.26 -0.067,-0.26 -0.067,-0.261 -0.064,-0.261 -0.064,-0.262 -0.061,-0.263 -0.06,-0.263 -0.059,-0.264 -0.056,-0.265 -0.055,-0.265 -0.054,-0.265 -0.052,-0.267 -0.05,-0.266 -0.049,-0.268 -0.047,-0.268 -0.045,-0.268 -0.044,-0.269 -0.042,-0.27 -0.041,-0.27 -0.039,-0.271 -0.037,-0.271 -0.035,-0.272 -0.034,-0.272 -0.032,-0.273 -0.03,-0.273 -0.029,-0.274 -0.027,-0.274 -0.025,-0.275 -0.024,-0.275 -0.022,-0.276 -0.02,-0.276 -0.019,-0.277 -0.016,-0.277 -0.015,-0.278 -0.013,-0.278 -0.012,-0.278 -0.01,-0.279 -0.008,-0.28 -0.006,-0.28 -0.004,-0.28 -0.003,-0.281 -0.001,-0.281 0.001,-0.281 0.003,-0.281 0.004,-0.28 0.006,-0.28 0.008,-0.279 0.01,-0.279 0.012,-0.279 0.013,-0.278 0.015,-0.278 0.016,-0.277 0.019,-0.276 0.02,-0.277 0.022,-0.275 0.024,-0.276 0.025,-0.275 0.027,-0.274 0.029,-0.274 0.03,-0.273 0.032,-0.273 0.034,-0.272 0.035,-0.272 0.037,-0.271 0.039,-0.271 0.041,-0.27 0.042,-0.269 0.044,-0.269 0.045,-0.269 0.047,-0.268 0.049,-0.267 0.05,-0.267 0.052,-0.266 0.054,-0.266 0.055,-0.265 0.056,-0.265 0.059,-0.263 0.06,-0.264 0.061,-0.262 0.064,-0.263 0.064,-0.261 0.067,-0.261 0.067,-0.26 0.07,-0.26 0.071,-0.259 0.072,-0.258 0.075,-0.257 0.075,-0.257 0.077,-0.257 0.079,-0.255 0.08,-0.255 0.082,-0.255 0.083,-0.253 0.085,-0.253 0.087,-0.253 0.087,-0.251 0.09,-0.251 0.09,-0.25 0.093,-0.25 0.094,-0.248 0.095,-0.248 0.096,-0.248 0.099,-0.246 0.099,-0.246 0.101,-0.245 0.103,-0.244 0.104,-0.244 0.105,-0.243 0.107,-0.242 0.108,-0.241 0.11,-0.24 0.111,-0.24 0.113,-0.239 0.113,-0.238 0.116,-0.237 0.116,-0.237 0.119,-0.235 0.119,-0.235 0.121,-0.234 0.122,-0.233 0.124,-0.233 0.125,-0.231 0.126,-0.231 0.128,-0.23 0.129,-0.229 0.13,-0.228 0.132,-0.227 0.133,-0.227 0.134,-0.225 0.135,-0.225 0.137,-0.224 0.139,-0.223 0.139,-0.222 0.141,-0.221 0.142,-0.22 0.144,-0.219 0.144,-0.219 0.146,-0.217 0.148,-0.217 0.148,-0.215 0.15,-0.215 0.151,-0.213 0.152,-0.213 0.154,-0.212 0.155,-0.211 0.156,-0.21 0.157,-0.209 0.158,-0.207 0.16,-0.207 0.161,-0.206 0.162,-0.205 0.163,-0.204 0.165,-0.203 0.166,-0.202 0.166,-0.201 0.169,-0.2 0.169,-0.199 0.17,-0.198 0.172,-0.197 0.172,-0.195 0.174,-0.195 0.175,-0.194 0.176,-0.193 0.178,-0.191 0.178,-0.191 0.18,-0.189 0.18,-0.188 0.182,-0.188 0.183,-0.186 0.184,-0.185 0.185,-0.184 0.186,-0.183 0.188,-0.182 0.188,-0.18 0.189,-0.18 0.191,-0.178 0.191,-0.178 0.193,-0.176 0.194,-0.175 0.195,-0.174 0.195,-0.172 0.197,-0.172 0.198,-0.17 0.199,-0.169 0.2,-0.168 0.201,-0.167 0.202,-0.166 0.203,-0.165 0.204,-0.163 0.205,-0.162 0.206,-0.161 0.206,-0.159 0.208,-0.159 0.209,-0.157 0.21,-0.156 0.211,-0.155 0.212,-0.154 0.212,-0.152 0.214,-0.151 0.215,-0.15 0.215,-0.148 0.217,-0.147 0.217,-0.146 0.219,-0.145 0.219,-0.144 0.22,-0.142 0.221,-0.141 0.222,-0.139 0.223,-0.138 0.224,-0.137 0.225,-0.136 0.225,-0.134 0.227,-0.133 0.227,-0.132 0.228,-0.13 0.229,-0.129 0.23,-0.128 0.231,-0.126 0.231,-0.125 0.232,-0.124 0.234,-0.122 0.234,-0.121 0.235,-0.119 0.235,-0.119 0.237,-0.116 0.237,-0.116 0.238,-0.113 0.239,-0.113 0.24,-0.111 0.24,-0.11 0.241,-0.108 0.242,-0.107 0.243,-0.105 0.244,-0.104 0.244,-0.103 0.245,-0.101 0.246,-0.099 0.246,-0.098 0.248,-0.097 0.248,-0.095 0.248,-0.094 0.25,-0.092 0.25,-0.091 0.251,-0.09 0.251,-0.087 0.253,-0.087 0.253,-0.084 0.253,-0.084 0.255,-0.082 0.255,-0.08 0.255,-0.079 0.257,-0.077 0.256,-0.075 0.258,-0.074 0.258,-0.073 0.259,-0.071 0.26,-0.069 0.26,-0.068 0.261,-0.067 0.261,-0.064 0.263,-0.064 0.262,-0.061 0.263,-0.06 0.264,-0.058 0.265,-0.057 0.265,-0.055 0.266,-0.054 0.266,-0.052 0.267,-0.05 0.267,-0.049 0.268,-0.047 0.269,-0.045 0.269,-0.044 0.269,-0.042 0.27,-0.041 0.271,-0.038 0.271,-0.038 0.272,-0.035 0.272,-0.034 0.273,-0.032 0.273,-0.03 0.274,-0.029 0.274,-0.027 0.275,-0.025 0.275,-0.024 0.276,-0.022 0.276,-0.02 0.277,-0.019 0.277,-0.016 0.278,-0.015 0.278,-0.013 0.279,-0.012 0.279,-0.01 0.279,-0.008 0.28,-0.006 0.28,-0.004 0.281,-0.003 0.281,-0.001 0.281,0.001 0.281,0.003 0.28,0.004 0.28,0.006 0.28,0.008 0.279,0.01 0.278,0.012 0.278,0.013 0.278,0.015 0.277,0.016 0.277,0.019 0.276,0.02 0.276,0.022 0.275,0.024 0.275,0.025 0.274,0.027 0.274,0.029 0.273,0.03 0.273,0.032 0.272,0.034 0.272,0.035 0.271,0.038 0.271,0.038 0.27,0.041 0.27,0.042 0.269,0.044 0.268,0.045 0.268,0.047 0.268,0.049 0.266,0.05 0.267,0.052 0.265,0.054 0.265,0.055 0.265,0.057 0.264,0.058 0.263,0.06 0.263,0.061 0.262,0.064 0.261,0.064 0.261,0.067 0.26,0.068 0.26,0.069 0.259,0.071 0.258,0.073 0.258,0.074 0.257,0.075 0.256,0.077 0.256,0.079 0.255,0.08 0.254,0.082 0.254,0.084 0.253,0.084 0.252,0.087 0.251,0.087 0.251,0.09 0.25,0.091 0.25,0.092 0.249,0.094 0.248,0.095 0.247,0.097 0.246,0.098 0.246,0.099 0.245,0.101 0.244,0.103 0.244,0.104 0.243,0.105 0.242,0.107 0.241,0.108 0.24,0.11 0.24,0.111 0.239,0.113 0.238,0.113 0.237,0.116 0.237,0.116 0.236,0.119 0.234,0.119 0.235,0.121 0.233,0.122 0.232,0.124 0.232,0.125 0.23,0.126 0.23,0.128 0.229,0.129 0.228,0.13 0.228,0.132 0.226,0.133 0.226,0.134 0.224,0.136 0.224,0.137 0.223,0.138 0.222,0.139 0.221,0.141 0.22,0.142 0.22,0.144 0.218,0.145 0.217,0.146 0.217,0.147 0.215,0.148 0.215,0.15 0.214,0.151 0.212,0.152 0.212,0.154 0.211,0.155 0.21,0.156 0.209,0.157 0.208,0.159 0.207,0.159 0.206,0.161 0.205,0.162 0.204,0.163 0.203,0.165 0.201,0.166 0.201,0.167 0.2,0.168 0.199,0.169 0.198,0.17 0.197,0.172 0.196,0.172 0.194,0.174 0.194,0.175 0.193,0.176 0.191,0.178 0.191,0.178 0.189,0.18 0.189,0.18 0.187,0.182 0.186,0.183 0.185,0.184 0.184,0.185 0.183,0.186 0.182,0.188 0.181,0.188 0.179,0.189 0.179,0.191 0.177,0.191 0.176,0.193 0.175,0.194 0.174,0.195 0.173,0.195 0.171,0.197 0.17,0.198 0.17,0.199 0.168,0.2 0.167,0.201 0.165,0.202 0.165,0.203 0.163,0.204 0.162,0.205 0.161,0.206 0.16,0.207 0.158,0.207 0.157,0.209 0.156,0.21 0.155,0.211 0.154,0.212 0.152,0.213 0.151,0.213 0.15,0.215 0.148,0.215 0.148,0.217 0.146,0.217 0.144,0.219 0.144,0.219 0.142,0.22 0.141,0.221 0.14,0.222 0.138,0.223 0.137,0.224 0.135,0.225 0.135,0.225 0.133,0.227 0.131,0.227 0.131,0.228 0.129,0.229 0.127,0.23 0.127,0.231 0.125,0.231 0.123,0.233 0.122,0.233 0.121,0.234 0.12,0.235 0.118,0.235 0.116,0.237 0.116,0.237 0.114,0.238 0.112,0.239 0.111,0.24 0.11,0.24 0.108,0.241 0.107,0.242 0.105,0.243 0.104,0.244 0.103,0.244 0.101,0.245 0.1,0.246 0.098,0.246 0.096,0.248 0.096,0.248 0.093,0.248 0.093,0.25 0.091,0.25 0.089,0.251 0.088,0.251 0.086,0.253 0.085,0.253 0.083,0.253 0.082,0.255 0.08,0.255 0.079,0.255 0.077,0.257 0.076,0.257 0.074,0.257 0.072,0.258 0.071,0.259 0.07,0.26 0.068,0.26 0.066,0.261 0.065,0.261 0.063,0.263 0.061,0.262 0.06,0.264 0.059,0.263 0.057,0.265 0.055,0.265 0.053,0.266 0.052,0.266 0.05,0.267 0.049,0.267 0.047,0.268 0.046,0.269 0.043,0.269 0.043,0.269 0.04,0.27 0.039,0.271 0.037,0.271 0.035,0.272 0.034,0.272 0.032,0.273 0.031,0.273 0.028,0.274 0.027,0.274 0.026,0.275 0.023,0.276 0.022,0.275 0.02,0.277 0.019,0.276 0.016,0.277 0.015,0.278 0.014,0.278 0.011,0.279 0.01,0.279 0.008,0.279 0.006,0.28 0.005,0.28 0.002,0.281 10e-4,0.281 -10e-4,0.281 -0.002,0.281 -0.005,0.28 -0.006,0.28 -0.008,0.28 -0.01,0.279 -0.011,0.278 -0.014,0.278 -0.015,0.278 -0.016,0.277 -0.019,0.277 -0.02,0.276 -0.022,0.276 -0.023,0.275 -0.026,0.275 -0.027,0.274 -0.028,0.274 -0.031,0.273 -0.032,0.273 -0.034,0.272 -0.035,0.272 -0.037,0.271 -0.039,0.271 -0.04,0.27 -0.043,0.27 -0.043,0.269 -0.046,0.268 -0.047,0.268 -0.049,0.268 -0.05,0.266 -0.052,0.267 -0.053,0.265 -0.055,0.265 -0.057,0.265 -0.059,0.264 -0.06,0.263 -0.061,0.263 -0.063,0.262 -0.065,0.261 -0.066,0.261 -0.068,0.26 -0.07,0.26 -0.071,0.259 -0.072,0.258 -0.074,0.258 -0.076,0.257 -0.077,0.256 -0.079,0.256 -0.08,0.255 -0.082,0.254 -0.083,0.254 -0.085,0.253 -0.086,0.252 -0.088,0.251 -0.089,0.251 -0.091,0.25 -0.093,0.25 -0.093,0.249 -0.096,0.248 -0.096,0.247 -0.098,0.246 -0.1,0.246 -0.101,0.245 -0.103,0.245 -0.104,0.243 -0.105,0.243 -0.107,0.242 -0.108,0.241 -0.11,0.241 -0.111,0.239 -0.112,0.239 -0.114,0.238 -0.116,0.237 -0.116,0.237 -0.118,0.236 -0.12,0.235 -0.121,0.234 -0.122,0.233 -0.123,0.232 -0.125,0.232 -0.127,0.23 -0.127,0.23 -0.129,0.229 -0.131,0.228 -0.131,0.228 -0.133,0.226 -0.135,0.226 -0.135,0.224 -0.137,0.224 -0.138,0.223 -0.14,0.222 -0.141,0.221 -0.142,0.22 -0.144,0.22 -0.144,0.218 -0.146,0.217 -0.148,0.217 -0.148,0.215 -0.15,0.215 -0.151,0.214 -0.152,0.213 -0.154,0.211 -0.155,0.211 -0.156,0.21 -0.157,0.209 -0.158,0.208 -0.16,0.207 -0.161,0.206 -0.162,0.205 -0.163,0.204 -0.165,0.203 -0.165,0.202 -0.167,0.2 -0.168,0.2 -0.17,0.199 -0.17,0.198 -0.171,0.197 -0.173,0.196 -0.174,0.195 -0.175,0.193 -0.176,0.193 -0.177,0.191 -0.179,0.191 -0.179,0.189 -0.181,0.189 -0.182,0.187 -0.183,0.186 -0.184,0.185 -0.185,0.184 -0.186,0.183 -0.187,0.182 -0.189,0.181 -0.189,0.179 -0.191,0.179 -0.191,0.177 -0.193,0.176 -0.194,0.175 -0.194,0.174 -0.196,0.173 -0.197,0.171 -0.198,0.171 -0.199,0.169 -0.2,0.168 -0.201,0.167 -0.201,0.165 -0.203,0.165 -0.204,0.163 -0.205,0.162 -0.206,0.161 -0.207,0.16 -0.208,0.158 -0.209,0.158 -0.21,0.156 -0.211,0.154 -0.212,0.154 -0.212,0.152 -0.214,0.151 -0.215,0.15 -0.215,0.149 -0.217,0.147 -0.217,0.146 -0.218,0.145 -0.22,0.143 -0.22,0.142 -0.221,0.141 -0.222,0.14 -0.223,0.138 -0.224,0.137 -0.224,0.135 -0.226,0.135 -0.226,0.133 -0.228,0.131 -0.228,0.131 -0.229,0.129 -0.23,0.127 -0.23,0.127 -0.232,0.125 -0.232,0.123 -0.233,0.122 -0.235,0.121 -0.234,0.12 -0.236,0.118 -0.237,0.117 -0.237,0.115 -0.238,0.114 -0.239,0.112 -0.24,0.111 -0.24,0.11 -0.241,0.108 -0.242,0.107 -0.243,0.105 -0.244,0.104 -0.244,0.103 -0.245,0.101 -0.246,0.1 -0.246,0.098 -0.247,0.097 -0.248,0.095 -0.249,0.094 -0.25,0.092 -0.25,0.091 -0.251,0.089 -0.251,0.088 -0.252,0.086 -0.253,0.085 -0.254,0.083 -0.254,0.082 -0.255,0.08 -0.256,0.079 -0.256,0.077 -0.257,0.076 -0.258,0.074 -0.258,0.072 -0.259,0.071 -0.26,0.07 -0.26,0.068 -0.261,0.066 -0.261,0.065 -0.262,0.063 -0.263,0.061 -0.263,0.06 -0.264,0.059 -0.265,0.057 -0.265,0.055 -0.265,0.053 -0.267,0.052 -0.266,0.051 -0.268,0.048 -0.268,0.047 -0.268,0.046 -0.269,0.043 -0.27,0.043 -0.27,0.04 -0.271,0.039 -0.271,0.037 -0.272,0.035 -0.272,0.034 -0.273,0.032 -0.273,0.031 -0.274,0.028 -0.274,0.027 -0.275,0.026 -0.275,0.023 -0.276,0.022 -0.276,0.02 -0.277,0.019 -0.277,0.017 -0.278,0.015 -0.278,0.013 -0.278,0.011 -0.279,0.01 -0.28,0.008 -0.28,0.006 -0.28,0.005 -0.281,0.002 -0.281,10e-4 z m 0,-1.8 0.27,-10e-4 0.269,-0.002 0.269,-0.005 0.269,-0.005 0.267,-0.008 0.268,-0.009 0.267,-0.012 0.267,-0.012 0.266,-0.015 0.266,-0.016 0.265,-0.017 0.265,-0.02 0.264,-0.021 0.264,-0.022 0.264,-0.024 0.263,-0.026 0.262,-0.028 0.262,-0.029 0.262,-0.031 0.261,-0.032 0.26,-0.034 0.26,-0.036 0.26,-0.037 0.259,-0.039 0.258,-0.04 0.258,-0.042 0.258,-0.044 0.256,-0.045 0.256,-0.046 0.256,-0.049 0.255,-0.049 0.255,-0.052 0.254,-0.053 0.254,-0.054 0.252,-0.056 0.253,-0.057 0.251,-0.059 0.252,-0.061 0.25,-0.062 0.25,-0.063 0.249,-0.065 0.249,-0.067 0.248,-0.068 0.248,-0.07 0.247,-0.071 0.246,-0.072 0.246,-0.074 0.245,-0.076 0.244,-0.076 0.244,-0.079 0.243,-0.08 0.242,-0.081 0.242,-0.083 0.241,-0.084 0.241,-0.085 0.239,-0.087 0.239,-0.089 0.239,-0.09 0.237,-0.091 0.237,-0.093 0.236,-0.094 0.236,-0.095 0.235,-0.097 0.234,-0.098 0.233,-0.1 0.233,-0.101 0.232,-0.102 0.231,-0.104 0.231,-0.105 0.229,-0.107 0.229,-0.107 0.228,-0.109 0.228,-0.111 0.227,-0.112 0.225,-0.113 0.226,-0.115 0.224,-0.115 0.223,-0.117 0.223,-0.119 0.222,-0.12 0.221,-0.121 0.221,-0.122 0.219,-0.124 0.219,-0.125 0.218,-0.126 0.217,-0.128 0.216,-0.128 0.215,-0.13 0.215,-0.132 0.214,-0.132 0.212,-0.134 0.212,-0.135 0.211,-0.136 0.211,-0.138 0.209,-0.139 0.208,-0.14 0.208,-0.141 0.207,-0.142 0.205,-0.144 0.205,-0.145 0.204,-0.146 0.203,-0.147 0.202,-0.148 0.202,-0.15 0.2,-0.151 0.199,-0.152 0.199,-0.153 0.197,-0.154 0.197,-0.155 0.195,-0.157 0.195,-0.158 0.194,-0.158 0.192,-0.16 0.192,-0.162 0.191,-0.162 0.189,-0.163 0.189,-0.165 0.188,-0.165 0.187,-0.167 0.185,-0.168 0.185,-0.169 0.184,-0.17 0.182,-0.171 0.182,-0.172 0.181,-0.173 0.179,-0.175 0.179,-0.175 0.177,-0.177 0.177,-0.177 0.175,-0.179 0.175,-0.179 0.173,-0.181 0.172,-0.181 0.171,-0.183 0.17,-0.184 0.169,-0.185 0.168,-0.185 0.167,-0.187 0.165,-0.188 0.165,-0.189 0.163,-0.189 0.162,-0.191 0.161,-0.192 0.16,-0.192 0.159,-0.194 0.158,-0.195 0.157,-0.195 0.155,-0.197 0.154,-0.197 0.153,-0.199 0.152,-0.199 0.151,-0.2 0.15,-0.201 0.148,-0.203 0.147,-0.203 0.146,-0.204 0.145,-0.205 0.144,-0.205 0.142,-0.207 0.141,-0.208 0.14,-0.208 0.139,-0.209 0.138,-0.21 0.136,-0.212 0.135,-0.212 0.134,-0.212 0.132,-0.214 0.132,-0.215 0.13,-0.215 0.128,-0.216 0.128,-0.217 0.126,-0.218 0.125,-0.219 0.124,-0.219 0.122,-0.221 0.121,-0.221 0.12,-0.222 0.118,-0.222 0.118,-0.224 0.115,-0.225 0.115,-0.225 0.113,-0.225 0.112,-0.227 0.11,-0.228 0.11,-0.228 0.107,-0.229 0.107,-0.229 0.105,-0.231 0.104,-0.231 0.102,-0.232 0.101,-0.233 0.1,-0.233 0.098,-0.234 0.097,-0.235 0.095,-0.236 0.094,-0.236 0.093,-0.237 0.091,-0.237 0.09,-0.239 0.089,-0.239 0.087,-0.24 0.085,-0.24 0.084,-0.241 0.083,-0.242 0.081,-0.242 0.08,-0.243 0.079,-0.244 0.076,-0.244 0.076,-0.245 0.074,-0.246 0.072,-0.246 0.071,-0.247 0.07,-0.248 0.068,-0.248 0.066,-0.248 0.065,-0.25 0.064,-0.25 0.062,-0.25 0.061,-0.251 0.059,-0.252 0.057,-0.252 0.056,-0.253 0.054,-0.254 0.053,-0.254 0.052,-0.254 0.049,-0.256 0.049,-0.255 0.046,-0.257 0.045,-0.256 0.044,-0.258 0.042,-0.258 0.04,-0.258 0.039,-0.259 0.037,-0.26 0.036,-0.26 0.034,-0.26 0.032,-0.261 0.031,-0.261 0.029,-0.262 0.028,-0.263 0.025,-0.263 0.025,-0.263 0.022,-0.264 0.021,-0.265 0.02,-0.265 0.017,-0.265 0.016,-0.266 0.015,-0.266 0.012,-0.267 0.011,-0.267 0.01,-0.267 0.007,-0.268 0.006,-0.269 0.005,-0.269 0.002,-0.269 0.001,-0.27 -0.001,-0.27 -0.002,-0.269 -0.005,-0.269 -0.006,-0.268 -0.007,-0.268 -0.01,-0.268 -0.011,-0.267 -0.012,-0.267 -0.015,-0.266 -0.016,-0.266 -0.017,-0.265 -0.02,-0.265 -0.021,-0.264 -0.022,-0.264 -0.025,-0.264 -0.025,-0.263 -0.028,-0.262 -0.029,-0.262 -0.031,-0.262 -0.032,-0.261 -0.034,-0.26 -0.036,-0.26 -0.037,-0.26 -0.039,-0.259 -0.04,-0.258 -0.042,-0.258 -0.044,-0.257 -0.045,-0.257 -0.046,-0.256 -0.049,-0.256 -0.049,-0.255 -0.052,-0.255 -0.053,-0.254 -0.054,-0.253 -0.056,-0.253 -0.057,-0.252 -0.059,-0.252 -0.061,-0.251 -0.062,-0.251 -0.064,-0.25 -0.065,-0.249 -0.066,-0.249 -0.068,-0.248 -0.07,-0.248 -0.071,-0.247 -0.072,-0.246 -0.074,-0.245 -0.076,-0.245 -0.077,-0.245 -0.078,-0.243 -0.08,-0.243 -0.081,-0.243 -0.083,-0.242 -0.084,-0.241 -0.085,-0.24 -0.087,-0.24 -0.089,-0.239 -0.09,-0.238 -0.091,-0.238 -0.093,-0.237 -0.094,-0.236 -0.095,-0.236 -0.097,-0.235 -0.098,-0.234 -0.1,-0.233 -0.101,-0.233 -0.102,-0.232 -0.104,-0.231 -0.105,-0.23 -0.107,-0.23 -0.107,-0.229 -0.11,-0.228 -0.11,-0.228 -0.112,-0.226 -0.113,-0.226 -0.115,-0.225 -0.115,-0.224 -0.118,-0.224 -0.118,-0.223 -0.12,-0.222 -0.121,-0.221 -0.122,-0.22 -0.124,-0.22 -0.125,-0.219 -0.126,-0.217 -0.128,-0.217 -0.128,-0.217 -0.13,-0.215 -0.132,-0.215 -0.132,-0.213 -0.134,-0.213 -0.135,-0.212 -0.136,-0.211 -0.138,-0.21 -0.139,-0.21 -0.14,-0.208 -0.141,-0.208 -0.142,-0.206 -0.144,-0.206 -0.145,-0.205 -0.146,-0.204 -0.147,-0.203 -0.148,-0.202 -0.15,-0.201 -0.151,-0.201 -0.152,-0.199 -0.153,-0.198 -0.154,-0.198 -0.155,-0.197 -0.157,-0.195 -0.158,-0.195 -0.159,-0.193 -0.16,-0.193 -0.161,-0.192 -0.162,-0.19 -0.163,-0.19 -0.165,-0.189 -0.165,-0.188 -0.167,-0.186 -0.168,-0.186 -0.169,-0.185 -0.17,-0.184 -0.171,-0.182 -0.172,-0.182 -0.173,-0.181 -0.175,-0.179 -0.175,-0.179 -0.177,-0.177 -0.177,-0.177 -0.179,-0.175 -0.179,-0.174 -0.181,-0.173 -0.181,-0.173 -0.183,-0.171 -0.184,-0.17 -0.185,-0.169 -0.185,-0.167 -0.187,-0.167 -0.188,-0.166 -0.189,-0.164 -0.189,-0.164 -0.191,-0.162 -0.192,-0.161 -0.192,-0.16 -0.194,-0.159 -0.195,-0.158 -0.195,-0.156 -0.197,-0.156 -0.197,-0.154 -0.199,-0.153 -0.199,-0.152 -0.2,-0.151 -0.201,-0.149 -0.203,-0.149 -0.203,-0.147 -0.204,-0.146 -0.205,-0.145 -0.205,-0.143 -0.207,-0.143 -0.207,-0.141 -0.209,-0.14 -0.209,-0.139 -0.211,-0.137 -0.211,-0.137 -0.212,-0.135 -0.213,-0.134 -0.213,-0.132 -0.215,-0.131 -0.215,-0.13 -0.216,-0.129 -0.217,-0.128 -0.218,-0.126 -0.219,-0.125 -0.219,-0.123 -0.221,-0.123 -0.221,-0.121 -0.222,-0.12 -0.223,-0.118 -0.223,-0.117 -0.225,-0.116 -0.225,-0.115 -0.225,-0.113 -0.227,-0.112 -0.228,-0.11 -0.228,-0.109 -0.229,-0.108 -0.229,-0.107 -0.231,-0.105 -0.231,-0.103 -0.232,-0.103 -0.233,-0.101 -0.233,-0.099 -0.234,-0.099 -0.235,-0.097 -0.235,-0.095 -0.237,-0.094 -0.237,-0.093 -0.238,-0.091 -0.238,-0.09 -0.239,-0.088 -0.24,-0.087 -0.24,-0.086 -0.241,-0.084 -0.242,-0.083 -0.242,-0.081 -0.243,-0.08 -0.244,-0.078 -0.244,-0.077 -0.245,-0.076 -0.246,-0.073 -0.246,-0.073 -0.247,-0.071 -0.248,-0.07 -0.248,-0.068 -0.248,-0.066 -0.25,-0.065 -0.25,-0.064 -0.25,-0.062 -0.252,-0.06 -0.251,-0.059 -0.253,-0.058 -0.252,-0.056 -0.254,-0.054 -0.254,-0.053 -0.255,-0.051 -0.255,-0.05 -0.255,-0.048 -0.257,-0.047 -0.256,-0.045 -0.258,-0.044 -0.258,-0.042 -0.258,-0.04 -0.259,-0.039 -0.26,-0.037 -0.26,-0.035 -0.26,-0.034 -0.261,-0.033 -0.261,-0.031 -0.263,-0.029 -0.262,-0.027 -0.263,-0.026 -0.264,-0.024 -0.263,-0.023 -0.265,-0.021 -0.265,-0.019 -0.265,-0.018 -0.266,-0.016 -0.266,-0.014 -0.267,-0.013 -0.267,-0.011 -0.268,-0.01 -0.268,-0.007 -0.268,-0.006 -0.269,-0.004 -0.269,-0.003 -0.27,-10e-4 -0.269,10e-4 -0.27,0.003 -0.269,0.004 -0.268,0.006 -0.268,0.007 -0.268,0.01 -0.267,0.011 -0.267,0.013 -0.266,0.014 -0.266,0.016 -0.265,0.018 -0.265,0.019 -0.264,0.021 -0.264,0.023 -0.264,0.024 -0.263,0.026 -0.262,0.027 -0.262,0.029 -0.262,0.031 -0.261,0.033 -0.26,0.034 -0.26,0.035 -0.26,0.037 -0.259,0.039 -0.258,0.04 -0.258,0.042 -0.257,0.044 -0.257,0.045 -0.256,0.047 -0.256,0.048 -0.255,0.05 -0.255,0.051 -0.254,0.053 -0.253,0.054 -0.253,0.056 -0.252,0.058 -0.252,0.059 -0.252,0.06 -0.25,0.062 -0.25,0.064 -0.249,0.065 -0.249,0.066 -0.248,0.068 -0.248,0.07 -0.246,0.071 -0.247,0.073 -0.245,0.073 -0.245,0.076 -0.245,0.077 -0.243,0.078 -0.244,0.08 -0.242,0.081 -0.242,0.083 -0.241,0.084 -0.24,0.086 -0.24,0.087 -0.239,0.088 -0.238,0.09 -0.238,0.091 -0.237,0.093 -0.236,0.094 -0.236,0.095 -0.234,0.097 -0.235,0.099 -0.233,0.099 -0.233,0.101 -0.232,0.103 -0.231,0.103 -0.23,0.105 -0.23,0.107 -0.229,0.108 -0.228,0.109 -0.228,0.11 -0.226,0.112 -0.226,0.113 -0.225,0.115 -0.225,0.116 -0.223,0.117 -0.223,0.118 -0.222,0.12 -0.221,0.121 -0.22,0.123 -0.22,0.123 -0.219,0.125 -0.217,0.126 -0.217,0.128 -0.217,0.129 -0.215,0.13 -0.215,0.131 -0.213,0.132 -0.213,0.134 -0.212,0.135 -0.211,0.137 -0.21,0.137 -0.21,0.139 -0.208,0.14 -0.208,0.141 -0.206,0.143 -0.206,0.143 -0.205,0.145 -0.204,0.146 -0.203,0.147 -0.202,0.149 -0.201,0.149 -0.201,0.151 -0.199,0.152 -0.199,0.153 -0.197,0.154 -0.197,0.156 -0.195,0.156 -0.195,0.158 -0.193,0.159 -0.193,0.16 -0.192,0.161 -0.19,0.162 -0.19,0.164 -0.189,0.164 -0.188,0.166 -0.187,0.167 -0.185,0.167 -0.185,0.169 -0.184,0.17 -0.182,0.171 -0.182,0.173 -0.181,0.173 -0.179,0.174 -0.179,0.175 -0.177,0.177 -0.177,0.177 -0.175,0.179 -0.174,0.179 -0.174,0.181 -0.172,0.182 -0.171,0.183 -0.17,0.183 -0.169,0.185 -0.168,0.186 -0.166,0.186 -0.166,0.188 -0.164,0.189 -0.164,0.19 -0.162,0.19 -0.161,0.192 -0.16,0.193 -0.159,0.193 -0.158,0.195 -0.156,0.195 -0.156,0.197 -0.154,0.198 -0.153,0.198 -0.152,0.199 -0.151,0.201 -0.15,0.201 -0.148,0.202 -0.147,0.203 -0.146,0.204 -0.145,0.205 -0.144,0.206 -0.142,0.206 -0.141,0.208 -0.14,0.208 -0.139,0.21 -0.137,0.21 -0.137,0.211 -0.135,0.212 -0.134,0.213 -0.132,0.213 -0.131,0.215 -0.13,0.215 -0.129,0.217 -0.128,0.217 -0.126,0.217 -0.125,0.219 -0.124,0.22 -0.122,0.22 -0.121,0.221 -0.12,0.222 -0.118,0.223 -0.117,0.223 -0.116,0.225 -0.115,0.225 -0.113,0.226 -0.112,0.226 -0.11,0.228 -0.109,0.228 -0.108,0.229 -0.107,0.23 -0.105,0.23 -0.104,0.231 -0.102,0.232 -0.101,0.233 -0.1,0.233 -0.098,0.234 -0.097,0.235 -0.095,0.236 -0.094,0.236 -0.093,0.237 -0.091,0.238 -0.09,0.238 -0.088,0.239 -0.087,0.24 -0.086,0.24 -0.084,0.241 -0.083,0.242 -0.081,0.243 -0.08,0.243 -0.078,0.243 -0.077,0.245 -0.076,0.245 -0.074,0.245 -0.072,0.246 -0.071,0.247 -0.07,0.248 -0.068,0.248 -0.066,0.249 -0.065,0.249 -0.064,0.25 -0.062,0.251 -0.06,0.251 -0.059,0.251 -0.058,0.253 -0.056,0.253 -0.054,0.253 -0.053,0.254 -0.051,0.255 -0.05,0.255 -0.048,0.256 -0.047,0.256 -0.045,0.257 -0.044,0.257 -0.042,0.258 -0.04,0.258 -0.039,0.259 -0.037,0.26 -0.036,0.26 -0.034,0.26 -0.032,0.261 -0.031,0.262 -0.029,0.262 -0.027,0.262 -0.026,0.263 -0.025,0.264 -0.022,0.264 -0.021,0.264 -0.019,0.265 -0.018,0.265 -0.016,0.266 -0.015,0.266 -0.012,0.267 -0.011,0.267 -0.01,0.268 -0.007,0.268 -0.006,0.268 -0.004,0.269 -0.003,0.269 -10e-4,0.27 10e-4,0.27 0.003,0.269 0.004,0.269 0.006,0.269 0.007,0.268 0.01,0.267 0.011,0.267 0.012,0.267 0.015,0.266 0.016,0.266 0.018,0.265 0.019,0.265 0.021,0.265 0.022,0.264 0.025,0.263 0.026,0.263 0.027,0.263 0.029,0.262 0.031,0.261 0.032,0.261 0.034,0.261 0.036,0.259 0.037,0.26 0.039,0.259 0.04,0.258 0.042,0.258 0.044,0.258 0.045,0.256 0.047,0.257 0.048,0.255 0.05,0.255 0.051,0.255 0.053,0.254 0.054,0.254 0.056,0.253 0.058,0.252 0.059,0.252 0.06,0.251 0.062,0.25 0.064,0.25 0.065,0.25 0.066,0.248 0.068,0.248 0.07,0.248 0.071,0.247 0.072,0.246 0.074,0.246 0.076,0.245 0.077,0.244 0.078,0.244 0.08,0.243 0.081,0.242 0.083,0.242 0.084,0.241 0.086,0.24 0.087,0.24 0.088,0.239 0.09,0.239 0.091,0.237 0.093,0.237 0.094,0.236 0.095,0.236 0.097,0.235 0.098,0.234 0.1,0.233 0.101,0.233 0.102,0.232 0.104,0.231 0.105,0.231 0.107,0.229 0.108,0.229 0.109,0.228 0.11,0.228 0.112,0.227 0.113,0.225 0.115,0.225 0.116,0.225 0.117,0.224 0.118,0.222 0.12,0.222 0.121,0.221 0.122,0.221 0.124,0.219 0.125,0.219 0.126,0.218 0.128,0.217 0.129,0.216 0.13,0.215 0.131,0.215 0.132,0.214 0.134,0.212 0.135,0.212 0.137,0.212 0.137,0.21 0.139,0.209 0.14,0.209 0.141,0.207 0.142,0.207 0.144,0.205 0.145,0.205 0.146,0.204 0.147,0.203 0.149,0.203 0.149,0.201 0.151,0.2 0.152,0.199 0.153,0.199 0.154,0.197 0.156,0.197 0.156,0.195 0.158,0.195 0.159,0.194 0.16,0.192 0.161,0.192 0.162,0.191 0.164,0.189 0.164,0.189 0.166,0.188 0.166,0.187 0.168,0.185 0.169,0.185 0.17,0.184 0.171,0.183 0.172,0.181 0.174,0.181 0.174,0.179 0.175,0.179 0.177,0.177 0.177,0.177 0.179,0.175 0.179,0.175 0.181,0.173 0.182,0.172 0.182,0.171 0.184,0.17 0.185,0.169 0.186,0.168 0.186,0.167 0.188,0.165 0.189,0.165 0.189,0.163 0.191,0.162 0.192,0.162 0.193,0.16 0.193,0.158 0.195,0.158 0.195,0.157 0.197,0.155 0.197,0.154 0.199,0.153 0.199,0.152 0.201,0.151 0.201,0.15 0.202,0.148 0.203,0.147 0.204,0.146 0.205,0.145 0.206,0.144 0.206,0.142 0.208,0.141 0.208,0.14 0.21,0.139 0.21,0.138 0.211,0.136 0.212,0.135 0.213,0.134 0.213,0.132 0.215,0.132 0.215,0.13 0.216,0.128 0.218,0.128 0.217,0.126 0.219,0.125 0.22,0.124 0.22,0.122 0.221,0.121 0.222,0.12 0.223,0.119 0.223,0.117 0.225,0.115 0.225,0.115 0.226,0.113 0.226,0.112 0.228,0.111 0.228,0.109 0.229,0.107 0.23,0.107 0.23,0.105 0.231,0.104 0.232,0.102 0.233,0.101 0.233,0.1 0.234,0.098 0.235,0.097 0.236,0.095 0.236,0.094 0.237,0.093 0.238,0.091 0.238,0.09 0.239,0.089 0.24,0.087 0.24,0.085 0.241,0.084 0.242,0.083 0.242,0.081 0.243,0.08 0.244,0.079 0.245,0.076 0.245,0.076 0.245,0.074 0.246,0.072 0.247,0.071 0.248,0.07 0.248,0.068 0.249,0.067 0.249,0.065 0.25,0.063 0.251,0.062 0.251,0.061 0.251,0.059 0.253,0.057 0.253,0.056 0.253,0.054 0.254,0.053 0.255,0.052 0.255,0.049 0.256,0.049 0.256,0.046 0.257,0.045 0.257,0.044 0.258,0.042 0.258,0.04 0.259,0.039 0.26,0.037 0.26,0.036 0.26,0.034 0.261,0.032 0.262,0.031 0.262,0.029 0.262,0.028 0.263,0.026 0.264,0.024 0.264,0.022 0.264,0.021 0.265,0.02 0.265,0.017 0.266,0.016 0.266,0.015 0.267,0.012 0.267,0.012 0.268,0.009 0.268,0.008 0.268,0.005 0.269,0.005 0.269,0.002 0.27,10e-4 z"
         style="fill:#3e7aab"
         id="path3775" />
      <circle
         cx="99.998001"
         cy="841.87201"
         r="40"
         style="fill:#ffffff"
         id="circle3777" />
      <circle
         cx="100.231"
         cy="841.87201"
         r="39"
         style="fill:none;stroke:#3e7aab;stroke-width:1.79999995px"
         id="circle3779" />
      <g
         id="Layer21">
        <path
           inkscape:connector-curvature="0"
           d="m 86.691,855.696 c 0,-0.039 0.067,-13.605 13.696,-13.696 -13.881,0.093 -13.697,13.657 -13.696,13.696 z M 100.387,842 c 13.881,-0.093 13.696,-13.657 13.695,-13.696 0,0.039 -0.067,13.605 -13.695,13.696 z m 13.695,-13.696 10.652,0 c 7.559,0 10.653,6.137 10.653,13.696 0,7.559 -3.094,13.696 -10.653,13.696 l -10.652,0 0,10.652 c 0,7.559 -6.137,10.652 -13.695,10.652 -7.559,0 -13.696,-3.093 -13.696,-10.652 l 0,-10.652 -10.652,0 c -7.559,0 -10.652,-6.137 -10.652,-13.696 0,-7.559 3.093,-13.696 10.652,-13.696 l 10.652,0 0,-10.652 c 0,-7.559 6.137,-10.652 13.696,-10.652 7.558,0 13.695,3.093 13.695,10.652 l 0,10.652 z"
           style="fill:#3e7aab"
           id="path3782" />
        <g
           id="g3784">
          <path
             inkscape:connector-curvature="0"
             d="m 86.691,855.696 c 0,0 -0.205,-13.603 13.696,-13.696 13.647,-0.091 13.695,-13.696 13.695,-13.696 l 0,-10.652 c 0,-7.559 -6.137,-10.652 -13.695,-10.652 -7.559,0 -13.696,3.093 -13.696,10.652 l 0,10.652 -3.208,0 -7.444,0 c -7.559,0 -10.652,6.137 -10.652,13.696 0,7.559 3.093,13.696 10.652,13.696 l 10.652,0 z"
             style="fill:none;stroke:#ffffff;stroke-width:1.79999995px"
             id="path3786" />
          <circle
             cx="93.580002"
             cy="821.16302"
             r="3.5"
             style="fill:#ffffff"
             id="circle3788" />
          <rect
             x="87.568001"
             y="827.211"
             width="10"
             height="2"
             style="fill:#ffffff"
             id="rect3790" />
        </g>
        <g
           id="g3792">
          <path
             inkscape:connector-curvature="0"
             d="m 86.691,855.696 c 0,-0.039 0.067,-13.605 13.696,-13.696 -13.881,0.093 -13.697,13.657 -13.696,13.696 z M 100.387,842 c 13.881,-0.093 13.696,-13.657 13.695,-13.696 0,0.039 -0.067,13.605 -13.695,13.696 z m 13.695,-13.696 10.652,0 c 7.559,0 10.653,6.137 10.653,13.696 0,7.559 -3.094,13.696 -10.653,13.696 l -10.652,0 0,10.652 c 0,7.559 -6.137,10.652 -13.695,10.652 -7.559,0 -13.696,-3.093 -13.696,-10.652 l 0,-10.652 c -0.113,-20.269 27.187,-7.73 27.391,-27.392 z"
             style="fill:#ffe467"
             id="path3794" />
          <path
             inkscape:connector-curvature="0"
             d="m 114.082,828.304 c 0,0 0.205,13.603 -13.695,13.696 -13.648,0.091 -13.696,13.696 -13.696,13.696 l 0,10.652 c 0,7.559 6.137,10.652 13.696,10.652 7.558,0 13.695,-3.093 13.695,-10.652 l 0,-10.652 3.208,0 7.444,0 c 7.559,0 10.653,-6.137 10.653,-13.696 0,-7.559 -3.094,-13.696 -10.653,-13.696 l -10.652,0 z"
             style="fill:none;stroke:#ffffff;stroke-width:1.79999995px"
             id="path3796" />
          <circle
             cx="107.173"
             cy="862.823"
             r="3.5"
             style="fill:#ffffff"
             id="circle3798" />
          <rect
             x="102.304"
             y="854.802"
             width="11"
             height="2"
             style="fill:#ffffff"
             id="rect3800" />
        </g>
      </g>
    </g>
    <g
       transform="translate(-31.491857,140.93363)"
       style="clip-rule:evenodd;fill-rule:evenodd;stroke-linecap:square;stroke-miterlimit:1.41420996"
       id="quicksand 46pt1">
      <path
         inkscape:connector-curvature="0"
         d="m 178.689,831.194 0,-46.877 c 0,-0.48 0.168,-0.887 0.503,-1.223 0.336,-0.335 0.743,-0.503 1.223,-0.503 l 14.235,0 c 3.931,0 7.298,1.402 10.102,4.206 2.804,2.804 4.206,6.183 4.206,10.138 0,3.954 -1.402,7.333 -4.206,10.137 -2.804,2.804 -6.171,4.206 -10.102,4.206 l -12.438,0.144 0,19.772 c 0,0.479 -0.18,0.887 -0.539,1.222 -0.36,0.336 -0.779,0.503 -1.258,0.503 -0.48,0 -0.887,-0.167 -1.223,-0.503 -0.335,-0.335 -0.503,-0.743 -0.503,-1.222 z m 3.523,-23.295 12.438,0 c 2.972,-0.048 5.524,-1.138 7.657,-3.271 2.133,-2.133 3.2,-4.686 3.2,-7.657 0,-2.972 -1.067,-5.524 -3.2,-7.657 -2.133,-2.133 -4.685,-3.2 -7.657,-3.2 l -12.438,0 0,21.785 z"
         style="fill:#3e7aab;fill-rule:nonzero"
         id="path3803" />
      <path
         inkscape:connector-curvature="0"
         d="m 236.809,831.194 0,-22.432 -16.896,-23.079 c -0.623,-1.007 -0.503,-1.822 0.359,-2.445 0.384,-0.335 0.827,-0.467 1.33,-0.395 0.504,0.072 0.875,0.299 1.115,0.683 l 15.745,21.641 15.818,-21.641 c 0.24,-0.384 0.611,-0.611 1.114,-0.683 0.504,-0.072 0.947,0.06 1.33,0.395 0.384,0.24 0.611,0.611 0.683,1.115 0.072,0.503 -0.036,0.946 -0.323,1.33 l -16.824,22.935 0,22.576 c 0,0.479 -0.168,0.887 -0.503,1.222 -0.336,0.336 -0.743,0.503 -1.223,0.503 -0.479,0 -0.886,-0.167 -1.222,-0.503 -0.335,-0.335 -0.503,-0.743 -0.503,-1.222 z"
         style="fill:#3e7aab;fill-rule:nonzero"
         id="path3805" />
      <path
         inkscape:connector-curvature="0"
         d="m 275.649,825.478 c -5.105,-4.961 -7.657,-10.976 -7.657,-18.046 0,-7.07 2.552,-13.086 7.657,-18.047 5.105,-4.96 11.276,-7.465 18.514,-7.513 6.039,0 11.455,1.846 16.249,5.536 0.383,0.336 0.611,0.755 0.683,1.258 0.071,0.504 -0.06,0.923 -0.396,1.259 -0.287,0.431 -0.683,0.671 -1.186,0.719 -0.503,0.048 -0.923,-0.072 -1.258,-0.36 -4.17,-3.259 -8.868,-4.889 -14.092,-4.889 -6.279,0 -11.624,2.157 -16.033,6.471 -4.41,4.314 -6.615,9.514 -6.615,15.602 0,6.087 2.205,11.264 6.615,15.53 4.409,4.265 9.55,6.398 15.422,6.398 5.871,0 10.724,-1.629 14.559,-4.889 0.431,-0.287 0.899,-0.395 1.402,-0.323 0.503,0.072 0.875,0.323 1.114,0.755 0.336,0.335 0.48,0.767 0.432,1.294 -0.048,0.527 -0.264,0.935 -0.647,1.222 -4.746,3.643 -10.162,5.464 -16.249,5.464 -7.238,0 -13.409,-2.48 -18.514,-7.441 z"
         style="fill:#3e7aab;fill-rule:nonzero"
         id="path3807" />
      <path
         inkscape:connector-curvature="0"
         d="m 321.677,807.396 c 0.048,-7.094 2.42,-13.122 7.117,-18.082 4.698,-4.961 10.414,-7.442 17.148,-7.442 6.734,0 12.426,2.481 17.076,7.442 4.649,4.96 6.998,10.988 7.046,18.082 -0.048,7.094 -2.397,13.121 -7.046,18.082 -4.65,4.961 -10.342,7.441 -17.076,7.441 -6.734,0 -12.45,-2.48 -17.148,-7.441 -4.697,-4.961 -7.069,-10.988 -7.117,-18.082 z m 9.598,-15.602 c -4.05,4.218 -6.075,9.407 -6.075,15.566 0,6.159 2.025,11.372 6.075,15.638 4.05,4.265 8.903,6.398 14.559,6.398 5.656,0 10.497,-2.144 14.524,-6.434 4.026,-4.29 6.063,-9.479 6.111,-15.566 -0.048,-6.183 -2.073,-11.384 -6.076,-15.602 -4.002,-4.218 -8.843,-6.327 -14.523,-6.327 -5.68,0 -10.545,2.109 -14.595,6.327 z"
         style="fill:#3e7aab;fill-rule:nonzero"
         id="path3809" />
      <path
         inkscape:connector-curvature="0"
         d="m 414.387,831.985 -30.197,-41.988 0,41.197 c 0,0.479 -0.168,0.887 -0.503,1.222 -0.336,0.336 -0.743,0.503 -1.222,0.503 -0.48,0 -0.887,-0.167 -1.223,-0.503 -0.335,-0.335 -0.503,-0.743 -0.503,-1.222 l 0,-46.158 c -0.24,-0.767 -0.096,-1.342 0.431,-1.726 0.528,-0.383 1.043,-0.539 1.546,-0.467 0.504,0.072 0.875,0.299 1.115,0.683 l 30.484,42.276 0,-40.982 c 0,-0.479 0.168,-0.887 0.503,-1.222 0.336,-0.336 0.743,-0.504 1.223,-0.504 0.479,0 0.898,0.168 1.258,0.504 0.359,0.335 0.539,0.743 0.539,1.222 l 0,46.374 c 0,0.479 -0.18,0.887 -0.539,1.222 -0.36,0.336 -0.803,0.503 -1.33,0.503 -0.527,0 -0.959,-0.215 -1.294,-0.647 l -0.288,-0.287 z"
         style="fill:#3e7aab;fill-rule:nonzero"
         id="path3811" />
      <path
         inkscape:connector-curvature="0"
         d="m 453.859,832.416 c -0.767,-0.911 -0.743,-1.773 0.072,-2.588 l 23.51,-21.21 c 2.876,-2.636 4.314,-5.716 4.314,-9.239 0,-3.523 -1.198,-6.614 -3.595,-9.275 -2.396,-2.66 -5.392,-3.99 -8.987,-3.99 -3.595,0 -6.639,1.103 -9.131,3.307 l -2.444,2.229 c -0.384,0.336 -0.815,0.504 -1.295,0.504 -0.479,0 -0.874,-0.192 -1.186,-0.576 -0.311,-0.383 -0.467,-0.815 -0.467,-1.294 0,-0.479 0.191,-0.863 0.575,-1.15 l 2.444,-2.301 c 3.212,-2.828 7.094,-4.242 11.648,-4.242 4.553,0 8.412,1.798 11.575,5.392 2.876,3.068 4.314,6.879 4.314,11.432 0,4.554 -1.797,8.484 -5.392,11.791 l -20.131,18.19 23.798,0 c 0.479,0 0.886,0.18 1.222,0.54 0.335,0.359 0.503,0.779 0.503,1.258 0,0.479 -0.168,0.887 -0.503,1.222 -0.336,0.336 -0.743,0.503 -1.222,0.503 l -28.328,0 c -0.575,0 -1.007,-0.167 -1.294,-0.503 z"
         style="fill:#ffe467;fill-rule:nonzero"
         id="path3813" />
      <path
         inkscape:connector-curvature="0"
         d="m 515.439,832.919 c -4.937,0 -9.071,-2.468 -12.402,-7.405 -3.332,-4.937 -4.997,-10.857 -4.997,-17.759 0,-6.902 1.606,-12.774 4.817,-17.615 3.499,-5.032 7.693,-7.549 12.582,-7.549 4.889,0 9.083,2.517 12.582,7.549 3.259,5.033 4.889,10.905 4.889,17.615 0,6.711 -1.63,12.558 -4.889,17.543 -3.451,5.081 -7.645,7.621 -12.582,7.621 z m 13.948,-25.164 c 0,-6.087 -1.402,-11.216 -4.206,-15.386 -2.804,-4.17 -6.075,-6.255 -9.814,-6.255 -3.739,0 -6.974,2.073 -9.706,6.219 -2.732,4.146 -4.098,9.287 -4.098,15.422 0,6.136 1.414,11.336 4.242,15.602 2.732,4.026 5.919,6.039 9.562,6.039 3.643,0 6.878,-2.013 9.706,-6.039 2.876,-4.314 4.314,-9.514 4.314,-15.602 z"
         style="fill:#ffe467;fill-rule:nonzero"
         id="path3815" />
      <path
         inkscape:connector-curvature="0"
         d="m 555.548,831.194 0,-43.498 -7.118,4.17 c -0.287,0.192 -0.671,0.288 -1.15,0.288 -0.48,0 -0.887,-0.288 -1.223,-0.863 -0.575,-1.055 -0.359,-1.846 0.648,-2.373 l 9.706,-5.895 c 0.383,-0.24 0.839,-0.288 1.366,-0.144 1.006,0.287 1.414,0.982 1.222,2.085 l 0,46.23 c 0,0.479 -0.168,0.887 -0.503,1.222 -0.336,0.336 -0.743,0.503 -1.223,0.503 -0.479,0 -0.886,-0.167 -1.222,-0.503 -0.335,-0.335 -0.503,-0.743 -0.503,-1.222 z"
         style="fill:#ffe467;fill-rule:nonzero"
         id="path3817" />
      <path
         inkscape:connector-curvature="0"
         d="m 571.879,813.579 c 0.096,-7.813 1.725,-14.475 4.889,-19.988 3.978,-6.998 9.85,-10.64 17.615,-10.928 0.479,-0.048 0.886,0.096 1.222,0.431 0.335,0.336 0.515,0.743 0.539,1.223 0.024,0.479 -0.132,0.898 -0.467,1.258 -0.336,0.359 -0.743,0.563 -1.222,0.611 -6.28,0.24 -11.169,3.283 -14.668,9.131 -1.581,2.732 -2.78,6.087 -3.594,10.066 3.307,-3.787 7.369,-5.68 12.186,-5.68 4.817,0 8.844,1.629 12.079,4.889 3.235,3.259 4.853,7.178 4.853,11.755 0,4.578 -1.618,8.484 -4.853,11.719 -3.235,3.236 -7.142,4.853 -11.719,4.853 -4.578,0 -8.472,-1.557 -11.684,-4.673 -3.211,-3.115 -4.889,-6.902 -5.033,-11.36 -0.095,-0.719 -0.143,-1.821 -0.143,-3.307 z m 3.666,2.732 0,0.288 c 0,0.239 0.024,0.515 0.072,0.827 0.048,0.311 0.048,0.515 0,0.611 0.432,3.211 1.882,5.907 4.35,8.088 2.469,2.181 5.44,3.271 8.915,3.271 3.475,0 6.507,-1.282 9.095,-3.846 2.589,-2.564 3.883,-5.644 3.883,-9.239 0,-3.595 -1.294,-6.674 -3.883,-9.239 -2.588,-2.564 -5.691,-3.846 -9.31,-3.846 -3.619,0 -6.711,1.282 -9.275,3.846 -2.564,2.565 -3.847,5.644 -3.847,9.239 z"
         style="fill:#ffe467;fill-rule:nonzero"
         id="path3819" />
    </g>
    <g
       transform="translate(-31.491857,140.93363)"
       style="clip-rule:evenodd;fill-rule:evenodd;stroke-linecap:square;stroke-miterlimit:1.41420996"
       id="Quicksand 46pt1">
      <path
         inkscape:connector-curvature="0"
         d="m 182.477,897.462 c -1.653,-1.01 -2.721,-1.757 -3.204,-2.239 -0.482,-0.482 -0.666,-0.884 -0.551,-1.206 0.115,-0.321 0.31,-0.528 0.586,-0.62 0.275,-0.092 0.574,0.012 0.895,0.31 0.322,0.299 1.045,0.862 2.171,1.688 1.125,0.827 3.123,1.826 5.994,2.998 2.871,1.171 5.708,1.757 8.51,1.757 4.639,0 8.555,-1.149 11.747,-3.445 3.193,-2.297 4.789,-5.122 4.789,-8.475 0,-2.619 -0.758,-4.594 -2.274,-5.926 -0.826,-0.735 -1.607,-1.344 -2.342,-1.826 -0.735,-0.482 -1.815,-0.953 -3.239,-1.412 -1.653,-0.552 -3.732,-1.126 -6.235,-1.723 -2.504,-0.597 -4.215,-1.022 -5.133,-1.275 -0.919,-0.252 -2.136,-0.631 -3.652,-1.136 -1.516,-0.506 -2.676,-1.034 -3.48,-1.585 -0.804,-0.551 -1.665,-1.24 -2.584,-2.067 -1.653,-1.562 -2.48,-3.87 -2.48,-6.925 0,-3.055 1.458,-5.707 4.375,-7.958 2.917,-2.251 6.443,-3.376 10.577,-3.376 4.547,0 8.612,1.24 12.195,3.72 1.286,0.873 2.113,1.585 2.481,2.136 0.367,0.414 0.344,0.827 -0.069,1.241 -0.505,0.321 -0.919,0.298 -1.24,-0.069 -3.491,-3.491 -7.947,-5.237 -13.367,-5.237 -3.629,0 -6.73,0.942 -9.302,2.825 -2.572,1.884 -3.859,4.157 -3.859,6.821 0,2.527 0.965,4.686 2.894,6.477 1.424,1.286 3.905,2.389 7.442,3.308 1.01,0.275 2.469,0.631 4.375,1.068 1.906,0.436 3.33,0.78 4.272,1.033 0.941,0.253 2.182,0.632 3.721,1.137 1.538,0.505 2.721,1.045 3.548,1.619 0.827,0.574 1.677,1.298 2.549,2.171 1.7,1.561 2.55,3.881 2.55,6.959 0,3.812 -1.757,7.039 -5.271,9.68 -3.514,2.642 -7.763,3.962 -12.747,3.962 -4.984,0 -9.865,-1.47 -14.642,-4.41 z"
         style="fill:#3e7aab;fill-opacity:1;fill-rule:nonzero"
         id="path3822" />
      <path
         inkscape:connector-curvature="0"
         d="m 248.983,854.192 c 0,-0.597 0.287,-0.896 0.861,-0.896 0.574,0 0.862,0.299 0.862,0.896 l 0,46.44 c 0,0.597 -0.288,0.896 -0.862,0.896 -0.574,0 -0.861,-0.299 -0.861,-0.896 l 0,-46.44 z"
         style="fill:#3e7aab;fill-opacity:1;fill-rule:nonzero"
         id="path3824" />
      <path
         inkscape:connector-curvature="0"
         d="m 300.468,867.766 c 4.41,0 8.177,1.653 11.3,4.961 3.124,3.307 4.685,7.28 4.685,11.92 0,4.639 -1.561,8.612 -4.685,11.92 -3.123,3.307 -6.89,4.961 -11.3,4.961 -4.41,0 -8.165,-1.654 -11.265,-4.961 -3.101,-3.308 -4.651,-7.281 -4.651,-11.92 0,-4.64 1.55,-8.613 4.651,-11.92 3.1,-3.308 6.855,-4.961 11.265,-4.961 z m 0,32.039 c 3.905,0 7.258,-1.481 10.06,-4.444 2.802,-2.963 4.203,-6.534 4.203,-10.714 0,-4.18 -1.401,-7.752 -4.203,-10.715 -2.802,-2.962 -6.155,-4.444 -10.06,-4.444 -3.904,0 -7.246,1.482 -10.025,4.444 -2.779,2.963 -4.169,6.535 -4.169,10.715 0,4.18 1.39,7.751 4.169,10.714 2.779,2.963 6.121,4.444 10.025,4.444 z"
         style="fill:#3e7aab;fill-opacity:1;fill-rule:nonzero"
         id="path3826" />
      <path
         inkscape:connector-curvature="0"
         d="m 364.714,901.528 -0.276,0 c -0.275,-0.092 -0.482,-0.276 -0.62,-0.552 l -13.436,-31.901 c -0.137,-0.276 -0.103,-0.54 0.104,-0.792 0.206,-0.253 0.471,-0.368 0.792,-0.345 0.322,0.023 0.551,0.195 0.689,0.517 l 12.678,29.972 12.678,-29.972 c 0.092,-0.368 0.299,-0.551 0.62,-0.551 0.322,0 0.597,0.126 0.827,0.379 0.23,0.252 0.276,0.516 0.138,0.792 l -13.436,31.833 c 0,0.137 -0.092,0.275 -0.276,0.413 -0.183,0.138 -0.344,0.207 -0.482,0.207 z"
         style="fill:#3e7aab;fill-opacity:1;fill-rule:nonzero"
         id="path3828" />
      <path
         inkscape:connector-curvature="0"
         d="m 442.942,868.661 c 0,-0.597 0.287,-0.895 0.861,-0.895 0.574,0 0.861,0.298 0.861,0.895 l 0,31.971 c 0,0.597 -0.287,0.896 -0.861,0.896 -0.574,0 -0.861,-0.299 -0.861,-0.896 l 0,-8.406 c -1.332,2.802 -3.273,5.053 -5.823,6.752 -2.549,1.7 -5.339,2.55 -8.371,2.55 -4.41,0 -8.165,-1.654 -11.266,-4.961 -3.1,-3.308 -4.65,-7.281 -4.65,-11.92 0,-4.64 1.55,-8.613 4.65,-11.92 3.101,-3.308 6.856,-4.961 11.266,-4.961 3.032,0 5.822,0.85 8.371,2.549 2.55,1.7 4.491,3.951 5.823,6.753 l 0,-8.407 z m -14.194,31.144 c 3.904,0 7.246,-1.481 10.025,-4.444 2.779,-2.963 4.169,-6.534 4.169,-10.714 0,-4.18 -1.39,-7.74 -4.169,-10.68 -2.779,-2.94 -6.121,-4.41 -10.025,-4.41 -3.905,0 -7.246,1.47 -10.025,4.41 -2.779,2.94 -4.169,6.5 -4.169,10.68 0,4.18 1.39,7.751 4.169,10.714 2.779,2.963 6.12,4.444 10.025,4.444 z"
         style="fill:#3e7aab;fill-opacity:1;fill-rule:nonzero"
         id="path3830" />
      <path
         inkscape:connector-curvature="0"
         d="m 478.511,900.632 0,-46.44 c 0,-0.597 0.298,-0.896 0.895,-0.896 0.23,0 0.425,0.092 0.586,0.276 0.161,0.184 0.241,0.39 0.241,0.62 l 0,35.76 22.186,-22.186 c 0.368,-0.368 0.77,-0.356 1.206,0.034 0.437,0.391 0.448,0.793 0.035,1.206 l -13.987,13.987 13.987,17.019 c 0.229,0.275 0.264,0.597 0.103,0.964 -0.161,0.368 -0.402,0.552 -0.723,0.552 -0.322,0 -0.552,-0.115 -0.689,-0.345 l -13.988,-16.881 -7.923,7.924 c -0.092,0.092 -0.161,0.138 -0.207,0.138 l 0,8.268 c 0,0.23 -0.08,0.436 -0.241,0.62 -0.161,0.184 -0.356,0.276 -0.586,0.276 -0.597,0 -0.895,-0.299 -0.895,-0.896 z"
         style="fill:#3e7aab;fill-opacity:1;fill-rule:nonzero"
         id="path3832" />
      <path
         inkscape:connector-curvature="0"
         d="m 537.808,900.632 0,-32.039 c 0,-0.552 0.287,-0.827 0.861,-0.827 0.574,0 0.861,0.275 0.861,0.827 l 0,32.039 c 0,0.23 -0.08,0.436 -0.241,0.62 -0.161,0.184 -0.356,0.276 -0.586,0.276 -0.597,0 -0.895,-0.299 -0.895,-0.896 z m 0,-41.203 0,-1.654 c 0,-0.597 0.287,-0.896 0.861,-0.896 0.574,0 0.861,0.299 0.861,0.896 l 0,1.654 c 0,0.229 -0.08,0.425 -0.241,0.585 -0.161,0.161 -0.356,0.241 -0.586,0.241 -0.597,0 -0.895,-0.275 -0.895,-0.826 z"
         style="fill:#3e7aab;fill-opacity:1;fill-rule:nonzero"
         id="path3834" />
      <path
         inkscape:connector-curvature="0"
         d="m 603.487,868.661 c 0,-0.597 0.287,-0.895 0.861,-0.895 0.574,0 0.861,0.298 0.861,0.895 l 0,31.971 c 0,0.597 -0.287,0.896 -0.861,0.896 -0.574,0 -0.861,-0.299 -0.861,-0.896 l 0,-8.406 c -1.332,2.802 -3.273,5.053 -5.823,6.752 -2.549,1.7 -5.339,2.55 -8.371,2.55 -4.41,0 -8.165,-1.654 -11.266,-4.961 -3.1,-3.308 -4.65,-7.281 -4.65,-11.92 0,-4.64 1.55,-8.613 4.65,-11.92 3.101,-3.308 6.856,-4.961 11.266,-4.961 3.032,0 5.822,0.85 8.371,2.549 2.55,1.7 4.491,3.951 5.823,6.753 l 0,-8.407 z m -14.194,31.144 c 3.904,0 7.246,-1.481 10.025,-4.444 2.779,-2.963 4.169,-6.534 4.169,-10.714 0,-4.18 -1.39,-7.74 -4.169,-10.68 -2.779,-2.94 -6.121,-4.41 -10.025,-4.41 -3.905,0 -7.246,1.47 -10.025,4.41 -2.779,2.94 -4.169,6.5 -4.169,10.68 0,4.18 1.39,7.751 4.169,10.714 2.779,2.963 6.12,4.444 10.025,4.444 z"
         style="fill:#3e7aab;fill-opacity:1;fill-rule:nonzero"
         id="path3836" />
    </g>
  </g>
</svg>
