<?xml version="1.0" encoding="UTF-8" standalone="no"?>
<svg
   xmlns:dc="http://purl.org/dc/elements/1.1/"
   xmlns:cc="http://creativecommons.org/ns#"
   xmlns:rdf="http://www.w3.org/1999/02/22-rdf-syntax-ns#"
   xmlns:svg="http://www.w3.org/2000/svg"
   xmlns="http://www.w3.org/2000/svg"
   viewBox="0 0 765.08752 320.5"
   height="320.5"
   width="765.08752"
   xml:space="preserve"
   version="1.1"
   id="svg2"><metadata
     id="metadata8"><rdf:RDF><cc:Work
         rdf:about=""><dc:format>image/svg+xml</dc:format><dc:type
           rdf:resource="http://purl.org/dc/dcmitype/StillImage" /><dc:title></dc:title></cc:Work></rdf:RDF></metadata><defs
     id="defs6" /><g
     transform="matrix(1.25,0,0,-1.25,0,320.5)"
     id="g10"><g
       transform="scale(0.1,0.1)"
       id="g12"><path
         id="path14"
         style="fill:#33b440;fill-opacity:1;fill-rule:nonzero;stroke:none"
         d="M 631.016,849.879 C 631.016,675.641 489.746,534.352 315.5,534.352 141.27,534.352 0,675.641 0,849.879 c 0,174.211 141.27,315.501 315.5,315.501 174.246,0 315.516,-141.29 315.516,-315.501" /><path
         id="path16"
         style="fill:#232221;fill-opacity:1;fill-rule:nonzero;stroke:none"
         d="m 2480.78,1762.97 59.99,51.83 365.57,0 43.6,-51.83 -35.45,-176.59 -43.64,-38.17 -431.04,0 40.97,214.76 z m 523.73,-555.75 291.34,244.99 68.18,411.61 -223.07,279.07 -725.7,0 -336.87,-283.83 -167.77,-1013.54 220.81,-293.411 810.63,-0.199 252.26,293.488 40.29,243.582 -413.69,0 -11.71,-79.06 -70.8,-51.869 -364.04,0.75 -45.41,51.239 31.44,198.11 644.11,-0.93" /><path
         id="path18"
         style="fill:#232221;fill-opacity:1;fill-rule:nonzero;stroke:none"
         d="m 4635.02,1089.35 -430.12,-0.99 -15.83,-98.02 -70.76,-51.891 -358.51,0 -45.09,51.129 116.14,721.582 70.68,51.81 365.53,0 33.02,-51.81 -9.04,-94.73 434.89,-0.81 41.01,247.82 -193.64,279.45 -780.4,0 -319.31,-279.07 -168.58,-1018.3 227.36,-293.411 811.47,0 255.45,293.411 42.71,243.83 -6.98,-0.04 0,0.04" /><path
         id="path20"
         style="fill:#232221;fill-opacity:1;fill-rule:nonzero;stroke:none"
         d="m 1431.05,1008.61 -59.83,-51.872 -160.98,0 -43.8,51.872 27.97,182.62 97.65,572.63 389.59,0 60.8,377.36 -361.14,0 72.67,422.77 -422.82,0 -72.699,-422.77 -198.895,0 -60.796,-377.36 206.242,0 -151.824,-916.758 212.535,-285.934 603.987,0 -8.27,0 236.15,284.352 40.45,242.19 -395.33,0 -11.66,-79.1" /><path
         id="path22"
         style="fill:#232221;fill-opacity:1;fill-rule:nonzero;stroke:none"
         d="m 5908.83,2142.93 -455.15,0 -92.2,-75.12 -59.46,-43.62 30.44,190.63 56.76,349.17 -396.62,0 -333.12,-2011.881 404.89,0 171.12,1063.481 136.77,94.9 264.65,0 58.45,-112.2 -168.82,-1046.181 384.15,0 209.99,1311.331 -211.85,279.49" /><path
         id="path24"
         style="fill:#232221;fill-opacity:1;fill-rule:nonzero;stroke:none"
         d="m 237.777,209.699 0,-174.5974 9.899,0 c 15.195,0 29,1.5 41.402,4.5 12.399,3 23.649,7.789 33.75,14.3984 10.098,6.6016 17.996,15.6992 23.699,27.3008 5.7,11.5898 8.551,25.2892 8.551,41.0902 0,16.007 -2.851,29.808 -8.551,41.41 -5.703,11.59 -13.652,20.648 -23.851,27.148 -10.199,6.492 -21.449,11.25 -33.75,14.25 -12.301,3 -26.055,4.5 -41.25,4.5 l -9.899,0 z M 209.574,9.30078 l 0,226.19922 46.805,0 c 36.594,0 66.898,-9.648 90.898,-28.961 23.996,-19.289 36,-46.937 36,-82.937 0,-37.0122 -11.906,-65.3129 -35.699,-84.9028 C 323.773,19.0898 293.074,9.30078 255.473,9.30078 l -45.899,0" /><path
         id="path26"
         style="fill:#232221;fill-opacity:1;fill-rule:nonzero;stroke:none"
         d="m 504.777,113.699 c -9.406,9.602 -20.707,14.403 -33.902,14.403 -13.203,0 -24.504,-4.801 -33.902,-14.403 -9.403,-9.597 -14.102,-21.0974 -14.102,-34.4998 0,-13.1992 4.699,-24.6601 14.102,-34.3476 9.398,-9.7032 20.699,-14.5625 33.902,-14.5625 13.195,0 24.496,4.8593 33.902,14.5625 9.395,9.6875 14.094,21.1484 14.094,34.3476 0,13.4024 -4.699,24.9028 -14.094,34.4998 z m -87.156,18.602 c 14.496,14.398 32.25,21.597 53.254,21.597 21,0 38.742,-7.199 53.246,-21.597 14.5,-14.403 21.754,-32.102 21.754,-53.1018 0,-21 -7.254,-38.6992 -21.754,-53.0976 C 509.617,11.6992 491.875,4.48828 470.875,4.48828 c -21.004,0 -38.758,7.21092 -53.254,21.61332 -14.5,14.3984 -21.746,32.0976 -21.746,53.0976 0,20.9998 7.246,38.6988 21.746,53.1018" /><path
         id="path28"
         style="fill:#232221;fill-opacity:1;fill-rule:nonzero;stroke:none"
         d="m 596.57,149.699 0,-17.711 0.598,0 c 4,6.41 9.352,11.653 16.051,15.762 6.699,4.102 13.75,6.148 21.152,6.148 17.402,0 30.899,-8.296 40.496,-24.898 4.403,7.59 10.504,13.648 18.301,18.148 7.805,4.5 16.102,6.75 24.902,6.75 30.996,0 46.5,-20.207 46.5,-60.5972 l 0,-84.00002 -27,0 0,79.50002 c 0,5.3984 -0.25,10.1484 -0.75,14.2502 -0.5,4.097 -1.605,8.398 -3.3,12.898 -1.704,4.5 -4.403,7.949 -8.098,10.352 -3.703,2.398 -8.356,3.59 -13.953,3.59 -5.602,0 -10.352,-1.153 -14.246,-3.442 -3.903,-2.308 -6.903,-5.097 -9.004,-8.398 -2.102,-3.301 -3.75,-7.449 -4.946,-12.449 -1.203,-5 -1.953,-9.5004 -2.253,-13.5004 -0.301,-4 -0.45,-8.6016 -0.45,-13.8008 l 0,-69.00002 -27,0 0,74.39842 c 0,4.8008 -0.101,8.8008 -0.297,12 -0.207,3.1992 -0.753,7.1988 -1.652,11.9998 -0.902,4.801 -2.203,8.59 -3.902,11.403 -1.699,2.796 -4.25,5.296 -7.649,7.5 -3.406,2.199 -7.5,3.289 -12.3,3.289 -6.801,0 -12.45,-1.539 -16.95,-4.641 -4.5,-3.102 -7.699,-7.5 -9.597,-13.199 C 599.316,106.352 598.07,101 597.473,96 596.871,91 596.57,85.1016 596.57,78.3008 l 0,-69.00002 -27,0 0,140.39822 27,0" /><path
         id="path30"
         style="fill:#232221;fill-opacity:1;fill-rule:nonzero;stroke:none"
         d="m 861.172,28.5 c 14.199,0 25.351,4.8984 33.453,14.6992 8.102,9.8008 12.148,21.9024 12.148,36.2891 0,14.2031 -4.101,26.1597 -12.3,35.8637 -8.203,9.699 -19.301,14.539 -33.301,14.539 -13.399,0 -24.149,-4.942 -32.25,-14.84 -8.102,-9.903 -12.149,-21.7502 -12.149,-35.5627 0,-13.9883 4,-25.9883 12,-35.9883 7.997,-10 18.797,-15 32.399,-15 z m 71.098,121.199 0,-140.39822 -26.997,0 0,21.89842 -0.601,0 c -12,-17.8008 -27.899,-26.71092 -47.699,-26.71092 -20.602,0 -36.953,7.36332 -49.047,22.05082 C 795.82,41.25 789.77,59.1992 789.77,80.3984 c 0,19.9926 6.097,37.2496 18.3,51.7496 12.2,14.493 28.203,21.75 48.004,21.75 20.196,0 36.399,-9.199 48.598,-27.597 l 0.601,0 0,23.398 26.997,0" /><path
         id="path32"
         style="fill:#232221;fill-opacity:1;fill-rule:nonzero;stroke:none"
         d="m 1000.37,149.699 0,-140.39822 -27.003,0 0,140.39822 27.003,0 z m -26.698,77.551 c 3.598,3.699 7.992,5.539 13.199,5.539 5.199,0 9.598,-1.84 13.199,-5.539 3.6,-3.699 5.4,-8.16 5.4,-13.352 0,-5 -1.8,-9.296 -5.4,-12.898 -3.601,-3.609 -8,-5.398 -13.199,-5.398 -5.207,0 -9.601,1.789 -13.199,5.398 -3.602,3.602 -5.399,7.898 -5.399,12.898 0,5.192 1.797,9.653 5.399,13.352" /><path
         id="path34"
         style="fill:#232221;fill-opacity:1;fill-rule:nonzero;stroke:none"
         d="m 1070.57,149.699 0,-18.898 0.6,0 c 4,7.398 9.85,13.097 17.55,17.097 7.7,4 15.95,6 24.75,6 18.4,0 31.3,-5.398 38.7,-16.199 7.4,-10.801 11.1,-25.711 11.1,-44.699 l 0,-83.69922 -27,0 0,80.39842 c 0,13.8008 -1.95,23.9418 -5.85,30.4488 -3.9,6.493 -12.25,9.743 -25.05,9.743 -5.6,0 -10.5,-0.7 -14.7,-2.102 -4.2,-1.391 -7.5,-3.699 -9.9,-6.891 -2.4,-3.199 -4.35,-6.25 -5.85,-9.148 -1.5,-2.898 -2.55,-7 -3.15,-12.3008 -0.6,-5.3086 -0.95,-9.4492 -1.05,-12.4609 -0.1,-2.9883 -0.15,-7.3867 -0.15,-13.1875 l 0,-64.50002 -27,0 0,140.39822 27,0" /><path
         id="path36"
         style="fill:#232221;fill-opacity:1;fill-rule:nonzero;stroke:none"
         d="m 1287.47,9.30078 0,237.00022 169.8,-177.9026 0,167.1016 28.19,0 0,-235.5 -169.8,177.898 0,-168.59722 -28.19,0" /><path
         id="path38"
         style="fill:#232221;fill-opacity:1;fill-rule:nonzero;stroke:none"
         d="m 1583.26,28.5 c 14.2,0 25.35,4.8984 33.45,14.6992 8.1,9.8008 12.15,21.9024 12.15,36.2891 0,14.2031 -4.1,26.1597 -12.3,35.8637 -8.2,9.699 -19.3,14.539 -33.3,14.539 -13.4,0 -24.15,-4.942 -32.25,-14.84 -8.1,-9.903 -12.15,-21.7502 -12.15,-35.5627 0,-13.9883 4,-25.9883 12,-35.9883 8,-10 18.8,-15 32.4,-15 z m 71.1,121.199 0,-140.39822 -27,0 0,21.89842 -0.6,0 c -12,-17.8008 -27.9,-26.71092 -47.7,-26.71092 -20.6,0 -36.95,7.36332 -49.05,22.05082 -12.1,14.7109 -18.15,32.6601 -18.15,53.8593 0,19.9926 6.1,37.2496 18.3,51.7496 12.2,14.493 28.2,21.75 48,21.75 20.2,0 36.4,-9.199 48.6,-27.597 l 0.6,0 0,23.398 27,0" /><path
         id="path40"
         style="fill:#232221;fill-opacity:1;fill-rule:nonzero;stroke:none"
         d="m 1715.56,149.699 0,-17.711 0.6,0 c 4,6.41 9.35,11.653 16.05,15.762 6.7,4.102 13.75,6.148 21.15,6.148 17.4,0 30.9,-8.296 40.5,-24.898 4.4,7.59 10.5,13.648 18.3,18.148 7.8,4.5 16.1,6.75 24.9,6.75 31,0 46.5,-20.207 46.5,-60.5972 l 0,-84.00002 -27,0 0,79.50002 c 0,5.3984 -0.25,10.1484 -0.75,14.2502 -0.5,4.097 -1.61,8.398 -3.3,12.898 -1.7,4.5 -4.4,7.949 -8.1,10.352 -3.7,2.398 -8.36,3.59 -13.95,3.59 -5.6,0 -10.35,-1.153 -14.25,-3.442 -3.9,-2.308 -6.9,-5.097 -9,-8.398 -2.1,-3.301 -3.75,-7.449 -4.95,-12.449 -1.2,-5 -1.95,-9.5004 -2.25,-13.5004 -0.3,-4 -0.45,-8.6016 -0.45,-13.8008 l 0,-69.00002 -27,0 0,74.39842 c 0,4.8008 -0.1,8.8008 -0.3,12 -0.2,3.1992 -0.75,7.1988 -1.65,11.9998 -0.9,4.801 -2.2,8.59 -3.9,11.403 -1.7,2.796 -4.25,5.296 -7.65,7.5 -3.41,2.199 -7.5,3.289 -12.3,3.289 -6.8,0 -12.45,-1.539 -16.95,-4.641 -4.5,-3.102 -7.7,-7.5 -9.6,-13.199 -1.9,-5.699 -3.15,-11.051 -3.75,-16.051 -0.6,-5 -0.9,-10.8984 -0.9,-17.6992 l 0,-69.00002 -27,0 0,140.39822 27,0" /><path
         id="path42"
         style="fill:#232221;fill-opacity:1;fill-rule:nonzero;stroke:none"
         d="m 1937.26,95.3984 78.6,0 c -1.6,10.8006 -5.8,19.3516 -12.6,25.6526 -6.8,6.301 -15.5,9.449 -26.1,9.449 -10.4,0 -19.25,-3.301 -26.55,-9.898 -7.3,-6.602 -11.75,-15 -13.35,-25.2036 z M 2042.86,75 l -107.1,0 c 0.2,-12.6094 4.2,-23.5 12,-32.6992 7.8,-9.1992 17.9,-13.8008 30.3,-13.8008 9.8,0 17.85,2.2383 24.15,6.75 6.3,4.5 12.25,11.3398 17.85,20.5508 l 22.8,-12.9024 c -6.6,-12 -15.65,-21.3984 -27.15,-28.1992 -11.5,-6.80076 -24.15,-10.21092 -37.95,-10.21092 -21,0 -37.75,7.01172 -50.25,21.01172 -12.5,13.9883 -18.75,31.6016 -18.75,52.8008 0,22.3982 5.9,40.5972 17.7,54.5972 11.8,14 28.7,21 50.7,21 21.4,0 37.7,-6.949 48.9,-20.847 11.2,-13.91 16.8,-31.86 16.8,-53.8518 l 0,-4.1992" /><path
         id="path44"
         style="fill:#232221;fill-opacity:1;fill-rule:nonzero;stroke:none"
         d="m 2144.26,129.301 -21.9,-11.699 c -4.01,8.187 -10.01,12.289 -18,12.289 -3.8,0 -7.2,-1.34 -10.2,-4.039 -3,-2.704 -4.5,-5.961 -4.5,-9.75 0,-1.801 0.25,-3.454 0.75,-4.961 0.49,-1.493 1.5,-2.903 3,-4.192 1.5,-1.301 2.8,-2.461 3.9,-3.449 1.09,-1.012 2.9,-2.148 5.4,-3.449 2.5,-1.3127 4.45,-2.301 5.85,-3.0002 1.4,-0.6992 3.75,-1.7617 7.05,-3.1524 3.3,-1.3984 5.55,-2.3984 6.75,-3 10,-4.6093 17.89,-9.8984 23.7,-15.8984 5.8,-6 8.7,-14 8.7,-24 0,-13.2109 -4.75,-24.25 -14.25,-33.1484 -9.5,-8.90238 -20.85,-13.36332 -34.05,-13.36332 -10.61,0 -20.45,2.86328 -29.55,8.56252 -9.1,5.6992 -15.45,13.3476 -19.05,22.9492 l 23.1,10.5 c 6.6,-12.0117 15.09,-18 25.5,-18 5.8,0 10.8,1.8398 15,5.5391 4.2,3.7109 6.3,8.4492 6.3,14.2617 0,5.789 -3.3,10.8984 -9.9,15.3008 l -26.4,14.0976 c -9.2,5 -16.01,9.9492 -20.4,14.8516 -4.4,4.8906 -6.6,11.7502 -6.6,20.5512 0,11.386 4.05,21.039 12.15,28.949 8.1,7.89 17.85,11.847 29.25,11.847 17.6,0 30.4,-8.199 38.4,-24.597" /><path
         id="path46"
         style="fill:#232221;fill-opacity:1;fill-rule:nonzero;stroke:none"
         d="m 2380.05,209.699 -81.3,0 0,-63.597 78.6,0 0,-25.813 -78.6,0 0,-110.98822 -28.2,0 0,226.19922 109.5,0 0,-25.801" /><path
         id="path48"
         style="fill:#232221;fill-opacity:1;fill-rule:nonzero;stroke:none"
         d="m 2506.35,113.699 c -9.4,9.602 -20.7,14.403 -33.9,14.403 -13.2,0 -24.5,-4.801 -33.9,-14.403 -9.4,-9.597 -14.1,-21.0974 -14.1,-34.4998 0,-13.1992 4.7,-24.6601 14.1,-34.3476 9.4,-9.7032 20.7,-14.5625 33.9,-14.5625 13.2,0 24.5,4.8593 33.9,14.5625 9.4,9.6875 14.1,21.1484 14.1,34.3476 0,13.4024 -4.7,24.9028 -14.1,34.4998 z m -87.15,18.602 c 14.5,14.398 32.25,21.597 53.25,21.597 21,0 38.75,-7.199 53.25,-21.597 14.5,-14.403 21.75,-32.102 21.75,-53.1018 0,-21 -7.25,-38.6992 -21.75,-53.0976 -14.5,-14.4024 -32.25,-21.61332 -53.25,-21.61332 -21,0 -38.75,7.21092 -53.25,21.61332 -14.5,14.3984 -21.75,32.0976 -21.75,53.0976 0,20.9998 7.25,38.6988 21.75,53.1018" /><path
         id="path50"
         style="fill:#232221;fill-opacity:1;fill-rule:nonzero;stroke:none"
         d="m 2600.85,149.699 0,-22.801 0.9,0 c 3.4,8.391 8.45,15 15.15,19.801 6.69,4.801 14.44,7.199 23.25,7.199 7.59,0 15,-2.308 22.2,-6.91 l -12.3,-24.597 c -4.41,3.8 -9.9,5.711 -16.5,5.711 -7.01,0 -12.8,-1.461 -17.4,-4.352 -4.61,-2.898 -7.95,-7 -10.05,-12.301 -2.1,-5.308 -3.5,-10.5 -4.2,-15.5974 -0.7,-5.1133 -1.05,-10.961 -1.05,-17.5508 l 0,-69.00002 -27,0 0,140.39822 27,0" /><path
         id="path52"
         style="fill:#232221;fill-opacity:1;fill-rule:nonzero;stroke:none"
         d="m 2827.94,209.699 0,-200.39822 -28.19,0 0,200.39822 -53.7,0 0,25.801 135.6,0 0,-25.801 -53.71,0" /><path
         id="path54"
         style="fill:#232221;fill-opacity:1;fill-rule:nonzero;stroke:none"
         d="m 2900.84,269.699 27,0 0,-138.898 0.6,0 c 4,7.398 9.85,13.097 17.55,17.097 7.7,4 15.95,6 24.75,6 18.4,0 31.3,-5.398 38.7,-16.199 7.4,-10.801 11.1,-25.711 11.1,-44.699 l 0,-83.69922 -27,0 0,80.39842 c 0,13.8008 -1.95,23.9418 -5.85,30.4488 -3.9,6.493 -12.25,9.743 -25.05,9.743 -5.6,0 -10.5,-0.7 -14.7,-2.102 -4.2,-1.391 -7.5,-3.699 -9.9,-6.891 -2.4,-3.199 -4.35,-6.25 -5.85,-9.148 -1.5,-2.898 -2.55,-7 -3.15,-12.3008 -0.6,-5.3086 -0.95,-9.4492 -1.05,-12.4609 -0.1,-2.9883 -0.15,-7.3867 -0.15,-13.1875 l 0,-64.50002 -27,0 0,260.39822" /><path
         id="path56"
         style="fill:#232221;fill-opacity:1;fill-rule:nonzero;stroke:none"
         d="m 3075.44,95.3984 78.6,0 c -1.6,10.8006 -5.8,19.3516 -12.59,25.6526 -6.81,6.301 -15.51,9.449 -26.11,9.449 -10.4,0 -19.25,-3.301 -26.55,-9.898 -7.3,-6.602 -11.75,-15 -13.35,-25.2036 z M 3181.05,75 3073.94,75 c 0.19,-12.6094 4.2,-23.5 12.01,-32.6992 7.79,-9.1992 17.89,-13.8008 30.29,-13.8008 9.8,0 17.85,2.2383 24.15,6.75 6.3,4.5 12.25,11.3398 17.85,20.5508 l 22.81,-12.9024 c -6.61,-12 -15.66,-21.3984 -27.16,-28.1992 -11.51,-6.80076 -24.15,-10.21092 -37.95,-10.21092 -21,0 -37.76,7.01172 -50.25,21.01172 -12.5,13.9883 -18.75,31.6016 -18.75,52.8008 0,22.3982 5.9,40.5972 17.7,54.5972 11.8,14 28.7,21 50.7,21 21.4,0 37.7,-6.949 48.9,-20.847 11.2,-13.91 16.81,-31.86 16.81,-53.8518 l 0,-4.1992" /><path
         id="path58"
         style="fill:#232221;fill-opacity:1;fill-rule:nonzero;stroke:none"
         d="m 3291.13,9.30078 0,237.00022 169.81,-177.9026 0,167.1016 28.2,0 0,-235.5 -169.8,177.898 0,-168.59722 -28.21,0" /><path
         id="path60"
         style="fill:#232221;fill-opacity:1;fill-rule:nonzero;stroke:none"
         d="m 3544.03,95.3984 78.61,0 c -1.6,10.8006 -5.8,19.3516 -12.6,25.6526 -6.81,6.301 -15.51,9.449 -26.1,9.449 -10.4,0 -19.25,-3.301 -26.56,-9.898 -7.3,-6.602 -11.74,-15 -13.35,-25.2036 z M 3649.64,75 l -107.1,0 c 0.19,-12.6094 4.2,-23.5 11.99,-32.6992 7.8,-9.1992 17.9,-13.8008 30.3,-13.8008 9.8,0 17.86,2.2383 24.15,6.75 6.3,4.5 12.25,11.3398 17.86,20.5508 l 22.8,-12.9024 c -6.6,-12 -15.66,-21.3984 -27.16,-28.1992 -11.5,-6.80076 -24.15,-10.21092 -37.95,-10.21092 -20.99,0 -37.75,7.01172 -50.24,21.01172 -12.5,13.9883 -18.75,31.6016 -18.75,52.8008 0,22.3982 5.9,40.5972 17.69,54.5972 11.8,14 28.7,21 50.71,21 21.39,0 37.69,-6.949 48.89,-20.847 11.2,-13.91 16.81,-31.86 16.81,-53.8518 l 0,-4.1992" /><path
         id="path62"
         style="fill:#232221;fill-opacity:1;fill-rule:nonzero;stroke:none"
         d="m 3679.93,149.699 40.8,-89.4099 41.4,97.2109 41.1,-97.2109 40.8,89.4099 30.6,0 -71.4,-145.21072 -41.1,93.91012 -41.4,-93.91012 -71.4,145.21072 30.6,0" /><path
         id="path64"
         style="fill:#232221;fill-opacity:1;fill-rule:nonzero;stroke:none"
         d="m 4038.72,209.699 0,-200.39822 -28.2,0 0,200.39822 -53.7,0 0,25.801 135.6,0 0,-25.801 -53.7,0" /><path
         id="path66"
         style="fill:#232221;fill-opacity:1;fill-rule:nonzero;stroke:none"
         d="m 4099.32,95.3984 78.6,0 c -1.6,10.8006 -5.8,19.3516 -12.6,25.6526 -6.8,6.301 -15.51,9.449 -26.1,9.449 -10.4,0 -19.25,-3.301 -26.55,-9.898 -7.31,-6.602 -11.75,-15 -13.35,-25.2036 z M 4204.92,75 l -107.1,0 c 0.2,-12.6094 4.2,-23.5 11.99,-32.6992 7.81,-9.1992 17.91,-13.8008 30.31,-13.8008 9.79,0 17.85,2.2383 24.15,6.75 6.3,4.5 12.24,11.3398 17.85,20.5508 l 22.8,-12.9024 c -6.6,-12 -15.65,-21.3984 -27.16,-28.1992 -11.5,-6.80076 -24.15,-10.21092 -37.95,-10.21092 -20.99,0 -37.75,7.01172 -50.24,21.01172 -12.5,13.9883 -18.75,31.6016 -18.75,52.8008 0,22.3982 5.9,40.5972 17.7,54.5972 11.79,14 28.7,21 50.7,21 21.4,0 37.69,-6.949 48.9,-20.847 11.2,-13.91 16.8,-31.86 16.8,-53.8518 l 0,-4.1992" /><path
         id="path68"
         style="fill:#232221;fill-opacity:1;fill-rule:nonzero;stroke:none"
         d="m 4331.21,144.602 0,-34.801 c -10.99,12.59 -24.4,18.898 -40.19,18.898 -13.01,0 -24.06,-4.91 -33.16,-14.699 -9.1,-9.801 -13.64,-21.3008 -13.64,-34.5117 0,-14.3867 4.54,-26.2891 13.64,-35.6875 9.1,-9.4024 20.75,-14.1016 34.95,-14.1016 14.6,0 27.41,6.1992 38.4,18.6016 l 0,-34.5 c -11.6,-6.19924 -24.5,-9.31252 -38.7,-9.31252 -20.8,0 -38.54,7.10152 -53.24,21.31252 -14.71,14.1992 -22.05,31.6875 -22.05,52.5 0,21.5898 7.34,39.5972 22.05,54.0002 14.7,14.398 32.95,21.597 54.74,21.597 14.2,0 26.61,-3.109 37.2,-9.296" /><path
         id="path70"
         style="fill:#232221;fill-opacity:1;fill-rule:nonzero;stroke:none"
         d="m 4360.32,269.699 26.99,0 0,-138.898 0.61,0 c 3.99,7.398 9.84,13.097 17.55,17.097 7.69,4 15.95,6 24.75,6 18.39,0 31.29,-5.398 38.7,-16.199 7.4,-10.801 11.1,-25.711 11.1,-44.699 l 0,-83.69922 -27,0 0,80.39842 c 0,13.8008 -1.96,23.9418 -5.85,30.4488 -3.9,6.493 -12.26,9.743 -25.05,9.743 -5.61,0 -10.5,-0.7 -14.7,-2.102 -4.2,-1.391 -7.5,-3.699 -9.9,-6.891 -2.4,-3.199 -4.36,-6.25 -5.85,-9.148 -1.5,-2.898 -2.55,-7 -3.15,-12.3008 -0.6,-5.3086 -0.95,-9.4492 -1.05,-12.4609 -0.11,-2.9883 -0.16,-7.3867 -0.16,-13.1875 l 0,-64.50002 -26.99,0 0,260.39822" /><path
         id="path72"
         style="fill:#232221;fill-opacity:1;fill-rule:nonzero;stroke:none"
         d="m 4635.12,210.289 0,-81.891 8.99,0 c 8.2,0 15.45,0.5 21.75,1.493 6.3,1.007 12.55,2.859 18.75,5.558 6.2,2.699 11,6.942 14.4,12.75 3.4,5.801 5.1,12.992 5.1,21.602 0,27 -20.5,40.488 -61.49,40.488 l -7.5,0 z m 41.09,-102.59 71.41,-98.39822 -34.21,0 -66.59,95.69922 -11.7,0 0,-95.69922 -28.21,0 0,226.19922 34.2,0 c 8.6,0 15.55,-0.148 20.85,-0.449 5.3,-0.301 11.7,-1.25 19.2,-2.852 7.5,-1.597 14.06,-4 19.65,-7.199 9.2,-5.398 16.46,-13.012 21.75,-22.801 5.3,-9.808 7.95,-20.211 7.95,-31.199 0,-16.398 -5,-30.559 -15,-42.449 -10,-11.91 -23.1,-18.852 -39.3,-20.852" /><path
         id="path74"
         style="fill:#232221;fill-opacity:1;fill-rule:nonzero;stroke:none"
         d="m 4784.51,95.3984 78.61,0 c -1.61,10.8006 -5.81,19.3516 -12.6,25.6526 -6.81,6.301 -15.51,9.449 -26.11,9.449 -10.4,0 -19.24,-3.301 -26.55,-9.898 -7.3,-6.602 -11.75,-15 -13.35,-25.2036 z M 4890.12,75 l -107.1,0 c 0.19,-12.6094 4.2,-23.5 11.99,-32.6992 7.8,-9.1992 17.9,-13.8008 30.3,-13.8008 9.8,0 17.85,2.2383 24.15,6.75 6.3,4.5 12.25,11.3398 17.85,20.5508 l 22.81,-12.9024 c -6.6,-12 -15.66,-21.3984 -27.16,-28.1992 -11.5,-6.80076 -24.15,-10.21092 -37.95,-10.21092 -21,0 -37.75,7.01172 -50.24,21.01172 -12.5,13.9883 -18.75,31.6016 -18.75,52.8008 0,22.3982 5.89,40.5972 17.69,54.5972 11.8,14 28.7,21 50.7,21 21.4,0 37.7,-6.949 48.9,-20.847 11.2,-13.91 16.81,-31.86 16.81,-53.8518 l 0,-4.1992" /><path
         id="path76"
         style="fill:#232221;fill-opacity:1;fill-rule:nonzero;stroke:none"
         d="m 4921.01,149.699 40.2,-87.5974 40.5,87.5974 30.3,0 -70.8,-145.21072 -70.5,145.21072 30.3,0" /><path
         id="path78"
         style="fill:#232221;fill-opacity:1;fill-rule:nonzero;stroke:none"
         d="m 5143.01,113.699 c -9.41,9.602 -20.71,14.403 -33.91,14.403 -13.19,0 -24.5,-4.801 -33.89,-14.403 -9.41,-9.597 -14.11,-21.0974 -14.11,-34.4998 0,-13.1992 4.7,-24.6601 14.11,-34.3476 9.39,-9.7032 20.7,-14.5625 33.89,-14.5625 13.2,0 24.5,4.8593 33.91,14.5625 9.39,9.6875 14.1,21.1484 14.1,34.3476 0,13.4024 -4.71,24.9028 -14.1,34.4998 z m -87.15,18.602 c 14.49,14.398 32.25,21.597 53.24,21.597 21.01,0 38.75,-7.199 53.25,-21.597 14.51,-14.403 21.75,-32.102 21.75,-53.1018 0,-21 -7.24,-38.6992 -21.75,-53.0976 -14.5,-14.4024 -32.24,-21.61332 -53.25,-21.61332 -20.99,0 -38.75,7.21092 -53.24,21.61332 -14.51,14.3984 -21.76,32.0976 -21.76,53.0976 0,20.9998 7.25,38.6988 21.76,53.1018" /><path
         id="path80"
         style="fill:#232221;fill-opacity:1;fill-rule:nonzero;stroke:none"
         d="m 5209.91,9.30078 26.9883,0 0,260.398 -26.9883,0 0,-260.398 z" /><path
         id="path82"
         style="fill:#232221;fill-opacity:1;fill-rule:nonzero;stroke:none"
         d="m 5274.1,149.699 27,0 0,-77.7107 c 0,-12.9883 2.35,-23.2969 7.04,-30.8867 4.7,-7.6016 13.16,-11.4024 25.36,-11.4024 12.19,0 20.65,3.8008 25.35,11.4024 4.69,7.5898 7.05,17.8984 7.05,30.8867 l 0,77.7107 27,0 0,-80.699 c 0,-20 -4.9,-35.7617 -14.7,-47.25 -9.8,-11.5 -24.7,-17.26172 -44.7,-17.26172 -20,0 -34.91,5.76172 -44.7,17.26172 -9.81,11.4883 -14.7,27.25 -14.7,47.25 l 0,80.699" /><path
         id="path84"
         style="fill:#232221;fill-opacity:1;fill-rule:nonzero;stroke:none"
         d="m 5459.79,124.488 0,-115.18722 -27,0 0,115.18722 -14.69,0 0,25.211 14.69,0 0,53.699 27,0 0,-53.699 26.4,0 0,-25.211 -26.4,0" /><path
         id="path86"
         style="fill:#232221;fill-opacity:1;fill-rule:nonzero;stroke:none"
         d="m 5533.9,149.699 0,-140.39822 -27.01,0 0,140.39822 27.01,0 z m -26.7,77.551 c 3.59,3.699 8,5.539 13.19,5.539 5.21,0 9.6,-1.84 13.2,-5.539 3.61,-3.699 5.4,-8.16 5.4,-13.352 0,-5 -1.79,-9.296 -5.4,-12.898 -3.6,-3.609 -7.99,-5.398 -13.2,-5.398 -5.19,0 -9.6,1.789 -13.19,5.398 -3.61,3.602 -5.4,7.898 -5.4,12.898 0,5.192 1.79,9.653 5.4,13.352" /><path
         id="path88"
         style="fill:#232221;fill-opacity:1;fill-rule:nonzero;stroke:none"
         d="m 5673.4,113.699 c -9.41,9.602 -20.7,14.403 -33.91,14.403 -13.19,0 -24.5,-4.801 -33.89,-14.403 -9.41,-9.597 -14.11,-21.0974 -14.11,-34.4998 0,-13.1992 4.7,-24.6601 14.11,-34.3476 9.39,-9.7032 20.7,-14.5625 33.89,-14.5625 13.21,0 24.5,4.8593 33.91,14.5625 9.39,9.6875 14.1,21.1484 14.1,34.3476 0,13.4024 -4.71,24.9028 -14.1,34.4998 z m -87.15,18.602 c 14.49,14.398 32.25,21.597 53.24,21.597 21.01,0 38.75,-7.199 53.25,-21.597 14.51,-14.403 21.75,-32.102 21.75,-53.1018 0,-21 -7.24,-38.6992 -21.75,-53.0976 -14.5,-14.4024 -32.24,-21.61332 -53.25,-21.61332 -20.99,0 -38.75,7.21092 -53.24,21.61332 -14.51,14.3984 -21.76,32.0976 -21.76,53.0976 0,20.9998 7.25,38.6988 21.76,53.1018" /><path
         id="path90"
         style="fill:#232221;fill-opacity:1;fill-rule:nonzero;stroke:none"
         d="m 5766.08,149.699 0,-18.898 0.61,0 c 3.99,7.398 9.84,13.097 17.55,17.097 7.69,4 15.95,6 24.74,6 18.4,0 31.3,-5.398 38.71,-16.199 7.4,-10.801 11.1,-25.711 11.1,-44.699 l 0,-83.69922 -27,0 0,80.39842 c 0,13.8008 -1.96,23.9418 -5.85,30.4488 -3.9,6.493 -12.26,9.743 -25.05,9.743 -5.61,0 -10.5,-0.7 -14.7,-2.102 -4.2,-1.391 -7.5,-3.699 -9.9,-6.891 -2.4,-3.199 -4.36,-6.25 -5.85,-9.148 -1.5,-2.898 -2.55,-7 -3.15,-12.3008 -0.6,-5.3086 -0.95,-9.4492 -1.05,-12.4609 -0.11,-2.9883 -0.16,-7.3867 -0.16,-13.1875 l 0,-64.50002 -26.99,0 0,140.39822 26.99,0" /></g></g></svg>