<?xml version="1.0" encoding="UTF-8" standalone="no"?>
<!-- Created with Inkscape (http://www.inkscape.org/) -->

<svg
   xmlns:dc="http://purl.org/dc/elements/1.1/"
   xmlns:cc="http://creativecommons.org/ns#"
   xmlns:rdf="http://www.w3.org/1999/02/22-rdf-syntax-ns#"
   xmlns:svg="http://www.w3.org/2000/svg"
   xmlns="http://www.w3.org/2000/svg"
   xmlns:sodipodi="http://sodipodi.sourceforge.net/DTD/sodipodi-0.dtd"
   xmlns:inkscape="http://www.inkscape.org/namespaces/inkscape"
   width="200"
   height="80"
   viewBox="0 0 200 80.000001"
   id="svg3802"
   version="1.1"
   inkscape:version="0.91 r13725"
   sodipodi:docname="vnet.svg">
  <defs
     id="defs3804" />
  <sodipodi:namedview
     id="base"
     pagecolor="#ffffff"
     bordercolor="#666666"
     borderopacity="1.0"
     inkscape:pageopacity="0.0"
     inkscape:pageshadow="2"
     inkscape:zoom="4.0848044"
     inkscape:cx="73.149476"
     inkscape:cy="42.259549"
     inkscape:document-units="px"
     inkscape:current-layer="layer1"
     showgrid="false"
     units="px"
     inkscape:window-width="1600"
     inkscape:window-height="836"
     inkscape:window-x="0"
     inkscape:window-y="27"
     inkscape:window-maximized="1" />
  <metadata
     id="metadata3807">
    <rdf:RDF>
      <cc:Work
         rdf:about="">
        <dc:format>image/svg+xml</dc:format>
        <dc:type
           rdf:resource="http://purl.org/dc/dcmitype/StillImage" />
        <dc:title></dc:title>
      </cc:Work>
    </rdf:RDF>
  </metadata>
  <g
     inkscape:label="Layer 1"
     inkscape:groupmode="layer"
     id="layer1"
     transform="translate(0,-972.36216)">
    <g
       transform="matrix(1.0226539,0,0,-1.0226539,-352.51346,1769.2343)"
       id="g4267">
      <path
         inkscape:connector-curvature="0"
         id="path92"
         style="fill:#25346e;fill-opacity:1;fill-rule:nonzero;stroke:none"
         d="m 507.61735,750.2644 c 0,1.312 -0.447,2.418 -1.338,3.314 -0.89,0.9 -1.986,1.347 -3.289,1.347 -1.301,0 -2.4,-0.447 -3.291,-1.347 -0.89,-0.896 -1.334,-2.002 -1.334,-3.314 l 0,-4.766 9.279,0 -0.027,4.766 z m 9.455,-14.194 -18.707,0 0,-4.589 c 0,-1.293 0.442,-2.399 1.324,-3.313 0.885,-0.92 1.971,-1.378 3.264,-1.378 1.291,0 2.397,0.462 3.315,1.385 0.917,0.92 1.376,2.029 1.376,3.327 l 9.428,0 c 0,-3.853 -1.375,-7.174 -4.123,-9.957 -2.748,-2.79 -6.08,-4.18 -9.996,-4.18 -3.848,0 -7.144,1.39 -9.893,4.181 -2.75,2.787 -4.123,6.107 -4.123,9.965 l 0,18.799 c 0,3.849 1.373,7.155 4.123,9.91 2.749,2.753 6.045,4.134 9.893,4.134 3.916,0 7.248,-1.384 9.996,-4.147 2.748,-2.763 4.123,-6.076 4.123,-9.943 l 0,-14.194 z" />
      <path
         inkscape:connector-curvature="0"
         id="path94"
         style="fill:#25346e;fill-opacity:1;fill-rule:nonzero;stroke:none"
         d="m 539.69535,726.7904 0,-9.425 -4.644,0 c -3.854,0 -7.153,1.374 -9.907,4.128 -2.751,2.751 -4.126,6.056 -4.126,9.912 l 0,42.225 9.285,0 0,-13.998 9.392,0 0,-9.42 -9.392,0 0,-18.778 c 0,-1.308 0.465,-2.408 1.394,-3.302 0.93,-0.894 2.045,-1.342 3.354,-1.342 l 4.644,0 z" />
      <path
         inkscape:connector-curvature="0"
         id="path96"
         style="fill:#7b7979;fill-opacity:1;fill-rule:nonzero;stroke:none"
         d="m 369.16435,751.8164 c 0,-13.818 15.537,-25.937 38.887,-32.745 6.008,5.695 9.742,13.665 9.742,22.488 0,17.31 -14.371,31.343 -32.102,31.343 -1.134,0 -2.254,-0.059 -3.357,-0.169 -8.332,-6.026 -13.17,-13.208 -13.17,-20.917" />
      <path
         inkscape:connector-curvature="0"
         id="path98"
         style="fill:#25346e;fill-opacity:1;fill-rule:nonzero;stroke:none"
         d="m 363.08635,751.9274 c 0,8.81 5.529,17.016 15.051,23.903 -18.459,-1.874 -32.854,-17.109 -32.854,-35.628 0,-19.782 16.428,-35.821 36.692,-35.821 9.933,0 18.945,3.858 25.552,10.12 -26.683,7.781 -44.441,21.634 -44.441,37.426" />
      <path
         inkscape:connector-curvature="0"
         id="path100"
         style="fill:#25346e;fill-opacity:1;fill-rule:nonzero;stroke:none"
         d="m 485.25635,717.3654 -9.322,0 0,32.78 c 0,1.304 -0.45,2.405 -1.348,3.298 -0.897,0.893 -2.002,1.339 -3.315,1.339 -1.314,0 -2.435,-0.446 -3.367,-1.339 -0.933,-0.893 -1.398,-1.994 -1.398,-3.298 l 0,-32.78 -9.426,0 0,32.807 c 0,3.853 1.373,7.153 4.125,9.906 2.754,2.751 6.09,4.127 10.014,4.127 3.851,0 7.154,-1.376 9.906,-4.127 2.754,-2.753 4.131,-6.053 4.131,-9.906 l 0,-32.807 z" />
      <path
         inkscape:connector-curvature="0"
         id="path102"
         style="fill:#7b7979;fill-opacity:1;fill-rule:nonzero;stroke:none"
         d="m 443.76835,763.2414 0,-30.734 c 0.064,-0.395 -0.057,-0.811 -0.374,-1.114 l -2.996,-2.873 c -0.527,-0.505 -1.379,-0.505 -1.902,0 l -3.141,3.008 c -0.314,0.304 -0.437,0.717 -0.373,1.111 l 0,30.602 -9.677,0 0,-32.543 0.045,0 c 0.082,-0.933 0.494,-1.842 1.236,-2.556 l 9.99,-9.578 c 1.67,-1.602 4.381,-1.602 6.051,0 l 9.535,9.142 c 0.859,0.824 1.273,1.912 1.248,2.992 l 0.031,0 0,32.543 -9.673,0 z" />
      <path
         inkscape:connector-curvature="0"
         id="path104"
         style="fill:#231f20;fill-opacity:1;fill-rule:nonzero;stroke:none"
         d="m 427.49035,704.5434 c -0.796,0 -1.193,0.559 -1.193,1.251 l 0,2.861 -0.588,0 0,0.522 0.588,0 0,1.459 0.681,0 0,-1.459 0.996,0 0,-0.522 -0.996,0 0,-2.843 c 0,-0.426 0.2,-0.682 0.635,-0.682 l 0.361,0 0,-0.587 -0.484,0 z" />
      <path
         inkscape:connector-curvature="0"
         id="path106"
         style="fill:#231f20;fill-opacity:1;fill-rule:nonzero;stroke:none"
         d="m 431.75435,707.9834 c -0.18,0.426 -0.597,0.701 -1.089,0.701 -0.494,0 -0.91,-0.275 -1.091,-0.701 -0.103,-0.256 -0.122,-0.398 -0.141,-0.778 l 2.463,0 c -0.019,0.38 -0.038,0.522 -0.142,0.778 m -2.321,-1.289 c 0,-1.024 0.483,-1.611 1.374,-1.611 0.54,0 0.853,0.161 1.222,0.53 l 0.464,-0.407 c -0.474,-0.474 -0.909,-0.721 -1.705,-0.721 -1.232,0 -2.038,0.74 -2.038,2.389 0,1.506 0.729,2.388 1.915,2.388 1.203,0 1.914,-0.872 1.914,-2.256 l 0,-0.312 -3.146,0 z" />
      <path
         inkscape:connector-curvature="0"
         id="path108"
         style="fill:#231f20;fill-opacity:1;fill-rule:nonzero;stroke:none"
         d="m 434.94735,704.5434 c -0.814,0 -1.183,0.53 -1.183,1.241 l 0,5.506 0.682,0 0,-5.478 c 0,-0.454 0.152,-0.682 0.625,-0.682 l 0.37,0 0,-0.587 -0.494,0 z" />
      <path
         inkscape:connector-curvature="0"
         id="path110"
         style="fill:#231f20;fill-opacity:1;fill-rule:nonzero;stroke:none"
         d="m 438.86235,707.9834 c -0.178,0.426 -0.596,0.701 -1.089,0.701 -0.494,0 -0.91,-0.275 -1.09,-0.701 -0.104,-0.256 -0.123,-0.398 -0.142,-0.778 l 2.464,0 c -0.019,0.38 -0.038,0.522 -0.143,0.778 m -2.321,-1.289 c 0,-1.024 0.483,-1.611 1.374,-1.611 0.54,0 0.853,0.161 1.222,0.53 l 0.465,-0.407 c -0.474,-0.474 -0.91,-0.721 -1.706,-0.721 -1.232,0 -2.038,0.74 -2.038,2.389 0,1.506 0.73,2.388 1.915,2.388 1.204,0 1.914,-0.872 1.914,-2.256 l 0,-0.312 -3.146,0 z" />
      <path
         inkscape:connector-curvature="0"
         id="path112"
         style="fill:#231f20;fill-opacity:1;fill-rule:nonzero;stroke:none"
         d="m 442.70135,704.4854 c -1.176,0 -2.066,0.796 -2.066,2.389 0,1.591 0.89,2.388 2.066,2.388 0.645,0 1.052,-0.171 1.535,-0.692 l -0.465,-0.436 c -0.35,0.389 -0.625,0.521 -1.07,0.521 -0.455,0 -0.834,-0.179 -1.08,-0.53 -0.218,-0.304 -0.304,-0.663 -0.304,-1.251 0,-0.588 0.086,-0.948 0.304,-1.251 0.246,-0.351 0.625,-0.531 1.08,-0.531 0.445,0 0.72,0.142 1.07,0.531 l 0.465,-0.446 c -0.483,-0.521 -0.89,-0.692 -1.535,-0.692" />
      <path
         inkscape:connector-curvature="0"
         id="path114"
         style="fill:#231f20;fill-opacity:1;fill-rule:nonzero;stroke:none"
         d="m 447.65835,708.3154 c -0.219,0.217 -0.521,0.34 -0.852,0.34 -0.332,0 -0.626,-0.123 -0.844,-0.34 -0.342,-0.342 -0.38,-0.92 -0.38,-1.441 0,-0.521 0.038,-1.099 0.38,-1.441 0.218,-0.218 0.512,-0.341 0.844,-0.341 0.331,0 0.633,0.123 0.852,0.341 0.341,0.342 0.369,0.92 0.369,1.441 0,0.521 -0.028,1.099 -0.369,1.441 m 0.484,-3.299 c -0.323,-0.322 -0.769,-0.531 -1.336,-0.531 -0.57,0 -1.015,0.209 -1.337,0.531 -0.474,0.484 -0.569,1.138 -0.569,1.858 0,0.72 0.095,1.374 0.569,1.857 0.322,0.322 0.767,0.531 1.337,0.531 0.567,0 1.013,-0.209 1.336,-0.531 0.473,-0.483 0.568,-1.137 0.568,-1.857 0,-0.72 -0.095,-1.374 -0.568,-1.858" />
      <path
         inkscape:connector-curvature="0"
         id="path116"
         style="fill:#231f20;fill-opacity:1;fill-rule:nonzero;stroke:none"
         d="m 455.91235,704.5434 0,2.871 c 0,0.824 -0.445,1.241 -1.146,1.241 -0.682,0 -1.166,-0.426 -1.166,-1.165 l 0,-2.947 -0.682,0 0,2.871 c 0,0.824 -0.446,1.241 -1.147,1.241 -0.702,0 -1.166,-0.426 -1.166,-1.241 l 0,-2.871 -0.682,0 0,4.662 0.682,0 0,-0.512 c 0.331,0.38 0.796,0.569 1.318,0.569 0.644,0 1.146,-0.265 1.43,-0.777 0.361,0.512 0.882,0.777 1.536,0.777 0.502,0 0.92,-0.161 1.204,-0.436 0.331,-0.322 0.502,-0.758 0.502,-1.298 l 0,-2.985 -0.683,0 z" />
      <path
         inkscape:connector-curvature="0"
         id="path118"
         style="fill:#231f20;fill-opacity:1;fill-rule:nonzero;stroke:none"
         d="m 463.99635,704.5434 0,2.871 c 0,0.824 -0.445,1.241 -1.146,1.241 -0.682,0 -1.166,-0.426 -1.166,-1.165 l 0,-2.947 -0.682,0 0,2.871 c 0,0.824 -0.446,1.241 -1.147,1.241 -0.702,0 -1.166,-0.426 -1.166,-1.241 l 0,-2.871 -0.682,0 0,4.662 0.682,0 0,-0.512 c 0.331,0.38 0.796,0.569 1.318,0.569 0.644,0 1.146,-0.265 1.43,-0.777 0.361,0.512 0.882,0.777 1.536,0.777 0.502,0 0.92,-0.161 1.204,-0.436 0.331,-0.322 0.501,-0.758 0.501,-1.298 l 0,-2.985 -0.682,0 z" />
      <path
         inkscape:connector-curvature="0"
         id="path120"
         style="fill:#231f20;fill-opacity:1;fill-rule:nonzero;stroke:none"
         d="m 469.03835,704.5434 0,0.521 c -0.332,-0.38 -0.796,-0.579 -1.317,-0.579 -0.502,0 -0.919,0.152 -1.204,0.436 -0.332,0.323 -0.474,0.768 -0.474,1.308 l 0,2.976 0.683,0 0,-2.871 c 0,-0.825 0.436,-1.242 1.137,-1.242 0.701,0 1.165,0.426 1.165,1.242 l 0,2.871 0.683,0 0,-4.662 -0.673,0 z" />
      <path
         inkscape:connector-curvature="0"
         id="path122"
         style="fill:#231f20;fill-opacity:1;fill-rule:nonzero;stroke:none"
         d="m 474.15535,704.5434 0,2.871 c 0,0.824 -0.446,1.241 -1.146,1.241 -0.702,0 -1.157,-0.426 -1.157,-1.241 l 0,-2.871 -0.682,0 0,4.662 0.682,0 0,-0.512 c 0.332,0.38 0.787,0.569 1.308,0.569 0.502,0 0.91,-0.152 1.194,-0.436 0.331,-0.322 0.483,-0.758 0.483,-1.298 l 0,-2.985 -0.682,0 z" />
      <path
         inkscape:connector-curvature="0"
         id="path124"
         style="fill:#231f20;fill-opacity:1;fill-rule:nonzero;stroke:none"
         d="m 476.25035,709.2054 0.682,0 0,-4.663 -0.682,0 0,4.663 z m -0.038,2.094 0.768,0 0,-0.768 -0.768,0 0,0.768 z" />
      <path
         inkscape:connector-curvature="0"
         id="path126"
         style="fill:#231f20;fill-opacity:1;fill-rule:nonzero;stroke:none"
         d="m 480.21135,704.4854 c -1.176,0 -2.067,0.796 -2.067,2.389 0,1.591 0.891,2.388 2.067,2.388 0.644,0 1.052,-0.171 1.535,-0.692 l -0.465,-0.436 c -0.35,0.389 -0.625,0.521 -1.07,0.521 -0.455,0 -0.834,-0.179 -1.08,-0.53 -0.218,-0.304 -0.304,-0.663 -0.304,-1.251 0,-0.588 0.086,-0.948 0.304,-1.251 0.246,-0.351 0.625,-0.531 1.08,-0.531 0.445,0 0.72,0.142 1.07,0.531 l 0.465,-0.446 c -0.483,-0.521 -0.891,-0.692 -1.535,-0.692" />
      <path
         inkscape:connector-curvature="0"
         id="path128"
         style="fill:#231f20;fill-opacity:1;fill-rule:nonzero;stroke:none"
         d="m 485.32935,706.6944 -1.309,0 c -0.701,0 -1.042,-0.285 -1.042,-0.825 0,-0.54 0.332,-0.796 1.071,-0.796 0.398,0 0.749,0.029 1.043,0.313 0.161,0.152 0.237,0.417 0.237,0.805 l 0,0.503 z m 0,-2.151 0,0.445 c -0.38,-0.379 -0.721,-0.503 -1.347,-0.503 -0.643,0 -1.023,0.124 -1.316,0.427 -0.229,0.227 -0.352,0.578 -0.352,0.948 0,0.814 0.57,1.345 1.613,1.345 l 1.402,0 0,0.446 c 0,0.682 -0.342,1.023 -1.194,1.023 -0.597,0 -0.901,-0.142 -1.176,-0.53 l -0.464,0.426 c 0.417,0.54 0.891,0.692 1.649,0.692 1.251,0 1.867,-0.54 1.867,-1.554 l 0,-3.165 -0.682,0 z" />
      <path
         inkscape:connector-curvature="0"
         id="path130"
         style="fill:#231f20;fill-opacity:1;fill-rule:nonzero;stroke:none"
         d="m 488.73035,704.5434 c -0.795,0 -1.193,0.559 -1.193,1.251 l 0,2.861 -0.588,0 0,0.522 0.588,0 0,1.459 0.682,0 0,-1.459 0.995,0 0,-0.522 -0.995,0 0,-2.843 c 0,-0.426 0.199,-0.682 0.634,-0.682 l 0.361,0 0,-0.587 -0.484,0 z" />
      <path
         inkscape:connector-curvature="0"
         id="path132"
         style="fill:#231f20;fill-opacity:1;fill-rule:nonzero;stroke:none"
         d="m 490.32335,709.2054 0.682,0 0,-4.663 -0.682,0 0,4.663 z m -0.039,2.094 0.769,0 0,-0.768 -0.769,0 0,0.768 z" />
      <path
         inkscape:connector-curvature="0"
         id="path134"
         style="fill:#231f20;fill-opacity:1;fill-rule:nonzero;stroke:none"
         d="m 494.98535,708.3154 c -0.218,0.217 -0.521,0.34 -0.853,0.34 -0.331,0 -0.626,-0.123 -0.844,-0.34 -0.341,-0.342 -0.379,-0.92 -0.379,-1.441 0,-0.521 0.038,-1.099 0.379,-1.441 0.218,-0.218 0.513,-0.341 0.844,-0.341 0.332,0 0.635,0.123 0.853,0.341 0.341,0.342 0.369,0.92 0.369,1.441 0,0.521 -0.028,1.099 -0.369,1.441 m 0.483,-3.299 c -0.323,-0.322 -0.768,-0.531 -1.336,-0.531 -0.569,0 -1.014,0.209 -1.336,0.531 -0.474,0.484 -0.569,1.138 -0.569,1.858 0,0.72 0.095,1.374 0.569,1.857 0.322,0.322 0.767,0.531 1.336,0.531 0.568,0 1.013,-0.209 1.336,-0.531 0.473,-0.483 0.569,-1.137 0.569,-1.857 0,-0.72 -0.096,-1.374 -0.569,-1.858" />
      <path
         inkscape:connector-curvature="0"
         id="path136"
         style="fill:#231f20;fill-opacity:1;fill-rule:nonzero;stroke:none"
         d="m 500.23535,704.5434 0,2.871 c 0,0.824 -0.446,1.241 -1.146,1.241 -0.702,0 -1.157,-0.426 -1.157,-1.241 l 0,-2.871 -0.682,0 0,4.662 0.682,0 0,-0.512 c 0.332,0.38 0.787,0.569 1.308,0.569 0.502,0 0.91,-0.152 1.195,-0.436 0.331,-0.322 0.482,-0.758 0.482,-1.298 l 0,-2.985 -0.682,0 z" />
      <path
         inkscape:connector-curvature="0"
         id="path138"
         style="fill:#231f20;fill-opacity:1;fill-rule:nonzero;stroke:none"
         d="m 505.91235,704.4854 c -0.787,0 -1.402,0.181 -1.914,0.674 l 0.455,0.454 c 0.369,-0.388 0.871,-0.54 1.449,-0.54 0.768,0 1.242,0.275 1.242,0.825 0,0.407 -0.237,0.635 -0.777,0.682 l -0.767,0.066 c -0.91,0.076 -1.394,0.483 -1.394,1.251 0,0.853 0.721,1.365 1.716,1.365 0.663,0 1.26,-0.161 1.677,-0.503 l -0.445,-0.444 c -0.332,0.255 -0.759,0.369 -1.242,0.369 -0.682,0 -1.043,-0.294 -1.043,-0.767 0,-0.399 0.229,-0.636 0.816,-0.683 l 0.749,-0.066 c 0.814,-0.076 1.374,-0.389 1.374,-1.261 0,-0.9 -0.768,-1.422 -1.896,-1.422" />
      <path
         inkscape:connector-curvature="0"
         id="path140"
         style="fill:#231f20;fill-opacity:1;fill-rule:nonzero;stroke:none"
         d="m 537.79035,704.4854 c -0.787,0 -1.402,0.181 -1.915,0.674 l 0.455,0.454 c 0.37,-0.388 0.872,-0.54 1.45,-0.54 0.768,0 1.242,0.275 1.242,0.825 0,0.407 -0.237,0.635 -0.777,0.682 l -0.768,0.066 c -0.91,0.076 -1.393,0.483 -1.393,1.251 0,0.853 0.72,1.365 1.715,1.365 0.664,0 1.261,-0.161 1.678,-0.503 l -0.446,-0.444 c -0.331,0.255 -0.759,0.369 -1.241,0.369 -0.683,0 -1.043,-0.294 -1.043,-0.767 0,-0.399 0.228,-0.636 0.815,-0.683 l 0.749,-0.066 c 0.815,-0.076 1.374,-0.389 1.374,-1.261 0,-0.9 -0.767,-1.422 -1.895,-1.422" />
      <path
         inkscape:connector-curvature="0"
         id="path142"
         style="fill:#231f20;fill-opacity:1;fill-rule:nonzero;stroke:none"
         d="m 511.40935,708.3154 c -0.219,0.217 -0.521,0.34 -0.853,0.34 -0.331,0 -0.626,-0.123 -0.844,-0.34 -0.341,-0.342 -0.379,-0.92 -0.379,-1.441 0,-0.521 0.038,-1.099 0.379,-1.441 0.218,-0.218 0.513,-0.341 0.844,-0.341 0.332,0 0.634,0.123 0.853,0.341 0.341,0.342 0.369,0.92 0.369,1.441 0,0.521 -0.028,1.099 -0.369,1.441 m 0.483,-3.299 c -0.323,-0.322 -0.768,-0.531 -1.336,-0.531 -0.57,0 -1.014,0.209 -1.336,0.531 -0.474,0.484 -0.57,1.138 -0.57,1.858 0,0.72 0.096,1.374 0.57,1.857 0.322,0.322 0.766,0.531 1.336,0.531 0.568,0 1.013,-0.209 1.336,-0.531 0.473,-0.483 0.569,-1.137 0.569,-1.857 0,-0.72 -0.096,-1.374 -0.569,-1.858" />
      <path
         inkscape:connector-curvature="0"
         id="path144"
         style="fill:#231f20;fill-opacity:1;fill-rule:nonzero;stroke:none"
         d="m 514.83935,704.5434 c -0.815,0 -1.184,0.53 -1.184,1.241 l 0,5.506 0.682,0 0,-5.478 c 0,-0.454 0.151,-0.682 0.625,-0.682 l 0.37,0 0,-0.587 -0.493,0 z" />
      <path
         inkscape:connector-curvature="0"
         id="path146"
         style="fill:#231f20;fill-opacity:1;fill-rule:nonzero;stroke:none"
         d="m 519.18835,704.5434 0,0.521 c -0.332,-0.38 -0.796,-0.579 -1.317,-0.579 -0.502,0 -0.919,0.152 -1.204,0.436 -0.331,0.323 -0.474,0.768 -0.474,1.308 l 0,2.976 0.683,0 0,-2.871 c 0,-0.825 0.435,-1.242 1.138,-1.242 0.701,0 1.165,0.426 1.165,1.242 l 0,2.871 0.682,0 0,-4.662 -0.673,0 z" />
      <path
         inkscape:connector-curvature="0"
         id="path148"
         style="fill:#231f20;fill-opacity:1;fill-rule:nonzero;stroke:none"
         d="m 522.62935,704.5434 c -0.796,0 -1.194,0.559 -1.194,1.251 l 0,2.861 -0.587,0 0,0.522 0.587,0 0,1.459 0.682,0 0,-1.459 0.995,0 0,-0.522 -0.995,0 0,-2.843 c 0,-0.426 0.199,-0.682 0.635,-0.682 l 0.36,0 0,-0.587 -0.483,0 z" />
      <path
         inkscape:connector-curvature="0"
         id="path150"
         style="fill:#231f20;fill-opacity:1;fill-rule:nonzero;stroke:none"
         d="m 524.22135,709.2054 0.682,0 0,-4.663 -0.682,0 0,4.663 z m -0.039,2.094 0.769,0 0,-0.768 -0.769,0 0,0.768 z" />
      <path
         inkscape:connector-curvature="0"
         id="path152"
         style="fill:#231f20;fill-opacity:1;fill-rule:nonzero;stroke:none"
         d="m 528.88435,708.3154 c -0.219,0.217 -0.522,0.34 -0.854,0.34 -0.331,0 -0.626,-0.123 -0.844,-0.34 -0.34,-0.342 -0.378,-0.92 -0.378,-1.441 0,-0.521 0.038,-1.099 0.378,-1.441 0.218,-0.218 0.513,-0.341 0.844,-0.341 0.332,0 0.635,0.123 0.854,0.341 0.341,0.342 0.369,0.92 0.369,1.441 0,0.521 -0.028,1.099 -0.369,1.441 m 0.483,-3.299 c -0.323,-0.322 -0.768,-0.531 -1.337,-0.531 -0.568,0 -1.013,0.209 -1.336,0.531 -0.473,0.484 -0.568,1.138 -0.568,1.858 0,0.72 0.095,1.374 0.568,1.857 0.323,0.322 0.768,0.531 1.336,0.531 0.569,0 1.014,-0.209 1.337,-0.531 0.474,-0.483 0.568,-1.137 0.568,-1.857 0,-0.72 -0.094,-1.374 -0.568,-1.858" />
      <path
         inkscape:connector-curvature="0"
         id="path154"
         style="fill:#231f20;fill-opacity:1;fill-rule:nonzero;stroke:none"
         d="m 534.13435,704.5434 0,2.871 c 0,0.824 -0.446,1.241 -1.147,1.241 -0.702,0 -1.157,-0.426 -1.157,-1.241 l 0,-2.871 -0.682,0 0,4.662 0.682,0 0,-0.512 c 0.332,0.38 0.787,0.569 1.309,0.569 0.502,0 0.91,-0.152 1.194,-0.436 0.331,-0.322 0.482,-0.758 0.482,-1.298 l 0,-2.985 -0.681,0 z" />
    </g>
  </g>
</svg>
